<svg xmlns="http://www.w3.org/2000/svg" xmlns:xlink="http://www.w3.org/1999/xlink" contentStyleType="text/css" data-diagram-type="DESCRIPTION" height="714px" preserveAspectRatio="none" style="width:1022px;height:714px;background:#FFFFFF;" version="1.1" viewBox="0 0 1022 714" width="1022px" zoomAndPan="magnify"><title>Diagrama de Casos de Uso - Inteligencia Artificial
M&#243;dulo de Recomendaciones y An&#225;lisis con IA</title><defs/><g><g class="title" data-source-line="32"><text fill="#000000" font-family="Verdana" font-size="22" font-weight="bold" lengthAdjust="spacing" textLength="538.1878" x="237.7059" y="38.5181">Diagrama de Casos de Uso - Inteligencia Artificial</text><text fill="#000000" font-family="Verdana" font-size="22" font-weight="bold" lengthAdjust="spacing" textLength="503.4057" x="255.0969" y="68.4822">M&#243;dulo de Recomendaciones y An&#225;lisis con IA</text></g><!--cluster TempoSage System--><g class="cluster" data-entity="TempoSage System" data-source-line="43" data-uid="ent0004" id="cluster_TempoSage System"><rect fill="#FFFFFF" height="479.19" rx="2.5" ry="2.5" style="stroke:#000000;stroke-width:1;" width="531" x="124.86" y="228.8982"/><text fill="#000000" font-family="Verdana" font-size="20" font-weight="bold" lengthAdjust="spacing" textLength="193.4998" x="293.6101" y="252.2782">TempoSage System</text></g><!--cluster recommendations--><g class="cluster" data-entity="recommendations" data-source-line="45" data-uid="ent0005" id="cluster_recommendations"><path d="M151.36,282.8982 L359.8998,282.8982 A3.75,3.75 0 0 1 362.3998,285.3982 L369.3998,316.1382 L629.36,316.1382 A2.5,2.5 0 0 1 631.86,318.6382 L631.86,681.5882 A2.5,2.5 0 0 1 629.36,684.0882 L151.36,684.0882 A2.5,2.5 0 0 1 148.86,681.5882 L148.86,285.3982 A2.5,2.5 0 0 1 151.36,282.8982" fill="#F3E5F5" style="stroke:#7B1FA2;stroke-width:1;"/><line style="stroke:#7B1FA2;stroke-width:1;" x1="148.86" x2="369.3998" y1="316.1382" y2="316.1382"/><text fill="#4A148C" font-family="Verdana" font-size="20" font-weight="bold" lengthAdjust="spacing" textLength="207.5398" x="152.86" y="306.2782">Recomendaciones IA</text><text fill="#4A148C" font-family="Verdana" font-size="20" font-style="italic" lengthAdjust="spacing" textLength="121.4199" x="333.6501" y="339.5182">&#171;Intelligence&#187;</text></g><!--entity UC_GetRecommendations--><g class="entity" data-entity="UC_GetRecommendations" data-source-line="46" data-uid="ent0006" id="entity_UC_GetRecommendations"><ellipse cx="504.8644" cy="410.4904" fill="#E1BEE7" rx="111.1844" ry="54.5922" style="stroke:#8E24AA;stroke-width:1;"/><text fill="#4A148C" font-family="Verdana" font-size="19" font-style="italic" lengthAdjust="spacing" textLength="115.3493" x="447.1898" y="389.2192">&#171;Intelligence&#187;</text><text fill="#4A148C" font-family="Verdana" font-size="19" lengthAdjust="spacing" textLength="74.4042" x="467.6623" y="415.0973">Obtener</text><text fill="#4A148C" font-family="Verdana" font-size="19" lengthAdjust="spacing" textLength="162.7924" x="423.4682" y="440.9754">Recomendaciones</text></g><!--entity UC_SuggestOptimalTime--><g class="entity" data-entity="UC_SuggestOptimalTime" data-source-line="47" data-uid="ent0007" id="entity_UC_SuggestOptimalTime"><ellipse cx="272.8584" cy="611.0758" fill="#E1BEE7" rx="86.6984" ry="50.3476" style="stroke:#8E24AA;stroke-width:1;"/><text fill="#4A148C" font-family="Verdana" font-size="19" font-style="italic" lengthAdjust="spacing" textLength="115.3493" x="215.1837" y="599.1417">&#171;Intelligence&#187;</text><text fill="#4A148C" font-family="Verdana" font-size="19" lengthAdjust="spacing" textLength="137.2374" x="204.2397" y="625.0197">Sugerir Tiempo</text><text fill="#4A148C" font-family="Verdana" font-size="19" lengthAdjust="spacing" textLength="67.5452" x="239.0858" y="650.8978">&#211;ptimo</text></g><!--entity UC_PredictProductivity--><g class="entity" data-entity="UC_PredictProductivity" data-source-line="48" data-uid="ent0008" id="entity_UC_PredictProductivity"><ellipse cx="493.86" cy="611.0734" fill="#E1BEE7" rx="89.07" ry="57.0052" style="stroke:#8E24AA;stroke-width:1;"/><text fill="#4A148C" font-family="Verdana" font-size="19" font-style="italic" lengthAdjust="spacing" textLength="115.3493" x="436.1853" y="593.3645">&#171;Intelligence&#187;</text><text fill="#4A148C" font-family="Verdana" font-size="19" lengthAdjust="spacing" textLength="74.3282" x="456.6959" y="619.2426">Predecir</text><text fill="#4A148C" font-family="Verdana" font-size="19" lengthAdjust="spacing" textLength="123.7283" x="431.9958" y="645.1207">Productividad</text></g><!--entity UC_GenerateBlocks--><g class="entity" data-entity="UC_GenerateBlocks" data-source-line="49" data-uid="ent0009" id="entity_UC_GenerateBlocks"><ellipse cx="261.8556" cy="410.4918" fill="#E1BEE7" rx="97.2456" ry="51.6836" style="stroke:#8E24AA;stroke-width:1;"/><text fill="#4A148C" font-family="Verdana" font-size="19" font-style="italic" lengthAdjust="spacing" textLength="115.3493" x="204.1809" y="394.3666">&#171;Intelligence&#187;</text><text fill="#4A148C" font-family="Verdana" font-size="19" lengthAdjust="spacing" textLength="150.2904" x="186.7104" y="420.2447">Generar Bloques</text><text fill="#4A148C" font-family="Verdana" font-size="19" lengthAdjust="spacing" textLength="112.1383" x="205.7864" y="446.1228">Autom&#225;ticos</text></g><!--entity user--><g class="entity" data-entity="user" data-source-line="37" data-uid="ent0002" id="entity_user"><ellipse cx="504.8651" cy="99.9282" fill="#E3F2FD" rx="8" ry="8" style="stroke:#1976D2;stroke-width:1;"/><path d="M504.8651,107.9282 L504.8651,134.9282 M491.8651,115.9282 L517.8651,115.9282 M504.8651,134.9282 L491.8651,149.9282 M504.8651,134.9282 L517.8651,149.9282" fill="none" style="stroke:#1976D2;stroke-width:1;"/><text fill="#0D47A1" font-family="Verdana" font-size="22" lengthAdjust="spacing" textLength="80.6303" x="464.55" y="175.4463">Usuario</text></g><!--entity ai_system--><g class="entity" data-entity="ai_system" data-source-line="38" data-uid="ent0003" id="entity_ai_system"><ellipse cx="159.8642" cy="99.9282" fill="#E3F2FD" rx="8" ry="8" style="stroke:#1976D2;stroke-width:1;"/><path d="M159.8642,107.9282 L159.8642,134.9282 M146.8642,115.9282 L172.8642,115.9282 M159.8642,134.9282 L146.8642,149.9282 M159.8642,134.9282 L172.8642,149.9282" fill="none" style="stroke:#1976D2;stroke-width:1;"/><text fill="#0D47A1" font-family="Verdana" font-size="22" lengthAdjust="spacing" textLength="140.4485" x="89.64" y="175.4463">Sistema de IA</text></g><g class="entity" data-entity="GMN17" data-source-line="68" data-uid="ent0018" id="entity_GMN17"><path d="M672.12,364.6282 L672.12,406.4882 L616.43,410.4882 L672.12,414.4882 L672.12,456.3481 A0,0 0 0 0 672.12,456.3481 L1015.5996,456.3481 A0,0 0 0 0 1015.5996,456.3481 L1015.5996,374.6282 L1005.5996,364.6282 L672.12,364.6282 A0,0 0 0 0 672.12,364.6282" fill="#FFFFFF" style="stroke:#000000;stroke-width:1;"/><path d="M1005.5996,364.6282 L1005.5996,374.6282 L1015.5996,374.6282 L1005.5996,364.6282" fill="#FFFFFF" style="stroke:#000000;stroke-width:1;"/><text fill="#000000" font-family="Verdana" font-size="20" lengthAdjust="spacing" textLength="299.4796" x="678.12" y="391.0082">An&#225;lisis de patrones del usuario</text><text fill="#000000" font-family="Verdana" font-size="20" lengthAdjust="spacing" textLength="322.4796" x="678.12" y="418.2482">y generaci&#243;n de recomendaciones</text><text fill="#000000" font-family="Verdana" font-size="20" lengthAdjust="spacing" textLength="141.1398" x="678.12" y="445.4881">personalizadas</text></g><!--link user to UC_GetRecommendations--><g class="link" data-entity-1="user" data-entity-2="UC_GetRecommendations" data-source-line="56" data-uid="lnk10" id="link_user_UC_GetRecommendations"><path d="M504.86,182.3382 C504.86,229.8782 504.86,298.8982 504.86,349.5982" fill="none" id="user-to-UC_GetRecommendations" style="stroke:#000000;stroke-width:1;"/><polygon fill="#000000" points="504.86,355.5982,508.86,346.5982,504.86,350.5982,500.86,346.5982,504.86,355.5982" style="stroke:#000000;stroke-width:1;"/></g><!--link ai_system to UC_GetRecommendations--><g class="link" data-entity-1="ai_system" data-entity-2="UC_GetRecommendations" data-source-line="58" data-uid="lnk11" id="link_ai_system_UC_GetRecommendations"><path d="M230.36,152.8882 C275.74,165.4982 334.02,186.8882 376.86,220.8982 C422.89,257.4282 455.8168,309.7176 477.6768,351.6576" fill="none" id="ai_system-to-UC_GetRecommendations" style="stroke:#000000;stroke-width:1;"/><polygon fill="#000000" points="480.45,356.9782,479.8373,347.1484,478.139,352.5443,472.7431,350.8461,480.45,356.9782" style="stroke:#000000;stroke-width:1;"/></g><!--link ai_system to UC_SuggestOptimalTime--><g class="link" data-entity-1="ai_system" data-entity-2="UC_SuggestOptimalTime" data-source-line="59" data-uid="lnk12" id="link_ai_system_UC_SuggestOptimalTime"><path d="M104.93,182.0582 C97.16,191.0582 90.31,201.1082 85.86,211.8982 C32.97,340.1682 11,407.2582 85.86,524.0782 C109.19,560.4882 146.5164,579.8882 185.4364,592.1282" fill="none" id="ai_system-to-UC_SuggestOptimalTime" style="stroke:#000000;stroke-width:1;"/><polygon fill="#000000" points="191.16,593.9282,183.7746,587.4124,186.3903,592.4282,181.3745,595.0439,191.16,593.9282" style="stroke:#000000;stroke-width:1;"/></g><!--link ai_system to UC_PredictProductivity--><g class="link" data-entity-1="ai_system" data-entity-2="UC_PredictProductivity" data-source-line="60" data-uid="lnk13" id="link_ai_system_UC_PredictProductivity"><path d="M142.55,182.2982 C119.57,250.0482 88.29,379.6082 146.86,465.0782 C208.82,555.4882 276.24,510.6082 376.86,554.0782 C392.16,560.6882 402.9681,565.5886 418.3081,572.8586" fill="none" id="ai_system-to-UC_PredictProductivity" style="stroke:#000000;stroke-width:1;"/><polygon fill="#000000" points="423.73,575.4282,417.3102,567.9592,419.2117,573.2869,413.8841,575.1884,423.73,575.4282" style="stroke:#000000;stroke-width:1;"/></g><!--link ai_system to UC_GenerateBlocks--><g class="link" data-entity-1="ai_system" data-entity-2="UC_GenerateBlocks" data-source-line="61" data-uid="lnk14" id="link_ai_system_UC_GenerateBlocks"><path d="M176.7,182.3382 C194.98,231.0882 221.9837,303.11 240.9837,353.79" fill="none" id="ai_system-to-UC_GenerateBlocks" style="stroke:#000000;stroke-width:1;"/><polygon fill="#000000" points="243.09,359.4082,243.6761,349.5768,241.3348,354.7264,236.1852,352.3851,243.09,359.4082" style="stroke:#000000;stroke-width:1;"/></g><!--link UC_GetRecommendations to UC_SuggestOptimalTime--><g class="link" data-entity-1="UC_GetRecommendations" data-entity-2="UC_SuggestOptimalTime" data-source-line="64" data-uid="lnk15" id="link_UC_GetRecommendations_UC_SuggestOptimalTime"><path d="M448.26,457.8382 C433.72,469.8882 418.15,482.8982 403.86,495.0782 C375.65,519.1282 348.9348,542.5237 324.0548,564.5237" fill="none" id="UC_GetRecommendations-to-UC_SuggestOptimalTime" style="stroke:#000000;stroke-width:1;stroke-dasharray:7,7;"/><polygon fill="#000000" points="319.56,568.4982,328.9519,565.533,323.3057,565.1861,323.6525,559.5399,319.56,568.4982" style="stroke:#000000;stroke-width:1;"/><text fill="#000000" font-family="Verdana" font-size="20" lengthAdjust="spacing" textLength="85.3799" x="404.86" y="517.4582">&#171;extend&#187;</text></g><!--link UC_GetRecommendations to UC_PredictProductivity--><g class="link" data-entity-1="UC_GetRecommendations" data-entity-2="UC_PredictProductivity" data-source-line="65" data-uid="lnk16" id="link_UC_GetRecommendations_UC_PredictProductivity"><path d="M501.87,465.4882 C500.36,492.8282 498.8513,519.9974 497.3213,547.6674" fill="none" id="UC_GetRecommendations-to-UC_PredictProductivity" style="stroke:#000000;stroke-width:1;stroke-dasharray:7,7;"/><polygon fill="#000000" points="496.99,553.6582,501.4808,544.8928,497.2661,548.6658,493.493,544.4511,496.99,553.6582" style="stroke:#000000;stroke-width:1;"/><text fill="#000000" font-family="Verdana" font-size="20" lengthAdjust="spacing" textLength="85.3799" x="501.02" y="517.4582">&#171;extend&#187;</text></g><!--SRC=[bLN1Rjf04BtxAwRqqFQG20WfIPGY6J2HfQOWJ2uLKhIn1pEAsNLtrosaobVq2_81FUKJ-B7k6f80XZJimR9ctioycNsx-qwFSOAG9eouuto0bk0ZYZF9Gfe_SkZs1lwb_zrjkt00VKoMvWY1gHH3BQ1oLe6F4KsGAn8S5OpcVnM5J9r1jLmkJ-qddNvotaKu8exGxlbGAvST5R84OSAcEGn-KQJ7cyOnKZpMZgDkYQTCiWdSiF0sbYBZKKiaGiBxJhvM4AOConBT4Lm7T8ScqOepKsYOuREpShhYPAOT-H9NNN6bfYoBSJNfPY3yTi2ivYP1xwXJxRGNFY4Zb4jxvRJ-kLtDxJRjqbfkr-fknRbtYiMt5pW_zxd69A4OUOYDXfd8aNVSETuiMCJLcvMEkq6WYAgvbTf9QvtGSefl9UHLcfvN_p-X4wzQSzst4zAaZLZQn693YbbDjfWIolvSAM7qceVcaSJ0bPf6PFwI8R-SFqPP8YooZw4msesCi7Frpi3byuU452a81GVVjQVYozkNGRkjGRVl1Nl6BLHKkb8PaoHAve3PGSidUq1Auw9DtyszZAxLp1htPnZumS2xTFUCa-R0CnwRePS6E4b5O5KPv1HAIp7adoV1bZQ7QuaNTjHq8Yqk1se3LCjSTZr9hTIzqSXH3lb6pkq9hrhN5wZxwscBIOCiHaaI1cJR6VBvdrJJHEpCQV0nAjsrA9OCpALNpDcJ6658XcbFYYWBDVsaY4KxSreyXVe5h6V5f1UsToQXcOWV6QeXTpCj9lC7JQ5uRGGsIgE92cyNxT_RWxElMlhULxVbTx_jBMchNpWuQEpO3-TPmQ-02fWjcr30R1lgbc9hup6zULCZiaWvMvd0uU6E-d1cTW3ps4RZzU0jnDQZ7IuqWhJl7eZHJY6_N5BcFaYPbldvYZ0ncidl3uEPGPnt-Fnao_MZOo0fIYKuI-YEHKmvnWUsllCF]--></g></svg>