<svg xmlns="http://www.w3.org/2000/svg" xmlns:xlink="http://www.w3.org/1999/xlink" contentStyleType="text/css" data-diagram-type="SEQUENCE" height="1470px" preserveAspectRatio="none" style="width:1347px;height:1470px;background:#FFFFFF;" version="1.1" viewBox="0 0 1347 1470" width="1347px" zoomAndPan="magnify"><title>Diagrama de Secuencia - Gesti&#243;n de Tareas
Creaci&#243;n y Completado de Tareas</title><defs/><g><text fill="#000000" font-family="Verdana" font-size="22" font-weight="bold" lengthAdjust="spacing" textLength="469.6356" x="437.5521" y="38.5181">Diagrama de Secuencia - Gesti&#243;n de Tareas</text><text fill="#000000" font-family="Verdana" font-size="22" font-weight="bold" lengthAdjust="spacing" textLength="365.0912" x="489.8243" y="68.4822">Creaci&#243;n y Completado de Tareas</text><g><title>TasksScreen</title><rect fill="#FFFFFF" height="437.7807" style="stroke:#000000;stroke-width:1;" width="10" x="372.7297" y="271.2862"/></g><g><title>TasksScreen</title><rect fill="#FFFFFF" height="437.7807" style="stroke:#000000;stroke-width:1;" width="10" x="372.7297" y="804.185"/></g><g><title>TaskCubit</title><rect fill="#FFFFFF" height="305.1465" style="stroke:#000000;stroke-width:1;" width="10" x="591.7492" y="311.1643"/></g><g><title>TaskCubit</title><rect fill="#FFFFFF" height="305.1465" style="stroke:#000000;stroke-width:1;" width="10" x="591.7492" y="844.0631"/></g><g><title>TaskRepository</title><rect fill="#FFFFFF" height="119.6342" style="stroke:#000000;stroke-width:1;" width="10" x="960.7552" y="403.9205"/></g><g><title>TaskRepository</title><rect fill="#FFFFFF" height="119.6342" style="stroke:#000000;stroke-width:1;" width="10" x="960.7552" y="883.9412"/></g><g><title>HiveDatabase</title><rect fill="#FFFFFF" height="39.8781" style="stroke:#000000;stroke-width:1;" width="10" x="1262.7099" y="443.7985"/></g><g><title>HiveDatabase</title><rect fill="#FFFFFF" height="39.8781" style="stroke:#000000;stroke-width:1;" width="10" x="1262.7099" y="923.8192"/></g><g><title>Usuario</title><rect fill="#000000" fill-opacity="0.00000" height="1203.861" width="8" x="45.65" y="174.1682"/><line style="stroke:#000000;stroke-width:1;stroke-dasharray:5,5;" x1="49" x2="49" y1="174.1682" y2="1378.0292"/></g><g><title>TasksScreen</title><rect fill="#000000" fill-opacity="0.00000" height="1203.861" width="8" x="373.7297" y="174.1682"/><line style="stroke:#000000;stroke-width:1;stroke-dasharray:5,5;" x1="376.7598" x2="376.7598" y1="174.1682" y2="1378.0292"/></g><g><title>TaskCubit</title><rect fill="#000000" fill-opacity="0.00000" height="1203.861" width="8" x="592.7492" y="174.1682"/><line style="stroke:#000000;stroke-width:1;stroke-dasharray:5,5;" x1="596.6093" x2="596.6093" y1="174.1682" y2="1378.0292"/></g><g><title>TaskRepository</title><rect fill="#000000" fill-opacity="0.00000" height="1203.861" width="8" x="961.7552" y="174.1682"/><line style="stroke:#000000;stroke-width:1;stroke-dasharray:5,5;" x1="965.1352" x2="965.1352" y1="174.1682" y2="1378.0292"/></g><g><title>HiveDatabase</title><rect fill="#000000" fill-opacity="0.00000" height="1203.861" width="8" x="1263.7099" y="174.1682"/><line style="stroke:#000000;stroke-width:1;stroke-dasharray:5,5;" x1="1267.68" x2="1267.68" y1="174.1682" y2="1378.0292"/></g><g class="participant participant-head" data-participant="user"><text fill="#0D47A1" font-family="Verdana" font-size="20" lengthAdjust="spacing" textLength="73.2999" x="10" y="168.3082">Usuario</text><ellipse cx="49.65" cy="94.9282" fill="#E3F2FD" rx="8" ry="8" style="stroke:#1976D2;stroke-width:1;"/><path d="M49.65,102.9282 L49.65,129.9282 M36.65,110.9282 L62.65,110.9282 M49.65,129.9282 L36.65,144.9282 M49.65,129.9282 L62.65,144.9282" fill="none" style="stroke:#1976D2;stroke-width:1;"/></g><g class="participant participant-tail" data-participant="user"><text fill="#0D47A1" font-family="Verdana" font-size="20" lengthAdjust="spacing" textLength="73.2999" x="10" y="1398.4091">Usuario</text><ellipse cx="49.65" cy="1413.2691" fill="#E3F2FD" rx="8" ry="8" style="stroke:#1976D2;stroke-width:1;"/><path d="M49.65,1421.2691 L49.65,1448.2691 M36.65,1429.2691 L62.65,1429.2691 M49.65,1448.2691 L36.65,1463.2691 M49.65,1448.2691 L62.65,1463.2691" fill="none" style="stroke:#1976D2;stroke-width:1;"/></g><g class="participant participant-head" data-participant="screen"><rect fill="#F3E5F5" height="41.24" rx="2.5" ry="2.5" style="stroke:#7B1FA2;stroke-width:1;" width="129.9399" x="312.7598" y="131.9282"/><text fill="#4A148C" font-family="Verdana" font-size="20" lengthAdjust="spacing" textLength="115.9399" x="319.7598" y="160.3082">TasksScreen</text></g><g class="participant participant-tail" data-participant="screen"><rect fill="#F3E5F5" height="41.24" rx="2.5" ry="2.5" style="stroke:#7B1FA2;stroke-width:1;" width="129.9399" x="312.7598" y="1377.0292"/><text fill="#4A148C" font-family="Verdana" font-size="20" lengthAdjust="spacing" textLength="115.9399" x="319.7598" y="1405.4091">TasksScreen</text></g><g class="participant participant-head" data-participant="cubit"><rect fill="#F3E5F5" height="41.24" rx="2.5" ry="2.5" style="stroke:#7B1FA2;stroke-width:1;" width="106.2799" x="543.6093" y="131.9282"/><text fill="#4A148C" font-family="Verdana" font-size="20" lengthAdjust="spacing" textLength="92.2799" x="550.6093" y="160.3082">TaskCubit</text></g><g class="participant participant-tail" data-participant="cubit"><rect fill="#F3E5F5" height="41.24" rx="2.5" ry="2.5" style="stroke:#7B1FA2;stroke-width:1;" width="106.2799" x="543.6093" y="1377.0292"/><text fill="#4A148C" font-family="Verdana" font-size="20" lengthAdjust="spacing" textLength="92.2799" x="550.6093" y="1405.4091">TaskCubit</text></g><g class="participant participant-head" data-participant="repo"><rect fill="#F3E5F5" height="41.24" rx="2.5" ry="2.5" style="stroke:#7B1FA2;stroke-width:1;" width="157.2399" x="887.1352" y="131.9282"/><text fill="#4A148C" font-family="Verdana" font-size="20" lengthAdjust="spacing" textLength="143.2399" x="894.1352" y="160.3082">TaskRepository</text></g><g class="participant participant-tail" data-participant="repo"><rect fill="#F3E5F5" height="41.24" rx="2.5" ry="2.5" style="stroke:#7B1FA2;stroke-width:1;" width="157.2399" x="887.1352" y="1377.0292"/><text fill="#4A148C" font-family="Verdana" font-size="20" lengthAdjust="spacing" textLength="143.2399" x="894.1352" y="1405.4091">TaskRepository</text></g><g class="participant participant-head" data-participant="hive"><text fill="#1B5E20" font-family="Verdana" font-size="20" lengthAdjust="spacing" textLength="130.0598" x="1199.68" y="168.3082">HiveDatabase</text><path d="M1249.7099,110.9282 C1249.7099,100.9282 1267.7099,100.9282 1267.7099,100.9282 C1267.7099,100.9282 1285.7099,100.9282 1285.7099,110.9282 L1285.7099,136.9282 C1285.7099,146.9282 1267.7099,146.9282 1267.7099,146.9282 C1267.7099,146.9282 1249.7099,146.9282 1249.7099,136.9282 L1249.7099,110.9282" fill="#E8F5E8" style="stroke:#388E3C;stroke-width:1;"/><path d="M1249.7099,110.9282 C1249.7099,120.9282 1267.7099,120.9282 1267.7099,120.9282 C1267.7099,120.9282 1285.7099,120.9282 1285.7099,110.9282" fill="none" style="stroke:#388E3C;stroke-width:1;"/></g><g class="participant participant-tail" data-participant="hive"><text fill="#1B5E20" font-family="Verdana" font-size="20" lengthAdjust="spacing" textLength="130.0598" x="1199.68" y="1398.4091">HiveDatabase</text><path d="M1249.7099,1414.2691 C1249.7099,1404.2691 1267.7099,1404.2691 1267.7099,1404.2691 C1267.7099,1404.2691 1285.7099,1404.2691 1285.7099,1414.2691 L1285.7099,1440.2691 C1285.7099,1450.2691 1267.7099,1450.2691 1267.7099,1450.2691 C1267.7099,1450.2691 1249.7099,1450.2691 1249.7099,1440.2691 L1249.7099,1414.2691" fill="#E8F5E8" style="stroke:#388E3C;stroke-width:1;"/><path d="M1249.7099,1414.2691 C1249.7099,1424.2691 1267.7099,1424.2691 1267.7099,1424.2691 C1267.7099,1424.2691 1285.7099,1424.2691 1285.7099,1414.2691" fill="none" style="stroke:#388E3C;stroke-width:1;"/></g><g><title>TasksScreen</title><rect fill="#FFFFFF" height="437.7807" style="stroke:#000000;stroke-width:1;" width="10" x="372.7297" y="271.2862"/></g><g><title>TasksScreen</title><rect fill="#FFFFFF" height="437.7807" style="stroke:#000000;stroke-width:1;" width="10" x="372.7297" y="804.185"/></g><g><title>TaskCubit</title><rect fill="#FFFFFF" height="305.1465" style="stroke:#000000;stroke-width:1;" width="10" x="591.7492" y="311.1643"/></g><g><title>TaskCubit</title><rect fill="#FFFFFF" height="305.1465" style="stroke:#000000;stroke-width:1;" width="10" x="591.7492" y="844.0631"/></g><g><title>TaskRepository</title><rect fill="#FFFFFF" height="119.6342" style="stroke:#000000;stroke-width:1;" width="10" x="960.7552" y="403.9205"/></g><g><title>TaskRepository</title><rect fill="#FFFFFF" height="119.6342" style="stroke:#000000;stroke-width:1;" width="10" x="960.7552" y="883.9412"/></g><g><title>HiveDatabase</title><rect fill="#FFFFFF" height="39.8781" style="stroke:#000000;stroke-width:1;" width="10" x="1262.7099" y="443.7985"/></g><g><title>HiveDatabase</title><rect fill="#FFFFFF" height="39.8781" style="stroke:#000000;stroke-width:1;" width="10" x="1262.7099" y="923.8192"/></g><rect fill="#FFFFFF" height="3" style="stroke:#FFFFFF;stroke-width:1;" width="1335.7399" x="5" y="210.7882"/><line style="stroke:#000000;stroke-width:0.5;" x1="5" x2="1340.7399" y1="210.7882" y2="210.7882"/><line style="stroke:#000000;stroke-width:0.5;" x1="5" x2="1340.7399" y1="213.7882" y2="213.7882"/><rect fill="#FFFFFF" height="35.24" style="stroke:#000000;stroke-width:1;" width="205.2198" x="570.26" y="194.1682"/><text fill="#000000" font-family="Verdana" font-size="20" font-weight="bold" lengthAdjust="spacing" textLength="186.0198" x="576.26" y="219.5482">Crear Nueva Tarea</text><g class="message" data-participant-1="user" data-participant-2="screen"><polygon fill="#000000" points="360.7297,267.2862,370.7297,271.2862,360.7297,275.2862,364.7297,271.2862" style="stroke:#000000;stroke-width:1;"/><line style="stroke:#000000;stroke-width:1;" x1="49.65" x2="366.7297" y1="271.2862" y2="271.2862"/><text fill="#000000" font-family="Verdana" font-size="19" lengthAdjust="spacing" textLength="181.3175" x="120.5311" y="263.7192">Tap "Agregar Tarea"</text></g><g class="message" data-participant-1="screen" data-participant-2="cubit"><polygon fill="#000000" points="579.7492,307.1643,589.7492,311.1643,579.7492,315.1643,583.7492,311.1643" style="stroke:#000000;stroke-width:1;"/><line style="stroke:#000000;stroke-width:1;" x1="382.7297" x2="585.7492" y1="311.1643" y2="311.1643"/><text fill="#000000" font-family="Verdana" font-size="19" lengthAdjust="spacing" textLength="186.5995" x="393.9397" y="303.5973">createTask(taskData)</text></g><g class="message" data-participant-1="cubit" data-participant-2="cubit"><line style="stroke:#000000;stroke-width:1;" x1="601.7492" x2="643.7492" y1="351.0424" y2="351.0424"/><line style="stroke:#000000;stroke-width:1;" x1="643.7492" x2="643.7492" y1="351.0424" y2="364.0424"/><line style="stroke:#000000;stroke-width:1;" x1="602.7492" x2="643.7492" y1="364.0424" y2="364.0424"/><polygon fill="#000000" points="612.7492,360.0424,602.7492,364.0424,612.7492,368.0424,608.7492,364.0424" style="stroke:#000000;stroke-width:1;"/><text fill="#000000" font-family="Verdana" font-size="19" lengthAdjust="spacing" textLength="116.7933" x="608.7492" y="343.4754">Validar datos</text></g><g class="message" data-participant-1="cubit" data-participant-2="repo"><polygon fill="#000000" points="948.7552,399.9205,958.7552,403.9205,948.7552,407.9205,952.7552,403.9205" style="stroke:#000000;stroke-width:1;"/><line style="stroke:#000000;stroke-width:1;" x1="601.7492" x2="954.7552" y1="403.9205" y2="403.9205"/><text fill="#000000" font-family="Verdana" font-size="19" lengthAdjust="spacing" textLength="122.6643" x="719.92" y="396.3534">addTask(task)</text></g><g class="message" data-participant-1="repo" data-participant-2="hive"><polygon fill="#000000" points="1250.7099,439.7985,1260.7099,443.7985,1250.7099,447.7985,1254.7099,443.7985" style="stroke:#000000;stroke-width:1;"/><line style="stroke:#000000;stroke-width:1;" x1="970.7552" x2="1256.7099" y1="443.7985" y2="443.7985"/><text fill="#000000" font-family="Verdana" font-size="19" lengthAdjust="spacing" textLength="184.7945" x="1024.3353" y="436.2315">saveTask(taskModel)</text></g><g class="message" data-participant-1="hive" data-participant-2="repo"><polygon fill="#000000" points="981.7552,479.6766,971.7552,483.6766,981.7552,487.6766,977.7552,483.6766" style="stroke:#000000;stroke-width:1;"/><line style="stroke:#000000;stroke-width:1;stroke-dasharray:2,2;" x1="975.7552" x2="1266.7099" y1="483.6766" y2="483.6766"/><text fill="#000000" font-family="Verdana" font-size="19" lengthAdjust="spacing" textLength="89.9082" x="1074.2784" y="476.1096">taskSaved</text></g><g class="message" data-participant-1="repo" data-participant-2="cubit"><polygon fill="#000000" points="612.7492,519.5547,602.7492,523.5547,612.7492,527.5547,608.7492,523.5547" style="stroke:#000000;stroke-width:1;"/><line style="stroke:#000000;stroke-width:1;stroke-dasharray:2,2;" x1="606.7492" x2="964.7552" y1="523.5547" y2="523.5547"/><text fill="#000000" font-family="Verdana" font-size="19" lengthAdjust="spacing" textLength="107.2553" x="730.1245" y="515.9877">taskCreated</text></g><g class="message" data-participant-1="cubit" data-participant-2="cubit"><line style="stroke:#000000;stroke-width:1;" x1="601.7492" x2="643.7492" y1="563.4328" y2="563.4328"/><line style="stroke:#000000;stroke-width:1;" x1="643.7492" x2="643.7492" y1="563.4328" y2="576.4328"/><line style="stroke:#000000;stroke-width:1;" x1="602.7492" x2="643.7492" y1="576.4328" y2="576.4328"/><polygon fill="#000000" points="612.7492,572.4328,602.7492,576.4328,612.7492,580.4328,608.7492,576.4328" style="stroke:#000000;stroke-width:1;"/><text fill="#000000" font-family="Verdana" font-size="19" lengthAdjust="spacing" textLength="203.8705" x="608.7492" y="555.8657">emit(TaskState.loaded)</text></g><g class="message" data-participant-1="cubit" data-participant-2="screen"><polygon fill="#000000" points="393.7297,612.3108,383.7297,616.3108,393.7297,620.3108,389.7297,616.3108" style="stroke:#000000;stroke-width:1;"/><line style="stroke:#000000;stroke-width:1;stroke-dasharray:2,2;" x1="387.7297" x2="595.7492" y1="616.3108" y2="616.3108"/><text fill="#000000" font-family="Verdana" font-size="19" lengthAdjust="spacing" textLength="166.1175" x="406.6807" y="608.7438">TaskState.updated</text></g><g class="message" data-participant-1="screen" data-participant-2="screen"><line style="stroke:#000000;stroke-width:1;" x1="382.7297" x2="424.7297" y1="656.1889" y2="656.1889"/><line style="stroke:#000000;stroke-width:1;" x1="424.7297" x2="424.7297" y1="656.1889" y2="669.1889"/><line style="stroke:#000000;stroke-width:1;" x1="383.7297" x2="424.7297" y1="669.1889" y2="669.1889"/><polygon fill="#000000" points="393.7297,665.1889,383.7297,669.1889,393.7297,673.1889,389.7297,669.1889" style="stroke:#000000;stroke-width:1;"/><text fill="#000000" font-family="Verdana" font-size="19" lengthAdjust="spacing" textLength="118.0093" x="389.7297" y="648.6219">actualizarUI()</text></g><g class="message" data-participant-1="screen" data-participant-2="user"><polygon fill="#000000" points="60.65,705.067,50.65,709.067,60.65,713.067,56.65,709.067" style="stroke:#000000;stroke-width:1;"/><line style="stroke:#000000;stroke-width:1;stroke-dasharray:2,2;" x1="54.65" x2="376.7297" y1="709.067" y2="709.067"/><text fill="#000000" font-family="Verdana" font-size="19" lengthAdjust="spacing" textLength="218.4436" x="104.468" y="701.5">Tarea agregada a la lista</text></g><rect fill="#FFFFFF" height="3" style="stroke:#FFFFFF;stroke-width:1;" width="1335.7399" x="5" y="743.687"/><line style="stroke:#000000;stroke-width:0.5;" x1="5" x2="1340.7399" y1="743.687" y2="743.687"/><line style="stroke:#000000;stroke-width:0.5;" x1="5" x2="1340.7399" y1="746.687" y2="746.687"/><rect fill="#FFFFFF" height="35.24" style="stroke:#000000;stroke-width:1;" width="185.7598" x="579.99" y="727.067"/><text fill="#000000" font-family="Verdana" font-size="20" font-weight="bold" lengthAdjust="spacing" textLength="166.5598" x="585.99" y="752.447">Completar Tarea</text><g class="message" data-participant-1="user" data-participant-2="screen"><polygon fill="#000000" points="360.7297,800.185,370.7297,804.185,360.7297,808.185,364.7297,804.185" style="stroke:#000000;stroke-width:1;"/><line style="stroke:#000000;stroke-width:1;" x1="49.65" x2="366.7297" y1="804.185" y2="804.185"/><text fill="#000000" font-family="Verdana" font-size="19" lengthAdjust="spacing" textLength="200.9445" x="110.7176" y="796.618">Tap checkbox de tarea</text></g><g class="message" data-participant-1="screen" data-participant-2="cubit"><polygon fill="#000000" points="579.7492,840.0631,589.7492,844.0631,579.7492,848.0631,583.7492,844.0631" style="stroke:#000000;stroke-width:1;"/><line style="stroke:#000000;stroke-width:1;" x1="382.7297" x2="585.7492" y1="844.0631" y2="844.0631"/><text fill="#000000" font-family="Verdana" font-size="19" lengthAdjust="spacing" textLength="190.0195" x="392.2297" y="836.4961">completeTask(taskId)</text></g><g class="message" data-participant-1="cubit" data-participant-2="repo"><polygon fill="#000000" points="948.7552,879.9412,958.7552,883.9412,948.7552,887.9412,952.7552,883.9412" style="stroke:#000000;stroke-width:1;"/><line style="stroke:#000000;stroke-width:1;" x1="601.7492" x2="954.7552" y1="883.9412" y2="883.9412"/><text fill="#000000" font-family="Verdana" font-size="19" lengthAdjust="spacing" textLength="340.006" x="611.2492" y="876.3742">updateTask(taskId, isCompleted=true)</text></g><g class="message" data-participant-1="repo" data-participant-2="hive"><polygon fill="#000000" points="1250.7099,919.8192,1260.7099,923.8192,1250.7099,927.8192,1254.7099,923.8192" style="stroke:#000000;stroke-width:1;"/><line style="stroke:#000000;stroke-width:1;" x1="970.7552" x2="1256.7099" y1="923.8192" y2="923.8192"/><text fill="#000000" font-family="Verdana" font-size="19" lengthAdjust="spacing" textLength="272.9548" x="980.2552" y="916.2522">updateTaskStatus(taskId, true)</text></g><g class="message" data-participant-1="hive" data-participant-2="repo"><polygon fill="#000000" points="981.7552,959.6973,971.7552,963.6973,981.7552,967.6973,977.7552,963.6973" style="stroke:#000000;stroke-width:1;"/><line style="stroke:#000000;stroke-width:1;stroke-dasharray:2,2;" x1="975.7552" x2="1266.7099" y1="963.6973" y2="963.6973"/><text fill="#000000" font-family="Verdana" font-size="19" lengthAdjust="spacing" textLength="75.0312" x="1081.7169" y="956.1303">updated</text></g><g class="message" data-participant-1="repo" data-participant-2="cubit"><polygon fill="#000000" points="612.7492,999.5754,602.7492,1003.5754,612.7492,1007.5754,608.7492,1003.5754" style="stroke:#000000;stroke-width:1;"/><line style="stroke:#000000;stroke-width:1;stroke-dasharray:2,2;" x1="606.7492" x2="964.7552" y1="1003.5754" y2="1003.5754"/><text fill="#000000" font-family="Verdana" font-size="19" lengthAdjust="spacing" textLength="113.9433" x="726.7805" y="996.0084">taskUpdated</text></g><g class="message" data-participant-1="cubit" data-participant-2="cubit"><line style="stroke:#000000;stroke-width:1;" x1="601.7492" x2="643.7492" y1="1043.4535" y2="1043.4535"/><line style="stroke:#000000;stroke-width:1;" x1="643.7492" x2="643.7492" y1="1043.4535" y2="1056.4535"/><line style="stroke:#000000;stroke-width:1;" x1="602.7492" x2="643.7492" y1="1056.4535" y2="1056.4535"/><polygon fill="#000000" points="612.7492,1052.4535,602.7492,1056.4535,612.7492,1060.4535,608.7492,1056.4535" style="stroke:#000000;stroke-width:1;"/><text fill="#000000" font-family="Verdana" font-size="19" lengthAdjust="spacing" textLength="215.7075" x="608.7492" y="1035.8865">calcularProgresoDiario()</text></g><g class="message" data-participant-1="cubit" data-participant-2="cubit"><line style="stroke:#000000;stroke-width:1;" x1="601.7492" x2="643.7492" y1="1096.3315" y2="1096.3315"/><line style="stroke:#000000;stroke-width:1;" x1="643.7492" x2="643.7492" y1="1096.3315" y2="1109.3315"/><line style="stroke:#000000;stroke-width:1;" x1="602.7492" x2="643.7492" y1="1109.3315" y2="1109.3315"/><polygon fill="#000000" points="612.7492,1105.3315,602.7492,1109.3315,612.7492,1113.3315,608.7492,1109.3315" style="stroke:#000000;stroke-width:1;"/><text fill="#000000" font-family="Verdana" font-size="19" lengthAdjust="spacing" textLength="217.7596" x="608.7492" y="1088.7645">emit(TaskState.updated)</text></g><g class="message" data-participant-1="cubit" data-participant-2="screen"><polygon fill="#000000" points="393.7297,1145.2096,383.7297,1149.2096,393.7297,1153.2096,389.7297,1149.2096" style="stroke:#000000;stroke-width:1;"/><line style="stroke:#000000;stroke-width:1;stroke-dasharray:2,2;" x1="387.7297" x2="595.7492" y1="1149.2096" y2="1149.2096"/><text fill="#000000" font-family="Verdana" font-size="19" lengthAdjust="spacing" textLength="166.1175" x="406.6807" y="1141.6426">TaskState.updated</text></g><g class="message" data-participant-1="screen" data-participant-2="screen"><line style="stroke:#000000;stroke-width:1;" x1="382.7297" x2="424.7297" y1="1189.0877" y2="1189.0877"/><line style="stroke:#000000;stroke-width:1;" x1="424.7297" x2="424.7297" y1="1189.0877" y2="1202.0877"/><line style="stroke:#000000;stroke-width:1;" x1="383.7297" x2="424.7297" y1="1202.0877" y2="1202.0877"/><polygon fill="#000000" points="393.7297,1198.0877,383.7297,1202.0877,393.7297,1206.0877,389.7297,1202.0877" style="stroke:#000000;stroke-width:1;"/><text fill="#000000" font-family="Verdana" font-size="19" lengthAdjust="spacing" textLength="118.0093" x="389.7297" y="1181.5207">actualizarUI()</text></g><g class="message" data-participant-1="screen" data-participant-2="user"><polygon fill="#000000" points="60.65,1237.9658,50.65,1241.9658,60.65,1245.9658,56.65,1241.9658" style="stroke:#000000;stroke-width:1;"/><line style="stroke:#000000;stroke-width:1;stroke-dasharray:2,2;" x1="54.65" x2="376.7297" y1="1241.9658" y2="1241.9658"/><text fill="#000000" font-family="Verdana" font-size="19" lengthAdjust="spacing" textLength="299.0797" x="64.15" y="1234.3988">Tarea marcada como completada</text></g><path d="M601,1254.9658 L601,1362.9658 L822,1362.9658 L822,1264.9658 L812,1254.9658 L601,1254.9658" fill="#FFFFFF" style="stroke:#000000;stroke-width:1;"/><path d="M812,1254.9658 L812,1264.9658 L822,1264.9658 L812,1254.9658" fill="#FFFFFF" style="stroke:#000000;stroke-width:1;"/><text fill="#000000" font-family="Verdana" font-size="18" lengthAdjust="spacing" textLength="80.5315" x="607" y="1279.2077">Actualiza:</text><text fill="#000000" font-family="Verdana" font-size="18" lengthAdjust="spacing" textLength="200.3027" x="607" y="1303.7235">- Estado de completitud</text><text fill="#000000" font-family="Verdana" font-size="18" lengthAdjust="spacing" textLength="141.3172" x="607" y="1328.2393">- Progreso diario</text><text fill="#000000" font-family="Verdana" font-size="18" lengthAdjust="spacing" textLength="108.5393" x="607" y="1352.7552">- Estad&#237;sticas</text><!--SRC=[lLRRRkCs47tdLyow3us1fl0bJhm6Ka2HfTR5PcFOJX-AlZ3Ys2OYYof9PRDRz9Fwr4_O7-kGbYtvjjcqG0L34eTdvb1dZcI-iKjS8UGfbnbZtqAeihbS59edylFV6ToDPwFRqQ_1C81pc61QXWK2DpacLa5dq8Kp8LUO6QaoD33__9UH2JS3Q5-sMi-TYrOhVswoDmBdCaCOZaT08MOIdYAi-BE7mGSfxB8MT6cmHBbOMiRCeynohlaA7dZokD2go4IeKgNXczWVDGJHy2AriShiL7v2wBHgatIsCf4vpqu03FvUO9RWBHh35nYaSf51Wfb5VGGLQAq-R0krtnw1J72EsjrKi7uDbYcxC-CxG0z6EZe02EdJBOsjp9LnoYTgbPFIBbYhnAaP6lvWGCVDlafHD-x4m_MSqW9r6M-_lReSTdpShQACjeONLq6R_ScEAtUA9Ev6lRXtI79rquw30vABe7tH3tT94fhMAZr941D5wv0Wxbs5hTO-GNJPQrDqXq1mon-umPCwzUDUr3zawFRxKJVSPsZVzAAEPx3Iac-7aY-8XRicJJ5n_PUStfiVqTZDQpFZ6hdvBGlfidwNFbB7LtcAbWjL8PmJhh_-8FGucCn6uMWSl9z5qrTchytJk3S5rr8rwEM6mf3bwrrlpBXvDDD48sOUOVpj8IOi7gJrYCJT7G8cI4wMnFZHepGDsROpZP_a4mxBaPzVKk3rSiJlxd- -WpR97qwYO0ApW2wlh79z3QvF6juN-CJNdQ42Z3bnuFo7KW8Oq5GEZM2XSK5eZsiuKUKJjxWHYfLeolF2K1e52E0qERDqSe_ThFBMyh4rk9Rr2q-b81xIJ9bgskb8iro8RS5QCQyoynZ2Eaq9Q_XJnNwh1AQr3A-x1vvNrHrmIbc22Tn5bhLhwtJOq3_X3dgzaeEdmfMqPsunKqkexrF51Ohc1hShzWPKv6A_UYbQfVKsZI05AVU9w_lHMNEB88Xlvw3iB_TT57G3AVsaiRnUVzFCV-V7ZlFZtUtuNJJx3vuilnVw9KScIqmU7zIp-wnO1_qgJwwhLxuOYIzuihJ5kX6rbEz0cdATAAwjBl0bBrObN6yBiosqbtpKbaUCy0LJtX-YJvYIzYD9aN8zrefiOHHzuka3UTPyqRxbWfhi_pVmYkl4-PSQgJRTfF4n4xlj1sYtoG8rBva1WWtFW0Rd49dDNrDPJDf2-9cDAhHDSR9KQDe2MhS7P9W9lyTX_m00]--></g></svg>