<svg xmlns="http://www.w3.org/2000/svg" xmlns:xlink="http://www.w3.org/1999/xlink" contentStyleType="text/css" data-diagram-type="CLASS" height="933px" preserveAspectRatio="none" style="width:2802px;height:933px;background:#FFFFFF;" version="1.1" viewBox="0 0 2802 933" width="2802px" zoomAndPan="magnify"><title>Diagrama Entidad-Relaci&#243;n - Configuraci&#243;n y An&#225;lisis
M&#243;dulo: Entidades de Configuraci&#243;n y Analytics</title><defs/><g><g class="title" data-source-line="42"><text fill="#000000" font-family="Verdana" font-size="22" font-weight="bold" lengthAdjust="spacing" textLength="578.624" x="1107.2029" y="38.5181">Diagrama Entidad-Relaci&#243;n - Configuraci&#243;n y An&#225;lisis</text><text fill="#000000" font-family="Verdana" font-size="22" font-weight="bold" lengthAdjust="spacing" textLength="520.1038" x="1136.463" y="68.4822">M&#243;dulo: Entidades de Configuraci&#243;n y Analytics</text></g><!--class User--><g class="entity" data-entity="User" data-source-line="47" data-uid="ent0002" id="entity_User"><rect fill="#E3F2FD" height="175.8192" rx="2.5" ry="2.5" style="stroke:#1976D2;stroke-width:1;" width="314.8422" x="1085.91" y="216.4082"/><ellipse cx="1199.8311" cy="247.2861" fill="#FFFFFF" rx="9" ry="9" style="stroke:#000000;stroke-width:1;"/><path d="M1199.3468,254.4892 Q1197.2843,254.4892 1195.9561,253.6142 Q1194.628,252.7392 1193.9718,251.1611 Q1193.3311,249.5674 1193.3311,247.4424 Q1193.3311,245.0674 1194.0968,243.3642 Q1194.878,241.6455 1196.378,240.7236 Q1197.8936,239.8017 1200.0968,239.8017 Q1201.128,239.8017 1201.9093,240.0205 Q1202.7061,240.2236 1203.5343,240.6299 L1202.5655,243.0049 Q1201.8311,242.6299 1201.1905,242.4892 Q1200.5655,242.3486 1199.9874,242.3486 Q1198.6124,242.3486 1197.7843,242.9736 Q1196.9718,243.583 1196.6124,244.708 Q1196.2686,245.833 1196.2686,247.333 Q1196.2686,249.6924 1197.1124,250.8174 Q1197.9561,251.9424 1199.8311,251.9424 Q1200.5343,251.9424 1201.253,251.7705 Q1201.9874,251.583 1202.9718,251.1455 L1202.9718,253.7392 Q1202.1124,254.1299 1201.1749,254.3017 Q1200.253,254.4892 1199.3468,254.4892 Z " fill="#000000"/><text fill="#000000" font-family="Verdana" font-size="20" font-style="italic" lengthAdjust="spacing" textLength="83.4999" x="1215.3311" y="242.7882">&#171;Central&#187;</text><text fill="#0D47A1" font-family="Verdana" font-size="18" lengthAdjust="spacing" textLength="39.3658" x="1237.3982" y="267.8901">User</text><line style="stroke:#1976D2;stroke-width:1;" x1="1086.91" x2="1399.7522" y1="278.164" y2="278.164"/><text fill="#000000" font-family="Verdana" font-size="18" font-weight="bold" lengthAdjust="spacing" textLength="187.8288" x="1108.59" y="301.4059">Atributos Principales</text><ellipse cx="1096.91" cy="320.4378" fill="none" rx="3" ry="3" style="stroke:#000000;stroke-width:1;"/><text fill="#000000" font-family="Verdana" font-size="18" lengthAdjust="spacing" textLength="114.4253" x="1103.91" y="325.9218">id: String [PK]</text><line style="stroke:#1976D2;stroke-width:1;" x1="1086.91" x2="1399.7522" y1="335.1957" y2="335.1957"/><ellipse cx="1096.91" cy="352.9536" fill="none" rx="3" ry="3" style="stroke:#000000;stroke-width:1;"/><text fill="#000000" font-family="Verdana" font-size="18" lengthAdjust="spacing" textLength="290.8422" x="1103.91" y="358.4376">email: String [NOT NULL, UNIQUE]</text><ellipse cx="1096.91" cy="377.4695" fill="none" rx="3" ry="3" style="stroke:#000000;stroke-width:1;"/><text fill="#000000" font-family="Verdana" font-size="18" lengthAdjust="spacing" textLength="213.0107" x="1103.91" y="382.9534">name: String [NOT NULL]</text></g><!--class Settings--><g class="entity" data-entity="Settings" data-source-line="55" data-uid="ent0003" id="entity_Settings"><rect fill="#F3E5F5" height="298.3984" rx="2.5" ry="2.5" style="stroke:#7B1FA2;stroke-width:1;" width="438.3214" x="799.17" y="464.4782"/><ellipse cx="978.2008" cy="495.3561" fill="#FFFFFF" rx="9" ry="9" style="stroke:#000000;stroke-width:1;"/><path d="M977.7164,502.5592 Q975.6539,502.5592 974.3258,501.6842 Q972.9976,500.8092 972.3414,499.2311 Q971.7008,497.6374 971.7008,495.5124 Q971.7008,493.1374 972.4664,491.4342 Q973.2476,489.7155 974.7476,488.7936 Q976.2633,487.8717 978.4664,487.8717 Q979.4976,487.8717 980.2789,488.0905 Q981.0758,488.2936 981.9039,488.6999 L980.9351,491.0749 Q980.2008,490.6999 979.5601,490.5592 Q978.9351,490.4186 978.357,490.4186 Q976.982,490.4186 976.1539,491.0436 Q975.3414,491.653 974.982,492.778 Q974.6383,493.903 974.6383,495.403 Q974.6383,497.7624 975.482,498.8874 Q976.3258,500.0124 978.2008,500.0124 Q978.9039,500.0124 979.6226,499.8405 Q980.357,499.653 981.3414,499.2155 L981.3414,501.8092 Q980.482,502.1999 979.5445,502.3717 Q978.6226,502.5592 977.7164,502.5592 Z " fill="#000000"/><text fill="#000000" font-family="Verdana" font-size="20" font-style="italic" lengthAdjust="spacing" textLength="76.7599" x="993.7008" y="490.8582">&#171;Config&#187;</text><text fill="#4A148C" font-family="Verdana" font-size="18" lengthAdjust="spacing" textLength="68.4896" x="997.8359" y="515.9601">Settings</text><line style="stroke:#7B1FA2;stroke-width:1;" x1="800.17" x2="1236.4914" y1="526.234" y2="526.234"/><text fill="#000000" font-family="Verdana" font-size="18" font-weight="bold" lengthAdjust="spacing" textLength="187.8288" x="821.85" y="549.4759">Atributos Principales</text><ellipse cx="810.17" cy="568.5078" fill="none" rx="3" ry="3" style="stroke:#000000;stroke-width:1;"/><text fill="#000000" font-family="Verdana" font-size="18" lengthAdjust="spacing" textLength="114.4253" x="817.17" y="573.9918">id: String [PK]</text><ellipse cx="810.17" cy="593.0236" fill="none" rx="3" ry="3" style="stroke:#000000;stroke-width:1;"/><text fill="#000000" font-family="Verdana" font-size="18" lengthAdjust="spacing" textLength="414.3214" x="817.17" y="598.5076">userId: String [FK -&gt; User.id, NOT NULL, UNIQUE]</text><line style="stroke:#7B1FA2;stroke-width:1;" x1="800.17" x2="1236.4914" y1="607.7816" y2="607.7816"/><ellipse cx="810.17" cy="625.5395" fill="none" rx="3" ry="3" style="stroke:#000000;stroke-width:1;"/><text fill="#000000" font-family="Verdana" font-size="18" lengthAdjust="spacing" textLength="219.5627" x="817.17" y="631.0234">theme: String [NOT NULL]</text><ellipse cx="810.17" cy="650.0553" fill="none" rx="3" ry="3" style="stroke:#000000;stroke-width:1;"/><text fill="#000000" font-family="Verdana" font-size="18" lengthAdjust="spacing" textLength="244.1865" x="817.17" y="655.5393">language: String [NOT NULL]</text><ellipse cx="810.17" cy="674.5712" fill="none" rx="3" ry="3" style="stroke:#000000;stroke-width:1;"/><text fill="#000000" font-family="Verdana" font-size="18" lengthAdjust="spacing" textLength="352.6718" x="817.17" y="680.0551">notificationsEnabled: bool [DEFAULT true]</text><ellipse cx="810.17" cy="699.087" fill="none" rx="3" ry="3" style="stroke:#000000;stroke-width:1;"/><text fill="#000000" font-family="Verdana" font-size="18" lengthAdjust="spacing" textLength="300.9941" x="817.17" y="704.571">soundEnabled: bool [DEFAULT true]</text><ellipse cx="810.17" cy="723.6029" fill="none" rx="3" ry="3" style="stroke:#000000;stroke-width:1;"/><text fill="#000000" font-family="Verdana" font-size="18" lengthAdjust="spacing" textLength="286.4502" x="817.17" y="729.0868">defaultFocusTime: int [NOT NULL]</text><ellipse cx="810.17" cy="748.1187" fill="none" rx="3" ry="3" style="stroke:#000000;stroke-width:1;"/><text fill="#000000" font-family="Verdana" font-size="18" lengthAdjust="spacing" textLength="281.6983" x="817.17" y="753.6027">weekStartDay: String [NOT NULL]</text></g><!--class Notification--><g class="entity" data-entity="Notification" data-source-line="68" data-uid="ent0004" id="entity_Notification"><rect fill="#F3E5F5" height="322.9143" rx="2.5" ry="2.5" style="stroke:#7B1FA2;stroke-width:1;" width="358.654" x="406" y="452.2282"/><ellipse cx="532.3563" cy="483.1061" fill="#FFFFFF" rx="9" ry="9" style="stroke:#000000;stroke-width:1;"/><path d="M531.8719,490.3092 Q529.8094,490.3092 528.4813,489.4342 Q527.1532,488.5592 526.4969,486.9811 Q525.8563,485.3874 525.8563,483.2624 Q525.8563,480.8874 526.6219,479.1842 Q527.4032,477.4655 528.9032,476.5436 Q530.4188,475.6217 532.6219,475.6217 Q533.6532,475.6217 534.4344,475.8405 Q535.2313,476.0436 536.0594,476.4499 L535.0907,478.8249 Q534.3563,478.4499 533.7157,478.3092 Q533.0907,478.1686 532.5125,478.1686 Q531.1375,478.1686 530.3094,478.7936 Q529.4969,479.403 529.1375,480.528 Q528.7938,481.653 528.7938,483.153 Q528.7938,485.5124 529.6375,486.6374 Q530.4813,487.7624 532.3563,487.7624 Q533.0594,487.7624 533.7782,487.5905 Q534.5125,487.403 535.4969,486.9655 L535.4969,489.5592 Q534.6375,489.9499 533.7,490.1217 Q532.7782,490.3092 531.8719,490.3092 Z " fill="#000000"/><text fill="#000000" font-family="Verdana" font-size="20" font-style="italic" lengthAdjust="spacing" textLength="76.7599" x="560.697" y="478.6082">&#171;Config&#187;</text><text fill="#4A148C" font-family="Verdana" font-size="18" lengthAdjust="spacing" textLength="98.4414" x="549.8563" y="503.7101">Notification</text><line style="stroke:#7B1FA2;stroke-width:1;" x1="407" x2="763.654" y1="513.984" y2="513.984"/><text fill="#000000" font-family="Verdana" font-size="18" font-weight="bold" lengthAdjust="spacing" textLength="187.8288" x="428.68" y="537.2259">Atributos Principales</text><ellipse cx="417" cy="556.2578" fill="none" rx="3" ry="3" style="stroke:#000000;stroke-width:1;"/><text fill="#000000" font-family="Verdana" font-size="18" lengthAdjust="spacing" textLength="114.4253" x="424" y="561.7418">id: String [PK]</text><ellipse cx="417" cy="580.7736" fill="none" rx="3" ry="3" style="stroke:#000000;stroke-width:1;"/><text fill="#000000" font-family="Verdana" font-size="18" lengthAdjust="spacing" textLength="334.654" x="424" y="586.2576">userId: String [FK -&gt; User.id, NOT NULL]</text><ellipse cx="417" cy="605.2895" fill="none" rx="3" ry="3" style="stroke:#000000;stroke-width:1;"/><text fill="#000000" font-family="Verdana" font-size="18" lengthAdjust="spacing" textLength="257.2184" x="424" y="610.7734">habitId: String? [FK -&gt; Habit.id]</text><ellipse cx="417" cy="629.8053" fill="none" rx="3" ry="3" style="stroke:#000000;stroke-width:1;"/><text fill="#000000" font-family="Verdana" font-size="18" lengthAdjust="spacing" textLength="288.2322" x="424" y="635.2893">activityId: String? [FK -&gt; Activity.id]</text><line style="stroke:#7B1FA2;stroke-width:1;" x1="407" x2="763.654" y1="644.5633" y2="644.5633"/><ellipse cx="417" cy="662.3212" fill="none" rx="3" ry="3" style="stroke:#000000;stroke-width:1;"/><text fill="#000000" font-family="Verdana" font-size="18" lengthAdjust="spacing" textLength="197.2428" x="424" y="667.8051">title: String [NOT NULL]</text><ellipse cx="417" cy="686.837" fill="none" rx="3" ry="3" style="stroke:#000000;stroke-width:1;"/><text fill="#000000" font-family="Verdana" font-size="18" lengthAdjust="spacing" textLength="207.0168" x="424" y="692.321">body: String [NOT NULL]</text><ellipse cx="417" cy="711.3529" fill="none" rx="3" ry="3" style="stroke:#000000;stroke-width:1;"/><text fill="#000000" font-family="Verdana" font-size="18" lengthAdjust="spacing" textLength="323.908" x="424" y="716.8368">scheduledTime: DateTime [NOT NULL]</text><ellipse cx="417" cy="735.8687" fill="none" rx="3" ry="3" style="stroke:#000000;stroke-width:1;"/><text fill="#000000" font-family="Verdana" font-size="18" lengthAdjust="spacing" textLength="278.2962" x="424" y="741.3527">isDelivered: bool [DEFAULT false]</text><ellipse cx="417" cy="760.3846" fill="none" rx="3" ry="3" style="stroke:#000000;stroke-width:1;"/><text fill="#000000" font-family="Verdana" font-size="18" lengthAdjust="spacing" textLength="201.7068" x="424" y="765.8685">type: String [NOT NULL]</text></g><!--class Category--><g class="entity" data-entity="Category" data-source-line="82" data-uid="ent0005" id="entity_Category"><rect fill="#FFFFFF" height="249.3667" rx="2.5" ry="2.5" style="stroke:#000000;stroke-width:1;" width="392.0258" x="1272.31" y="488.9982"/><ellipse cx="1426.2241" cy="519.8761" fill="#FFFFFF" rx="9" ry="9" style="stroke:#000000;stroke-width:1;"/><path d="M1425.7398,527.0792 Q1423.6773,527.0792 1422.3491,526.2042 Q1421.021,525.3292 1420.3648,523.7511 Q1419.7241,522.1574 1419.7241,520.0324 Q1419.7241,517.6574 1420.4898,515.9542 Q1421.271,514.2355 1422.771,513.3136 Q1424.2866,512.3917 1426.4898,512.3917 Q1427.521,512.3917 1428.3023,512.6105 Q1429.0991,512.8136 1429.9273,513.2199 L1428.9585,515.5949 Q1428.2241,515.2199 1427.5835,515.0792 Q1426.9585,514.9386 1426.3804,514.9386 Q1425.0054,514.9386 1424.1773,515.5636 Q1423.3648,516.173 1423.0054,517.298 Q1422.6616,518.423 1422.6616,519.923 Q1422.6616,522.2824 1423.5054,523.4074 Q1424.3491,524.5324 1426.2241,524.5324 Q1426.9273,524.5324 1427.646,524.3605 Q1428.3804,524.173 1429.3648,523.7355 L1429.3648,526.3292 Q1428.5054,526.7199 1427.5679,526.8917 Q1426.646,527.0792 1425.7398,527.0792 Z " fill="#000000"/><text fill="#000000" font-family="Verdana" font-size="20" font-style="italic" lengthAdjust="spacing" textLength="61.7799" x="1451.1829" y="515.3782">&#171;Data&#187;</text><text fill="#000000" font-family="Verdana" font-size="18" lengthAdjust="spacing" textLength="76.6975" x="1443.7241" y="540.4801">Category</text><line style="stroke:#000000;stroke-width:1;" x1="1273.31" x2="1663.3358" y1="550.754" y2="550.754"/><text fill="#000000" font-family="Verdana" font-size="18" font-weight="bold" lengthAdjust="spacing" textLength="187.8288" x="1294.99" y="573.9959">Atributos Principales</text><ellipse cx="1283.31" cy="593.0278" fill="none" rx="3" ry="3" style="stroke:#000000;stroke-width:1;"/><text fill="#000000" font-family="Verdana" font-size="18" lengthAdjust="spacing" textLength="114.4253" x="1290.31" y="598.5118">id: String [PK]</text><ellipse cx="1283.31" cy="617.5436" fill="none" rx="3" ry="3" style="stroke:#000000;stroke-width:1;"/><text fill="#000000" font-family="Verdana" font-size="18" lengthAdjust="spacing" textLength="334.654" x="1290.31" y="623.0276">userId: String [FK -&gt; User.id, NOT NULL]</text><line style="stroke:#000000;stroke-width:1;" x1="1273.31" x2="1663.3358" y1="632.3016" y2="632.3016"/><ellipse cx="1283.31" cy="650.0595" fill="none" rx="3" ry="3" style="stroke:#000000;stroke-width:1;"/><text fill="#000000" font-family="Verdana" font-size="18" lengthAdjust="spacing" textLength="368.0258" x="1290.31" y="655.5434">name: String [NOT NULL, UNIQUE per user]</text><ellipse cx="1283.31" cy="674.5753" fill="none" rx="3" ry="3" style="stroke:#000000;stroke-width:1;"/><text fill="#000000" font-family="Verdana" font-size="18" lengthAdjust="spacing" textLength="207.3048" x="1290.31" y="680.0593">color: String [NOT NULL]</text><ellipse cx="1283.31" cy="699.0912" fill="none" rx="3" ry="3" style="stroke:#000000;stroke-width:1;"/><text fill="#000000" font-family="Verdana" font-size="18" lengthAdjust="spacing" textLength="95.4534" x="1290.31" y="704.5751">icon: String</text><ellipse cx="1283.31" cy="723.607" fill="none" rx="3" ry="3" style="stroke:#000000;stroke-width:1;"/><text fill="#000000" font-family="Verdana" font-size="18" lengthAdjust="spacing" textLength="259.6124" x="1290.31" y="729.091">isDefault: bool [DEFAULT false]</text></g><!--class ProductivityMetric--><g class="entity" data-entity="ProductivityMetric" data-source-line="96" data-uid="ent0006" id="entity_ProductivityMetric"><rect fill="#FFEBEE" height="298.3984" rx="2.5" ry="2.5" style="stroke:#C62828;stroke-width:1;" width="457.0233" x="1699.82" y="464.4782"/><ellipse cx="1847.4071" cy="495.3561" fill="#FFFFFF" rx="9" ry="9" style="stroke:#000000;stroke-width:1;"/><path d="M1846.9227,502.5592 Q1844.8602,502.5592 1843.5321,501.6842 Q1842.204,500.8092 1841.5477,499.2311 Q1840.9071,497.6374 1840.9071,495.5124 Q1840.9071,493.1374 1841.6727,491.4342 Q1842.454,489.7155 1843.954,488.7936 Q1845.4696,487.8717 1847.6727,487.8717 Q1848.704,487.8717 1849.4852,488.0905 Q1850.2821,488.2936 1851.1102,488.6999 L1850.1415,491.0749 Q1849.4071,490.6999 1848.7665,490.5592 Q1848.1415,490.4186 1847.5634,490.4186 Q1846.1884,490.4186 1845.3602,491.0436 Q1844.5477,491.653 1844.1884,492.778 Q1843.8446,493.903 1843.8446,495.403 Q1843.8446,497.7624 1844.6884,498.8874 Q1845.5321,500.0124 1847.4071,500.0124 Q1848.1102,500.0124 1848.829,499.8405 Q1849.5634,499.653 1850.5477,499.2155 L1850.5477,501.8092 Q1849.6884,502.1999 1848.7509,502.3717 Q1847.829,502.5592 1846.9227,502.5592 Z " fill="#000000"/><text fill="#000000" font-family="Verdana" font-size="20" font-style="italic" lengthAdjust="spacing" textLength="97.2599" x="1893.4517" y="490.8582">&#171;Analytics&#187;</text><text fill="#B71C1C" font-family="Verdana" font-size="18" lengthAdjust="spacing" textLength="154.349" x="1864.9071" y="515.9601">ProductivityMetric</text><line style="stroke:#C62828;stroke-width:1;" x1="1700.82" x2="2155.8433" y1="526.234" y2="526.234"/><text fill="#000000" font-family="Verdana" font-size="18" font-weight="bold" lengthAdjust="spacing" textLength="187.8288" x="1722.5" y="549.4759">Atributos Principales</text><ellipse cx="1710.82" cy="568.5078" fill="none" rx="3" ry="3" style="stroke:#000000;stroke-width:1;"/><text fill="#000000" font-family="Verdana" font-size="18" lengthAdjust="spacing" textLength="114.4253" x="1717.82" y="573.9918">id: String [PK]</text><ellipse cx="1710.82" cy="593.0236" fill="none" rx="3" ry="3" style="stroke:#000000;stroke-width:1;"/><text fill="#000000" font-family="Verdana" font-size="18" lengthAdjust="spacing" textLength="334.654" x="1717.82" y="598.5076">userId: String [FK -&gt; User.id, NOT NULL]</text><line style="stroke:#C62828;stroke-width:1;" x1="1700.82" x2="2155.8433" y1="607.7816" y2="607.7816"/><ellipse cx="1710.82" cy="625.5395" fill="none" rx="3" ry="3" style="stroke:#000000;stroke-width:1;"/><text fill="#000000" font-family="Verdana" font-size="18" lengthAdjust="spacing" textLength="433.0233" x="1717.82" y="631.0234">date: DateTime [NOT NULL, UNIQUE per user/date]</text><ellipse cx="1710.82" cy="650.0553" fill="none" rx="3" ry="3" style="stroke:#000000;stroke-width:1;"/><text fill="#000000" font-family="Verdana" font-size="18" lengthAdjust="spacing" textLength="284.0742" x="1717.82" y="655.5393">completedHabits: int [DEFAULT 0]</text><ellipse cx="1710.82" cy="674.5712" fill="none" rx="3" ry="3" style="stroke:#000000;stroke-width:1;"/><text fill="#000000" font-family="Verdana" font-size="18" lengthAdjust="spacing" textLength="276.7663" x="1717.82" y="680.0551">completedTasks: int [DEFAULT 0]</text><ellipse cx="1710.82" cy="699.087" fill="none" rx="3" ry="3" style="stroke:#000000;stroke-width:1;"/><text fill="#000000" font-family="Verdana" font-size="18" lengthAdjust="spacing" textLength="226.9606" x="1717.82" y="704.571">focusTime: int [DEFAULT 0]</text><ellipse cx="1710.82" cy="723.6029" fill="none" rx="3" ry="3" style="stroke:#000000;stroke-width:1;"/><text fill="#000000" font-family="Verdana" font-size="18" lengthAdjust="spacing" textLength="320.9381" x="1717.82" y="729.0868">productivityScore: double [NOT NULL]</text><ellipse cx="1710.82" cy="748.1187" fill="none" rx="3" ry="3" style="stroke:#000000;stroke-width:1;"/><text fill="#000000" font-family="Verdana" font-size="18" lengthAdjust="spacing" textLength="117.6473" x="1717.82" y="753.6027">mood: String?</text></g><!--class UserInteraction--><g class="entity" data-entity="UserInteraction" data-source-line="109" data-uid="ent0007" id="entity_UserInteraction"><rect fill="#FFEBEE" height="273.8826" rx="2.5" ry="2.5" style="stroke:#C62828;stroke-width:1;" width="358.654" x="2192" y="476.7382"/><ellipse cx="2301.2924" cy="507.6161" fill="#FFFFFF" rx="9" ry="9" style="stroke:#000000;stroke-width:1;"/><path d="M2300.808,514.8192 Q2298.7455,514.8192 2297.4174,513.9442 Q2296.0893,513.0692 2295.433,511.4911 Q2294.7924,509.8974 2294.7924,507.7724 Q2294.7924,505.3974 2295.558,503.6942 Q2296.3393,501.9755 2297.8393,501.0536 Q2299.3549,500.1317 2301.558,500.1317 Q2302.5893,500.1317 2303.3705,500.3505 Q2304.1674,500.5536 2304.9955,500.9599 L2304.0268,503.3349 Q2303.2924,502.9599 2302.6518,502.8192 Q2302.0268,502.6786 2301.4486,502.6786 Q2300.0736,502.6786 2299.2455,503.3036 Q2298.433,503.913 2298.0736,505.038 Q2297.7299,506.163 2297.7299,507.663 Q2297.7299,510.0224 2298.5736,511.1474 Q2299.4174,512.2724 2301.2924,512.2724 Q2301.9955,512.2724 2302.7143,512.1005 Q2303.4486,511.913 2304.433,511.4755 L2304.433,514.0692 Q2303.5736,514.4599 2302.6361,514.6317 Q2301.7143,514.8192 2300.808,514.8192 Z " fill="#000000"/><text fill="#000000" font-family="Verdana" font-size="20" font-style="italic" lengthAdjust="spacing" textLength="97.2599" x="2336.447" y="503.1182">&#171;Analytics&#187;</text><text fill="#B71C1C" font-family="Verdana" font-size="18" lengthAdjust="spacing" textLength="132.5692" x="2318.7924" y="528.2201">UserInteraction</text><line style="stroke:#C62828;stroke-width:1;" x1="2193" x2="2549.654" y1="538.494" y2="538.494"/><text fill="#000000" font-family="Verdana" font-size="18" font-weight="bold" lengthAdjust="spacing" textLength="187.8288" x="2214.68" y="561.7359">Atributos Principales</text><ellipse cx="2203" cy="580.7678" fill="none" rx="3" ry="3" style="stroke:#000000;stroke-width:1;"/><text fill="#000000" font-family="Verdana" font-size="18" lengthAdjust="spacing" textLength="114.4253" x="2210" y="586.2518">id: String [PK]</text><ellipse cx="2203" cy="605.2836" fill="none" rx="3" ry="3" style="stroke:#000000;stroke-width:1;"/><text fill="#000000" font-family="Verdana" font-size="18" lengthAdjust="spacing" textLength="334.654" x="2210" y="610.7676">userId: String [FK -&gt; User.id, NOT NULL]</text><line style="stroke:#C62828;stroke-width:1;" x1="2193" x2="2549.654" y1="620.0416" y2="620.0416"/><ellipse cx="2203" cy="637.7995" fill="none" rx="3" ry="3" style="stroke:#000000;stroke-width:1;"/><text fill="#000000" font-family="Verdana" font-size="18" lengthAdjust="spacing" textLength="216.7007" x="2210" y="643.2834">action: String [NOT NULL]</text><ellipse cx="2203" cy="662.3153" fill="none" rx="3" ry="3" style="stroke:#000000;stroke-width:1;"/><text fill="#000000" font-family="Verdana" font-size="18" lengthAdjust="spacing" textLength="256.9664" x="2210" y="667.7993">targetType: String [NOT NULL]</text><ellipse cx="2203" cy="686.8312" fill="none" rx="3" ry="3" style="stroke:#000000;stroke-width:1;"/><text fill="#000000" font-family="Verdana" font-size="18" lengthAdjust="spacing" textLength="233.7286" x="2210" y="692.3151">targetId: String [NOT NULL]</text><ellipse cx="2203" cy="711.347" fill="none" rx="3" ry="3" style="stroke:#000000;stroke-width:1;"/><text fill="#000000" font-family="Verdana" font-size="18" lengthAdjust="spacing" textLength="286.9182" x="2210" y="716.831">timestamp: DateTime [NOT NULL]</text><ellipse cx="2203" cy="735.8629" fill="none" rx="3" ry="3" style="stroke:#000000;stroke-width:1;"/><text fill="#000000" font-family="Verdana" font-size="18" lengthAdjust="spacing" textLength="262.6544" x="2210" y="741.3468">context: Map&lt;String, dynamic&gt;</text></g><!--class Goal--><g class="entity" data-entity="Goal" data-source-line="121" data-uid="ent0008" id="entity_Goal"><rect fill="#E8F5E8" height="322.9143" rx="2.5" ry="2.5" style="stroke:#388E3C;stroke-width:1;" width="358.654" x="12" y="452.2282"/><ellipse cx="144.937" cy="483.1061" fill="#FFFFFF" rx="9" ry="9" style="stroke:#000000;stroke-width:1;"/><path d="M144.4527,490.3092 Q142.3902,490.3092 141.062,489.4342 Q139.7339,488.5592 139.0777,486.9811 Q138.437,485.3874 138.437,483.2624 Q138.437,480.8874 139.2027,479.1842 Q139.9839,477.4655 141.4839,476.5436 Q142.9995,475.6217 145.2027,475.6217 Q146.2339,475.6217 147.0152,475.8405 Q147.812,476.0436 148.6402,476.4499 L147.6714,478.8249 Q146.937,478.4499 146.2964,478.3092 Q145.6714,478.1686 145.0933,478.1686 Q143.7183,478.1686 142.8902,478.7936 Q142.0777,479.403 141.7183,480.528 Q141.3745,481.653 141.3745,483.153 Q141.3745,485.5124 142.2183,486.6374 Q143.062,487.7624 144.937,487.7624 Q145.6402,487.7624 146.3589,487.5905 Q147.0933,487.403 148.0777,486.9655 L148.0777,489.5592 Q147.2183,489.9499 146.2808,490.1217 Q145.3589,490.3092 144.4527,490.3092 Z " fill="#000000"/><text fill="#000000" font-family="Verdana" font-size="20" font-style="italic" lengthAdjust="spacing" textLength="89.2799" x="160.437" y="478.6082">&#171;Domain&#187;</text><text fill="#1B5E20" font-family="Verdana" font-size="18" lengthAdjust="spacing" textLength="38.7357" x="185.7091" y="503.7101">Goal</text><line style="stroke:#388E3C;stroke-width:1;" x1="13" x2="369.654" y1="513.984" y2="513.984"/><text fill="#000000" font-family="Verdana" font-size="18" font-weight="bold" lengthAdjust="spacing" textLength="187.8288" x="34.68" y="537.2259">Atributos Principales</text><ellipse cx="23" cy="556.2578" fill="none" rx="3" ry="3" style="stroke:#000000;stroke-width:1;"/><text fill="#000000" font-family="Verdana" font-size="18" lengthAdjust="spacing" textLength="114.4253" x="30" y="561.7418">id: String [PK]</text><ellipse cx="23" cy="580.7736" fill="none" rx="3" ry="3" style="stroke:#000000;stroke-width:1;"/><text fill="#000000" font-family="Verdana" font-size="18" lengthAdjust="spacing" textLength="334.654" x="30" y="586.2576">userId: String [FK -&gt; User.id, NOT NULL]</text><ellipse cx="23" cy="605.2895" fill="none" rx="3" ry="3" style="stroke:#000000;stroke-width:1;"/><text fill="#000000" font-family="Verdana" font-size="18" lengthAdjust="spacing" textLength="257.2184" x="30" y="610.7734">habitId: String? [FK -&gt; Habit.id]</text><line style="stroke:#388E3C;stroke-width:1;" x1="13" x2="369.654" y1="620.0474" y2="620.0474"/><ellipse cx="23" cy="637.8053" fill="none" rx="3" ry="3" style="stroke:#000000;stroke-width:1;"/><text fill="#000000" font-family="Verdana" font-size="18" lengthAdjust="spacing" textLength="197.2428" x="30" y="643.2893">title: String [NOT NULL]</text><ellipse cx="23" cy="662.3212" fill="none" rx="3" ry="3" style="stroke:#000000;stroke-width:1;"/><text fill="#000000" font-family="Verdana" font-size="18" lengthAdjust="spacing" textLength="154.9431" x="30" y="667.8051">description: String</text><ellipse cx="23" cy="686.837" fill="none" rx="3" ry="3" style="stroke:#000000;stroke-width:1;"/><text fill="#000000" font-family="Verdana" font-size="18" lengthAdjust="spacing" textLength="234.9885" x="30" y="692.321">targetValue: int [NOT NULL]</text><ellipse cx="23" cy="711.3529" fill="none" rx="3" ry="3" style="stroke:#000000;stroke-width:1;"/><text fill="#000000" font-family="Verdana" font-size="18" lengthAdjust="spacing" textLength="249.0824" x="30" y="716.8368">currentValue: int [DEFAULT 0]</text><ellipse cx="23" cy="735.8687" fill="none" rx="3" ry="3" style="stroke:#000000;stroke-width:1;"/><text fill="#000000" font-family="Verdana" font-size="18" lengthAdjust="spacing" textLength="268.6303" x="30" y="741.3527">deadline: DateTime [NOT NULL]</text><ellipse cx="23" cy="760.3846" fill="none" rx="3" ry="3" style="stroke:#000000;stroke-width:1;"/><text fill="#000000" font-family="Verdana" font-size="18" lengthAdjust="spacing" textLength="274.1923" x="30" y="765.8685">isAchieved: bool [DEFAULT false]</text></g><!--class Habit--><g class="entity" data-entity="Habit" data-source-line="145" data-uid="ent0015" id="entity_Habit"><rect fill="#FFFFFF" height="50.5158" rx="2.5" ry="2.5" style="stroke:#000000;stroke-width:1;" width="73.6477" x="351.5" y="279.0582"/><ellipse cx="364.5" cy="296.3161" fill="#FFFFFF" rx="9" ry="9" style="stroke:#000000;stroke-width:1;"/><path d="M364.0156,303.5193 Q361.9531,303.5193 360.625,302.6443 Q359.2969,301.7693 358.6406,300.1911 Q358,298.5974 358,296.4724 Q358,294.0974 358.7656,292.3943 Q359.5469,290.6755 361.0469,289.7536 Q362.5625,288.8318 364.7656,288.8318 Q365.7969,288.8318 366.5781,289.0505 Q367.375,289.2536 368.2031,289.6599 L367.2344,292.0349 Q366.5,291.6599 365.8594,291.5193 Q365.2344,291.3786 364.6563,291.3786 Q363.2813,291.3786 362.4531,292.0036 Q361.6406,292.613 361.2813,293.738 Q360.9375,294.863 360.9375,296.363 Q360.9375,298.7224 361.7813,299.8474 Q362.625,300.9724 364.5,300.9724 Q365.2031,300.9724 365.9219,300.8005 Q366.6563,300.613 367.6406,300.1755 L367.6406,302.7693 Q366.7813,303.1599 365.8438,303.3318 Q364.9219,303.5193 364.0156,303.5193 Z " fill="#000000"/><text fill="#000000" font-family="Verdana" font-size="18" lengthAdjust="spacing" textLength="45.6477" x="376.5" y="303.3001">Habit</text><line style="stroke:#000000;stroke-width:1;" x1="352.5" x2="424.1477" y1="313.574" y2="313.574"/><line style="stroke:#000000;stroke-width:1;" x1="352.5" x2="424.1477" y1="321.574" y2="321.574"/></g><g class="entity" data-entity="GMN18" data-source-line="149" data-uid="ent0019" id="entity_GMN18"><path d="M1116.17,91.9282 L1116.17,156.4082 A0,0 0 0 0 1116.17,156.4082 L1239.33,156.4082 L1243.33,215.9282 L1247.33,156.4082 L1370.4897,156.4082 A0,0 0 0 0 1370.4897,156.4082 L1370.4897,101.9282 L1360.4897,91.9282 L1116.17,91.9282 A0,0 0 0 0 1116.17,91.9282" fill="#FFFFFF" style="stroke:#000000;stroke-width:1;"/><path d="M1360.4897,91.9282 L1360.4897,101.9282 L1370.4897,101.9282 L1360.4897,91.9282" fill="#FFFFFF" style="stroke:#000000;stroke-width:1;"/><text fill="#000000" font-family="Verdana" font-size="20" lengthAdjust="spacing" textLength="147.3398" x="1122.17" y="118.3082">Entidad central.</text><text fill="#000000" font-family="Verdana" font-size="20" lengthAdjust="spacing" textLength="233.3197" x="1122.17" y="145.5482">Relaci&#243;n 1:1 con Settings</text></g><g class="entity" data-entity="GMN21" data-source-line="154" data-uid="ent0022" id="entity_GMN21"><path d="M1776.8,835.1382 L1776.8,926.8581 A0,0 0 0 0 1776.8,926.8581 L2079.8596,926.8581 A0,0 0 0 0 2079.8596,926.8581 L2079.8596,845.1382 L2069.8596,835.1382 L1932.33,835.1382 L1928.33,763.3582 L1924.33,835.1382 L1776.8,835.1382 A0,0 0 0 0 1776.8,835.1382" fill="#FFFFFF" style="stroke:#000000;stroke-width:1;"/><path d="M2069.8596,835.1382 L2069.8596,845.1382 L2079.8596,845.1382 L2069.8596,835.1382" fill="#FFFFFF" style="stroke:#000000;stroke-width:1;"/><text fill="#000000" font-family="Verdana" font-size="20" lengthAdjust="spacing" textLength="253.4397" x="1782.8" y="861.5182">M&#233;tricas agregadas diarias</text><text fill="#000000" font-family="Verdana" font-size="20" lengthAdjust="spacing" textLength="282.0596" x="1782.8" y="888.7582">para an&#225;lisis de productividad</text><text fill="#000000" font-family="Verdana" font-size="20" lengthAdjust="spacing" textLength="179.3798" x="1782.8" y="915.9981">y machine learning</text></g><g class="entity" data-entity="GMN24" data-source-line="160" data-uid="ent0025" id="entity_GMN24"><path d="M2585.63,581.4382 L2585.63,645.9182 L2795.0298,645.9182 L2795.0298,591.4382 L2785.0298,581.4382 L2585.63,581.4382" fill="#FFFFFF" style="stroke:#000000;stroke-width:1;"/><path d="M2785.0298,581.4382 L2785.0298,591.4382 L2795.0298,591.4382 L2785.0298,581.4382" fill="#FFFFFF" style="stroke:#000000;stroke-width:1;"/><text fill="#000000" font-family="Verdana" font-size="20" lengthAdjust="spacing" textLength="188.3998" x="2591.63" y="607.8182">Configuraci&#243;n &#250;nica</text><text fill="#000000" font-family="Verdana" font-size="20" lengthAdjust="spacing" textLength="154.3399" x="2591.63" y="635.0582">por usuario (1:1)</text></g><!--link User to Settings--><g class="link" data-entity-1="User" data-entity-2="Settings" data-source-line="138" data-uid="lnk9" id="link_User_Settings"><path codeLine="138" d="M1199.59,400.5482 C1199.59,422.9682 1199.59,431.6782 1199.59,456.2182" fill="none" id="User-Settings" style="stroke:#495057;stroke-width:1;"/><line style="stroke:#495057;stroke-width:1;" x1="1195.59" x2="1203.59" y1="396.5482" y2="396.5482"/><line style="stroke:#495057;stroke-width:1;" x1="1195.59" x2="1203.59" y1="399.5482" y2="399.5482"/><line style="stroke:#495057;stroke-width:1;" x1="1199.59" x2="1199.59" y1="400.5482" y2="392.5482"/><line style="stroke:#495057;stroke-width:1;" x1="1203.59" x2="1195.59" y1="460.2182" y2="460.2182"/><line style="stroke:#495057;stroke-width:1;" x1="1203.59" x2="1195.59" y1="457.2182" y2="457.2182"/><line style="stroke:#495057;stroke-width:1;" x1="1199.59" x2="1199.59" y1="456.2182" y2="464.2182"/><text fill="#000000" font-family="Verdana" font-size="20" lengthAdjust="spacing" textLength="135.6799" x="1063.59" y="421.7682">configura (1:1)</text></g><!--link User to Notification--><g class="link" data-entity-1="User" data-entity-2="Notification" data-source-line="139" data-uid="lnk10" id="link_User_Notification"><path codeLine="139" d="M1161.7,400.4682 C1161.7,433.8082 1161.7,455.8582 1161.7,455.8582 C1161.7,455.8582 952.08,455.8582 782.93,455.8582" fill="none" id="User-Notification" style="stroke:#495057;stroke-width:1;"/><line style="stroke:#495057;stroke-width:1;" x1="1157.7" x2="1165.7" y1="396.4682" y2="396.4682"/><line style="stroke:#495057;stroke-width:1;" x1="1157.7" x2="1165.7" y1="399.4682" y2="399.4682"/><line style="stroke:#495057;stroke-width:1;" x1="1161.7" x2="1161.7" y1="400.4682" y2="392.4682"/><line style="stroke:#495057;stroke-width:1;" x1="772.93" x2="764.93" y1="455.8582" y2="461.8582"/><line style="stroke:#495057;stroke-width:1;" x1="772.93" x2="764.93" y1="455.8582" y2="449.8582"/><line style="stroke:#495057;stroke-width:1;" x1="772.93" x2="764.93" y1="455.8582" y2="455.8582"/><ellipse cx="778.93" cy="455.8582" fill="none" rx="4" ry="4" style="stroke:#495057;stroke-width:1;"/><text fill="#000000" font-family="Verdana" font-size="20" lengthAdjust="spacing" textLength="107.0799" x="887.01" y="449.2382">recibe (1:N)</text></g><!--link User to Category--><g class="link" data-entity-1="User" data-entity-2="Category" data-source-line="140" data-uid="lnk11" id="link_User_Category"><path codeLine="140" d="M1315.13,400.5482 C1315.13,430.4682 1315.13,438.4782 1315.13,470.6982" fill="none" id="User-Category" style="stroke:#495057;stroke-width:1;"/><line style="stroke:#495057;stroke-width:1;" x1="1311.13" x2="1319.13" y1="396.5482" y2="396.5482"/><line style="stroke:#495057;stroke-width:1;" x1="1311.13" x2="1319.13" y1="399.5482" y2="399.5482"/><line style="stroke:#495057;stroke-width:1;" x1="1315.13" x2="1315.13" y1="400.5482" y2="392.5482"/><line style="stroke:#495057;stroke-width:1;" x1="1315.13" x2="1321.13" y1="480.6982" y2="488.6982"/><line style="stroke:#495057;stroke-width:1;" x1="1315.13" x2="1309.13" y1="480.6982" y2="488.6982"/><line style="stroke:#495057;stroke-width:1;" x1="1315.13" x2="1315.13" y1="480.6982" y2="488.6982"/><ellipse cx="1315.13" cy="474.6982" fill="none" rx="4" ry="4" style="stroke:#495057;stroke-width:1;"/><text fill="#000000" font-family="Verdana" font-size="20" lengthAdjust="spacing" textLength="108.4599" x="1206.13" y="434.0082">define (1:N)</text></g><!--link User to Goal--><g class="link" data-entity-1="User" data-entity-2="Goal" data-source-line="141" data-uid="lnk12" id="link_User_Goal"><path codeLine="141" d="M1077.41,360.8582 C824.38,360.8582 364.27,360.8582 364.27,360.8582 C364.27,360.8582 364.27,384.3882 364.27,433.7782" fill="none" id="User-Goal" style="stroke:#495057;stroke-width:1;"/><line style="stroke:#495057;stroke-width:1;" x1="1081.41" x2="1081.41" y1="356.8582" y2="364.8582"/><line style="stroke:#495057;stroke-width:1;" x1="1078.41" x2="1078.41" y1="356.8582" y2="364.8582"/><line style="stroke:#495057;stroke-width:1;" x1="1077.41" x2="1085.41" y1="360.8582" y2="360.8582"/><line style="stroke:#495057;stroke-width:1;" x1="364.27" x2="370.27" y1="443.7782" y2="451.7782"/><line style="stroke:#495057;stroke-width:1;" x1="364.27" x2="358.27" y1="443.7782" y2="451.7782"/><line style="stroke:#495057;stroke-width:1;" x1="364.27" x2="364.27" y1="443.7782" y2="451.7782"/><ellipse cx="364.27" cy="437.7782" fill="none" rx="4" ry="4" style="stroke:#495057;stroke-width:1;"/><text fill="#000000" font-family="Verdana" font-size="20" lengthAdjust="spacing" textLength="138.1198" x="540.38" y="354.2382">establece (1:N)</text></g><!--link User to ProductivityMetric--><g class="link" data-entity-1="User" data-entity-2="ProductivityMetric" data-source-line="142" data-uid="lnk13" id="link_User_ProductivityMetric"><path codeLine="142" d="M1357.94,400.6082 C1357.94,443.0582 1357.94,476.8582 1357.94,476.8582 C1357.94,476.8582 1522.93,476.8582 1681.61,476.8582" fill="none" id="User-ProductivityMetric" style="stroke:#495057;stroke-width:1;"/><line style="stroke:#495057;stroke-width:1;" x1="1353.94" x2="1361.94" y1="396.6082" y2="396.6082"/><line style="stroke:#495057;stroke-width:1;" x1="1353.94" x2="1361.94" y1="399.6082" y2="399.6082"/><line style="stroke:#495057;stroke-width:1;" x1="1357.94" x2="1357.94" y1="400.6082" y2="392.6082"/><line style="stroke:#495057;stroke-width:1;" x1="1691.61" x2="1699.61" y1="476.8582" y2="470.8582"/><line style="stroke:#495057;stroke-width:1;" x1="1691.61" x2="1699.61" y1="476.8582" y2="482.8582"/><line style="stroke:#495057;stroke-width:1;" x1="1691.61" x2="1699.61" y1="476.8582" y2="476.8582"/><ellipse cx="1685.61" cy="476.8582" fill="none" rx="4" ry="4" style="stroke:#495057;stroke-width:1;"/><text fill="#000000" font-family="Verdana" font-size="20" lengthAdjust="spacing" textLength="115.8999" x="1370.65" y="470.2382">genera (1:N)</text></g><!--link User to UserInteraction--><g class="link" data-entity-1="User" data-entity-2="UserInteraction" data-source-line="143" data-uid="lnk14" id="link_User_UserInteraction"><path codeLine="143" d="M1409.06,303.8582 C1719.38,303.8582 2371.33,303.8582 2371.33,303.8582 C2371.33,303.8582 2371.33,375.5682 2371.33,458.4382" fill="none" id="User-UserInteraction" style="stroke:#495057;stroke-width:1;"/><line style="stroke:#495057;stroke-width:1;" x1="1405.06" x2="1405.06" y1="307.8582" y2="299.8582"/><line style="stroke:#495057;stroke-width:1;" x1="1408.06" x2="1408.06" y1="307.8582" y2="299.8582"/><line style="stroke:#495057;stroke-width:1;" x1="1409.06" x2="1401.06" y1="303.8582" y2="303.8582"/><line style="stroke:#495057;stroke-width:1;" x1="2371.33" x2="2377.33" y1="468.4382" y2="476.4382"/><line style="stroke:#495057;stroke-width:1;" x1="2371.33" x2="2365.33" y1="468.4382" y2="476.4382"/><line style="stroke:#495057;stroke-width:1;" x1="2371.33" x2="2371.33" y1="468.4382" y2="476.4382"/><ellipse cx="2371.33" cy="462.4382" fill="none" rx="4" ry="4" style="stroke:#495057;stroke-width:1;"/><text fill="#000000" font-family="Verdana" font-size="20" lengthAdjust="spacing" textLength="110.8999" x="1861.48" y="297.2382">realiza (1:N)</text></g><!--link Habit to Goal--><g class="link" data-entity-1="Habit" data-entity-2="Goal" data-source-line="145" data-uid="lnk16" id="link_Habit_Goal"><path codeLine="145" d="M357.89,337.8982 C357.89,365.6182 357.89,386.2982 357.89,433.8882" fill="none" id="Habit-Goal" style="stroke:#495057;stroke-width:1;"/><line style="stroke:#495057;stroke-width:1;" x1="353.89" x2="361.89" y1="333.8982" y2="333.8982"/><line style="stroke:#495057;stroke-width:1;" x1="353.89" x2="361.89" y1="336.8982" y2="336.8982"/><line style="stroke:#495057;stroke-width:1;" x1="357.89" x2="357.89" y1="337.8982" y2="329.8982"/><line style="stroke:#495057;stroke-width:1;" x1="357.89" x2="363.89" y1="443.8882" y2="451.8882"/><line style="stroke:#495057;stroke-width:1;" x1="357.89" x2="351.89" y1="443.8882" y2="451.8882"/><line style="stroke:#495057;stroke-width:1;" x1="357.89" x2="357.89" y1="443.8882" y2="451.8882"/><ellipse cx="357.89" cy="437.8882" fill="none" rx="4" ry="4" style="stroke:#495057;stroke-width:1;"/><text fill="#000000" font-family="Verdana" font-size="20" lengthAdjust="spacing" textLength="147.3399" x="209.89" y="413.2682">asocia con (1:N)</text></g><!--link Habit to Notification--><g class="link" data-entity-1="Habit" data-entity-2="Notification" data-source-line="146" data-uid="lnk17" id="link_Habit_Notification"><path codeLine="146" d="M415.58,337.8982 C415.58,365.6182 415.58,386.2982 415.58,433.8882" fill="none" id="Habit-Notification" style="stroke:#495057;stroke-width:1;"/><line style="stroke:#495057;stroke-width:1;" x1="411.58" x2="419.58" y1="333.8982" y2="333.8982"/><line style="stroke:#495057;stroke-width:1;" x1="411.58" x2="419.58" y1="336.8982" y2="336.8982"/><line style="stroke:#495057;stroke-width:1;" x1="415.58" x2="415.58" y1="337.8982" y2="329.8982"/><line style="stroke:#495057;stroke-width:1;" x1="415.58" x2="421.58" y1="443.8882" y2="451.8882"/><line style="stroke:#495057;stroke-width:1;" x1="415.58" x2="409.58" y1="443.8882" y2="451.8882"/><line style="stroke:#495057;stroke-width:1;" x1="415.58" x2="415.58" y1="443.8882" y2="451.8882"/><ellipse cx="415.58" cy="437.8882" fill="none" rx="4" ry="4" style="stroke:#495057;stroke-width:1;"/><text fill="#000000" font-family="Verdana" font-size="20" lengthAdjust="spacing" textLength="143.5599" x="271.58" y="384.2682">programa (1:N)</text></g><!--link Settings to GMN24--><g class="link" data-entity-1="Settings" data-entity-2="GMN24" data-source-line="160" data-uid="lnk26" id="link_Settings_GMN24"><path d="M1123.8,464.0482 C1123.8,461.9882 1123.8,460.8582 1123.8,460.8582 C1123.8,460.8582 2690.33,460.8582 2690.33,460.8582 C2690.33,460.8582 2690.33,536.4082 2690.33,581.2682" fill="none" id="Settings-GMN24" style="stroke:#495057;stroke-width:1;stroke-dasharray:7,7;"/></g><!--SRC=[pPVDSjis483lUefDScWIMwaasv7iSTsXHIhLH9PTI-fCc-O0aP24CGLm0D2s4kVGP-WJzDX3JxdrgXVhWZyYJKgkdSouvOd3_O1Tx1yNJ_ICpYa4Fc6yKla6se9Fs3IKn6NBpnnEpuRTa-ulbcr15SwfdtpsA10LK5SBQ1pim7EFpIbNJ72gOBByIp6Ng0EejsgrwqQpLWkkNrIUU7J2E0Nxh0kxjLf5kSIdC2VN4GPNpDEpt4Up36QKJMUwKb4NZ0T4aZcCYNinbIBaNbluGiApJlJa25H3Gbzt1DS3ze52evOJkZvHQYMgxnT5bjQIZKDDCwQLOmBKJgPq_Tu-daul0Wf2wfce5BU6ZnN0v_Zs0GuFsvHhIVoZ8tZcx7GQ7Jl6XFIeB2Fr_UPhkn4XneeoKBDtcrQzykdU-cqnnz17wbkTFQTLLfyHEwsMizCkQi_azUCz1troV-LnjfcbdHrdhxEtvkmhedbSxrZbew_akrPzjzL-W7AB4t-XcQiY_Htds77A-cz1xTUDLgDLDE4MSjoij-lhhB2a55T9qkxkxzNscZc2b8KLpJJMWit850a23jVC8rurAy9giLWNOF7b7pvJJFtAJvQVlT0N1-b2h4oisZKh4kDDyNzt_mTffp_isfRj3C1se7tQxtJVZCwjTdVvU_-1UyLX6Yag8P_CSTnUlWGhhagXu4moxh80kuH2GIJVOju1393WKtXtzlPzzB5QZMKKKzFFnFtJ8VH7lTusZFhT7qTE36znCgTbwBs9OcpQW6gDCWMvXFiAwxP2F6et9-YyXUfHv81NpDk6zMQcPuewzZfp8wbF-3J49hKHu4Ap2JPeZUrQEPoCVOgMZ8NmuPtjTAnHRmXQXZJ1bQcOVyTMRTSDrP0P-nZN9TrNb5uCD97Q9eix7TxF6Vd8Ja_e6HapdU7Vf_mFvZikI33YQdR9z68DQIMY5RmAeAdiZV4P2s-nKQZS6SMofbxiOvjeQjvA75CszTabbUMWJOYlqgYP_zMTSMYZWgcG2um1wYAF6O7KM-kBCoqD2B1fc7qJ5QvfeXlTnrp1Ks7cg2XpDxZfqrVsHQk__AtN7NG7y3ESzBweBvv9uOL9BfrGjDs5sp-THm-9XrcnBlbAGVdMaAl8p0EVQkf55QII1f6wkrQaXaHTR88cXIvJb0SvZmrS8P7pH8WTh9GGSo6omitItfo_opMLfhoZ3lIV-ZksOcDMOqETKZtSKCiv9A-u2A0tbIRpu8wcWiMZwJLMoWa93kDzji5RO84ozoXptXj1VCYDXV-tdds_Dem3aojPa7TytfK_4J_Sy9DpGobnXiaJnGJrAF7CVU7E3cwvCqOlDpRmB-XCvquFvxFJlZDuuD9eDBkvgLPlRh9Pw02Ukkau2S_h1_KNJpDGVBpz3qTOKfUDgI7x1NBrbq4gkIQkeQAyGiBaATQoknPQqonnoPHo6XjPv8kL7jb9VFPXHLUYx2aQGPHm6G5qGChTmefdnuuKZ_7ffZY5KT0Y0369RC2W9uCwkF40_0e_PSC-kZTIbdg_Gha7PfDagx7GMipDRcKFu4Odop_D6r60rmaw9Hw-UOn8HXHApIK4I7ftCFU4h8EYHKWiy5AEwOY1yIcHt1H3mG1fhkf6_yf2ADusbdzpDC7e4-Rt4A9w4ITEjja_]--></g></svg>