<svg xmlns="http://www.w3.org/2000/svg" xmlns:xlink="http://www.w3.org/1999/xlink" contentStyleType="text/css" data-diagram-type="CLASS" height="959px" preserveAspectRatio="none" style="width:2083px;height:959px;background:#FFFFFF;" version="1.1" viewBox="0 0 2083 959" width="2083px" zoomAndPan="magnify"><title>Diagrama de Clases - Core y Domain
M&#243;dulo: Capa Core y Domain Layer</title><defs/><g><g class="title" data-source-line="41"><text fill="#000000" font-family="Verdana" font-size="22" font-weight="bold" lengthAdjust="spacing" textLength="393.6473" x="840.4612" y="38.5181">Diagrama de Clases - Core y Domain</text><text fill="#000000" font-family="Verdana" font-size="22" font-weight="bold" lengthAdjust="spacing" textLength="381.9433" x="846.3132" y="68.4822">M&#243;dulo: Capa Core y Domain Layer</text></g><!--cluster core--><g class="cluster" data-entity="core" data-source-line="46" data-uid="ent0002" id="cluster_core"><path d="M529.5,94.2882 L637.3799,94.2882 A3.75,3.75 0 0 1 639.8799,96.7882 L646.8799,127.5282 L1803.5,127.5282 A2.5,2.5 0 0 1 1806,130.0282 L1806,354.1282 A2.5,2.5 0 0 1 1803.5,356.6282 L529.5,356.6282 A2.5,2.5 0 0 1 527,354.1282 L527,96.7882 A2.5,2.5 0 0 1 529.5,94.2882" fill="#E3F2FD" style="stroke:#495057;stroke-width:1;"/><line style="stroke:#495057;stroke-width:1;" x1="527" x2="646.8799" y1="127.5282" y2="127.5282"/><text fill="#212529" font-family="Verdana" font-size="20" font-weight="bold" lengthAdjust="spacing" textLength="106.8799" x="531" y="117.6682">Core Layer</text></g><!--cluster domain--><g class="cluster" data-entity="domain" data-source-line="74" data-uid="ent0006" id="cluster_domain"><path d="M13.5,380.6282 L152.7599,380.6282 A3.75,3.75 0 0 1 155.2599,383.1282 L162.2599,413.8682 L1667.5,413.8682 A2.5,2.5 0 0 1 1670,416.3682 L1670,949.8282 A2.5,2.5 0 0 1 1667.5,952.3282 L13.5,952.3282 A2.5,2.5 0 0 1 11,949.8282 L11,383.1282 A2.5,2.5 0 0 1 13.5,380.6282" fill="#E8F5E8" style="stroke:#495057;stroke-width:1;"/><line style="stroke:#495057;stroke-width:1;" x1="11" x2="162.2599" y1="413.8682" y2="413.8682"/><text fill="#212529" font-family="Verdana" font-size="20" font-weight="bold" lengthAdjust="spacing" textLength="138.2599" x="15" y="404.0082">Domain Layer</text></g><!--class LocalStorage--><g class="entity" data-entity="LocalStorage" data-source-line="48" data-uid="ent0003" id="entity_LocalStorage"><rect fill="#E3F2FD" height="175.8192" rx="2.5" ry="2.5" style="stroke:#1976D2;stroke-width:1;" width="299.3082" x="1005.35" y="152.5482"/><ellipse cx="1099.3784" cy="183.4261" fill="#FFFFFF" rx="9" ry="9" style="stroke:#000000;stroke-width:1;"/><path d="M1093.5815,189.4261 L1097.519,175.0824 L1101.2222,175.0824 L1105.1753,189.4261 L1102.2847,189.4261 L1101.4253,185.8792 L1097.2847,185.8792 L1096.394,189.4261 L1093.5815,189.4261 Z M1098.7534,179.973 L1097.8784,183.4886 L1100.8315,183.4886 L1100.0034,179.973 Q1099.8315,179.2855 1099.6753,178.6292 Q1099.5347,177.973 1099.3784,177.2855 Q1099.2378,177.973 1099.0815,178.6292 Q1098.9253,179.2855 1098.7534,179.973 Z " fill="#000000"/><text fill="#000000" font-family="Verdana" font-size="20" font-style="italic" lengthAdjust="spacing" textLength="60.02" x="1138.7441" y="178.9282">&#171;Core&#187;</text><text fill="#0D47A1" font-family="Verdana" font-size="18" font-style="italic" lengthAdjust="spacing" textLength="103.7514" x="1116.8784" y="204.0301">LocalStorage</text><line style="stroke:#1976D2;stroke-width:1;" x1="1006.35" x2="1303.6582" y1="214.304" y2="214.304"/><line style="stroke:#1976D2;stroke-width:1;" x1="1006.35" x2="1303.6582" y1="222.304" y2="222.304"/><ellipse cx="1016.35" cy="240.0619" fill="#FFFFFF" rx="3" ry="3" style="stroke:#000000;stroke-width:1;"/><text fill="#000000" font-family="Verdana" font-size="18" lengthAdjust="spacing" textLength="249.7124" x="1023.35" y="245.5459">getBox&lt;T&gt;(): Future&lt;Box&lt;T&gt;&gt;</text><ellipse cx="1016.35" cy="264.5778" fill="#FFFFFF" rx="3" ry="3" style="stroke:#000000;stroke-width:1;"/><text fill="#000000" font-family="Verdana" font-size="18" lengthAdjust="spacing" textLength="275.3082" x="1023.35" y="270.0617">getAllData&lt;T&gt;(): Future&lt;List&lt;T&gt;&gt;</text><ellipse cx="1016.35" cy="289.0936" fill="#FFFFFF" rx="3" ry="3" style="stroke:#000000;stroke-width:1;"/><text fill="#000000" font-family="Verdana" font-size="18" lengthAdjust="spacing" textLength="240.7664" x="1023.35" y="294.5776">saveData&lt;T&gt;(): Future&lt;void&gt;</text><ellipse cx="1016.35" cy="313.6095" fill="#FFFFFF" rx="3" ry="3" style="stroke:#000000;stroke-width:1;"/><text fill="#000000" font-family="Verdana" font-size="18" lengthAdjust="spacing" textLength="224.8185" x="1023.35" y="319.0934">deleteData(): Future&lt;void&gt;</text></g><!--class ServiceLocator--><g class="entity" data-entity="ServiceLocator" data-source-line="55" data-uid="ent0004" id="entity_ServiceLocator"><rect fill="#E3F2FD" height="200.3351" rx="2.5" ry="2.5" style="stroke:#1976D2;stroke-width:1;" width="427.4135" x="543.29" y="140.2882"/><ellipse cx="691.2821" cy="171.1661" fill="#FFFFFF" rx="9" ry="9" style="stroke:#000000;stroke-width:1;"/><path d="M690.7977,178.3692 Q688.7352,178.3692 687.4071,177.4942 Q686.079,176.6192 685.4227,175.0411 Q684.7821,173.4474 684.7821,171.3224 Q684.7821,168.9474 685.5477,167.2442 Q686.329,165.5255 687.829,164.6036 Q689.3446,163.6817 691.5477,163.6817 Q692.579,163.6817 693.3602,163.9005 Q694.1571,164.1036 694.9852,164.5099 L694.0165,166.8849 Q693.2821,166.5099 692.6415,166.3692 Q692.0165,166.2286 691.4384,166.2286 Q690.0634,166.2286 689.2352,166.8536 Q688.4227,167.463 688.0634,168.588 Q687.7196,169.713 687.7196,171.213 Q687.7196,173.5724 688.5634,174.6974 Q689.4071,175.8224 691.2821,175.8224 Q691.9852,175.8224 692.704,175.6505 Q693.4384,175.463 694.4227,175.0255 L694.4227,177.6192 Q693.5634,178.0099 692.6259,178.1817 Q691.704,178.3692 690.7977,178.3692 Z " fill="#000000"/><text fill="#000000" font-family="Verdana" font-size="20" font-style="italic" lengthAdjust="spacing" textLength="60.02" x="740.7367" y="166.6682">&#171;Core&#187;</text><text fill="#0D47A1" font-family="Verdana" font-size="18" lengthAdjust="spacing" textLength="123.9292" x="708.7821" y="191.7701">ServiceLocator</text><line style="stroke:#1976D2;stroke-width:1;" x1="544.29" x2="969.7035" y1="202.044" y2="202.044"/><rect fill="none" height="6" style="stroke:#000000;stroke-width:1;" width="6" x="551.29" y="216.8019"/><text fill="#000000" font-family="Verdana" font-size="18" lengthAdjust="spacing" text-decoration="underline" textLength="212.3267" x="561.29" y="225.2859">_instance: ServiceLocator</text><line style="stroke:#1976D2;stroke-width:1;" x1="544.29" x2="969.7035" y1="234.5599" y2="234.5599"/><ellipse cx="554.29" cy="252.3178" fill="#FFFFFF" rx="3" ry="3" style="stroke:#000000;stroke-width:1;"/><text fill="#000000" font-family="Verdana" font-size="18" lengthAdjust="spacing" text-decoration="underline" textLength="244.3125" x="561.29" y="257.8017">getInstance(): ServiceLocator</text><ellipse cx="554.29" cy="276.8336" fill="#FFFFFF" rx="3" ry="3" style="stroke:#000000;stroke-width:1;"/><text fill="#000000" font-family="Verdana" font-size="18" lengthAdjust="spacing" textLength="350.6738" x="561.29" y="282.3176">getActivityRepository(): ActivityRepository</text><ellipse cx="554.29" cy="301.3495" fill="#FFFFFF" rx="3" ry="3" style="stroke:#000000;stroke-width:1;"/><text fill="#000000" font-family="Verdana" font-size="18" lengthAdjust="spacing" textLength="403.4135" x="561.29" y="306.8334">getTimeBlockRepository(): TimeBlockRepository</text><ellipse cx="554.29" cy="325.8653" fill="#FFFFFF" rx="3" ry="3" style="stroke:#000000;stroke-width:1;"/><text fill="#000000" font-family="Verdana" font-size="18" lengthAdjust="spacing" textLength="320.47" x="561.29" y="331.3493">getHabitRepository(): HabitRepository</text></g><!--class Logger--><g class="entity" data-entity="Logger" data-source-line="63" data-uid="ent0005" id="entity_Logger"><rect fill="#E3F2FD" height="175.8192" rx="2.5" ry="2.5" style="stroke:#1976D2;stroke-width:1;" width="450.5074" x="1339.75" y="152.5482"/><ellipse cx="1531.2299" cy="183.4261" fill="#FFFFFF" rx="9" ry="9" style="stroke:#000000;stroke-width:1;"/><path d="M1530.7455,190.6292 Q1528.683,190.6292 1527.3549,189.7542 Q1526.0268,188.8792 1525.3705,187.3011 Q1524.7299,185.7074 1524.7299,183.5824 Q1524.7299,181.2074 1525.4955,179.5042 Q1526.2768,177.7855 1527.7768,176.8636 Q1529.2924,175.9417 1531.4955,175.9417 Q1532.5268,175.9417 1533.308,176.1605 Q1534.1049,176.3636 1534.933,176.7699 L1533.9643,179.1449 Q1533.2299,178.7699 1532.5893,178.6292 Q1531.9643,178.4886 1531.3862,178.4886 Q1530.0112,178.4886 1529.183,179.1136 Q1528.3705,179.723 1528.0112,180.848 Q1527.6674,181.973 1527.6674,183.473 Q1527.6674,185.8324 1528.5112,186.9574 Q1529.3549,188.0824 1531.2299,188.0824 Q1531.933,188.0824 1532.6518,187.9105 Q1533.3862,187.723 1534.3705,187.2855 L1534.3705,189.8792 Q1533.5112,190.2699 1532.5737,190.4417 Q1531.6518,190.6292 1530.7455,190.6292 Z " fill="#000000"/><text fill="#000000" font-family="Verdana" font-size="20" font-style="italic" lengthAdjust="spacing" textLength="60.02" x="1548.7437" y="178.9282">&#171;Core&#187;</text><text fill="#0D47A1" font-family="Verdana" font-size="18" lengthAdjust="spacing" textLength="60.0476" x="1548.7299" y="204.0301">Logger</text><line style="stroke:#1976D2;stroke-width:1;" x1="1340.75" x2="1789.2574" y1="214.304" y2="214.304"/><ellipse cx="1350.75" cy="232.0619" fill="none" rx="3" ry="3" style="stroke:#000000;stroke-width:1;"/><text fill="#000000" font-family="Verdana" font-size="18" lengthAdjust="spacing" text-decoration="underline" textLength="140.4531" x="1357.75" y="237.5459">instance: Logger</text><line style="stroke:#1976D2;stroke-width:1;" x1="1340.75" x2="1789.2574" y1="246.8199" y2="246.8199"/><ellipse cx="1350.75" cy="264.5778" fill="#FFFFFF" rx="3" ry="3" style="stroke:#000000;stroke-width:1;"/><text fill="#000000" font-family="Verdana" font-size="18" lengthAdjust="spacing" textLength="291.8862" x="1357.75" y="270.0617">i(String message, String? tag): void</text><ellipse cx="1350.75" cy="289.0936" fill="#FFFFFF" rx="3" ry="3" style="stroke:#000000;stroke-width:1;"/><text fill="#000000" font-family="Verdana" font-size="18" lengthAdjust="spacing" textLength="426.5074" x="1357.75" y="294.5776">e(String message, String? tag, dynamic error): void</text><ellipse cx="1350.75" cy="313.6095" fill="#FFFFFF" rx="3" ry="3" style="stroke:#000000;stroke-width:1;"/><text fill="#000000" font-family="Verdana" font-size="18" lengthAdjust="spacing" textLength="298.3122" x="1357.75" y="319.0934">d(String message, String? tag): void</text></g><!--class Activity--><g class="entity" data-entity="Activity" data-source-line="77" data-uid="ent0007" id="entity_Activity"><rect fill="#E8F5E8" height="200.3351" rx="2.5" ry="2.5" style="stroke:#388E3C;stroke-width:1;" width="176.9451" x="344.53" y="451.1382"/><ellipse cx="386.6126" cy="482.0161" fill="#FFFFFF" rx="9" ry="9" style="stroke:#000000;stroke-width:1;"/><path d="M386.1282,489.2192 Q384.0657,489.2192 382.7376,488.3442 Q381.4094,487.4692 380.7532,485.8911 Q380.1126,484.2974 380.1126,482.1724 Q380.1126,479.7974 380.8782,478.0942 Q381.6594,476.3755 383.1594,475.4536 Q384.6751,474.5317 386.8782,474.5317 Q387.9094,474.5317 388.6907,474.7505 Q389.4876,474.9536 390.3157,475.3599 L389.3469,477.7349 Q388.6126,477.3599 387.9719,477.2192 Q387.3469,477.0786 386.7688,477.0786 Q385.3938,477.0786 384.5657,477.7036 Q383.7532,478.313 383.3938,479.438 Q383.0501,480.563 383.0501,482.063 Q383.0501,484.4224 383.8938,485.5474 Q384.7376,486.6724 386.6126,486.6724 Q387.3157,486.6724 388.0344,486.5005 Q388.7688,486.313 389.7532,485.8755 L389.7532,488.4692 Q388.8938,488.8599 387.9563,489.0317 Q387.0344,489.2192 386.1282,489.2192 Z " fill="#000000"/><text fill="#000000" font-family="Verdana" font-size="20" font-style="italic" lengthAdjust="spacing" textLength="89.2799" x="402.1126" y="477.5182">&#171;Domain&#187;</text><text fill="#1B5E20" font-family="Verdana" font-size="18" lengthAdjust="spacing" textLength="60.7496" x="416.3777" y="502.6201">Activity</text><line style="stroke:#388E3C;stroke-width:1;" x1="345.53" x2="520.4751" y1="512.894" y2="512.894"/><ellipse cx="355.53" cy="530.6519" fill="none" rx="3" ry="3" style="stroke:#000000;stroke-width:1;"/><text fill="#000000" font-family="Verdana" font-size="18" lengthAdjust="spacing" textLength="75.8695" x="362.53" y="536.1359">id: String</text><ellipse cx="355.53" cy="555.1678" fill="none" rx="3" ry="3" style="stroke:#000000;stroke-width:1;"/><text fill="#000000" font-family="Verdana" font-size="18" lengthAdjust="spacing" textLength="108.3593" x="362.53" y="560.6517">name: String</text><ellipse cx="355.53" cy="579.6836" fill="none" rx="3" ry="3" style="stroke:#000000;stroke-width:1;"/><text fill="#000000" font-family="Verdana" font-size="18" lengthAdjust="spacing" textLength="128.8432" x="362.53" y="585.1676">date: DateTime</text><ellipse cx="355.53" cy="604.1995" fill="none" rx="3" ry="3" style="stroke:#000000;stroke-width:1;"/><text fill="#000000" font-family="Verdana" font-size="18" lengthAdjust="spacing" textLength="134.1172" x="362.53" y="609.6834">category: String</text><ellipse cx="355.53" cy="628.7153" fill="none" rx="3" ry="3" style="stroke:#000000;stroke-width:1;"/><text fill="#000000" font-family="Verdana" font-size="18" lengthAdjust="spacing" textLength="152.9451" x="362.53" y="634.1993">isCompleted: bool</text><line style="stroke:#388E3C;stroke-width:1;" x1="345.53" x2="520.4751" y1="643.4733" y2="643.4733"/></g><!--class Habit--><g class="entity" data-entity="Habit" data-source-line="85" data-uid="ent0008" id="entity_Habit"><rect fill="#E8F5E8" height="249.3667" rx="2.5" ry="2.5" style="stroke:#388E3C;stroke-width:1;" width="239.8186" x="993.09" y="426.6282"/><ellipse cx="1066.6094" cy="457.5061" fill="#FFFFFF" rx="9" ry="9" style="stroke:#000000;stroke-width:1;"/><path d="M1066.125,464.7092 Q1064.0625,464.7092 1062.7344,463.8342 Q1061.4062,462.9592 1060.75,461.3811 Q1060.1094,459.7874 1060.1094,457.6624 Q1060.1094,455.2874 1060.875,453.5842 Q1061.6562,451.8655 1063.1562,450.9436 Q1064.6719,450.0217 1066.875,450.0217 Q1067.9062,450.0217 1068.6875,450.2405 Q1069.4844,450.4436 1070.3125,450.8499 L1069.3437,453.2249 Q1068.6094,452.8499 1067.9687,452.7092 Q1067.3437,452.5686 1066.7656,452.5686 Q1065.3906,452.5686 1064.5625,453.1936 Q1063.75,453.803 1063.3906,454.928 Q1063.0469,456.053 1063.0469,457.553 Q1063.0469,459.9124 1063.8906,461.0374 Q1064.7344,462.1624 1066.6094,462.1624 Q1067.3125,462.1624 1068.0312,461.9905 Q1068.7656,461.803 1069.75,461.3655 L1069.75,463.9592 Q1068.8906,464.3499 1067.9531,464.5217 Q1067.0312,464.7092 1066.125,464.7092 Z " fill="#000000"/><text fill="#000000" font-family="Verdana" font-size="20" font-style="italic" lengthAdjust="spacing" textLength="89.2799" x="1082.1094" y="453.0082">&#171;Domain&#187;</text><text fill="#1B5E20" font-family="Verdana" font-size="18" lengthAdjust="spacing" textLength="45.6477" x="1103.9255" y="478.1101">Habit</text><line style="stroke:#388E3C;stroke-width:1;" x1="994.09" x2="1231.9086" y1="488.384" y2="488.384"/><ellipse cx="1004.09" cy="506.1419" fill="none" rx="3" ry="3" style="stroke:#000000;stroke-width:1;"/><text fill="#000000" font-family="Verdana" font-size="18" lengthAdjust="spacing" textLength="75.8695" x="1011.09" y="511.6259">id: String</text><ellipse cx="1004.09" cy="530.6578" fill="none" rx="3" ry="3" style="stroke:#000000;stroke-width:1;"/><text fill="#000000" font-family="Verdana" font-size="18" lengthAdjust="spacing" textLength="108.3593" x="1011.09" y="536.1417">name: String</text><ellipse cx="1004.09" cy="555.1736" fill="none" rx="3" ry="3" style="stroke:#000000;stroke-width:1;"/><text fill="#000000" font-family="Verdana" font-size="18" lengthAdjust="spacing" textLength="215.8186" x="1011.09" y="560.6576">daysOfWeek: List&lt;String&gt;</text><ellipse cx="1004.09" cy="579.6895" fill="none" rx="3" ry="3" style="stroke:#000000;stroke-width:1;"/><text fill="#000000" font-family="Verdana" font-size="18" lengthAdjust="spacing" textLength="134.1172" x="1011.09" y="585.1734">category: String</text><ellipse cx="1004.09" cy="604.2053" fill="none" rx="3" ry="3" style="stroke:#000000;stroke-width:1;"/><text fill="#000000" font-family="Verdana" font-size="18" lengthAdjust="spacing" textLength="98.2794" x="1011.09" y="609.6893">time: String</text><ellipse cx="1004.09" cy="628.7212" fill="none" rx="3" ry="3" style="stroke:#000000;stroke-width:1;"/><text fill="#000000" font-family="Verdana" font-size="18" lengthAdjust="spacing" textLength="105.5694" x="1011.09" y="634.2051">isDone: bool</text><line style="stroke:#388E3C;stroke-width:1;" x1="994.09" x2="1231.9086" y1="643.4791" y2="643.4791"/><ellipse cx="1004.09" cy="661.237" fill="#FFFFFF" rx="3" ry="3" style="stroke:#000000;stroke-width:1;"/><text fill="#000000" font-family="Verdana" font-size="18" lengthAdjust="spacing" textLength="144.7371" x="1011.09" y="666.721">copyWith(): Habit</text></g><!--class TimeBlock--><g class="entity" data-entity="TimeBlock" data-source-line="95" data-uid="ent0009" id="entity_TimeBlock"><rect fill="#E8F5E8" height="200.3351" rx="2.5" ry="2.5" style="stroke:#388E3C;stroke-width:1;" width="195.8089" x="418.1" y="735.9882"/><ellipse cx="468.6947" cy="766.8661" fill="#FFFFFF" rx="9" ry="9" style="stroke:#000000;stroke-width:1;"/><path d="M468.2104,774.0692 Q466.1479,774.0692 464.8197,773.1942 Q463.4916,772.3192 462.8354,770.7411 Q462.1947,769.1474 462.1947,767.0224 Q462.1947,764.6474 462.9604,762.9442 Q463.7416,761.2255 465.2416,760.3036 Q466.7572,759.3817 468.9604,759.3817 Q469.9916,759.3817 470.7729,759.6005 Q471.5697,759.8036 472.3979,760.2099 L471.4291,762.5849 Q470.6947,762.2099 470.0541,762.0692 Q469.4291,761.9286 468.851,761.9286 Q467.476,761.9286 466.6479,762.5536 Q465.8354,763.163 465.476,764.288 Q465.1322,765.413 465.1322,766.913 Q465.1322,769.2724 465.976,770.3974 Q466.8197,771.5224 468.6947,771.5224 Q469.3979,771.5224 470.1166,771.3505 Q470.851,771.163 471.8354,770.7255 L471.8354,773.3192 Q470.976,773.7099 470.0385,773.8817 Q469.1166,774.0692 468.2104,774.0692 Z " fill="#000000"/><text fill="#000000" font-family="Verdana" font-size="20" font-style="italic" lengthAdjust="spacing" textLength="89.2799" x="485.1145" y="762.3682">&#171;Domain&#187;</text><text fill="#1B5E20" font-family="Verdana" font-size="18" lengthAdjust="spacing" textLength="87.1194" x="486.1947" y="787.4701">TimeBlock</text><line style="stroke:#388E3C;stroke-width:1;" x1="419.1" x2="612.9089" y1="797.744" y2="797.744"/><ellipse cx="429.1" cy="815.5019" fill="none" rx="3" ry="3" style="stroke:#000000;stroke-width:1;"/><text fill="#000000" font-family="Verdana" font-size="18" lengthAdjust="spacing" textLength="75.8695" x="436.1" y="820.9859">id: String</text><ellipse cx="429.1" cy="840.0178" fill="none" rx="3" ry="3" style="stroke:#000000;stroke-width:1;"/><text fill="#000000" font-family="Verdana" font-size="18" lengthAdjust="spacing" textLength="92.5914" x="436.1" y="845.5017">title: String</text><ellipse cx="429.1" cy="864.5336" fill="none" rx="3" ry="3" style="stroke:#000000;stroke-width:1;"/><text fill="#000000" font-family="Verdana" font-size="18" lengthAdjust="spacing" textLength="171.8089" x="436.1" y="870.0176">startTime: DateTime</text><ellipse cx="429.1" cy="889.0495" fill="none" rx="3" ry="3" style="stroke:#000000;stroke-width:1;"/><text fill="#000000" font-family="Verdana" font-size="18" lengthAdjust="spacing" textLength="165.0049" x="436.1" y="894.5334">endTime: DateTime</text><ellipse cx="429.1" cy="913.5653" fill="none" rx="3" ry="3" style="stroke:#000000;stroke-width:1;"/><text fill="#000000" font-family="Verdana" font-size="18" lengthAdjust="spacing" textLength="134.1172" x="436.1" y="919.0493">category: String</text><line style="stroke:#388E3C;stroke-width:1;" x1="419.1" x2="612.9089" y1="928.3233" y2="928.3233"/></g><!--class HabitRepository--><g class="entity" data-entity="HabitRepository" data-source-line="104" data-uid="ent0010" id="entity_HabitRepository"><rect fill="#E8F5E8" height="175.8192" rx="2.5" ry="2.5" style="stroke:#388E3C;stroke-width:1;" width="355.7379" x="27.13" y="748.2482"/><ellipse cx="137.5204" cy="779.1261" fill="#FFFFFF" rx="9" ry="9" style="stroke:#000000;stroke-width:1;"/><path d="M131.7235,785.1261 L135.661,770.7824 L139.3641,770.7824 L143.3172,785.1261 L140.4266,785.1261 L139.5672,781.5792 L135.4266,781.5792 L134.536,785.1261 L131.7235,785.1261 Z M136.8954,775.673 L136.0204,779.1886 L138.9735,779.1886 L138.1454,775.673 Q137.9735,774.9855 137.8172,774.3292 Q137.6766,773.673 137.5204,772.9855 Q137.3797,773.673 137.2235,774.3292 Q137.0672,774.9855 136.8954,775.673 Z " fill="#000000"/><text fill="#000000" font-family="Verdana" font-size="20" font-style="italic" lengthAdjust="spacing" textLength="89.2799" x="174.109" y="774.6282">&#171;Domain&#187;</text><text fill="#1B5E20" font-family="Verdana" font-size="18" font-style="italic" lengthAdjust="spacing" textLength="127.4572" x="155.0204" y="799.7301">HabitRepository</text><line style="stroke:#388E3C;stroke-width:1;" x1="28.13" x2="381.8679" y1="810.004" y2="810.004"/><line style="stroke:#388E3C;stroke-width:1;" x1="28.13" x2="381.8679" y1="818.004" y2="818.004"/><ellipse cx="38.13" cy="835.7619" fill="#FFFFFF" rx="3" ry="3" style="stroke:#000000;stroke-width:1;"/><text fill="#000000" font-family="Verdana" font-size="18" lengthAdjust="spacing" textLength="294.7841" x="45.13" y="841.2459">getAllHabits(): Future&lt;List&lt;Habit&gt;&gt;</text><ellipse cx="38.13" cy="860.2778" fill="#FFFFFF" rx="3" ry="3" style="stroke:#000000;stroke-width:1;"/><text fill="#000000" font-family="Verdana" font-size="18" lengthAdjust="spacing" textLength="303.9641" x="45.13" y="865.7617">addHabit(Habit habit): Future&lt;void&gt;</text><ellipse cx="38.13" cy="884.7936" fill="#FFFFFF" rx="3" ry="3" style="stroke:#000000;stroke-width:1;"/><text fill="#000000" font-family="Verdana" font-size="18" lengthAdjust="spacing" textLength="331.7379" x="45.13" y="890.2776">updateHabit(Habit habit): Future&lt;void&gt;</text><ellipse cx="38.13" cy="909.3095" fill="#FFFFFF" rx="3" ry="3" style="stroke:#000000;stroke-width:1;"/><text fill="#000000" font-family="Verdana" font-size="18" lengthAdjust="spacing" textLength="301.6781" x="45.13" y="914.7934">deleteHabit(String id): Future&lt;void&gt;</text></g><!--class ActivityRepository--><g class="entity" data-entity="ActivityRepository" data-source-line="111" data-uid="ent0011" id="entity_ActivityRepository"><rect fill="#E8F5E8" height="175.8192" rx="2.5" ry="2.5" style="stroke:#388E3C;stroke-width:1;" width="401.8536" x="556.07" y="463.3982"/><ellipse cx="683.1102" cy="494.2761" fill="#FFFFFF" rx="9" ry="9" style="stroke:#000000;stroke-width:1;"/><path d="M677.3134,500.2761 L681.2509,485.9324 L684.954,485.9324 L688.9071,500.2761 L686.0165,500.2761 L685.1571,496.7292 L681.0165,496.7292 L680.1259,500.2761 L677.3134,500.2761 Z M682.4852,490.823 L681.6102,494.3386 L684.5634,494.3386 L683.7352,490.823 Q683.5634,490.1355 683.4071,489.4792 Q683.2665,488.823 683.1102,488.1355 Q682.9696,488.823 682.8134,489.4792 Q682.6571,490.1355 682.4852,490.823 Z " fill="#000000"/><text fill="#000000" font-family="Verdana" font-size="20" font-style="italic" lengthAdjust="spacing" textLength="89.2799" x="726.1068" y="489.7782">&#171;Domain&#187;</text><text fill="#1B5E20" font-family="Verdana" font-size="18" font-style="italic" lengthAdjust="spacing" textLength="140.2731" x="700.6102" y="514.8801">ActivityRepository</text><line style="stroke:#388E3C;stroke-width:1;" x1="557.07" x2="956.9236" y1="525.154" y2="525.154"/><line style="stroke:#388E3C;stroke-width:1;" x1="557.07" x2="956.9236" y1="533.154" y2="533.154"/><ellipse cx="567.07" cy="550.9119" fill="#FFFFFF" rx="3" ry="3" style="stroke:#000000;stroke-width:1;"/><text fill="#000000" font-family="Verdana" font-size="18" lengthAdjust="spacing" textLength="330.6038" x="574.07" y="556.3959">getAllActivities(): Future&lt;List&lt;Activity&gt;&gt;</text><ellipse cx="567.07" cy="575.4278" fill="#FFFFFF" rx="3" ry="3" style="stroke:#000000;stroke-width:1;"/><text fill="#000000" font-family="Verdana" font-size="18" lengthAdjust="spacing" textLength="350.0798" x="574.07" y="580.9117">addActivity(Activity activity): Future&lt;void&gt;</text><ellipse cx="567.07" cy="599.9436" fill="#FFFFFF" rx="3" ry="3" style="stroke:#000000;stroke-width:1;"/><text fill="#000000" font-family="Verdana" font-size="18" lengthAdjust="spacing" textLength="377.8536" x="574.07" y="605.4276">updateActivity(Activity activity): Future&lt;void&gt;</text><ellipse cx="567.07" cy="624.4595" fill="#FFFFFF" rx="3" ry="3" style="stroke:#000000;stroke-width:1;"/><text fill="#000000" font-family="Verdana" font-size="18" lengthAdjust="spacing" textLength="316.78" x="574.07" y="629.9434">deleteActivity(String id): Future&lt;void&gt;</text></g><!--class TimeBlockRepository--><g class="entity" data-entity="TimeBlockRepository" data-source-line="118" data-uid="ent0012" id="entity_TimeBlockRepository"><rect fill="#E8F5E8" height="151.3034" rx="2.5" ry="2.5" style="stroke:#388E3C;stroke-width:1;" width="440.1034" x="1213.95" y="760.5082"/><ellipse cx="1347.7582" cy="791.3861" fill="#FFFFFF" rx="9" ry="9" style="stroke:#000000;stroke-width:1;"/><path d="M1341.9613,797.3861 L1345.8988,783.0424 L1349.602,783.0424 L1353.5551,797.3861 L1350.6645,797.3861 L1349.8051,793.8392 L1345.6645,793.8392 L1344.7738,797.3861 L1341.9613,797.3861 Z M1347.1332,787.933 L1346.2582,791.4486 L1349.2113,791.4486 L1348.3832,787.933 Q1348.2113,787.2455 1348.0551,786.5892 Q1347.9145,785.933 1347.7582,785.2455 Q1347.6176,785.933 1347.4613,786.5892 Q1347.3051,787.2455 1347.1332,787.933 Z " fill="#000000"/><text fill="#000000" font-family="Verdana" font-size="20" font-style="italic" lengthAdjust="spacing" textLength="89.2799" x="1403.1118" y="786.8882">&#171;Domain&#187;</text><text fill="#1B5E20" font-family="Verdana" font-size="18" font-style="italic" lengthAdjust="spacing" textLength="164.987" x="1365.2582" y="811.9901">TimeBlockRepository</text><line style="stroke:#388E3C;stroke-width:1;" x1="1214.95" x2="1653.0534" y1="822.264" y2="822.264"/><line style="stroke:#388E3C;stroke-width:1;" x1="1214.95" x2="1653.0534" y1="830.264" y2="830.264"/><ellipse cx="1224.95" cy="848.0219" fill="#FFFFFF" rx="3" ry="3" style="stroke:#000000;stroke-width:1;"/><text fill="#000000" font-family="Verdana" font-size="18" lengthAdjust="spacing" textLength="377.7275" x="1231.95" y="853.5059">getAllTimeBlocks(): Future&lt;List&lt;TimeBlock&gt;&gt;</text><ellipse cx="1224.95" cy="872.5378" fill="#FFFFFF" rx="3" ry="3" style="stroke:#000000;stroke-width:1;"/><text fill="#000000" font-family="Verdana" font-size="18" lengthAdjust="spacing" textLength="388.3296" x="1231.95" y="878.0217">addTimeBlock(TimeBlock block): Future&lt;void&gt;</text><ellipse cx="1224.95" cy="897.0536" fill="#FFFFFF" rx="3" ry="3" style="stroke:#000000;stroke-width:1;"/><text fill="#000000" font-family="Verdana" font-size="18" lengthAdjust="spacing" textLength="416.1034" x="1231.95" y="902.5376">updateTimeBlock(TimeBlock block): Future&lt;void&gt;</text></g><!--class GetHabitsUseCase--><g class="entity" data-entity="GetHabitsUseCase" data-source-line="125" data-uid="ent0013" id="entity_GetHabitsUseCase"><rect fill="#E8F5E8" height="126.7875" rx="2.5" ry="2.5" style="stroke:#388E3C;stroke-width:1;" width="282.2443" x="26.88" y="487.9182"/><ellipse cx="86.1507" cy="518.7961" fill="#FFFFFF" rx="9" ry="9" style="stroke:#000000;stroke-width:1;"/><path d="M85.6663,525.9992 Q83.6038,525.9992 82.2757,525.1242 Q80.9475,524.2492 80.2913,522.6711 Q79.6507,521.0774 79.6507,518.9524 Q79.6507,516.5774 80.4163,514.8742 Q81.1975,513.1555 82.6975,512.2336 Q84.2132,511.3117 86.4163,511.3117 Q87.4475,511.3117 88.2288,511.5305 Q89.0257,511.7336 89.8538,512.1399 L88.885,514.5149 Q88.1507,514.1399 87.51,513.9992 Q86.885,513.8586 86.3069,513.8586 Q84.9319,513.8586 84.1038,514.4836 Q83.2913,515.093 82.9319,516.218 Q82.5882,517.343 82.5882,518.843 Q82.5882,521.2024 83.4319,522.3274 Q84.2757,523.4524 86.1507,523.4524 Q86.8538,523.4524 87.5725,523.2805 Q88.3069,523.093 89.2913,522.6555 L89.2913,525.2492 Q88.4319,525.6399 87.4944,525.8117 Q86.5725,525.9992 85.6663,525.9992 Z " fill="#000000"/><text fill="#000000" font-family="Verdana" font-size="20" font-style="italic" lengthAdjust="spacing" textLength="89.2799" x="137.1122" y="514.2982">&#171;Domain&#187;</text><text fill="#1B5E20" font-family="Verdana" font-size="18" lengthAdjust="spacing" textLength="156.203" x="103.6507" y="539.4001">GetHabitsUseCase</text><line style="stroke:#388E3C;stroke-width:1;" x1="27.88" x2="308.1243" y1="549.674" y2="549.674"/><rect fill="none" height="6" style="stroke:#000000;stroke-width:1;" width="6" x="34.88" y="564.4319"/><text fill="#000000" font-family="Verdana" font-size="18" lengthAdjust="spacing" textLength="232.5406" x="44.88" y="572.9159">repository: HabitRepository</text><line style="stroke:#388E3C;stroke-width:1;" x1="27.88" x2="308.1243" y1="582.1899" y2="582.1899"/><ellipse cx="37.88" cy="599.9478" fill="#FFFFFF" rx="3" ry="3" style="stroke:#000000;stroke-width:1;"/><text fill="#000000" font-family="Verdana" font-size="18" lengthAdjust="spacing" textLength="258.2443" x="44.88" y="605.4317">execute(): Future&lt;List&lt;Habit&gt;&gt;</text></g><!--class HabitToTimeBlockService--><g class="entity" data-entity="HabitToTimeBlockService" data-source-line="130" data-uid="ent0014" id="entity_HabitToTimeBlockService"><rect fill="#E8F5E8" height="126.7875" rx="2.5" ry="2.5" style="stroke:#388E3C;stroke-width:1;" width="385.3837" x="1268.31" y="487.9182"/><ellipse cx="1350.3955" cy="518.7961" fill="#FFFFFF" rx="9" ry="9" style="stroke:#000000;stroke-width:1;"/><path d="M1349.9112,525.9992 Q1347.8487,525.9992 1346.5205,525.1242 Q1345.1924,524.2492 1344.5362,522.6711 Q1343.8955,521.0774 1343.8955,518.9524 Q1343.8955,516.5774 1344.6612,514.8742 Q1345.4424,513.1555 1346.9424,512.2336 Q1348.458,511.3117 1350.6612,511.3117 Q1351.6924,511.3117 1352.4737,511.5305 Q1353.2705,511.7336 1354.0987,512.1399 L1353.1299,514.5149 Q1352.3955,514.1399 1351.7549,513.9992 Q1351.1299,513.8586 1350.5518,513.8586 Q1349.1768,513.8586 1348.3487,514.4836 Q1347.5362,515.093 1347.1768,516.218 Q1346.833,517.343 1346.833,518.843 Q1346.833,521.2024 1347.6768,522.3274 Q1348.5205,523.4524 1350.3955,523.4524 Q1351.0987,523.4524 1351.8174,523.2805 Q1352.5518,523.093 1353.5362,522.6555 L1353.5362,525.2492 Q1352.6768,525.6399 1351.7393,525.8117 Q1350.8174,525.9992 1349.9112,525.9992 Z " fill="#000000"/><text fill="#000000" font-family="Verdana" font-size="20" font-style="italic" lengthAdjust="spacing" textLength="89.2799" x="1430.1119" y="514.2982">&#171;Domain&#187;</text><text fill="#1B5E20" font-family="Verdana" font-size="18" lengthAdjust="spacing" textLength="213.7126" x="1367.8955" y="539.4001">HabitToTimeBlockService</text><line style="stroke:#388E3C;stroke-width:1;" x1="1269.31" x2="1652.6937" y1="549.674" y2="549.674"/><rect fill="none" height="6" style="stroke:#000000;stroke-width:1;" width="6" x="1276.31" y="564.4319"/><text fill="#000000" font-family="Verdana" font-size="18" lengthAdjust="spacing" textLength="361.3837" x="1286.31" y="572.9159">timeBlockRepository: TimeBlockRepository</text><line style="stroke:#388E3C;stroke-width:1;" x1="1269.31" x2="1652.6937" y1="582.1899" y2="582.1899"/><ellipse cx="1279.31" cy="599.9478" fill="#FFFFFF" rx="3" ry="3" style="stroke:#000000;stroke-width:1;"/><text fill="#000000" font-family="Verdana" font-size="18" lengthAdjust="spacing" textLength="265.6243" x="1286.31" y="605.4317">planificarBloques(): Future&lt;int&gt;</text></g><g class="entity" data-entity="GMN20" data-source-line="147" data-uid="ent0021" id="entity_GMN20"><path d="M1825.43,208.2182 L1825.43,272.6981 L2076.5697,272.6981 L2076.5697,218.2182 L2066.5697,208.2182 L1825.43,208.2182" fill="#FFFFFF" style="stroke:#000000;stroke-width:1;"/><path d="M2066.5697,208.2182 L2066.5697,218.2182 L2076.5697,218.2182 L2066.5697,208.2182" fill="#FFFFFF" style="stroke:#000000;stroke-width:1;"/><text fill="#000000" font-family="Verdana" font-size="20" lengthAdjust="spacing" textLength="230.1397" x="1831.43" y="234.5982">Singleton para inyecci&#243;n</text><text fill="#000000" font-family="Verdana" font-size="20" lengthAdjust="spacing" textLength="159.7998" x="1831.43" y="261.8382">de dependencias</text></g><g class="entity" data-entity="GMN23" data-source-line="152" data-uid="ent0024" id="entity_GMN23"><path d="M1688.92,803.9182 L1688.92,868.3981 L1999.0797,868.3981 L1999.0797,813.9182 L1989.0797,803.9182 L1688.92,803.9182" fill="#FFFFFF" style="stroke:#000000;stroke-width:1;"/><path d="M1989.0797,803.9182 L1989.0797,813.9182 L1999.0797,813.9182 L1989.0797,803.9182" fill="#FFFFFF" style="stroke:#000000;stroke-width:1;"/><text fill="#000000" font-family="Verdana" font-size="20" lengthAdjust="spacing" textLength="232.5597" x="1694.92" y="830.2982">Abstracci&#243;n del dominio.</text><text fill="#000000" font-family="Verdana" font-size="20" lengthAdjust="spacing" textLength="289.1597" x="1694.92" y="857.5382">Implementaci&#243;n en Data Layer</text></g><!--link ServiceLocator to HabitRepository--><g class="link" data-entity-1="ServiceLocator" data-entity-2="HabitRepository" data-source-line="139" data-uid="lnk15" id="link_ServiceLocator_HabitRepository"><path codeLine="139" d="M542.86,240.3282 C435,240.3282 326.82,240.3282 326.82,240.3282 C326.82,240.3282 326.82,576.0582 326.82,741.9182" fill="none" id="ServiceLocator-to-HabitRepository" style="stroke:#495057;stroke-width:1;"/><polygon fill="#495057" points="326.82,747.9182,330.82,738.9182,326.82,742.9182,322.82,738.9182,326.82,747.9182" style="stroke:#495057;stroke-width:1;"/><text fill="#000000" font-family="Verdana" font-size="20" lengthAdjust="spacing" textLength="68.4399" x="257.82" y="379.4882">creates</text></g><!--link ServiceLocator to ActivityRepository--><g class="link" data-entity-1="ServiceLocator" data-entity-2="ActivityRepository" data-source-line="140" data-uid="lnk16" id="link_ServiceLocator_ActivityRepository"><path codeLine="140" d="M757,340.9582 C757,380.2482 757,418.9082 757,456.9482" fill="none" id="ServiceLocator-to-ActivityRepository" style="stroke:#495057;stroke-width:1;"/><polygon fill="#495057" points="757,462.9482,761,453.9482,757,457.9482,753,453.9482,757,462.9482" style="stroke:#495057;stroke-width:1;"/><text fill="#000000" font-family="Verdana" font-size="20" lengthAdjust="spacing" textLength="68.4399" x="688" y="395.3282">creates</text></g><!--link ServiceLocator to TimeBlockRepository--><g class="link" data-entity-1="ServiceLocator" data-entity-2="TimeBlockRepository" data-source-line="141" data-uid="lnk17" id="link_ServiceLocator_TimeBlockRepository"><path codeLine="141" d="M970.99,336.3282 C1104.3,336.3282 1250.61,336.3282 1250.61,336.3282 C1250.61,336.3282 1250.61,614.4182 1250.61,754.2482" fill="none" id="ServiceLocator-to-TimeBlockRepository" style="stroke:#495057;stroke-width:1;"/><polygon fill="#495057" points="1250.61,760.2482,1254.61,751.2482,1250.61,755.2482,1246.61,751.2482,1250.61,760.2482" style="stroke:#495057;stroke-width:1;"/><text fill="#000000" font-family="Verdana" font-size="20" lengthAdjust="spacing" textLength="68.4399" x="1181.61" y="401.8582">creates</text></g><!--link GetHabitsUseCase to HabitRepository--><g class="link" data-entity-1="GetHabitsUseCase" data-entity-2="HabitRepository" data-source-line="143" data-uid="lnk18" id="link_GetHabitsUseCase_HabitRepository"><path codeLine="143" d="M168.13,614.8782 C168.13,654.0682 168.13,698.8882 168.13,741.9382" fill="none" id="GetHabitsUseCase-to-HabitRepository" style="stroke:#495057;stroke-width:1;"/><polygon fill="#495057" points="168.13,747.9382,172.13,738.9382,168.13,742.9382,164.13,738.9382,168.13,747.9382" style="stroke:#495057;stroke-width:1;"/><text fill="#000000" font-family="Verdana" font-size="20" lengthAdjust="spacing" textLength="111.0599" x="56.13" y="674.7882">depends on</text></g><!--link HabitToTimeBlockService to TimeBlockRepository--><g class="link" data-entity-1="HabitToTimeBlockService" data-entity-2="TimeBlockRepository" data-source-line="144" data-uid="lnk19" id="link_HabitToTimeBlockService_TimeBlockRepository"><path codeLine="144" d="M1461,614.8782 C1461,657.8382 1461,708.7782 1461,754.1382" fill="none" id="HabitToTimeBlockService-to-TimeBlockRepository" style="stroke:#495057;stroke-width:1;"/><polygon fill="#495057" points="1461,760.1382,1465,751.1382,1461,755.1382,1457,751.1382,1461,760.1382" style="stroke:#495057;stroke-width:1;"/><text fill="#000000" font-family="Verdana" font-size="20" lengthAdjust="spacing" textLength="111.0599" x="1349" y="680.8882">depends on</text></g><!--link ServiceLocator to GMN20--><g class="link" data-entity-1="ServiceLocator" data-entity-2="GMN20" data-source-line="147" data-uid="lnk22" id="link_ServiceLocator_GMN20"><path d="M970.91,332.3282 C1304.86,332.3282 1912.25,332.3282 1912.25,332.3282 C1912.25,332.3282 1912.25,299.5082 1912.25,273.1082" fill="none" id="ServiceLocator-GMN20" style="stroke:#495057;stroke-width:1;stroke-dasharray:7,7;"/></g><!--link HabitRepository to GMN23--><g class="link" data-entity-1="HabitRepository" data-entity-2="GMN23" data-source-line="152" data-uid="lnk25" id="link_HabitRepository_GMN23"><path d="M363.7,747.7682 C363.7,724.7782 363.7,706.3282 363.7,706.3282 C363.7,706.3282 1739.59,706.3282 1739.59,706.3282 C1739.59,706.3282 1739.59,765.2782 1739.59,803.7382" fill="none" id="HabitRepository-GMN23" style="stroke:#495057;stroke-width:1;stroke-dasharray:7,7;"/></g><!--SRC=[hLVRRkCs47tNLypk0bqlkYvi9saS8tMX-D8QS3QBE4NGea11IsERY4og8fsDkyWdzMa_8J_MeQJeIYTnK3q8qimP3cSuPqY-qIjS8uG1uy9ntiD0YWLVRYBcyOTl0Yu-NqtE9t-uGnUQS8b1AlOHc0hHqn8wlGDe-7oDGd4fKC7YuL_5FQPwqEwsMdUTurOhlFlWlF5nmGN2yFC43bijHtaiG5YpknW6NxYlLmMXCOCLykLAEuwwuI9a4Ll3d7atoqXkX3-GWOpWtJX-2WXompQ17akXP_mVX4wheFG2fbIcQfzKLQxM4PzlDEQORXLpZdebVJiWfEcn9TgT1nI-teO8Cg8HdBePV7M0dhDQZDtnoTXDT3BoCKhbXoT7hQFZM6uyfj9EktFKEN7kdUh4xSEVdWvaXFq-l1iTZ3lZOTLDhc-V7Fyux9JTvThMyF3ORU_XTYZNL7Enu-xuQDIjEyuH1ztkw61GTPthssT78yfrtRaRHV9BELqvWjML1UsQYu4PujfK9hGFYqj95LhKTMirDl6aY2kWvJYQQohg8MTBKZF37MDBJ6c2IHvi8GdaJt7-yCtV1B870nQoiXAcR8kHOUXFBtyCdoykHp1rVnzTxcdwM9Dlusd4tjyIwS4plscjf4iRlzXSQUeQEbtqgIGgpxICp1XPbIHuyto_H7qcxqwl-eqFFHXlz2R2qqJGBu7S81WopSh0ALUwZ5Ji5kkuMydz0iZ707KCisBkysYI86OOtN8FJImKYIsCvbUbcURUFVp51NqA3tiLiznzXgMm9YdQJ6GNtaJlQNxBzVOIGwauQRV6e2uj6LrHDpuBf7TJjhA8IsQ_iZdNPPEAo9wbgLmkqPgTFE8yEGawX_36Z7gkMC8QbQ9Y-GZ9_y-WsPAcO9OdH-DJw8_WRmLRSm-Gc1tLZFsNkhetdMHVfWqlpjt9fuHhHEsH8DvpOlbtuARKeFrHlPQ5nIuGyz1F16dpB3BnVUQxi4YF9GE5jbbOAExtqcJaCaebrgK-qoGb3g6ffrnEjOjBgf6w1LS3kGuDyyZ9NCh0NaPnhVqFqzkgYyKruWsLckaI2Q3_aebgRXkHgo6TQmepJqQHuVQQwrN64djG6UVs22pUB-fY8b0KKzkMVHJ-BfKrtljYkUG4BvUgfQrN6iAEg9As7MDLjMl7qcBdPhuVonf90QpCUsS7tuIc_bwEJpf-Wa_9p_rdUdybv7gpVJBg54xigqR-E50b-4Tn8wCeIp-UoS8h39DqP8Qlp8Xb8tao9Hc-bf9CKyb99c_a19gRzpCfsSkkn87V51tBpAciGDvVqZrHaTBex44seomBzWqp8UWTUdIlU8eDzevu9RDGqdF2Zcde-geyi-VJfK_m1TtL8eBylIbLB1Uw__gzy78qTGUJYq-ZsPwcbHDNizcljPmUU17IMYiRs4BM9_6sKiuDd5e5s2VaOqWDM84Kpgurs-siOEm8gH4YS-a5kQYV2sV4LYAm562k6dIesg8NNyX9HzUAP2GK7cVAeIymmrK7hLTeslCVR_Q1ELfmmUKFf9kOZPlkzZgz-ACmEmnBRoEPZ_y0]--></g></svg>