<svg xmlns="http://www.w3.org/2000/svg" xmlns:xlink="http://www.w3.org/1999/xlink" contentStyleType="text/css" data-diagram-type="SEQUENCE" height="1473px" preserveAspectRatio="none" style="width:1731px;height:1473px;background:#FFFFFF;" version="1.1" viewBox="0 0 1731 1473" width="1731px" zoomAndPan="magnify"><title>Diagrama de Secuencia - Actualizaci&#243;n del Dashboard
Carga y Actualizaci&#243;n de Datos del D&#237;a</title><defs/><g><text fill="#000000" font-family="Verdana" font-size="22" font-weight="bold" lengthAdjust="spacing" textLength="584.784" x="572.0058" y="38.5181">Diagrama de Secuencia - Actualizaci&#243;n del Dashboard</text><text fill="#000000" font-family="Verdana" font-size="22" font-weight="bold" lengthAdjust="spacing" textLength="417.9574" x="655.4191" y="68.4822">Carga y Actualizaci&#243;n de Datos del D&#237;a</text><g><title>DashboardScreen</title><rect fill="#FFFFFF" height="949.1233" style="stroke:#000000;stroke-width:1;" width="10" x="356.8997" y="271.2862"/></g><g><title>DashboardController</title><rect fill="#FFFFFF" height="790.611" style="stroke:#000000;stroke-width:1;" width="10" x="583.9895" y="311.1643"/></g><g><title>ActivityRepository</title><rect fill="#FFFFFF" height="119.6342" style="stroke:#000000;stroke-width:1;" width="10" x="844.4291" y="399.5223"/></g><g><title>HabitRepository</title><rect fill="#FFFFFF" height="119.6342" style="stroke:#000000;stroke-width:1;" width="10" x="1048.1789" y="614.5146"/></g><g><title>TimeBlockRepository</title><rect fill="#FFFFFF" height="119.6342" style="stroke:#000000;stroke-width:1;" width="10" x="1266.5788" y="829.5068"/></g><g><title>HiveDatabase</title><rect fill="#FFFFFF" height="39.8781" style="stroke:#000000;stroke-width:1;" width="10" x="1631.7656" y="439.4004"/></g><g><title>HiveDatabase</title><rect fill="#FFFFFF" height="39.8781" style="stroke:#000000;stroke-width:1;" width="10" x="1631.7656" y="654.3927"/></g><g><title>HiveDatabase</title><rect fill="#FFFFFF" height="39.8781" style="stroke:#000000;stroke-width:1;" width="10" x="1631.7656" y="869.3849"/></g><rect fill="#FFFFFF" height="200.9922" style="stroke:#000000;stroke-width:1;" width="1252.046" x="462.7496" y="326.1643"/><rect fill="#FFFFFF" height="200.9922" style="stroke:#000000;stroke-width:1;" width="1252.046" x="462.7496" y="541.1566"/><rect fill="#FFFFFF" height="200.9922" style="stroke:#000000;stroke-width:1;" width="1252.046" x="462.7496" y="756.1488"/><g><title>Usuario</title><rect fill="#000000" fill-opacity="0.00000" height="1206.8205" width="8" x="45.65" y="174.1682"/><line style="stroke:#000000;stroke-width:1;stroke-dasharray:5,5;" x1="49" x2="49" y1="174.1682" y2="1380.9887"/></g><g><title>DashboardScreen</title><rect fill="#000000" fill-opacity="0.00000" height="1206.8205" width="8" x="357.8997" y="174.1682"/><line style="stroke:#000000;stroke-width:1;stroke-dasharray:5,5;" x1="361.0498" x2="361.0498" y1="174.1682" y2="1380.9887"/></g><g><title>DashboardController</title><rect fill="#000000" fill-opacity="0.00000" height="1206.8205" width="8" x="584.9895" y="174.1682"/><line style="stroke:#000000;stroke-width:1;stroke-dasharray:5,5;" x1="588.7496" x2="588.7496" y1="174.1682" y2="1380.9887"/></g><g><title>ActivityRepository</title><rect fill="#000000" fill-opacity="0.00000" height="1206.8205" width="8" x="845.4291" y="174.1682"/><line style="stroke:#000000;stroke-width:1;stroke-dasharray:5,5;" x1="849.3592" x2="849.3592" y1="174.1682" y2="1380.9887"/></g><g><title>HabitRepository</title><rect fill="#000000" fill-opacity="0.00000" height="1206.8205" width="8" x="1049.1789" y="174.1682"/><line style="stroke:#000000;stroke-width:1;stroke-dasharray:5,5;" x1="1052.499" x2="1052.499" y1="174.1682" y2="1380.9887"/></g><g><title>TimeBlockRepository</title><rect fill="#000000" fill-opacity="0.00000" height="1206.8205" width="8" x="1267.5788" y="174.1682"/><line style="stroke:#000000;stroke-width:1;stroke-dasharray:5,5;" x1="1270.8589" x2="1270.8589" y1="174.1682" y2="1380.9887"/></g><g><title>HiveDatabase</title><rect fill="#000000" fill-opacity="0.00000" height="1206.8205" width="8" x="1632.7656" y="174.1682"/><line style="stroke:#000000;stroke-width:1;stroke-dasharray:5,5;" x1="1636.7357" x2="1636.7357" y1="174.1682" y2="1380.9887"/></g><g class="participant participant-head" data-participant="user"><text fill="#0D47A1" font-family="Verdana" font-size="20" lengthAdjust="spacing" textLength="73.2999" x="10" y="168.3082">Usuario</text><ellipse cx="49.65" cy="94.9282" fill="#E3F2FD" rx="8" ry="8" style="stroke:#1976D2;stroke-width:1;"/><path d="M49.65,102.9282 L49.65,129.9282 M36.65,110.9282 L62.65,110.9282 M49.65,129.9282 L36.65,144.9282 M49.65,129.9282 L62.65,144.9282" fill="none" style="stroke:#1976D2;stroke-width:1;"/></g><g class="participant participant-tail" data-participant="user"><text fill="#0D47A1" font-family="Verdana" font-size="20" lengthAdjust="spacing" textLength="73.2999" x="10" y="1401.3687">Usuario</text><ellipse cx="49.65" cy="1416.2287" fill="#E3F2FD" rx="8" ry="8" style="stroke:#1976D2;stroke-width:1;"/><path d="M49.65,1424.2287 L49.65,1451.2287 M36.65,1432.2287 L62.65,1432.2287 M49.65,1451.2287 L36.65,1466.2287 M49.65,1451.2287 L62.65,1466.2287" fill="none" style="stroke:#1976D2;stroke-width:1;"/></g><g class="participant participant-head" data-participant="dashboard"><rect fill="#F3E5F5" height="41.24" rx="2.5" ry="2.5" style="stroke:#7B1FA2;stroke-width:1;" width="181.6998" x="271.0498" y="131.9282"/><text fill="#4A148C" font-family="Verdana" font-size="20" lengthAdjust="spacing" textLength="167.6998" x="278.0498" y="160.3082">DashboardScreen</text></g><g class="participant participant-tail" data-participant="dashboard"><rect fill="#F3E5F5" height="41.24" rx="2.5" ry="2.5" style="stroke:#7B1FA2;stroke-width:1;" width="181.6998" x="271.0498" y="1379.9887"/><text fill="#4A148C" font-family="Verdana" font-size="20" lengthAdjust="spacing" textLength="167.6998" x="278.0498" y="1408.3687">DashboardScreen</text></g><g class="participant participant-head" data-participant="controller"><rect fill="#F3E5F5" height="41.24" rx="2.5" ry="2.5" style="stroke:#7B1FA2;stroke-width:1;" width="212.4798" x="482.7496" y="131.9282"/><text fill="#4A148C" font-family="Verdana" font-size="20" lengthAdjust="spacing" textLength="198.4798" x="489.7496" y="160.3082">DashboardController</text></g><g class="participant participant-tail" data-participant="controller"><rect fill="#F3E5F5" height="41.24" rx="2.5" ry="2.5" style="stroke:#7B1FA2;stroke-width:1;" width="212.4798" x="482.7496" y="1379.9887"/><text fill="#4A148C" font-family="Verdana" font-size="20" lengthAdjust="spacing" textLength="198.4798" x="489.7496" y="1408.3687">DashboardController</text></g><g class="participant participant-head" data-participant="activityRepo"><rect fill="#F3E5F5" height="41.24" rx="2.5" ry="2.5" style="stroke:#7B1FA2;stroke-width:1;" width="182.1398" x="758.3592" y="131.9282"/><text fill="#4A148C" font-family="Verdana" font-size="20" lengthAdjust="spacing" textLength="168.1398" x="765.3592" y="160.3082">ActivityRepository</text></g><g class="participant participant-tail" data-participant="activityRepo"><rect fill="#F3E5F5" height="41.24" rx="2.5" ry="2.5" style="stroke:#7B1FA2;stroke-width:1;" width="182.1398" x="758.3592" y="1379.9887"/><text fill="#4A148C" font-family="Verdana" font-size="20" lengthAdjust="spacing" textLength="168.1398" x="765.3592" y="1408.3687">ActivityRepository</text></g><g class="participant participant-head" data-participant="habitRepo"><rect fill="#F3E5F5" height="41.24" rx="2.5" ry="2.5" style="stroke:#7B1FA2;stroke-width:1;" width="165.3598" x="970.499" y="131.9282"/><text fill="#4A148C" font-family="Verdana" font-size="20" lengthAdjust="spacing" textLength="151.3598" x="977.499" y="160.3082">HabitRepository</text></g><g class="participant participant-tail" data-participant="habitRepo"><rect fill="#F3E5F5" height="41.24" rx="2.5" ry="2.5" style="stroke:#7B1FA2;stroke-width:1;" width="165.3598" x="970.499" y="1379.9887"/><text fill="#4A148C" font-family="Verdana" font-size="20" lengthAdjust="spacing" textLength="151.3598" x="977.499" y="1408.3687">HabitRepository</text></g><g class="participant participant-head" data-participant="timeRepo"><rect fill="#F3E5F5" height="41.24" rx="2.5" ry="2.5" style="stroke:#7B1FA2;stroke-width:1;" width="211.4398" x="1165.8589" y="131.9282"/><text fill="#4A148C" font-family="Verdana" font-size="20" lengthAdjust="spacing" textLength="197.4398" x="1172.8589" y="160.3082">TimeBlockRepository</text></g><g class="participant participant-tail" data-participant="timeRepo"><rect fill="#F3E5F5" height="41.24" rx="2.5" ry="2.5" style="stroke:#7B1FA2;stroke-width:1;" width="211.4398" x="1165.8589" y="1379.9887"/><text fill="#4A148C" font-family="Verdana" font-size="20" lengthAdjust="spacing" textLength="197.4398" x="1172.8589" y="1408.3687">TimeBlockRepository</text></g><g class="participant participant-head" data-participant="hive"><text fill="#1B5E20" font-family="Verdana" font-size="20" lengthAdjust="spacing" textLength="130.0598" x="1568.7357" y="168.3082">HiveDatabase</text><path d="M1618.7656,110.9282 C1618.7656,100.9282 1636.7656,100.9282 1636.7656,100.9282 C1636.7656,100.9282 1654.7656,100.9282 1654.7656,110.9282 L1654.7656,136.9282 C1654.7656,146.9282 1636.7656,146.9282 1636.7656,146.9282 C1636.7656,146.9282 1618.7656,146.9282 1618.7656,136.9282 L1618.7656,110.9282" fill="#E8F5E8" style="stroke:#388E3C;stroke-width:1;"/><path d="M1618.7656,110.9282 C1618.7656,120.9282 1636.7656,120.9282 1636.7656,120.9282 C1636.7656,120.9282 1654.7656,120.9282 1654.7656,110.9282" fill="none" style="stroke:#388E3C;stroke-width:1;"/></g><g class="participant participant-tail" data-participant="hive"><text fill="#1B5E20" font-family="Verdana" font-size="20" lengthAdjust="spacing" textLength="130.0598" x="1568.7357" y="1401.3687">HiveDatabase</text><path d="M1618.7656,1417.2287 C1618.7656,1407.2287 1636.7656,1407.2287 1636.7656,1407.2287 C1636.7656,1407.2287 1654.7656,1407.2287 1654.7656,1417.2287 L1654.7656,1443.2287 C1654.7656,1453.2287 1636.7656,1453.2287 1636.7656,1453.2287 C1636.7656,1453.2287 1618.7656,1453.2287 1618.7656,1443.2287 L1618.7656,1417.2287" fill="#E8F5E8" style="stroke:#388E3C;stroke-width:1;"/><path d="M1618.7656,1417.2287 C1618.7656,1427.2287 1636.7656,1427.2287 1636.7656,1427.2287 C1636.7656,1427.2287 1654.7656,1427.2287 1654.7656,1417.2287" fill="none" style="stroke:#388E3C;stroke-width:1;"/></g><g><title>DashboardScreen</title><rect fill="#FFFFFF" height="949.1233" style="stroke:#000000;stroke-width:1;" width="10" x="356.8997" y="271.2862"/></g><g><title>DashboardController</title><rect fill="#FFFFFF" height="790.611" style="stroke:#000000;stroke-width:1;" width="10" x="583.9895" y="311.1643"/></g><g><title>ActivityRepository</title><rect fill="#FFFFFF" height="119.6342" style="stroke:#000000;stroke-width:1;" width="10" x="844.4291" y="399.5223"/></g><g><title>HabitRepository</title><rect fill="#FFFFFF" height="119.6342" style="stroke:#000000;stroke-width:1;" width="10" x="1048.1789" y="614.5146"/></g><g><title>TimeBlockRepository</title><rect fill="#FFFFFF" height="119.6342" style="stroke:#000000;stroke-width:1;" width="10" x="1266.5788" y="829.5068"/></g><g><title>HiveDatabase</title><rect fill="#FFFFFF" height="39.8781" style="stroke:#000000;stroke-width:1;" width="10" x="1631.7656" y="439.4004"/></g><g><title>HiveDatabase</title><rect fill="#FFFFFF" height="39.8781" style="stroke:#000000;stroke-width:1;" width="10" x="1631.7656" y="654.3927"/></g><g><title>HiveDatabase</title><rect fill="#FFFFFF" height="39.8781" style="stroke:#000000;stroke-width:1;" width="10" x="1631.7656" y="869.3849"/></g><rect fill="#FFFFFF" height="3" style="stroke:#FFFFFF;stroke-width:1;" width="1719.7956" x="5" y="210.7882"/><line style="stroke:#000000;stroke-width:0.5;" x1="5" x2="1724.7956" y1="210.7882" y2="210.7882"/><line style="stroke:#000000;stroke-width:0.5;" x1="5" x2="1724.7956" y1="213.7882" y2="213.7882"/><rect fill="#FFFFFF" height="35.24" style="stroke:#000000;stroke-width:1;" width="233.2998" x="748.2479" y="194.1682"/><text fill="#000000" font-family="Verdana" font-size="20" font-weight="bold" lengthAdjust="spacing" textLength="214.0998" x="754.2479" y="219.5482">Actualizar Dashboard</text><g class="message" data-participant-1="user" data-participant-2="dashboard"><polygon fill="#000000" points="344.8997,267.2862,354.8997,271.2862,344.8997,275.2862,348.8997,271.2862" style="stroke:#000000;stroke-width:1;"/><line style="stroke:#000000;stroke-width:1;" x1="49.65" x2="350.8997" y1="271.2862" y2="271.2862"/><text fill="#000000" font-family="Verdana" font-size="19" lengthAdjust="spacing" textLength="288.2497" x="59.15" y="263.7192">Abrir aplicaci&#243;n o pull-to-refresh</text></g><g class="message" data-participant-1="dashboard" data-participant-2="controller"><polygon fill="#000000" points="571.9895,307.1643,581.9895,311.1643,571.9895,315.1643,575.9895,311.1643" style="stroke:#000000;stroke-width:1;"/><line style="stroke:#000000;stroke-width:1;" x1="366.8997" x2="577.9895" y1="311.1643" y2="311.1643"/><text fill="#000000" font-family="Verdana" font-size="19" lengthAdjust="spacing" textLength="174.6485" x="388.1203" y="303.5973">refreshDashboard()</text></g><path d="M462.7496,326.1643 L541.3096,326.1643 L541.3096,345.4043 L531.3096,355.4043 L462.7496,355.4043 L462.7496,326.1643" fill="#FFFFFF" style="stroke:#000000;stroke-width:1;"/><rect fill="none" height="200.9922" style="stroke:#000000;stroke-width:1;" width="1252.046" x="462.7496" y="326.1643"/><text fill="#000000" font-family="Verdana" font-size="20" font-weight="bold" lengthAdjust="spacing" textLength="33.56" x="477.7496" y="348.5443">par</text><text fill="#000000" font-family="Verdana" font-size="20" font-weight="bold" lengthAdjust="spacing" textLength="274.7597" x="556.3096" y="349.5443">[Cargar Actividades del D&#237;a]</text><g class="message" data-participant-1="controller" data-participant-2="activityRepo"><polygon fill="#000000" points="832.4291,395.5223,842.4291,399.5223,832.4291,403.5223,836.4291,399.5223" style="stroke:#000000;stroke-width:1;"/><line style="stroke:#000000;stroke-width:1;" x1="593.9895" x2="838.4291" y1="399.5223" y2="399.5223"/><text fill="#000000" font-family="Verdana" font-size="19" lengthAdjust="spacing" textLength="231.4396" x="603.4895" y="391.9553">getTodayActivities(userId)</text></g><g class="message" data-participant-1="activityRepo" data-participant-2="hive"><polygon fill="#000000" points="1619.7656,435.4004,1629.7656,439.4004,1619.7656,443.4004,1623.7656,439.4004" style="stroke:#000000;stroke-width:1;"/><line style="stroke:#000000;stroke-width:1;" x1="854.4291" x2="1625.7656" y1="439.4004" y2="439.4004"/><text fill="#000000" font-family="Verdana" font-size="19" lengthAdjust="spacing" textLength="314.2798" x="1085.9575" y="431.8334">queryTodayActivities(userId, today)</text></g><g class="message" data-participant-1="hive" data-participant-2="activityRepo"><polygon fill="#000000" points="865.4291,475.2785,855.4291,479.2785,865.4291,483.2785,861.4291,479.2785" style="stroke:#000000;stroke-width:1;"/><line style="stroke:#000000;stroke-width:1;stroke-dasharray:2,2;" x1="859.4291" x2="1635.7656" y1="479.2785" y2="479.2785"/><text fill="#000000" font-family="Verdana" font-size="19" lengthAdjust="spacing" textLength="129.5424" x="1180.8262" y="471.7115">todayActivities</text></g><g class="message" data-participant-1="activityRepo" data-participant-2="controller"><polygon fill="#000000" points="604.9895,515.1566,594.9895,519.1566,604.9895,523.1566,600.9895,519.1566" style="stroke:#000000;stroke-width:1;"/><line style="stroke:#000000;stroke-width:1;stroke-dasharray:2,2;" x1="598.9895" x2="848.4291" y1="519.1566" y2="519.1566"/><text fill="#000000" font-family="Verdana" font-size="19" lengthAdjust="spacing" textLength="116.6793" x="663.3696" y="511.5895">List&lt;Activity&gt;</text></g><path d="M462.7496,541.1566 L541.3096,541.1566 L541.3096,560.3965 L531.3096,570.3965 L462.7496,570.3965 L462.7496,541.1566" fill="#FFFFFF" style="stroke:#000000;stroke-width:1;"/><rect fill="none" height="200.9922" style="stroke:#000000;stroke-width:1;" width="1252.046" x="462.7496" y="541.1566"/><text fill="#000000" font-family="Verdana" font-size="20" font-weight="bold" lengthAdjust="spacing" textLength="33.56" x="477.7496" y="563.5365">par</text><text fill="#000000" font-family="Verdana" font-size="20" font-weight="bold" lengthAdjust="spacing" textLength="236.4198" x="556.3096" y="564.5365">[Cargar H&#225;bitos del D&#237;a]</text><g class="message" data-participant-1="controller" data-participant-2="habitRepo"><polygon fill="#000000" points="1036.1789,610.5146,1046.1789,614.5146,1036.1789,618.5146,1040.1789,614.5146" style="stroke:#000000;stroke-width:1;"/><line style="stroke:#000000;stroke-width:1;" x1="593.9895" x2="1042.1789" y1="614.5146" y2="614.5146"/><text fill="#000000" font-family="Verdana" font-size="19" lengthAdjust="spacing" textLength="209.5706" x="716.2989" y="606.9476">getTodayHabits(userId)</text></g><g class="message" data-participant-1="habitRepo" data-participant-2="hive"><polygon fill="#000000" points="1619.7656,650.3927,1629.7656,654.3927,1619.7656,658.3927,1623.7656,654.3927" style="stroke:#000000;stroke-width:1;"/><line style="stroke:#000000;stroke-width:1;" x1="1058.1789" x2="1625.7656" y1="654.3927" y2="654.3927"/><text fill="#000000" font-family="Verdana" font-size="19" lengthAdjust="spacing" textLength="292.4108" x="1198.7669" y="646.8256">queryTodayHabits(userId, today)</text></g><g class="message" data-participant-1="hive" data-participant-2="habitRepo"><polygon fill="#000000" points="1069.1789,690.2707,1059.1789,694.2707,1069.1789,698.2707,1065.1789,694.2707" style="stroke:#000000;stroke-width:1;"/><line style="stroke:#000000;stroke-width:1;stroke-dasharray:2,2;" x1="1063.1789" x2="1635.7656" y1="694.2707" y2="694.2707"/><text fill="#000000" font-family="Verdana" font-size="19" lengthAdjust="spacing" textLength="107.6733" x="1293.6356" y="686.7037">todayHabits</text></g><g class="message" data-participant-1="habitRepo" data-participant-2="controller"><polygon fill="#000000" points="604.9895,730.1488,594.9895,734.1488,604.9895,738.1488,600.9895,734.1488" style="stroke:#000000;stroke-width:1;"/><line style="stroke:#000000;stroke-width:1;stroke-dasharray:2,2;" x1="598.9895" x2="1052.1789" y1="734.1488" y2="734.1488"/><text fill="#000000" font-family="Verdana" font-size="19" lengthAdjust="spacing" textLength="100.7383" x="773.2151" y="726.5818">List&lt;Habit&gt;</text></g><path d="M462.7496,756.1488 L541.3096,756.1488 L541.3096,775.3888 L531.3096,785.3888 L462.7496,785.3888 L462.7496,756.1488" fill="#FFFFFF" style="stroke:#000000;stroke-width:1;"/><rect fill="none" height="200.9922" style="stroke:#000000;stroke-width:1;" width="1252.046" x="462.7496" y="756.1488"/><text fill="#000000" font-family="Verdana" font-size="20" font-weight="bold" lengthAdjust="spacing" textLength="33.56" x="477.7496" y="778.5288">par</text><text fill="#000000" font-family="Verdana" font-size="20" font-weight="bold" lengthAdjust="spacing" textLength="347.7596" x="556.3096" y="779.5288">[Cargar Bloques de Tiempo del D&#237;a]</text><g class="message" data-participant-1="controller" data-participant-2="timeRepo"><polygon fill="#000000" points="1254.5788,825.5068,1264.5788,829.5068,1254.5788,833.5068,1258.5788,829.5068" style="stroke:#000000;stroke-width:1;"/><line style="stroke:#000000;stroke-width:1;" x1="593.9895" x2="1260.5788" y1="829.5068" y2="829.5068"/><text fill="#000000" font-family="Verdana" font-size="19" lengthAdjust="spacing" textLength="253.3467" x="803.6108" y="821.9398">getTodayTimeBlocks(userId)</text></g><g class="message" data-participant-1="timeRepo" data-participant-2="hive"><polygon fill="#000000" points="1619.7656,865.3849,1629.7656,869.3849,1619.7656,873.3849,1623.7656,869.3849" style="stroke:#000000;stroke-width:1;"/><line style="stroke:#000000;stroke-width:1;" x1="1276.5788" x2="1625.7656" y1="869.3849" y2="869.3849"/><text fill="#000000" font-family="Verdana" font-size="19" lengthAdjust="spacing" textLength="336.1869" x="1286.0788" y="861.8179">queryTodayTimeBlocks(userId, today)</text></g><g class="message" data-participant-1="hive" data-participant-2="timeRepo"><polygon fill="#000000" points="1287.5788,905.263,1277.5788,909.263,1287.5788,913.263,1283.5788,909.263" style="stroke:#000000;stroke-width:1;"/><line style="stroke:#000000;stroke-width:1;stroke-dasharray:2,2;" x1="1281.5788" x2="1635.7656" y1="909.263" y2="909.263"/><text fill="#000000" font-family="Verdana" font-size="19" lengthAdjust="spacing" textLength="151.4494" x="1380.9475" y="901.696">todayTimeBlocks</text></g><g class="message" data-participant-1="timeRepo" data-participant-2="controller"><polygon fill="#000000" points="604.9895,945.141,594.9895,949.141,604.9895,953.141,600.9895,949.141" style="stroke:#000000;stroke-width:1;"/><line style="stroke:#000000;stroke-width:1;stroke-dasharray:2,2;" x1="598.9895" x2="1270.5788" y1="949.141" y2="949.141"/><text fill="#000000" font-family="Verdana" font-size="19" lengthAdjust="spacing" textLength="144.5144" x="860.5269" y="941.574">List&lt;TimeBlock&gt;</text></g><g class="message" data-participant-1="controller" data-participant-2="controller"><line style="stroke:#000000;stroke-width:1;" x1="593.9895" x2="635.9895" y1="996.0191" y2="996.0191"/><line style="stroke:#000000;stroke-width:1;" x1="635.9895" x2="635.9895" y1="996.0191" y2="1009.0191"/><line style="stroke:#000000;stroke-width:1;" x1="594.9895" x2="635.9895" y1="1009.0191" y2="1009.0191"/><polygon fill="#000000" points="604.9895,1005.0191,594.9895,1009.0191,604.9895,1013.0191,600.9895,1009.0191" style="stroke:#000000;stroke-width:1;"/><text fill="#000000" font-family="Verdana" font-size="19" lengthAdjust="spacing" textLength="183.8635" x="600.9895" y="988.4521">calcularEstad&#237;sticas()</text></g><g class="message" data-participant-1="controller" data-participant-2="controller"><line style="stroke:#000000;stroke-width:1;" x1="593.9895" x2="635.9895" y1="1048.8972" y2="1048.8972"/><line style="stroke:#000000;stroke-width:1;" x1="635.9895" x2="635.9895" y1="1048.8972" y2="1061.8972"/><line style="stroke:#000000;stroke-width:1;" x1="594.9895" x2="635.9895" y1="1061.8972" y2="1061.8972"/><polygon fill="#000000" points="604.9895,1057.8972,594.9895,1061.8972,604.9895,1065.8972,600.9895,1061.8972" style="stroke:#000000;stroke-width:1;"/><text fill="#000000" font-family="Verdana" font-size="19" lengthAdjust="spacing" textLength="203.3195" x="600.9895" y="1041.3302">prepararDatosParaUI()</text></g><g class="message" data-participant-1="controller" data-participant-2="dashboard"><polygon fill="#000000" points="377.8997,1097.7753,367.8997,1101.7753,377.8997,1105.7753,373.8997,1101.7753" style="stroke:#000000;stroke-width:1;"/><line style="stroke:#000000;stroke-width:1;stroke-dasharray:2,2;" x1="371.8997" x2="587.9895" y1="1101.7753" y2="1101.7753"/><text fill="#000000" font-family="Verdana" font-size="19" lengthAdjust="spacing" textLength="140.7904" x="407.5494" y="1094.2083">DashboardData</text></g><g class="message" data-participant-1="dashboard" data-participant-2="dashboard"><line style="stroke:#000000;stroke-width:1;" x1="366.8997" x2="408.8997" y1="1141.6533" y2="1141.6533"/><line style="stroke:#000000;stroke-width:1;" x1="408.8997" x2="408.8997" y1="1141.6533" y2="1154.6533"/><line style="stroke:#000000;stroke-width:1;" x1="367.8997" x2="408.8997" y1="1154.6533" y2="1154.6533"/><polygon fill="#000000" points="377.8997,1150.6533,367.8997,1154.6533,377.8997,1158.6533,373.8997,1154.6533" style="stroke:#000000;stroke-width:1;"/><text fill="#000000" font-family="Verdana" font-size="19" lengthAdjust="spacing" textLength="118.0093" x="373.8997" y="1134.0863">actualizarUI()</text></g><g class="message" data-participant-1="dashboard" data-participant-2="user"><polygon fill="#000000" points="60.65,1216.4095,50.65,1220.4095,60.65,1224.4095,56.65,1220.4095" style="stroke:#000000;stroke-width:1;"/><line style="stroke:#000000;stroke-width:1;stroke-dasharray:2,2;" x1="54.65" x2="360.8997" y1="1220.4095" y2="1220.4095"/><text fill="#000000" font-family="Verdana" font-size="19" lengthAdjust="spacing" textLength="279.0917" x="66.229" y="1186.9644">Mostrar dashboard actualizado</text><text fill="#000000" font-family="Verdana" font-size="19" lengthAdjust="spacing" textLength="181.3555" x="115.0971" y="1212.8425">con resumen del d&#237;a</text></g><path d="M593,1233.4095 L593,1365.4095 L839,1365.4095 L839,1243.4095 L829,1233.4095 L593,1233.4095" fill="#FFFFFF" style="stroke:#000000;stroke-width:1;"/><path d="M829,1233.4095 L829,1243.4095 L839,1243.4095 L829,1233.4095" fill="#FFFFFF" style="stroke:#000000;stroke-width:1;"/><text fill="#000000" font-family="Verdana" font-size="18" lengthAdjust="spacing" textLength="195.2448" x="599" y="1257.6514">Estad&#237;sticas calculadas:</text><text fill="#000000" font-family="Verdana" font-size="18" lengthAdjust="spacing" textLength="219.8506" x="599" y="1282.1672">- Actividades completadas</text><text fill="#000000" font-family="Verdana" font-size="18" lengthAdjust="spacing" textLength="225.5926" x="599" y="1306.6831">- H&#225;bitos completados hoy</text><text fill="#000000" font-family="Verdana" font-size="18" lengthAdjust="spacing" textLength="218.6626" x="599" y="1331.1989">- Tiempo de enfoque total</text><text fill="#000000" font-family="Verdana" font-size="18" lengthAdjust="spacing" textLength="141.3172" x="599" y="1355.7148">- Progreso diario</text><!--SRC=[bLRDRjiu4BxhAQRPmoR06l1FdBZ6fe1iMOYBP6FOpcNH2otHDX5Pr99K6tUn3xCFq5CV8I_M8MrJb6G7YGw6DVpcc-4tmn4_g3NTKCWImbBF-ns6F5soLIv8n5v-fl0mcO_lnt_xWGyDcD9aRuuf49dHI75ezpjm7hCDJINZAPMmVFaXMKHa7rfNpUPp-xBPp9ull0ynNRAKGZ0P0vey6P64meOy6nXyOx5QEqRj1clALclbUVA9fHaHP0CB4Zsj1C_JUCWJBk2tq3mE0iEGF54XJzMCVQVGRZgB-AjOn3AIdW18-azEquZUKod9Yle9MwKGqLHHSGJb2y6_MQBMnoEGALrIeVyKi9u3IxaghPWAuCPGHms0c1btXU-APLngvIE-oL1fRNIO21P3mByUu3EegZJgXEqmsArn4LEnjxS-Nby5RMFNMUojpU3osczv_td7bJiL9EoCkc6t7kHwq0hzMf1BltNP6vQ3HBWiU78oG8WXclK0OVTws6nM0uokkYsqbWB4H945aVIaJhsmE-hL8tHwlL5dM8tG6dH7RHD1COLz6p2omYX45sb68rr_Hl3S-97AISA-syEJG43aUi69YB-aGo9M1BPr58AKgJZ2NtuGtHitRtyGFV6dy_5mFF7_cezcx_JUjTFPeyo9OFmCZpla4W-1smTdTXUpI52Q6bHyi9s03dSrJgWmyCY-bl6e1llAr7PAiUiPvh8rSEAOomwtPC5K1Rq-sChGEKwhGSAZfmfSeTsWRPkStRAlDDY_xIZHyFvAX7UFdnzq9mpdZ_uTpjCf1FxiTl3WJuDtajtS59qYYZv23i_J5OB6fw86q0T_8PW0aYKuatUTnI7BawIXU4FG9KwQjMTK9OewnVCA3YGigeICUoyR-loY873AgJK7qzm2TjMCIKoTVjQdoI76C6vrCT2AgZcFoNRV2upASxt3SNnXV6tGKbFObGCFykgY8HzEPB4zplW7A6sl49jYQuiXQDGpL6KoWurftR-SK5NGEoRLduU6_rGbAUsEfd59sDkN_x75-QkgsbFWI6fEomavYrDZjcwzZmbPudchY6v2gc0vgPwJmb7fZ7jDjs8RLT7mxECEpBTqpYX-J5zJxp0K7F7i_3WXe9qZschzZybNOtghX4vMganqKiKYaQCYMeQQa7OxHiUoEYKUlBn5UKB4I2eIuorGwMiWJeTNN391zPTPc4_T1FyzZj6Xv56PPtRiwB7iEMcwewSql5nlOaUd2UJW46Z6Pn_kkLIOakDdlMB-9SKuE09bZZTUqpUn-JRhYnm8VLq5ldHp0IZ9SH09oVkurYYDHdspIwZIYsRDdcwxWF_NV6iMRUi2JPUweR4J54dCsaJm5UQ8gqn_ldNbp5NJSmKhXlql]--></g></svg>