<svg xmlns="http://www.w3.org/2000/svg" xmlns:xlink="http://www.w3.org/1999/xlink" contentStyleType="text/css" data-diagram-type="CLASS" height="1221px" preserveAspectRatio="none" style="width:3982px;height:1221px;background:#FFFFFF;" version="1.1" viewBox="0 0 3982 1221" width="3982px" zoomAndPan="magnify"><title>Diagrama de Clases - Presentation y Services
M&#243;dulo: Capa de Presentaci&#243;n y Servicios</title><defs/><g><g class="title" data-source-line="53"><text fill="#000000" font-family="Verdana" font-size="22" font-weight="bold" lengthAdjust="spacing" textLength="489.2157" x="1741.922" y="38.5181">Diagrama de Clases - Presentation y Services</text><text fill="#000000" font-family="Verdana" font-size="22" font-weight="bold" lengthAdjust="spacing" textLength="452.5416" x="1760.2591" y="68.4822">M&#243;dulo: Capa de Presentaci&#243;n y Servicios</text></g><!--cluster domain--><g class="cluster" data-entity="domain" data-source-line="58" data-uid="ent0002" id="cluster_domain"><path d="M1218.5,440.4282 L1493.4597,440.4282 A3.75,3.75 0 0 1 1495.9597,442.9282 L1502.9597,473.6682 L2421.5,473.6682 A2.5,2.5 0 0 1 2424,476.1682 L2424,651.2382 A2.5,2.5 0 0 1 2421.5,653.7382 L1218.5,653.7382 A2.5,2.5 0 0 1 1216,651.2382 L1216,442.9282 A2.5,2.5 0 0 1 1218.5,440.4282" fill="#E8F5E8" style="stroke:#495057;stroke-width:1;"/><line style="stroke:#495057;stroke-width:1;" x1="1216" x2="1502.9597" y1="473.6682" y2="473.6682"/><text fill="#212529" font-family="Verdana" font-size="20" font-weight="bold" lengthAdjust="spacing" textLength="273.9597" x="1220" y="463.8082">Domain Layer (Referencias)</text></g><!--cluster presentation--><g class="cluster" data-entity="presentation" data-source-line="79" data-uid="ent0006" id="cluster_presentation"><path d="M13.5,94.2882 L204.2598,94.2882 A3.75,3.75 0 0 1 206.7598,96.7882 L213.7598,127.5282 L769.5,127.5282 A2.5,2.5 0 0 1 772,130.0282 L772,712.5282 A2.5,2.5 0 0 1 769.5,715.0282 L13.5,715.0282 A2.5,2.5 0 0 1 11,712.5282 L11,96.7882 A2.5,2.5 0 0 1 13.5,94.2882" fill="#F3E5F5" style="stroke:#495057;stroke-width:1;"/><line style="stroke:#495057;stroke-width:1;" x1="11" x2="213.7598" y1="127.5282" y2="127.5282"/><text fill="#212529" font-family="Verdana" font-size="20" font-weight="bold" lengthAdjust="spacing" textLength="189.7598" x="15" y="117.6682">Presentation Layer</text></g><!--cluster services--><g class="cluster" data-entity="services" data-source-line="113" data-uid="ent0010" id="cluster_services"><path d="M1971.5,739.0282 L2114.7599,739.0282 A3.75,3.75 0 0 1 2117.2599,741.5282 L2124.2599,772.2682 L3699.5,772.2682 A2.5,2.5 0 0 1 3702,774.7682 L3702,974.3482 A2.5,2.5 0 0 1 3699.5,976.8482 L1971.5,976.8482 A2.5,2.5 0 0 1 1969,974.3482 L1969,741.5282 A2.5,2.5 0 0 1 1971.5,739.0282" fill="#FFEBEE" style="stroke:#495057;stroke-width:1;"/><line style="stroke:#495057;stroke-width:1;" x1="1969" x2="2124.2599" y1="772.2682" y2="772.2682"/><text fill="#212529" font-family="Verdana" font-size="20" font-weight="bold" lengthAdjust="spacing" textLength="142.2599" x="1973" y="762.4082">Services Layer</text></g><!--cluster core--><g class="cluster" data-entity="core" data-source-line="138" data-uid="ent0014" id="cluster_core"><path d="M2494.5,1000.8482 L2728.0398,1000.8482 A3.75,3.75 0 0 1 2730.5398,1003.3482 L2737.5398,1034.0882 L2971.5,1034.0882 A2.5,2.5 0 0 1 2974,1036.5882 L2974,1211.6482 A2.5,2.5 0 0 1 2971.5,1214.1482 L2494.5,1214.1482 A2.5,2.5 0 0 1 2492,1211.6482 L2492,1003.3482 A2.5,2.5 0 0 1 2494.5,1000.8482" fill="#E3F2FD" style="stroke:#495057;stroke-width:1;"/><line style="stroke:#495057;stroke-width:1;" x1="2492" x2="2737.5398" y1="1034.0882" y2="1034.0882"/><text fill="#212529" font-family="Verdana" font-size="20" font-weight="bold" lengthAdjust="spacing" textLength="232.5398" x="2496" y="1024.2282">Core Layer (Referencia)</text></g><!--class HabitRepository--><g class="entity" data-entity="HabitRepository" data-source-line="59" data-uid="ent0003" id="entity_HabitRepository"><rect fill="#E8F5E8" height="151.3034" rx="2.5" ry="2.5" style="stroke:#388E3C;stroke-width:1;" width="355.7379" x="1232.13" y="486.4282"/><ellipse cx="1342.5204" cy="517.3061" fill="#FFFFFF" rx="9" ry="9" style="stroke:#000000;stroke-width:1;"/><path d="M1336.7235,523.3061 L1340.661,508.9624 L1344.3641,508.9624 L1348.3172,523.3061 L1345.4266,523.3061 L1344.5672,519.7592 L1340.4266,519.7592 L1339.536,523.3061 L1336.7235,523.3061 Z M1341.8954,513.853 L1341.0204,517.3686 L1343.9735,517.3686 L1343.1454,513.853 Q1342.9735,513.1655 1342.8172,512.5092 Q1342.6766,511.853 1342.5204,511.1655 Q1342.3797,511.853 1342.2235,512.5092 Q1342.0672,513.1655 1341.8954,513.853 Z " fill="#000000"/><text fill="#000000" font-family="Verdana" font-size="20" font-style="italic" lengthAdjust="spacing" textLength="89.2799" x="1379.109" y="512.8082">&#171;Domain&#187;</text><text fill="#1B5E20" font-family="Verdana" font-size="18" font-style="italic" lengthAdjust="spacing" textLength="127.4572" x="1360.0204" y="537.9101">HabitRepository</text><line style="stroke:#388E3C;stroke-width:1;" x1="1233.13" x2="1586.8679" y1="548.184" y2="548.184"/><line style="stroke:#388E3C;stroke-width:1;" x1="1233.13" x2="1586.8679" y1="556.184" y2="556.184"/><ellipse cx="1243.13" cy="573.9419" fill="#FFFFFF" rx="3" ry="3" style="stroke:#000000;stroke-width:1;"/><text fill="#000000" font-family="Verdana" font-size="18" lengthAdjust="spacing" textLength="294.7841" x="1250.13" y="579.4259">getAllHabits(): Future&lt;List&lt;Habit&gt;&gt;</text><ellipse cx="1243.13" cy="598.4578" fill="#FFFFFF" rx="3" ry="3" style="stroke:#000000;stroke-width:1;"/><text fill="#000000" font-family="Verdana" font-size="18" lengthAdjust="spacing" textLength="303.9641" x="1250.13" y="603.9417">addHabit(Habit habit): Future&lt;void&gt;</text><ellipse cx="1243.13" cy="622.9736" fill="#FFFFFF" rx="3" ry="3" style="stroke:#000000;stroke-width:1;"/><text fill="#000000" font-family="Verdana" font-size="18" lengthAdjust="spacing" textLength="331.7379" x="1250.13" y="628.4576">updateHabit(Habit habit): Future&lt;void&gt;</text></g><!--class ActivityRepository--><g class="entity" data-entity="ActivityRepository" data-source-line="65" data-uid="ent0004" id="entity_ActivityRepository"><rect fill="#E8F5E8" height="126.7875" rx="2.5" ry="2.5" style="stroke:#388E3C;stroke-width:1;" width="374.0798" x="1622.96" y="498.6882"/><ellipse cx="1736.1133" cy="529.5661" fill="#FFFFFF" rx="9" ry="9" style="stroke:#000000;stroke-width:1;"/><path d="M1730.3165,535.5661 L1734.254,521.2224 L1737.9571,521.2224 L1741.9102,535.5661 L1739.0196,535.5661 L1738.1602,532.0192 L1734.0196,532.0192 L1733.129,535.5661 L1730.3165,535.5661 Z M1735.4883,526.113 L1734.6133,529.6286 L1737.5665,529.6286 L1736.7383,526.113 Q1736.5665,525.4255 1736.4102,524.7692 Q1736.2696,524.113 1736.1133,523.4255 Q1735.9727,524.113 1735.8165,524.7692 Q1735.6602,525.4255 1735.4883,526.113 Z " fill="#000000"/><text fill="#000000" font-family="Verdana" font-size="20" font-style="italic" lengthAdjust="spacing" textLength="89.2799" x="1779.1099" y="525.0682">&#171;Domain&#187;</text><text fill="#1B5E20" font-family="Verdana" font-size="18" font-style="italic" lengthAdjust="spacing" textLength="140.2731" x="1753.6133" y="550.1701">ActivityRepository</text><line style="stroke:#388E3C;stroke-width:1;" x1="1623.96" x2="1996.0398" y1="560.444" y2="560.444"/><line style="stroke:#388E3C;stroke-width:1;" x1="1623.96" x2="1996.0398" y1="568.444" y2="568.444"/><ellipse cx="1633.96" cy="586.2019" fill="#FFFFFF" rx="3" ry="3" style="stroke:#000000;stroke-width:1;"/><text fill="#000000" font-family="Verdana" font-size="18" lengthAdjust="spacing" textLength="330.6038" x="1640.96" y="591.6859">getAllActivities(): Future&lt;List&lt;Activity&gt;&gt;</text><ellipse cx="1633.96" cy="610.7178" fill="#FFFFFF" rx="3" ry="3" style="stroke:#000000;stroke-width:1;"/><text fill="#000000" font-family="Verdana" font-size="18" lengthAdjust="spacing" textLength="350.0798" x="1640.96" y="616.2017">addActivity(Activity activity): Future&lt;void&gt;</text></g><!--class PredictProductivityUseCase--><g class="entity" data-entity="PredictProductivityUseCase" data-source-line="70" data-uid="ent0005" id="entity_PredictProductivityUseCase"><rect fill="#E8F5E8" height="126.7875" rx="2.5" ry="2.5" style="stroke:#388E3C;stroke-width:1;" width="376.6358" x="2031.68" y="498.6882"/><ellipse cx="2100.1666" cy="529.5661" fill="#FFFFFF" rx="9" ry="9" style="stroke:#000000;stroke-width:1;"/><path d="M2099.6823,536.7692 Q2097.6198,536.7692 2096.2916,535.8942 Q2094.9635,535.0192 2094.3073,533.4411 Q2093.6666,531.8474 2093.6666,529.7224 Q2093.6666,527.3474 2094.4323,525.6442 Q2095.2135,523.9255 2096.7135,523.0036 Q2098.2291,522.0817 2100.4323,522.0817 Q2101.4635,522.0817 2102.2448,522.3005 Q2103.0416,522.5036 2103.8698,522.9099 L2102.901,525.2849 Q2102.1666,524.9099 2101.526,524.7692 Q2100.901,524.6286 2100.3229,524.6286 Q2098.9479,524.6286 2098.1198,525.2536 Q2097.3073,525.863 2096.9479,526.988 Q2096.6041,528.113 2096.6041,529.613 Q2096.6041,531.9724 2097.4479,533.0974 Q2098.2916,534.2224 2100.1666,534.2224 Q2100.8698,534.2224 2101.5885,534.0505 Q2102.3229,533.863 2103.3073,533.4255 L2103.3073,536.0192 Q2102.4479,536.4099 2101.5104,536.5817 Q2100.5885,536.7692 2099.6823,536.7692 Z " fill="#000000"/><text fill="#000000" font-family="Verdana" font-size="20" font-style="italic" lengthAdjust="spacing" textLength="89.2799" x="2189.1079" y="525.0682">&#171;Domain&#187;</text><text fill="#1B5E20" font-family="Verdana" font-size="18" lengthAdjust="spacing" textLength="232.1626" x="2117.6666" y="550.1701">PredictProductivityUseCase</text><line style="stroke:#388E3C;stroke-width:1;" x1="2032.68" x2="2407.3158" y1="560.444" y2="560.444"/><rect fill="none" height="6" style="stroke:#000000;stroke-width:1;" width="6" x="2039.68" y="575.2019"/><text fill="#000000" font-family="Verdana" font-size="18" lengthAdjust="spacing" textLength="282.7782" x="2049.68" y="583.6859">apiService: TempoSageApiService</text><line style="stroke:#388E3C;stroke-width:1;" x1="2032.68" x2="2407.3158" y1="592.9599" y2="592.9599"/><ellipse cx="2042.68" cy="610.7178" fill="#FFFFFF" rx="3" ry="3" style="stroke:#000000;stroke-width:1;"/><text fill="#000000" font-family="Verdana" font-size="18" lengthAdjust="spacing" textLength="352.6358" x="2049.68" y="616.2017">execute(): Future&lt;Map&lt;String, dynamic&gt;&gt;</text></g><!--class HabitState--><g class="entity" data-entity="HabitState" data-source-line="82" data-uid="ent0007" id="entity_HabitState"><rect fill="#F3E5F5" height="273.8826" rx="2.5" ry="2.5" style="stroke:#7B1FA2;stroke-width:1;" width="343.174" x="31.41" y="425.1382"/><ellipse cx="135.647" cy="456.0161" fill="#FFFFFF" rx="9" ry="9" style="stroke:#000000;stroke-width:1;"/><path d="M135.1626,463.2192 Q133.1001,463.2192 131.772,462.3442 Q130.4439,461.4692 129.7876,459.8911 Q129.147,458.2974 129.147,456.1724 Q129.147,453.7974 129.9126,452.0942 Q130.6939,450.3755 132.1939,449.4536 Q133.7095,448.5317 135.9126,448.5317 Q136.9439,448.5317 137.7251,448.7505 Q138.522,448.9536 139.3501,449.3599 L138.3814,451.7349 Q137.647,451.3599 137.0064,451.2192 Q136.3814,451.0786 135.8033,451.0786 Q134.4283,451.0786 133.6001,451.7036 Q132.7876,452.313 132.4283,453.438 Q132.0845,454.563 132.0845,456.063 Q132.0845,458.4224 132.9283,459.5474 Q133.772,460.6724 135.647,460.6724 Q136.3501,460.6724 137.0689,460.5005 Q137.8033,460.313 138.7876,459.8755 L138.7876,462.4692 Q137.9283,462.8599 136.9908,463.0317 Q136.0689,463.2192 135.1626,463.2192 Z " fill="#000000"/><text fill="#000000" font-family="Verdana" font-size="20" font-style="italic" lengthAdjust="spacing" textLength="131.1999" x="151.147" y="451.5182">&#171;Presentation&#187;</text><text fill="#4A148C" font-family="Verdana" font-size="18" lengthAdjust="spacing" textLength="88.7754" x="172.3593" y="476.6201">HabitState</text><line style="stroke:#7B1FA2;stroke-width:1;" x1="32.41" x2="373.584" y1="486.894" y2="486.894"/><text fill="#000000" font-family="Verdana" font-size="18" lengthAdjust="spacing" textLength="81.9355" x="49.41" y="510.1359">&#171;freezed&#187;</text><ellipse cx="42.41" cy="529.1678" fill="none" rx="3" ry="3" style="stroke:#000000;stroke-width:1;"/><text fill="#000000" font-family="Verdana" font-size="18" lengthAdjust="spacing" textLength="128.5912" x="49.41" y="534.6517">isLoading: bool</text><ellipse cx="42.41" cy="553.6836" fill="none" rx="3" ry="3" style="stroke:#000000;stroke-width:1;"/><text fill="#000000" font-family="Verdana" font-size="18" lengthAdjust="spacing" textLength="156.995" x="49.41" y="559.1676">habits: List&lt;Habit&gt;</text><ellipse cx="42.41" cy="578.1995" fill="none" rx="3" ry="3" style="stroke:#000000;stroke-width:1;"/><text fill="#000000" font-family="Verdana" font-size="18" lengthAdjust="spacing" textLength="111.3113" x="49.41" y="583.6834">error: String?</text><line style="stroke:#7B1FA2;stroke-width:1;" x1="32.41" x2="373.584" y1="592.9574" y2="592.9574"/><ellipse cx="42.41" cy="610.7153" fill="#FFFFFF" rx="3" ry="3" style="stroke:#000000;stroke-width:1;"/><text fill="#000000" font-family="Verdana" font-size="18" lengthAdjust="spacing" textLength="155.375" x="49.41" y="616.1993">initial(): HabitState</text><ellipse cx="42.41" cy="635.2312" fill="#FFFFFF" rx="3" ry="3" style="stroke:#000000;stroke-width:1;"/><text fill="#000000" font-family="Verdana" font-size="18" lengthAdjust="spacing" textLength="172.6189" x="49.41" y="640.7151">loading(): HabitState</text><ellipse cx="42.41" cy="659.747" fill="#FFFFFF" rx="3" ry="3" style="stroke:#000000;stroke-width:1;"/><text fill="#000000" font-family="Verdana" font-size="18" lengthAdjust="spacing" textLength="319.174" x="49.41" y="665.231">loaded(List&lt;Habit&gt; habits): HabitState</text><ellipse cx="42.41" cy="684.2629" fill="#FFFFFF" rx="3" ry="3" style="stroke:#000000;stroke-width:1;"/><text fill="#000000" font-family="Verdana" font-size="18" lengthAdjust="spacing" textLength="283.3002" x="49.41" y="689.7468">error(String message): HabitState</text></g><!--class HabitCubit--><g class="entity" data-entity="HabitCubit" data-source-line="93" data-uid="ent0008" id="entity_HabitCubit"><rect fill="#F3E5F5" height="175.8192" rx="2.5" ry="2.5" style="stroke:#7B1FA2;stroke-width:1;" width="351.886" x="27.06" y="164.8082"/><ellipse cx="135.653" cy="195.6861" fill="#FFFFFF" rx="9" ry="9" style="stroke:#000000;stroke-width:1;"/><path d="M135.1687,202.8892 Q133.1062,202.8892 131.778,202.0142 Q130.4499,201.1392 129.7937,199.5611 Q129.153,197.9674 129.153,195.8424 Q129.153,193.4674 129.9187,191.7642 Q130.6999,190.0455 132.1999,189.1236 Q133.7155,188.2017 135.9187,188.2017 Q136.9499,188.2017 137.7312,188.4205 Q138.528,188.6236 139.3562,189.0299 L138.3874,191.4049 Q137.653,191.0299 137.0124,190.8892 Q136.3874,190.7486 135.8093,190.7486 Q134.4343,190.7486 133.6062,191.3736 Q132.7937,191.983 132.4343,193.108 Q132.0905,194.233 132.0905,195.733 Q132.0905,198.0924 132.9343,199.2174 Q133.778,200.3424 135.653,200.3424 Q136.3562,200.3424 137.0749,200.1705 Q137.8093,199.983 138.7937,199.5455 L138.7937,202.1392 Q137.9343,202.5299 136.9968,202.7017 Q136.0749,202.8892 135.1687,202.8892 Z " fill="#000000"/><text fill="#000000" font-family="Verdana" font-size="20" font-style="italic" lengthAdjust="spacing" textLength="131.1999" x="151.153" y="191.1882">&#171;Presentation&#187;</text><text fill="#4A148C" font-family="Verdana" font-size="18" lengthAdjust="spacing" textLength="90.3594" x="171.5733" y="216.2901">HabitCubit</text><line style="stroke:#7B1FA2;stroke-width:1;" x1="28.06" x2="377.946" y1="226.564" y2="226.564"/><rect fill="none" height="6" style="stroke:#000000;stroke-width:1;" width="6" x="35.06" y="241.3219"/><text fill="#000000" font-family="Verdana" font-size="18" lengthAdjust="spacing" textLength="232.5406" x="45.06" y="249.8059">repository: HabitRepository</text><line style="stroke:#7B1FA2;stroke-width:1;" x1="28.06" x2="377.946" y1="259.0799" y2="259.0799"/><ellipse cx="38.06" cy="276.8378" fill="#FFFFFF" rx="3" ry="3" style="stroke:#000000;stroke-width:1;"/><text fill="#000000" font-family="Verdana" font-size="18" lengthAdjust="spacing" textLength="293.2182" x="45.06" y="282.3217">getHabitsForToday(): Future&lt;void&gt;</text><ellipse cx="38.06" cy="301.3536" fill="#FFFFFF" rx="3" ry="3" style="stroke:#000000;stroke-width:1;"/><text fill="#000000" font-family="Verdana" font-size="18" lengthAdjust="spacing" textLength="327.886" x="45.06" y="306.8376">completeHabit(String id): Future&lt;void&gt;</text><ellipse cx="38.06" cy="325.8695" fill="#FFFFFF" rx="3" ry="3" style="stroke:#000000;stroke-width:1;"/><text fill="#000000" font-family="Verdana" font-size="18" lengthAdjust="spacing" textLength="324.7" x="45.06" y="331.3534">createHabit(Habit habit): Future&lt;void&gt;</text></g><!--class DashboardController--><g class="entity" data-entity="DashboardController" data-source-line="100" data-uid="ent0009" id="entity_DashboardController"><rect fill="#F3E5F5" height="224.8509" rx="2.5" ry="2.5" style="stroke:#7B1FA2;stroke-width:1;" width="342.742" x="413.63" y="140.2882"/><ellipse cx="491.9355" cy="171.1661" fill="#FFFFFF" rx="9" ry="9" style="stroke:#000000;stroke-width:1;"/><path d="M491.4512,178.3692 Q489.3887,178.3692 488.0605,177.4942 Q486.7324,176.6192 486.0762,175.0411 Q485.4355,173.4474 485.4355,171.3224 Q485.4355,168.9474 486.2012,167.2442 Q486.9824,165.5255 488.4824,164.6036 Q489.998,163.6817 492.2012,163.6817 Q493.2324,163.6817 494.0137,163.9005 Q494.8105,164.1036 495.6387,164.5099 L494.6699,166.8849 Q493.9355,166.5099 493.2949,166.3692 Q492.6699,166.2286 492.0918,166.2286 Q490.7168,166.2286 489.8887,166.8536 Q489.0762,167.463 488.7168,168.588 Q488.373,169.713 488.373,171.213 Q488.373,173.5724 489.2168,174.6974 Q490.0605,175.8224 491.9355,175.8224 Q492.6387,175.8224 493.3574,175.6505 Q494.0918,175.463 495.0762,175.0255 L495.0762,177.6192 Q494.2168,178.0099 493.2793,178.1817 Q492.3574,178.3692 491.4512,178.3692 Z " fill="#000000"/><text fill="#000000" font-family="Verdana" font-size="20" font-style="italic" lengthAdjust="spacing" textLength="131.1999" x="533.151" y="166.6682">&#171;Presentation&#187;</text><text fill="#4A148C" font-family="Verdana" font-size="18" lengthAdjust="spacing" textLength="178.6309" x="509.4355" y="191.7701">DashboardController</text><line style="stroke:#7B1FA2;stroke-width:1;" x1="414.63" x2="755.372" y1="202.044" y2="202.044"/><rect fill="none" height="6" style="stroke:#000000;stroke-width:1;" width="6" x="421.63" y="216.8019"/><text fill="#000000" font-family="Verdana" font-size="18" lengthAdjust="spacing" textLength="318.742" x="431.63" y="225.2859">_activityRepository: ActivityRepository</text><rect fill="none" height="6" style="stroke:#000000;stroke-width:1;" width="6" x="421.63" y="241.3178"/><text fill="#000000" font-family="Verdana" font-size="18" lengthAdjust="spacing" textLength="287.7282" x="431.63" y="249.8017">_habitRepository: HabitRepository</text><rect fill="none" height="6" style="stroke:#000000;stroke-width:1;" width="6" x="421.63" y="265.8336"/><text fill="#000000" font-family="Verdana" font-size="18" lengthAdjust="spacing" textLength="136.5832" x="431.63" y="274.3176">_isLoading: bool</text><line style="stroke:#7B1FA2;stroke-width:1;" x1="414.63" x2="755.372" y1="283.5916" y2="283.5916"/><ellipse cx="424.63" cy="301.3495" fill="#FFFFFF" rx="3" ry="3" style="stroke:#000000;stroke-width:1;"/><text fill="#000000" font-family="Verdana" font-size="18" lengthAdjust="spacing" textLength="286.9722" x="431.63" y="306.8334">refreshDashboard(): Future&lt;void&gt;</text><ellipse cx="424.63" cy="325.8653" fill="#FFFFFF" rx="3" ry="3" style="stroke:#000000;stroke-width:1;"/><text fill="#000000" font-family="Verdana" font-size="18" lengthAdjust="spacing" textLength="284.7942" x="431.63" y="331.3493">getTodayActivities(): List&lt;Activity&gt;</text><ellipse cx="424.63" cy="350.3812" fill="#FFFFFF" rx="3" ry="3" style="stroke:#000000;stroke-width:1;"/><text fill="#000000" font-family="Verdana" font-size="18" lengthAdjust="spacing" textLength="292.4802" x="431.63" y="355.8651">predictProductivity(): Future&lt;void&gt;</text></g><!--class RecommendationService--><g class="entity" data-entity="RecommendationService" data-source-line="115" data-uid="ent0011" id="entity_RecommendationService"><rect fill="#FFEBEE" height="175.8192" rx="2.5" ry="2.5" style="stroke:#C62828;stroke-width:1;" width="484.8331" x="2490.58" y="785.0282"/><ellipse cx="2624.1542" cy="815.9061" fill="#FFFFFF" rx="9" ry="9" style="stroke:#000000;stroke-width:1;"/><path d="M2623.6698,823.1092 Q2621.6073,823.1092 2620.2792,822.2342 Q2618.9511,821.3592 2618.2948,819.7811 Q2617.6542,818.1874 2617.6542,816.0624 Q2617.6542,813.6874 2618.4198,811.9842 Q2619.2011,810.2655 2620.7011,809.3436 Q2622.2167,808.4217 2624.4198,808.4217 Q2625.4511,808.4217 2626.2323,808.6405 Q2627.0292,808.8436 2627.8573,809.2499 L2626.8886,811.6249 Q2626.1542,811.2499 2625.5136,811.1092 Q2624.8886,810.9686 2624.3104,810.9686 Q2622.9354,810.9686 2622.1073,811.5936 Q2621.2948,812.203 2620.9354,813.328 Q2620.5917,814.453 2620.5917,815.953 Q2620.5917,818.3124 2621.4354,819.4374 Q2622.2792,820.5624 2624.1542,820.5624 Q2624.8573,820.5624 2625.5761,820.3905 Q2626.3104,820.203 2627.2948,819.7655 L2627.2948,822.3592 Q2626.4354,822.7499 2625.4979,822.9217 Q2624.5761,823.1092 2623.6698,823.1092 Z " fill="#000000"/><text fill="#000000" font-family="Verdana" font-size="20" font-style="italic" lengthAdjust="spacing" textLength="89.2999" x="2702.0966" y="811.4082">&#171;Services&#187;</text><text fill="#B71C1C" font-family="Verdana" font-size="18" lengthAdjust="spacing" textLength="210.1847" x="2641.6542" y="836.5101">RecommendationService</text><line style="stroke:#C62828;stroke-width:1;" x1="2491.58" x2="2974.4131" y1="846.784" y2="846.784"/><rect fill="none" height="6" style="stroke:#000000;stroke-width:1;" width="6" x="2498.58" y="861.5419"/><text fill="#000000" font-family="Verdana" font-size="18" lengthAdjust="spacing" textLength="132.8032" x="2508.58" y="870.0259">_logger: Logger</text><line style="stroke:#C62828;stroke-width:1;" x1="2491.58" x2="2974.4131" y1="879.2999" y2="879.2999"/><ellipse cx="2501.58" cy="897.0578" fill="#FFFFFF" rx="3" ry="3" style="stroke:#000000;stroke-width:1;"/><text fill="#000000" font-family="Verdana" font-size="18" lengthAdjust="spacing" textLength="454.3351" x="2508.58" y="902.5417">getActivityRecommendations(): Future&lt;List&lt;Activity&gt;&gt;</text><ellipse cx="2501.58" cy="921.5736" fill="#FFFFFF" rx="3" ry="3" style="stroke:#000000;stroke-width:1;"/><text fill="#000000" font-family="Verdana" font-size="18" lengthAdjust="spacing" textLength="424.1313" x="2508.58" y="927.0576">getHabitRecommendations(): Future&lt;List&lt;Habit&gt;&gt;</text><ellipse cx="2501.58" cy="946.0895" fill="#FFFFFF" rx="3" ry="3" style="stroke:#000000;stroke-width:1;"/><text fill="#000000" font-family="Verdana" font-size="18" lengthAdjust="spacing" textLength="460.8331" x="2508.58" y="951.5734">analyzeUserPatterns(): Future&lt;Map&lt;String, dynamic&gt;&gt;</text></g><!--class TempoSageApiService--><g class="entity" data-entity="TempoSageApiService" data-source-line="122" data-uid="ent0012" id="entity_TempoSageApiService"><rect fill="#FFEBEE" height="151.3034" rx="2.5" ry="2.5" style="stroke:#C62828;stroke-width:1;" width="470.5592" x="1984.72" y="797.2882"/><ellipse cx="2122.5422" cy="828.1661" fill="#FFFFFF" rx="9" ry="9" style="stroke:#000000;stroke-width:1;"/><path d="M2122.0578,835.3692 Q2119.9953,835.3692 2118.6672,834.4942 Q2117.3391,833.6192 2116.6828,832.0411 Q2116.0422,830.4474 2116.0422,828.3224 Q2116.0422,825.9474 2116.8078,824.2442 Q2117.5891,822.5255 2119.0891,821.6036 Q2120.6047,820.6817 2122.8078,820.6817 Q2123.8391,820.6817 2124.6203,820.9005 Q2125.4172,821.1036 2126.2453,821.5099 L2125.2766,823.8849 Q2124.5422,823.5099 2123.9016,823.3692 Q2123.2766,823.2286 2122.6984,823.2286 Q2121.3234,823.2286 2120.4953,823.8536 Q2119.6828,824.463 2119.3234,825.588 Q2118.9797,826.713 2118.9797,828.213 Q2118.9797,830.5724 2119.8234,831.6974 Q2120.6672,832.8224 2122.5422,832.8224 Q2123.2453,832.8224 2123.9641,832.6505 Q2124.6984,832.463 2125.6828,832.0255 L2125.6828,834.6192 Q2124.8234,835.0099 2123.8859,835.1817 Q2122.9641,835.3692 2122.0578,835.3692 Z " fill="#000000"/><text fill="#000000" font-family="Verdana" font-size="20" font-style="italic" lengthAdjust="spacing" textLength="89.2999" x="2189.0996" y="823.6682">&#171;Services&#187;</text><text fill="#B71C1C" font-family="Verdana" font-size="18" lengthAdjust="spacing" textLength="187.4148" x="2140.0422" y="848.7701">TempoSageApiService</text><line style="stroke:#C62828;stroke-width:1;" x1="1985.72" x2="2454.2792" y1="859.044" y2="859.044"/><line style="stroke:#C62828;stroke-width:1;" x1="1985.72" x2="2454.2792" y1="867.044" y2="867.044"/><ellipse cx="1995.72" cy="884.8019" fill="#FFFFFF" rx="3" ry="3" style="stroke:#000000;stroke-width:1;"/><text fill="#000000" font-family="Verdana" font-size="18" lengthAdjust="spacing" textLength="446.5592" x="2002.72" y="890.2859">predictProductivity(): Future&lt;Map&lt;String, dynamic&gt;&gt;</text><ellipse cx="1995.72" cy="909.3178" fill="#FFFFFF" rx="3" ry="3" style="stroke:#000000;stroke-width:1;"/><text fill="#000000" font-family="Verdana" font-size="18" lengthAdjust="spacing" textLength="410.1094" x="2002.72" y="914.8017">suggestOptimalTime(): Future&lt;List&lt;TimeBlock&gt;&gt;</text><ellipse cx="1995.72" cy="933.8336" fill="#FFFFFF" rx="3" ry="3" style="stroke:#000000;stroke-width:1;"/><text fill="#000000" font-family="Verdana" font-size="18" lengthAdjust="spacing" textLength="421.4673" x="2002.72" y="939.3176">analyzePatterns(): Future&lt;Map&lt;String, dynamic&gt;&gt;</text></g><!--class NotificationService--><g class="entity" data-entity="NotificationService" data-source-line="128" data-uid="ent0013" id="entity_NotificationService"><rect fill="#FFEBEE" height="151.3034" rx="2.5" ry="2.5" style="stroke:#C62828;stroke-width:1;" width="675.5419" x="3010.23" y="797.2882"/><ellipse cx="3265.0064" cy="828.1661" fill="#FFFFFF" rx="9" ry="9" style="stroke:#000000;stroke-width:1;"/><path d="M3264.5221,835.3692 Q3262.4596,835.3692 3261.1314,834.4942 Q3259.8033,833.6192 3259.1471,832.0411 Q3258.5064,830.4474 3258.5064,828.3224 Q3258.5064,825.9474 3259.2721,824.2442 Q3260.0533,822.5255 3261.5533,821.6036 Q3263.0689,820.6817 3265.2721,820.6817 Q3266.3033,820.6817 3267.0846,820.9005 Q3267.8814,821.1036 3268.7096,821.5099 L3267.7408,823.8849 Q3267.0064,823.5099 3266.3658,823.3692 Q3265.7408,823.2286 3265.1627,823.2286 Q3263.7877,823.2286 3262.9596,823.8536 Q3262.1471,824.463 3261.7877,825.588 Q3261.4439,826.713 3261.4439,828.213 Q3261.4439,830.5724 3262.2877,831.6974 Q3263.1314,832.8224 3265.0064,832.8224 Q3265.7096,832.8224 3266.4283,832.6505 Q3267.1627,832.463 3268.1471,832.0255 L3268.1471,834.6192 Q3267.2877,835.0099 3266.3502,835.1817 Q3265.4283,835.3692 3264.5221,835.3692 Z " fill="#000000"/><text fill="#000000" font-family="Verdana" font-size="20" font-style="italic" lengthAdjust="spacing" textLength="89.2999" x="3317.101" y="823.6682">&#171;Services&#187;</text><text fill="#B71C1C" font-family="Verdana" font-size="18" lengthAdjust="spacing" textLength="158.489" x="3282.5064" y="848.7701">NotificationService</text><line style="stroke:#C62828;stroke-width:1;" x1="3011.23" x2="3684.7719" y1="859.044" y2="859.044"/><line style="stroke:#C62828;stroke-width:1;" x1="3011.23" x2="3684.7719" y1="867.044" y2="867.044"/><ellipse cx="3021.23" cy="884.8019" fill="#FFFFFF" rx="3" ry="3" style="stroke:#000000;stroke-width:1;"/><text fill="#000000" font-family="Verdana" font-size="18" lengthAdjust="spacing" textLength="651.5419" x="3028.23" y="890.2859">scheduleNotification(String id, DateTime time, String message): Future&lt;void&gt;</text><ellipse cx="3021.23" cy="909.3178" fill="#FFFFFF" rx="3" ry="3" style="stroke:#000000;stroke-width:1;"/><text fill="#000000" font-family="Verdana" font-size="18" lengthAdjust="spacing" textLength="355.1018" x="3028.23" y="914.8017">cancelNotification(String id): Future&lt;void&gt;</text><ellipse cx="3021.23" cy="933.8336" fill="#FFFFFF" rx="3" ry="3" style="stroke:#000000;stroke-width:1;"/><text fill="#000000" font-family="Verdana" font-size="18" lengthAdjust="spacing" textLength="313.468" x="3028.23" y="939.3176">cancelAllNotifications(): Future&lt;void&gt;</text></g><!--class Logger--><g class="entity" data-entity="Logger" data-source-line="139" data-uid="ent0015" id="entity_Logger"><rect fill="#E3F2FD" height="151.3034" rx="2.5" ry="2.5" style="stroke:#1976D2;stroke-width:1;" width="450.5074" x="2507.75" y="1046.8482"/><ellipse cx="2699.2299" cy="1077.7261" fill="#FFFFFF" rx="9" ry="9" style="stroke:#000000;stroke-width:1;"/><path d="M2698.7455,1084.9292 Q2696.683,1084.9292 2695.3549,1084.0542 Q2694.0268,1083.1792 2693.3705,1081.6011 Q2692.7299,1080.0074 2692.7299,1077.8824 Q2692.7299,1075.5074 2693.4955,1073.8042 Q2694.2768,1072.0855 2695.7768,1071.1636 Q2697.2924,1070.2417 2699.4955,1070.2417 Q2700.5268,1070.2417 2701.308,1070.4605 Q2702.1049,1070.6636 2702.933,1071.0699 L2701.9643,1073.4449 Q2701.2299,1073.0699 2700.5893,1072.9292 Q2699.9643,1072.7886 2699.3862,1072.7886 Q2698.0112,1072.7886 2697.183,1073.4136 Q2696.3705,1074.023 2696.0112,1075.148 Q2695.6674,1076.273 2695.6674,1077.773 Q2695.6674,1080.1324 2696.5112,1081.2574 Q2697.3549,1082.3824 2699.2299,1082.3824 Q2699.933,1082.3824 2700.6518,1082.2105 Q2701.3862,1082.023 2702.3705,1081.5855 L2702.3705,1084.1792 Q2701.5112,1084.5699 2700.5737,1084.7417 Q2699.6518,1084.9292 2698.7455,1084.9292 Z " fill="#000000"/><text fill="#000000" font-family="Verdana" font-size="20" font-style="italic" lengthAdjust="spacing" textLength="60.02" x="2716.7437" y="1073.2282">&#171;Core&#187;</text><text fill="#0D47A1" font-family="Verdana" font-size="18" lengthAdjust="spacing" textLength="60.0476" x="2716.7299" y="1098.3301">Logger</text><line style="stroke:#1976D2;stroke-width:1;" x1="2508.75" x2="2957.2574" y1="1108.604" y2="1108.604"/><ellipse cx="2518.75" cy="1126.3619" fill="none" rx="3" ry="3" style="stroke:#000000;stroke-width:1;"/><text fill="#000000" font-family="Verdana" font-size="18" lengthAdjust="spacing" text-decoration="underline" textLength="140.4531" x="2525.75" y="1131.8459">instance: Logger</text><line style="stroke:#1976D2;stroke-width:1;" x1="2508.75" x2="2957.2574" y1="1141.1199" y2="1141.1199"/><ellipse cx="2518.75" cy="1158.8778" fill="#FFFFFF" rx="3" ry="3" style="stroke:#000000;stroke-width:1;"/><text fill="#000000" font-family="Verdana" font-size="18" lengthAdjust="spacing" textLength="291.8862" x="2525.75" y="1164.3617">i(String message, String? tag): void</text><ellipse cx="2518.75" cy="1183.3936" fill="#FFFFFF" rx="3" ry="3" style="stroke:#000000;stroke-width:1;"/><text fill="#000000" font-family="Verdana" font-size="18" lengthAdjust="spacing" textLength="426.5074" x="2525.75" y="1188.8776">e(String message, String? tag, dynamic error): void</text></g><!--class Cubit--><g class="entity" data-entity="Cubit" data-source-line="158" data-uid="ent0023" id="entity_Cubit"><rect fill="#FFFFFF" height="50.5158" rx="2.5" ry="2.5" style="stroke:#000000;stroke-width:1;" width="140" x="788" y="536.8282"/><ellipse cx="831.8941" cy="554.0861" fill="#FFFFFF" rx="9" ry="9" style="stroke:#000000;stroke-width:1;"/><path d="M831.4098,561.2892 Q829.3473,561.2892 828.0191,560.4142 Q826.691,559.5392 826.0348,557.9611 Q825.3941,556.3674 825.3941,554.2424 Q825.3941,551.8674 826.1598,550.1642 Q826.941,548.4455 828.441,547.5236 Q829.9566,546.6017 832.1598,546.6017 Q833.191,546.6017 833.9723,546.8205 Q834.7691,547.0236 835.5973,547.4299 L834.6285,549.8049 Q833.8941,549.4299 833.2535,549.2892 Q832.6285,549.1486 832.0504,549.1486 Q830.6754,549.1486 829.8473,549.7736 Q829.0348,550.383 828.6754,551.508 Q828.3316,552.633 828.3316,554.133 Q828.3316,556.4924 829.1754,557.6174 Q830.0191,558.7424 831.8941,558.7424 Q832.5973,558.7424 833.316,558.5705 Q834.0504,558.383 835.0348,557.9455 L835.0348,560.5392 Q834.1754,560.9299 833.2379,561.1017 Q832.316,561.2892 831.4098,561.2892 Z " fill="#000000"/><text fill="#000000" font-family="Verdana" font-size="18" lengthAdjust="spacing" textLength="44.7117" x="849.3941" y="561.0701">Cubit</text><line style="stroke:#000000;stroke-width:1;" x1="789" x2="927" y1="571.344" y2="571.344"/><line style="stroke:#000000;stroke-width:1;" x1="789" x2="927" y1="579.344" y2="579.344"/></g><!--class ChangeNotifier--><g class="entity" data-entity="ChangeNotifier" data-source-line="159" data-uid="ent0025" id="entity_ChangeNotifier"><rect fill="#FFFFFF" height="50.5158" rx="2.5" ry="2.5" style="stroke:#000000;stroke-width:1;" width="157.0772" x="2443.46" y="536.8282"/><ellipse cx="2456.46" cy="554.0861" fill="#FFFFFF" rx="9" ry="9" style="stroke:#000000;stroke-width:1;"/><path d="M2455.9756,561.2892 Q2453.9131,561.2892 2452.585,560.4142 Q2451.2569,559.5392 2450.6006,557.9611 Q2449.96,556.3674 2449.96,554.2424 Q2449.96,551.8674 2450.7256,550.1642 Q2451.5069,548.4455 2453.0069,547.5236 Q2454.5225,546.6017 2456.7256,546.6017 Q2457.7569,546.6017 2458.5381,546.8205 Q2459.335,547.0236 2460.1631,547.4299 L2459.1944,549.8049 Q2458.46,549.4299 2457.8194,549.2892 Q2457.1944,549.1486 2456.6163,549.1486 Q2455.2413,549.1486 2454.4131,549.7736 Q2453.6006,550.383 2453.2413,551.508 Q2452.8975,552.633 2452.8975,554.133 Q2452.8975,556.4924 2453.7413,557.6174 Q2454.585,558.7424 2456.46,558.7424 Q2457.1631,558.7424 2457.8819,558.5705 Q2458.6163,558.383 2459.6006,557.9455 L2459.6006,560.5392 Q2458.7413,560.9299 2457.8038,561.1017 Q2456.8819,561.2892 2455.9756,561.2892 Z " fill="#000000"/><text fill="#000000" font-family="Verdana" font-size="18" lengthAdjust="spacing" textLength="129.0772" x="2468.46" y="561.0701">ChangeNotifier</text><line style="stroke:#000000;stroke-width:1;" x1="2444.46" x2="2599.5372" y1="571.344" y2="571.344"/><line style="stroke:#000000;stroke-width:1;" x1="2444.46" x2="2599.5372" y1="579.344" y2="579.344"/></g><g class="entity" data-entity="GMN27" data-source-line="162" data-uid="ent0028" id="entity_GMN27"><path d="M962.69,529.8482 L962.69,594.3281 L1197.3098,594.3281 L1197.3098,539.8482 L1187.3098,529.8482 L962.69,529.8482" fill="#FFFFFF" style="stroke:#000000;stroke-width:1;"/><path d="M1187.3098,529.8482 L1187.3098,539.8482 L1197.3098,539.8482 L1187.3098,529.8482" fill="#FFFFFF" style="stroke:#000000;stroke-width:1;"/><text fill="#000000" font-family="Verdana" font-size="20" lengthAdjust="spacing" textLength="213.6198" x="968.69" y="556.2282">Estado gestionado con</text><text fill="#000000" font-family="Verdana" font-size="20" lengthAdjust="spacing" textLength="190.1598" x="968.69" y="583.4682">BLoC pattern (Cubit)</text></g><g class="entity" data-entity="GMN30" data-source-line="167" data-uid="ent0031" id="entity_GMN30"><path d="M3720.94,840.6982 L3720.94,905.1781 L3975.0597,905.1781 L3975.0597,850.6982 L3965.0597,840.6982 L3720.94,840.6982" fill="#FFFFFF" style="stroke:#000000;stroke-width:1;"/><path d="M3965.0597,840.6982 L3965.0597,850.6982 L3975.0597,850.6982 L3965.0597,840.6982" fill="#FFFFFF" style="stroke:#000000;stroke-width:1;"/><text fill="#000000" font-family="Verdana" font-size="20" lengthAdjust="spacing" textLength="233.1197" x="3726.94" y="867.0782">Servicio para integraci&#243;n</text><text fill="#000000" font-family="Verdana" font-size="20" lengthAdjust="spacing" textLength="183.0798" x="3726.94" y="894.3182">con modelos de ML</text></g><!--link HabitCubit to HabitRepository--><g class="link" data-entity-1="HabitCubit" data-entity-2="HabitRepository" data-source-line="149" data-uid="lnk16" id="link_HabitCubit_HabitRepository"><path codeLine="149" d="M379.23,223.1482 C393.21,223.1482 402.07,223.1482 402.07,223.1482 C402.07,223.1482 402.07,515.1482 402.07,515.1482 C402.07,515.1482 936.4,515.1482 1225.83,515.1482" fill="none" id="HabitCubit-to-HabitRepository" style="stroke:#495057;stroke-width:1;"/><polygon fill="#495057" points="1231.83,515.1482,1222.83,511.1482,1226.83,515.1482,1222.83,519.1482,1231.83,515.1482" style="stroke:#495057;stroke-width:1;"/><text fill="#000000" font-family="Verdana" font-size="20" lengthAdjust="spacing" textLength="42.7999" x="616.53" y="508.5282">uses</text></g><!--link HabitCubit to HabitState--><g class="link" data-entity-1="HabitCubit" data-entity-2="HabitState" data-source-line="150" data-uid="lnk17" id="link_HabitCubit_HabitState"><path codeLine="150" d="M145.8,340.9582 C145.8,367.1182 145.8,390.4182 145.8,418.9082" fill="none" id="HabitCubit-to-HabitState" style="stroke:#495057;stroke-width:1;"/><polygon fill="#495057" points="145.8,424.9082,149.8,415.9082,145.8,419.9082,141.8,415.9082,145.8,424.9082" style="stroke:#495057;stroke-width:1;"/><text fill="#000000" font-family="Verdana" font-size="20" lengthAdjust="spacing" textLength="86.6599" x="58.8" y="376.3082">manages</text></g><!--link DashboardController to ActivityRepository--><g class="link" data-entity-1="DashboardController" data-entity-2="ActivityRepository" data-source-line="151" data-uid="lnk18" id="link_DashboardController_ActivityRepository"><path codeLine="151" d="M756.62,309.1482 C1093.76,309.1482 1810,309.1482 1810,309.1482 C1810,309.1482 1810,417.3282 1810,492.2582" fill="none" id="DashboardController-to-ActivityRepository" style="stroke:#495057;stroke-width:1;"/><polygon fill="#495057" points="1810,498.2582,1814,489.2582,1810,493.2582,1806,489.2582,1810,498.2582" style="stroke:#495057;stroke-width:1;"/><text fill="#000000" font-family="Verdana" font-size="20" lengthAdjust="spacing" textLength="42.7999" x="1334.87" y="302.5282">uses</text></g><!--link DashboardController to HabitRepository--><g class="link" data-entity-1="DashboardController" data-entity-2="HabitRepository" data-source-line="152" data-uid="lnk19" id="link_DashboardController_HabitRepository"><path codeLine="152" d="M585,365.2982 C585,431.0382 585,501.1482 585,501.1482 C585,501.1482 983.19,501.1482 1225.75,501.1482" fill="none" id="DashboardController-to-HabitRepository" style="stroke:#495057;stroke-width:1;"/><polygon fill="#495057" points="1231.75,501.1482,1222.75,497.1482,1226.75,501.1482,1222.75,505.1482,1231.75,501.1482" style="stroke:#495057;stroke-width:1;"/><text fill="#000000" font-family="Verdana" font-size="20" lengthAdjust="spacing" textLength="42.7999" x="797.45" y="494.5282">uses</text></g><!--link DashboardController to PredictProductivityUseCase--><g class="link" data-entity-1="DashboardController" data-entity-2="PredictProductivityUseCase" data-source-line="153" data-uid="lnk20" id="link_DashboardController_PredictProductivityUseCase"><path codeLine="153" d="M756.5,253.1482 C1176.03,253.1482 2220,253.1482 2220,253.1482 C2220,253.1482 2220,402.0082 2220,492.4482" fill="none" id="DashboardController-to-PredictProductivityUseCase" style="stroke:#495057;stroke-width:1;"/><polygon fill="#495057" points="2220,498.4482,2224,489.4482,2220,493.4482,2216,489.4482,2220,498.4482" style="stroke:#495057;stroke-width:1;"/><text fill="#000000" font-family="Verdana" font-size="20" lengthAdjust="spacing" textLength="42.7999" x="1567.9" y="246.5282">uses</text></g><!--link PredictProductivityUseCase to TempoSageApiService--><g class="link" data-entity-1="PredictProductivityUseCase" data-entity-2="TempoSageApiService" data-source-line="155" data-uid="lnk21" id="link_PredictProductivityUseCase_TempoSageApiService"><path codeLine="155" d="M2220,625.7382 C2220,675.3882 2220,738.4982 2220,791.0182" fill="none" id="PredictProductivityUseCase-to-TempoSageApiService" style="stroke:#495057;stroke-width:1;"/><polygon fill="#495057" points="2220,797.0182,2224,788.0182,2220,792.0182,2216,788.0182,2220,797.0182" style="stroke:#495057;stroke-width:1;"/><text fill="#000000" font-family="Verdana" font-size="20" lengthAdjust="spacing" textLength="111.0599" x="2108" y="704.7582">depends on</text></g><!--link RecommendationService to Logger--><g class="link" data-entity-1="RecommendationService" data-entity-2="Logger" data-source-line="156" data-uid="lnk22" id="link_RecommendationService_Logger"><path codeLine="156" d="M2733,961.2682 C2733,989.1782 2733,1013.7482 2733,1040.6882" fill="none" id="RecommendationService-to-Logger" style="stroke:#495057;stroke-width:1;"/><polygon fill="#495057" points="2733,1046.6882,2737,1037.6882,2733,1041.6882,2729,1037.6882,2733,1046.6882" style="stroke:#495057;stroke-width:1;"/><text fill="#000000" font-family="Verdana" font-size="20" lengthAdjust="spacing" textLength="42.7999" x="2690" y="997.3582">uses</text></g><!--link HabitCubit to Cubit--><g class="link" data-entity-1="HabitCubit" data-entity-2="Cubit" data-source-line="158" data-uid="lnk24" id="link_HabitCubit_Cubit"><path codeLine="158" d="M379.34,282.1482 C386.37,282.1482 390.5,282.1482 390.5,282.1482 C390.5,282.1482 390.5,562.1482 390.5,562.1482 C390.5,562.1482 638.91,562.1482 769.51,562.1482" fill="none" id="HabitCubit-to-Cubit" style="stroke:#495057;stroke-width:1;"/><polygon fill="none" points="787.51,562.1482,769.51,556.1482,769.51,568.1482,787.51,562.1482" style="stroke:#495057;stroke-width:1;"/><text fill="#000000" font-family="Verdana" font-size="20" lengthAdjust="spacing" textLength="74.5999" x="444.42" y="555.5282">extends</text></g><!--link DashboardController to ChangeNotifier--><g class="link" data-entity-1="DashboardController" data-entity-2="ChangeNotifier" data-source-line="159" data-uid="lnk26" id="link_DashboardController_ChangeNotifier"><path codeLine="159" d="M756.47,196.1482 C1230.18,196.1482 2522,196.1482 2522,196.1482 C2522,196.1482 2522,435.0582 2522,518.3482" fill="none" id="DashboardController-to-ChangeNotifier" style="stroke:#495057;stroke-width:1;"/><polygon fill="none" points="2522,536.3482,2528,518.3482,2516,518.3482,2522,536.3482" style="stroke:#495057;stroke-width:1;"/><text fill="#000000" font-family="Verdana" font-size="20" lengthAdjust="spacing" textLength="74.5999" x="1734.34" y="189.5282">extends</text></g><!--link HabitCubit to GMN27--><g class="link" data-entity-1="HabitCubit" data-entity-2="GMN27" data-source-line="162" data-uid="lnk29" id="link_HabitCubit_GMN27"><path d="M260.2,340.8982 C260.2,370.0282 260.2,395.1482 260.2,395.1482 C260.2,395.1482 1080,395.1482 1080,395.1482 C1080,395.1482 1080,480.9182 1080,529.4982" fill="none" id="HabitCubit-GMN27" style="stroke:#495057;stroke-width:1;stroke-dasharray:7,7;"/></g><!--link TempoSageApiService to GMN30--><g class="link" data-entity-1="TempoSageApiService" data-entity-2="GMN30" data-source-line="167" data-uid="lnk32" id="link_TempoSageApiService_GMN30"><path d="M2449.37,796.8582 C2449.37,768.0882 2449.37,742.1482 2449.37,742.1482 C2449.37,742.1482 3848,742.1482 3848,742.1482 C3848,742.1482 3848,801.5282 3848,840.2682" fill="none" id="TempoSageApiService-GMN30" style="stroke:#495057;stroke-width:1;stroke-dasharray:7,7;"/></g><!--SRC=[hLXjRzis4FwkNt7jWDL1Qy1saiOnCXUABAC1x2QmimqR1XIqTB69og90qctSBZzfd_eJ-iTsr4j4MxBpikc3BF1UURnxxkWNUe5BX2HYF7QSL-29-8RFLv85_CVt62wlhY_65t-w0nUQCC4eNmuHc4emq08wlKDeX7o9iU8YHWKtF_vHF62g1-rkgtNREMcraji3vqM8Dpn665nTm56hvQY0HGXBTfkomHSUweMrQCHWWNo-q8wZFl4uOP8jOSQ2JtCfLd7eYKX8-6cOFXO7cM6hI0z5hAVyAqAdPH63Y2brJsgVRfDShIMVhJIMFDrjdZ7gXGZh6H9oZysntdX4szVh1458qk1KnU2R0_ISL_RO7PuEtOmcP8WoNpywFMuTdwJhncA-scbtZZkdpfspxNYz-hEpAuaAOyqqdL-_J-OE_UFXyRQvAj_9UNleTZRDLxcEtFPHrtk2ErEKdtc0AdLbw9_xVjKLcyTxs-bskjjks1pd9ssl_HGN1c99vM14_UxmsEzM7IWv3hjT_z3RDb_Is-V7FgN1uurxGc9g-d3O6GwgfWjw-_JaxQ0I_eBQ6XoTkEqQiwwKuijc0fKSh4gqg4iUUqR5xwPMeNra9pVLh4thLghk8X1nMXCjnz5SKvaFE9iJcHaqCRA47KsmqmVMK1pZN_7un_Tm5OaUU2n9HGhE394ALYwKWR5V7lyGz-1ox5vyW97xXp-1nWHlK68SSAOEdgYgAEINsVd3YArHRcfyISW9OKREqolF13PJcd1Nv-dndisudc0Y5DT2hi5AgepVFA_dgDqeIdbLuw07mvLUIJmRSQNFqjL-lsHcOPYkDT8tBCoxbFaiU6WnhvAGQNmK_rtwhjk46sZ-cUlr8_UHitEixALGjBMTOhbHV03BFnxmCtEFSYZaWRwI8bpbShygz2WNwzriieJdATc3QrmcOah7xTulbhxXBGRKHwnjZ5boDgNs4i_VGBYEsP87_SAjkwVdxDN4d_eVhjthYyiYSvkcUsifeWYbWfzXIcM4pytWZK9CypZDtCHUpbj57g3qzIgp2cCMangQ2hGLxZIDCdgbKPH1FZkxaOXVCRJFcgkHO245hmSp8QAIa2Ob3HjMnbkdG7WcUv25_PsbBQOaOv4vdTAdaXnbflQHCMnO5hFIK3luKoyQcHEmHAKeCbNMIdAcT6zbAczFj9holhHwsvYnKLuPHWo5l1OXMpTsrdqWbac4HUNdNlDmDx_4P-14jiK1KukPO38i4tVlNZ-o2fxqQZ364bXiHcHtY9eVTwQOH4f8jRXtTdViACnfT3TnR1F0IkwaYZwD-h0z0n-c_kIt2y-VPjZmN1Ge-g-50AfOogSpk_gpKvqWvH2LVfYUOAu2DcOo-qmZCPyZLUae_Tri2VT7QsjyL7CeClu1qMgFZ5cq_ehK1kGLqnhbXim-4D-AGarxs1M31p9Xjz5KMAqeRafV9felMNHDLx7jJPgryqW4dses-jys-K5eVaEtlKSSz6iLB916EBHbIdnvGs2WqNWAj0zy0nMyt04_B0umgjVvW10D7BQS-l-ApxkS-DLnyjdJf1dggxDaDae6XfPV5l9ePqUJbHFSNmcia_Yc3BW6Ty1Z-ehDCBDTV7ohNnNdyGuqcrESJ82i3hUF-pw986s4jl2pWZlnHwv7Kuy_VQAerL2RpNvbmEx1YkuWjLpPpDAZMuwPQfHJrxSCSysucslT9R73YLtiUmRMNDBPms8qrC5IZ-vJ2K6a0X4xzUXjHFECAWnj1EhlFcIVFS1RRNJjs8DXNB1udiD0gg-GS691OPu9hSKIn8qr0L6s-9IgeG03TUIN-QGR9QsVZuG7IOPYq4Yv3nnI1qPPhbAQ_v6CnlgPlRWwWhclKb5edET_W16HhC1IX1W9PQwTur6f_5y0]--></g></svg>