<svg xmlns="http://www.w3.org/2000/svg" xmlns:xlink="http://www.w3.org/1999/xlink" contentStyleType="text/css" data-diagram-type="CLASS" height="1317px" preserveAspectRatio="none" style="width:1533px;height:1317px;background:#FFFFFF;" version="1.1" viewBox="0 0 1533 1317" width="1533px" zoomAndPan="magnify"><title>Diagrama Entidad-Relaci&#243;n - Entidades Principales
M&#243;dulo: Entidades Core del Dominio</title><defs/><g><g class="title" data-source-line="36"><text fill="#000000" font-family="Verdana" font-size="22" font-weight="bold" lengthAdjust="spacing" textLength="549.4078" x="487.7391" y="38.5181">Diagrama Entidad-Relaci&#243;n - Entidades Principales</text><text fill="#000000" font-family="Verdana" font-size="22" font-weight="bold" lengthAdjust="spacing" textLength="396.9254" x="563.9803" y="68.4822">M&#243;dulo: Entidades Core del Dominio</text></g><!--class User--><g class="entity" data-entity="User" data-source-line="41" data-uid="ent0002" id="entity_User"><rect fill="#E3F2FD" height="249.3667" rx="2.5" ry="2.5" style="stroke:#1976D2;stroke-width:1;" width="314.8422" x="462.91" y="270.8882"/><ellipse cx="576.8311" cy="301.7661" fill="#FFFFFF" rx="9" ry="9" style="stroke:#000000;stroke-width:1;"/><path d="M576.3468,308.9692 Q574.2843,308.9692 572.9561,308.0942 Q571.628,307.2192 570.9718,305.6411 Q570.3311,304.0474 570.3311,301.9224 Q570.3311,299.5474 571.0968,297.8442 Q571.878,296.1255 573.378,295.2036 Q574.8936,294.2817 577.0968,294.2817 Q578.128,294.2817 578.9093,294.5005 Q579.7061,294.7036 580.5343,295.1099 L579.5655,297.4849 Q578.8311,297.1099 578.1905,296.9692 Q577.5655,296.8286 576.9874,296.8286 Q575.6124,296.8286 574.7843,297.4536 Q573.9718,298.063 573.6124,299.188 Q573.2686,300.313 573.2686,301.813 Q573.2686,304.1724 574.1124,305.2974 Q574.9561,306.4224 576.8311,306.4224 Q577.5343,306.4224 578.253,306.2505 Q578.9874,306.063 579.9718,305.6255 L579.9718,308.2192 Q579.1124,308.6099 578.1749,308.7817 Q577.253,308.9692 576.3468,308.9692 Z " fill="#000000"/><text fill="#000000" font-family="Verdana" font-size="20" font-style="italic" lengthAdjust="spacing" textLength="83.4999" x="592.3311" y="297.2682">&#171;Central&#187;</text><text fill="#0D47A1" font-family="Verdana" font-size="18" lengthAdjust="spacing" textLength="39.3658" x="614.3982" y="322.3701">User</text><line style="stroke:#1976D2;stroke-width:1;" x1="463.91" x2="776.7522" y1="332.644" y2="332.644"/><text fill="#000000" font-family="Verdana" font-size="18" font-weight="bold" lengthAdjust="spacing" textLength="187.8288" x="485.59" y="355.8859">Atributos Principales</text><ellipse cx="473.91" cy="374.9178" fill="none" rx="3" ry="3" style="stroke:#000000;stroke-width:1;"/><text fill="#000000" font-family="Verdana" font-size="18" lengthAdjust="spacing" textLength="114.4253" x="480.91" y="380.4018">id: String [PK]</text><line style="stroke:#1976D2;stroke-width:1;" x1="463.91" x2="776.7522" y1="389.6757" y2="389.6757"/><ellipse cx="473.91" cy="407.4336" fill="none" rx="3" ry="3" style="stroke:#000000;stroke-width:1;"/><text fill="#000000" font-family="Verdana" font-size="18" lengthAdjust="spacing" textLength="290.8422" x="480.91" y="412.9176">email: String [NOT NULL, UNIQUE]</text><ellipse cx="473.91" cy="431.9495" fill="none" rx="3" ry="3" style="stroke:#000000;stroke-width:1;"/><text fill="#000000" font-family="Verdana" font-size="18" lengthAdjust="spacing" textLength="213.0107" x="480.91" y="437.4334">name: String [NOT NULL]</text><ellipse cx="473.91" cy="456.4653" fill="none" rx="3" ry="3" style="stroke:#000000;stroke-width:1;"/><text fill="#000000" font-family="Verdana" font-size="18" lengthAdjust="spacing" textLength="289.9422" x="480.91" y="461.9493">passwordHash: String [NOT NULL]</text><ellipse cx="473.91" cy="480.9812" fill="none" rx="3" ry="3" style="stroke:#000000;stroke-width:1;"/><text fill="#000000" font-family="Verdana" font-size="18" lengthAdjust="spacing" textLength="277.7202" x="480.91" y="486.4651">createdAt: DateTime [NOT NULL]</text><ellipse cx="473.91" cy="505.497" fill="none" rx="3" ry="3" style="stroke:#000000;stroke-width:1;"/><text fill="#000000" font-family="Verdana" font-size="18" lengthAdjust="spacing" textLength="193.8588" x="480.91" y="510.981">lastLoginAt: DateTime?</text></g><!--class Habit--><g class="entity" data-entity="Habit" data-source-line="52" data-uid="ent0003" id="entity_Habit"><rect fill="#E8F5E8" height="322.9143" rx="2.5" ry="2.5" style="stroke:#388E3C;stroke-width:1;" width="358.654" x="638" y="580.2582"/><ellipse cx="770.937" cy="611.1361" fill="#FFFFFF" rx="9" ry="9" style="stroke:#000000;stroke-width:1;"/><path d="M770.4527,618.3392 Q768.3902,618.3392 767.062,617.4642 Q765.7339,616.5892 765.0777,615.0111 Q764.437,613.4174 764.437,611.2924 Q764.437,608.9174 765.2027,607.2142 Q765.9839,605.4955 767.4839,604.5736 Q768.9995,603.6517 771.2027,603.6517 Q772.2339,603.6517 773.0152,603.8705 Q773.812,604.0736 774.6402,604.4799 L773.6714,606.8549 Q772.937,606.4799 772.2964,606.3392 Q771.6714,606.1986 771.0933,606.1986 Q769.7183,606.1986 768.8902,606.8236 Q768.0777,607.433 767.7183,608.558 Q767.3745,609.683 767.3745,611.183 Q767.3745,613.5424 768.2183,614.6674 Q769.062,615.7924 770.937,615.7924 Q771.6402,615.7924 772.3589,615.6205 Q773.0933,615.433 774.0777,614.9955 L774.0777,617.5892 Q773.2183,617.9799 772.2808,618.1517 Q771.3589,618.3392 770.4527,618.3392 Z " fill="#000000"/><text fill="#000000" font-family="Verdana" font-size="20" font-style="italic" lengthAdjust="spacing" textLength="89.2799" x="786.437" y="606.6382">&#171;Domain&#187;</text><text fill="#1B5E20" font-family="Verdana" font-size="18" lengthAdjust="spacing" textLength="45.6477" x="808.2531" y="631.7401">Habit</text><line style="stroke:#388E3C;stroke-width:1;" x1="639" x2="995.654" y1="642.014" y2="642.014"/><text fill="#000000" font-family="Verdana" font-size="18" font-weight="bold" lengthAdjust="spacing" textLength="187.8288" x="660.68" y="665.2559">Atributos Principales</text><ellipse cx="649" cy="684.2878" fill="none" rx="3" ry="3" style="stroke:#000000;stroke-width:1;"/><text fill="#000000" font-family="Verdana" font-size="18" lengthAdjust="spacing" textLength="114.4253" x="656" y="689.7718">id: String [PK]</text><ellipse cx="649" cy="708.8036" fill="none" rx="3" ry="3" style="stroke:#000000;stroke-width:1;"/><text fill="#000000" font-family="Verdana" font-size="18" lengthAdjust="spacing" textLength="334.654" x="656" y="714.2876">userId: String [FK -&gt; User.id, NOT NULL]</text><line style="stroke:#388E3C;stroke-width:1;" x1="639" x2="995.654" y1="723.5616" y2="723.5616"/><ellipse cx="649" cy="741.3195" fill="none" rx="3" ry="3" style="stroke:#000000;stroke-width:1;"/><text fill="#000000" font-family="Verdana" font-size="18" lengthAdjust="spacing" textLength="197.2428" x="656" y="746.8034">title: String [NOT NULL]</text><ellipse cx="649" cy="765.8353" fill="none" rx="3" ry="3" style="stroke:#000000;stroke-width:1;"/><text fill="#000000" font-family="Verdana" font-size="18" lengthAdjust="spacing" textLength="154.9431" x="656" y="771.3193">description: String</text><ellipse cx="649" cy="790.3512" fill="none" rx="3" ry="3" style="stroke:#000000;stroke-width:1;"/><text fill="#000000" font-family="Verdana" font-size="18" lengthAdjust="spacing" textLength="320.47" x="656" y="795.8351">daysOfWeek: List&lt;String&gt; [NOT NULL]</text><ellipse cx="649" cy="814.867" fill="none" rx="3" ry="3" style="stroke:#000000;stroke-width:1;"/><text fill="#000000" font-family="Verdana" font-size="18" lengthAdjust="spacing" textLength="238.7686" x="656" y="820.351">category: String [NOT NULL]</text><ellipse cx="649" cy="839.3829" fill="none" rx="3" ry="3" style="stroke:#000000;stroke-width:1;"/><text fill="#000000" font-family="Verdana" font-size="18" lengthAdjust="spacing" textLength="202.9308" x="656" y="844.8668">time: String [NOT NULL]</text><ellipse cx="649" cy="863.8987" fill="none" rx="3" ry="3" style="stroke:#000000;stroke-width:1;"/><text fill="#000000" font-family="Verdana" font-size="18" lengthAdjust="spacing" textLength="243.8445" x="656" y="869.3827">isActive: bool [DEFAULT true]</text><ellipse cx="649" cy="888.4146" fill="none" rx="3" ry="3" style="stroke:#000000;stroke-width:1;"/><text fill="#000000" font-family="Verdana" font-size="18" lengthAdjust="spacing" textLength="192.2748" x="656" y="893.8985">streak: int [DEFAULT 0]</text></g><!--class Activity--><g class="entity" data-entity="Activity" data-source-line="66" data-uid="ent0004" id="entity_Activity"><rect fill="#E8F5E8" height="298.3984" rx="2.5" ry="2.5" style="stroke:#388E3C;stroke-width:1;" width="358.654" x="244" y="592.5082"/><ellipse cx="376.937" cy="623.3861" fill="#FFFFFF" rx="9" ry="9" style="stroke:#000000;stroke-width:1;"/><path d="M376.4527,630.5892 Q374.3902,630.5892 373.062,629.7142 Q371.7339,628.8392 371.0777,627.2611 Q370.437,625.6674 370.437,623.5424 Q370.437,621.1674 371.2027,619.4642 Q371.9839,617.7455 373.4839,616.8236 Q374.9995,615.9017 377.2027,615.9017 Q378.2339,615.9017 379.0152,616.1205 Q379.812,616.3236 380.6402,616.7299 L379.6714,619.1049 Q378.937,618.7299 378.2964,618.5892 Q377.6714,618.4486 377.0933,618.4486 Q375.7183,618.4486 374.8902,619.0736 Q374.0777,619.683 373.7183,620.808 Q373.3745,621.933 373.3745,623.433 Q373.3745,625.7924 374.2183,626.9174 Q375.062,628.0424 376.937,628.0424 Q377.6402,628.0424 378.3589,627.8705 Q379.0933,627.683 380.0777,627.2455 L380.0777,629.8392 Q379.2183,630.2299 378.2808,630.4017 Q377.3589,630.5892 376.4527,630.5892 Z " fill="#000000"/><text fill="#000000" font-family="Verdana" font-size="20" font-style="italic" lengthAdjust="spacing" textLength="89.2799" x="392.437" y="618.8882">&#171;Domain&#187;</text><text fill="#1B5E20" font-family="Verdana" font-size="18" lengthAdjust="spacing" textLength="60.7496" x="406.7022" y="643.9901">Activity</text><line style="stroke:#388E3C;stroke-width:1;" x1="245" x2="601.654" y1="654.264" y2="654.264"/><text fill="#000000" font-family="Verdana" font-size="18" font-weight="bold" lengthAdjust="spacing" textLength="187.8288" x="266.68" y="677.5059">Atributos Principales</text><ellipse cx="255" cy="696.5378" fill="none" rx="3" ry="3" style="stroke:#000000;stroke-width:1;"/><text fill="#000000" font-family="Verdana" font-size="18" lengthAdjust="spacing" textLength="114.4253" x="262" y="702.0218">id: String [PK]</text><ellipse cx="255" cy="721.0536" fill="none" rx="3" ry="3" style="stroke:#000000;stroke-width:1;"/><text fill="#000000" font-family="Verdana" font-size="18" lengthAdjust="spacing" textLength="334.654" x="262" y="726.5376">userId: String [FK -&gt; User.id, NOT NULL]</text><line style="stroke:#388E3C;stroke-width:1;" x1="245" x2="601.654" y1="735.8116" y2="735.8116"/><ellipse cx="255" cy="753.5695" fill="none" rx="3" ry="3" style="stroke:#000000;stroke-width:1;"/><text fill="#000000" font-family="Verdana" font-size="18" lengthAdjust="spacing" textLength="197.2428" x="262" y="759.0534">title: String [NOT NULL]</text><ellipse cx="255" cy="778.0853" fill="none" rx="3" ry="3" style="stroke:#000000;stroke-width:1;"/><text fill="#000000" font-family="Verdana" font-size="18" lengthAdjust="spacing" textLength="238.7686" x="262" y="783.5693">category: String [NOT NULL]</text><ellipse cx="255" cy="802.6012" fill="none" rx="3" ry="3" style="stroke:#000000;stroke-width:1;"/><text fill="#000000" font-family="Verdana" font-size="18" lengthAdjust="spacing" textLength="276.4603" x="262" y="808.0851">startTime: DateTime [NOT NULL]</text><ellipse cx="255" cy="827.117" fill="none" rx="3" ry="3" style="stroke:#000000;stroke-width:1;"/><text fill="#000000" font-family="Verdana" font-size="18" lengthAdjust="spacing" textLength="269.6563" x="262" y="832.601">endTime: DateTime [NOT NULL]</text><ellipse cx="255" cy="851.6329" fill="none" rx="3" ry="3" style="stroke:#000000;stroke-width:1;"/><text fill="#000000" font-family="Verdana" font-size="18" lengthAdjust="spacing" textLength="290.4462" x="262" y="857.1168">isCompleted: bool [DEFAULT false]</text><ellipse cx="255" cy="876.1487" fill="none" rx="3" ry="3" style="stroke:#000000;stroke-width:1;"/><text fill="#000000" font-family="Verdana" font-size="18" lengthAdjust="spacing" textLength="121.9493" x="262" y="881.6327">priority: String</text></g><!--class Task--><g class="entity" data-entity="Task" data-source-line="79" data-uid="ent0005" id="entity_Task"><rect fill="#E8F5E8" height="298.3984" rx="2.5" ry="2.5" style="stroke:#388E3C;stroke-width:1;" width="358.654" x="1101" y="592.5082"/><ellipse cx="1233.937" cy="623.3861" fill="#FFFFFF" rx="9" ry="9" style="stroke:#000000;stroke-width:1;"/><path d="M1233.4527,630.5892 Q1231.3902,630.5892 1230.062,629.7142 Q1228.7339,628.8392 1228.0777,627.2611 Q1227.437,625.6674 1227.437,623.5424 Q1227.437,621.1674 1228.2027,619.4642 Q1228.9839,617.7455 1230.4839,616.8236 Q1231.9995,615.9017 1234.2027,615.9017 Q1235.2339,615.9017 1236.0152,616.1205 Q1236.812,616.3236 1237.6402,616.7299 L1236.6714,619.1049 Q1235.937,618.7299 1235.2964,618.5892 Q1234.6714,618.4486 1234.0933,618.4486 Q1232.7183,618.4486 1231.8902,619.0736 Q1231.0777,619.683 1230.7183,620.808 Q1230.3745,621.933 1230.3745,623.433 Q1230.3745,625.7924 1231.2183,626.9174 Q1232.062,628.0424 1233.937,628.0424 Q1234.6402,628.0424 1235.3589,627.8705 Q1236.0933,627.683 1237.0777,627.2455 L1237.0777,629.8392 Q1236.2183,630.2299 1235.2808,630.4017 Q1234.3589,630.5892 1233.4527,630.5892 Z " fill="#000000"/><text fill="#000000" font-family="Verdana" font-size="20" font-style="italic" lengthAdjust="spacing" textLength="89.2799" x="1249.437" y="618.8882">&#171;Domain&#187;</text><text fill="#1B5E20" font-family="Verdana" font-size="18" lengthAdjust="spacing" textLength="38.3398" x="1274.9071" y="643.9901">Task</text><line style="stroke:#388E3C;stroke-width:1;" x1="1102" x2="1458.654" y1="654.264" y2="654.264"/><text fill="#000000" font-family="Verdana" font-size="18" font-weight="bold" lengthAdjust="spacing" textLength="187.8288" x="1123.68" y="677.5059">Atributos Principales</text><ellipse cx="1112" cy="696.5378" fill="none" rx="3" ry="3" style="stroke:#000000;stroke-width:1;"/><text fill="#000000" font-family="Verdana" font-size="18" lengthAdjust="spacing" textLength="114.4253" x="1119" y="702.0218">id: String [PK]</text><ellipse cx="1112" cy="721.0536" fill="none" rx="3" ry="3" style="stroke:#000000;stroke-width:1;"/><text fill="#000000" font-family="Verdana" font-size="18" lengthAdjust="spacing" textLength="334.654" x="1119" y="726.5376">userId: String [FK -&gt; User.id, NOT NULL]</text><line style="stroke:#388E3C;stroke-width:1;" x1="1102" x2="1458.654" y1="735.8116" y2="735.8116"/><ellipse cx="1112" cy="753.5695" fill="none" rx="3" ry="3" style="stroke:#000000;stroke-width:1;"/><text fill="#000000" font-family="Verdana" font-size="18" lengthAdjust="spacing" textLength="197.2428" x="1119" y="759.0534">title: String [NOT NULL]</text><ellipse cx="1112" cy="778.0853" fill="none" rx="3" ry="3" style="stroke:#000000;stroke-width:1;"/><text fill="#000000" font-family="Verdana" font-size="18" lengthAdjust="spacing" textLength="154.9431" x="1119" y="783.5693">description: String</text><ellipse cx="1112" cy="802.6012" fill="none" rx="3" ry="3" style="stroke:#000000;stroke-width:1;"/><text fill="#000000" font-family="Verdana" font-size="18" lengthAdjust="spacing" textLength="290.4462" x="1119" y="808.0851">isCompleted: bool [DEFAULT false]</text><ellipse cx="1112" cy="827.117" fill="none" rx="3" ry="3" style="stroke:#000000;stroke-width:1;"/><text fill="#000000" font-family="Verdana" font-size="18" lengthAdjust="spacing" textLength="121.9493" x="1119" y="832.601">priority: String</text><ellipse cx="1112" cy="851.6329" fill="none" rx="3" ry="3" style="stroke:#000000;stroke-width:1;"/><text fill="#000000" font-family="Verdana" font-size="18" lengthAdjust="spacing" textLength="171.0709" x="1119" y="857.1168">dueDate: DateTime?</text><ellipse cx="1112" cy="876.1487" fill="none" rx="3" ry="3" style="stroke:#000000;stroke-width:1;"/><text fill="#000000" font-family="Verdana" font-size="18" lengthAdjust="spacing" textLength="277.7202" x="1119" y="881.6327">createdAt: DateTime [NOT NULL]</text></g><!--class TimeBlock--><g class="entity" data-entity="TimeBlock" data-source-line="92" data-uid="ent0006" id="entity_TimeBlock"><rect fill="#FFF3E0" height="347.4301" rx="2.5" ry="2.5" style="stroke:#F57C00;stroke-width:1;" width="358.654" x="12" y="963.1682"/><ellipse cx="144.0173" cy="994.0461" fill="#FFFFFF" rx="9" ry="9" style="stroke:#000000;stroke-width:1;"/><path d="M143.5329,1001.2492 Q141.4704,1001.2492 140.1423,1000.3742 Q138.8141,999.4992 138.1579,997.9211 Q137.5173,996.3274 137.5173,994.2024 Q137.5173,991.8274 138.2829,990.1242 Q139.0641,988.4055 140.5641,987.4836 Q142.0798,986.5617 144.2829,986.5617 Q145.3141,986.5617 146.0954,986.7805 Q146.8923,986.9836 147.7204,987.3899 L146.7516,989.7649 Q146.0173,989.3899 145.3766,989.2492 Q144.7516,989.1086 144.1735,989.1086 Q142.7985,989.1086 141.9704,989.7336 Q141.1579,990.343 140.7985,991.468 Q140.4548,992.593 140.4548,994.093 Q140.4548,996.4524 141.2985,997.5774 Q142.1423,998.7024 144.0173,998.7024 Q144.7204,998.7024 145.4391,998.5305 Q146.1735,998.343 147.1579,997.9055 L147.1579,1000.4992 Q146.2985,1000.8899 145.361,1001.0617 Q144.4391,1001.2492 143.5329,1001.2492 Z " fill="#000000"/><text fill="#000000" font-family="Verdana" font-size="20" font-style="italic" lengthAdjust="spacing" textLength="61.7799" x="174.187" y="989.5482">&#171;Data&#187;</text><text fill="#E65100" font-family="Verdana" font-size="18" lengthAdjust="spacing" textLength="87.1194" x="161.5173" y="1014.6501">TimeBlock</text><line style="stroke:#F57C00;stroke-width:1;" x1="13" x2="369.654" y1="1024.924" y2="1024.924"/><text fill="#000000" font-family="Verdana" font-size="18" font-weight="bold" lengthAdjust="spacing" textLength="187.8288" x="34.68" y="1048.1659">Atributos Principales</text><ellipse cx="23" cy="1067.1978" fill="none" rx="3" ry="3" style="stroke:#000000;stroke-width:1;"/><text fill="#000000" font-family="Verdana" font-size="18" lengthAdjust="spacing" textLength="114.4253" x="30" y="1072.6818">id: String [PK]</text><ellipse cx="23" cy="1091.7136" fill="none" rx="3" ry="3" style="stroke:#000000;stroke-width:1;"/><text fill="#000000" font-family="Verdana" font-size="18" lengthAdjust="spacing" textLength="334.654" x="30" y="1097.1976">userId: String [FK -&gt; User.id, NOT NULL]</text><ellipse cx="23" cy="1116.2295" fill="none" rx="3" ry="3" style="stroke:#000000;stroke-width:1;"/><text fill="#000000" font-family="Verdana" font-size="18" lengthAdjust="spacing" textLength="257.2184" x="30" y="1121.7134">habitId: String? [FK -&gt; Habit.id]</text><ellipse cx="23" cy="1140.7453" fill="none" rx="3" ry="3" style="stroke:#000000;stroke-width:1;"/><text fill="#000000" font-family="Verdana" font-size="18" lengthAdjust="spacing" textLength="288.2322" x="30" y="1146.2293">activityId: String? [FK -&gt; Activity.id]</text><line style="stroke:#F57C00;stroke-width:1;" x1="13" x2="369.654" y1="1155.5033" y2="1155.5033"/><ellipse cx="23" cy="1173.2612" fill="none" rx="3" ry="3" style="stroke:#000000;stroke-width:1;"/><text fill="#000000" font-family="Verdana" font-size="18" lengthAdjust="spacing" textLength="197.2428" x="30" y="1178.7451">title: String [NOT NULL]</text><ellipse cx="23" cy="1197.777" fill="none" rx="3" ry="3" style="stroke:#000000;stroke-width:1;"/><text fill="#000000" font-family="Verdana" font-size="18" lengthAdjust="spacing" textLength="276.4603" x="30" y="1203.261">startTime: DateTime [NOT NULL]</text><ellipse cx="23" cy="1222.2929" fill="none" rx="3" ry="3" style="stroke:#000000;stroke-width:1;"/><text fill="#000000" font-family="Verdana" font-size="18" lengthAdjust="spacing" textLength="269.6563" x="30" y="1227.7768">endTime: DateTime [NOT NULL]</text><ellipse cx="23" cy="1246.8087" fill="none" rx="3" ry="3" style="stroke:#000000;stroke-width:1;"/><text fill="#000000" font-family="Verdana" font-size="18" lengthAdjust="spacing" textLength="238.7686" x="30" y="1252.2927">category: String [NOT NULL]</text><ellipse cx="23" cy="1271.3246" fill="none" rx="3" ry="3" style="stroke:#000000;stroke-width:1;"/><text fill="#000000" font-family="Verdana" font-size="18" lengthAdjust="spacing" textLength="290.4462" x="30" y="1276.8085">isCompleted: bool [DEFAULT false]</text><ellipse cx="23" cy="1295.8404" fill="none" rx="3" ry="3" style="stroke:#000000;stroke-width:1;"/><text fill="#000000" font-family="Verdana" font-size="18" lengthAdjust="spacing" textLength="288.0162" x="30" y="1301.3244">isFocusTime: bool [DEFAULT false]</text></g><!--class Subtask--><g class="entity" data-entity="Subtask" data-source-line="107" data-uid="ent0007" id="entity_Subtask"><rect fill="#FFF3E0" height="224.8509" rx="2.5" ry="2.5" style="stroke:#F57C00;stroke-width:1;" width="355.1259" x="1171.76" y="1024.4582"/><ellipse cx="1312.1202" cy="1055.3361" fill="#FFFFFF" rx="9" ry="9" style="stroke:#000000;stroke-width:1;"/><path d="M1311.6358,1062.5392 Q1309.5733,1062.5392 1308.2452,1061.6642 Q1306.9171,1060.7892 1306.2608,1059.2111 Q1305.6202,1057.6174 1305.6202,1055.4924 Q1305.6202,1053.1174 1306.3858,1051.4142 Q1307.1671,1049.6955 1308.6671,1048.7736 Q1310.1827,1047.8517 1312.3858,1047.8517 Q1313.4171,1047.8517 1314.1983,1048.0705 Q1314.9952,1048.2736 1315.8233,1048.6799 L1314.8546,1051.0549 Q1314.1202,1050.6799 1313.4796,1050.5392 Q1312.8546,1050.3986 1312.2764,1050.3986 Q1310.9014,1050.3986 1310.0733,1051.0236 Q1309.2608,1051.633 1308.9014,1052.758 Q1308.5577,1053.883 1308.5577,1055.383 Q1308.5577,1057.7424 1309.4014,1058.8674 Q1310.2452,1059.9924 1312.1202,1059.9924 Q1312.8233,1059.9924 1313.5421,1059.8205 Q1314.2764,1059.633 1315.2608,1059.1955 L1315.2608,1061.7892 Q1314.4014,1062.1799 1313.4639,1062.3517 Q1312.5421,1062.5392 1311.6358,1062.5392 Z " fill="#000000"/><text fill="#000000" font-family="Verdana" font-size="20" font-style="italic" lengthAdjust="spacing" textLength="61.7799" x="1332.183" y="1050.8382">&#171;Data&#187;</text><text fill="#E65100" font-family="Verdana" font-size="18" lengthAdjust="spacing" textLength="66.9056" x="1329.6202" y="1075.9401">Subtask</text><line style="stroke:#F57C00;stroke-width:1;" x1="1172.76" x2="1525.8859" y1="1086.214" y2="1086.214"/><text fill="#000000" font-family="Verdana" font-size="18" font-weight="bold" lengthAdjust="spacing" textLength="187.8288" x="1194.44" y="1109.4559">Atributos Principales</text><ellipse cx="1182.76" cy="1128.4878" fill="none" rx="3" ry="3" style="stroke:#000000;stroke-width:1;"/><text fill="#000000" font-family="Verdana" font-size="18" lengthAdjust="spacing" textLength="114.4253" x="1189.76" y="1133.9718">id: String [PK]</text><ellipse cx="1182.76" cy="1153.0036" fill="none" rx="3" ry="3" style="stroke:#000000;stroke-width:1;"/><text fill="#000000" font-family="Verdana" font-size="18" lengthAdjust="spacing" textLength="331.1259" x="1189.76" y="1158.4876">taskId: String [FK -&gt; Task.id, NOT NULL]</text><line style="stroke:#F57C00;stroke-width:1;" x1="1172.76" x2="1525.8859" y1="1167.7616" y2="1167.7616"/><ellipse cx="1182.76" cy="1185.5195" fill="none" rx="3" ry="3" style="stroke:#000000;stroke-width:1;"/><text fill="#000000" font-family="Verdana" font-size="18" lengthAdjust="spacing" textLength="197.2428" x="1189.76" y="1191.0034">title: String [NOT NULL]</text><ellipse cx="1182.76" cy="1210.0353" fill="none" rx="3" ry="3" style="stroke:#000000;stroke-width:1;"/><text fill="#000000" font-family="Verdana" font-size="18" lengthAdjust="spacing" textLength="290.4462" x="1189.76" y="1215.5193">isCompleted: bool [DEFAULT false]</text><ellipse cx="1182.76" cy="1234.5512" fill="none" rx="3" ry="3" style="stroke:#000000;stroke-width:1;"/><text fill="#000000" font-family="Verdana" font-size="18" lengthAdjust="spacing" textLength="183.4009" x="1189.76" y="1240.0351">order: int [NOT NULL]</text></g><g class="entity" data-entity="GMN15" data-source-line="130" data-uid="ent0016" id="entity_GMN15"><path d="M472.46,91.9282 L472.46,210.8881 A0,0 0 0 0 472.46,210.8881 L616.33,210.8881 L620.33,270.4482 L624.33,210.8881 L768.1997,210.8881 A0,0 0 0 0 768.1997,210.8881 L768.1997,101.9282 L758.1997,91.9282 L472.46,91.9282 A0,0 0 0 0 472.46,91.9282" fill="#FFFFFF" style="stroke:#000000;stroke-width:1;"/><path d="M758.1997,91.9282 L758.1997,101.9282 L768.1997,101.9282 L758.1997,91.9282" fill="#FFFFFF" style="stroke:#000000;stroke-width:1;"/><text fill="#000000" font-family="Verdana" font-size="20" font-weight="bold" lengthAdjust="spacing" textLength="274.7397" x="478.46" y="118.3082">Entidad Central del Sistema</text><text fill="#000000" font-family="Verdana" font-size="20" lengthAdjust="spacing" textLength="5.2" x="478.46" y="145.5482">&#160;</text><text fill="#000000" font-family="Verdana" font-size="20" lengthAdjust="spacing" textLength="242.2397" x="478.46" y="172.7881">Todas las entidades est&#225;n</text><text fill="#000000" font-family="Verdana" font-size="20" lengthAdjust="spacing" textLength="219.9198" x="478.46" y="200.0281">asociadas a un usuario.</text></g><g class="entity" data-entity="GMN18" data-source-line="137" data-uid="ent0019" id="entity_GMN18"><path d="M757.85,1104.6382 L757.85,1169.1182 A0,0 0 0 0 757.85,1169.1182 L1136.8095,1169.1182 A0,0 0 0 0 1136.8095,1169.1182 L1136.8095,1114.6382 L1126.8095,1104.6382 L881.25,1104.6382 L877.25,903.5782 L873.25,1104.6382 L757.85,1104.6382 A0,0 0 0 0 757.85,1104.6382" fill="#FFFFFF" style="stroke:#000000;stroke-width:1;"/><path d="M1126.8095,1104.6382 L1126.8095,1114.6382 L1136.8095,1114.6382 L1126.8095,1104.6382" fill="#FFFFFF" style="stroke:#000000;stroke-width:1;"/><text fill="#000000" font-family="Verdana" font-size="20" lengthAdjust="spacing" textLength="253.3397" x="763.85" y="1131.0182">Ejecuta en d&#237;as espec&#237;ficos.</text><text fill="#000000" font-family="Verdana" font-size="20" lengthAdjust="spacing" textLength="357.9595" x="763.85" y="1158.2582">Genera TimeBlocks autom&#225;ticamente.</text></g><g class="entity" data-entity="GMN21" data-source-line="142" data-uid="ent0022" id="entity_GMN21"><path d="M405.48,1091.0182 L405.48,1132.5982 L371,1136.5982 L405.48,1140.5982 L405.48,1182.7381 A0,0 0 0 0 405.48,1182.7381 L723.1796,1182.7381 A0,0 0 0 0 723.1796,1182.7381 L723.1796,1101.0182 L713.1796,1091.0182 L405.48,1091.0182 A0,0 0 0 0 405.48,1091.0182" fill="#FFFFFF" style="stroke:#000000;stroke-width:1;"/><path d="M713.1796,1091.0182 L713.1796,1101.0182 L723.1796,1101.0182 L713.1796,1091.0182" fill="#FFFFFF" style="stroke:#000000;stroke-width:1;"/><text fill="#000000" font-family="Verdana" font-size="20" lengthAdjust="spacing" textLength="194.3398" x="411.48" y="1117.3982">Puede originarse de:</text><text fill="#000000" font-family="Verdana" font-size="20" lengthAdjust="spacing" textLength="296.6996" x="411.48" y="1144.6382">- Habit (generaci&#243;n autom&#225;tica)</text><text fill="#000000" font-family="Verdana" font-size="20" lengthAdjust="spacing" textLength="275.5197" x="411.48" y="1171.8781">- Activity (conversi&#243;n manual)</text></g><!--link User to Habit--><g class="link" data-entity-1="User" data-entity-2="Habit" data-source-line="120" data-uid="lnk8" id="link_User_Habit"><path codeLine="120" d="M707.87,528.5382 C707.87,547.7982 707.87,541.9382 707.87,561.8682" fill="none" id="User-Habit" style="stroke:#495057;stroke-width:1;"/><line style="stroke:#495057;stroke-width:1;" x1="703.87" x2="711.87" y1="524.5382" y2="524.5382"/><line style="stroke:#495057;stroke-width:1;" x1="703.87" x2="711.87" y1="527.5382" y2="527.5382"/><line style="stroke:#495057;stroke-width:1;" x1="707.87" x2="707.87" y1="528.5382" y2="520.5382"/><line style="stroke:#495057;stroke-width:1;" x1="707.87" x2="713.87" y1="571.8682" y2="579.8682"/><line style="stroke:#495057;stroke-width:1;" x1="707.87" x2="701.87" y1="571.8682" y2="579.8682"/><line style="stroke:#495057;stroke-width:1;" x1="707.87" x2="707.87" y1="571.8682" y2="579.8682"/><ellipse cx="707.87" cy="565.8682" fill="none" rx="4" ry="4" style="stroke:#495057;stroke-width:1;"/><text fill="#000000" font-family="Verdana" font-size="20" lengthAdjust="spacing" textLength="96.4999" x="610.87" y="543.5782">tiene (1:N)</text></g><!--link User to Activity--><g class="link" data-entity-1="User" data-entity-2="Activity" data-source-line="121" data-uid="lnk9" id="link_User_Activity"><path codeLine="121" d="M532.78,528.5382 C532.78,551.7682 532.78,550.2682 532.78,574.1582" fill="none" id="User-Activity" style="stroke:#495057;stroke-width:1;"/><line style="stroke:#495057;stroke-width:1;" x1="528.78" x2="536.78" y1="524.5382" y2="524.5382"/><line style="stroke:#495057;stroke-width:1;" x1="528.78" x2="536.78" y1="527.5382" y2="527.5382"/><line style="stroke:#495057;stroke-width:1;" x1="532.78" x2="532.78" y1="528.5382" y2="520.5382"/><line style="stroke:#495057;stroke-width:1;" x1="532.78" x2="538.78" y1="584.1582" y2="592.1582"/><line style="stroke:#495057;stroke-width:1;" x1="532.78" x2="526.78" y1="584.1582" y2="592.1582"/><line style="stroke:#495057;stroke-width:1;" x1="532.78" x2="532.78" y1="584.1582" y2="592.1582"/><ellipse cx="532.78" cy="578.1582" fill="none" rx="4" ry="4" style="stroke:#495057;stroke-width:1;"/><text fill="#000000" font-family="Verdana" font-size="20" lengthAdjust="spacing" textLength="128.2599" x="403.78" y="549.7282">planifica (1:N)</text></g><!--link User to Task--><g class="link" data-entity-1="User" data-entity-2="Task" data-source-line="122" data-uid="lnk10" id="link_User_Task"><path codeLine="122" d="M785.99,395.5982 C981.23,395.5982 1280.33,395.5982 1280.33,395.5982 C1280.33,395.5982 1280.33,480.5582 1280.33,574.1682" fill="none" id="User-Task" style="stroke:#495057;stroke-width:1;"/><line style="stroke:#495057;stroke-width:1;" x1="781.99" x2="781.99" y1="399.5982" y2="391.5982"/><line style="stroke:#495057;stroke-width:1;" x1="784.99" x2="784.99" y1="399.5982" y2="391.5982"/><line style="stroke:#495057;stroke-width:1;" x1="785.99" x2="777.99" y1="395.5982" y2="395.5982"/><line style="stroke:#495057;stroke-width:1;" x1="1280.33" x2="1286.33" y1="584.1682" y2="592.1682"/><line style="stroke:#495057;stroke-width:1;" x1="1280.33" x2="1274.33" y1="584.1682" y2="592.1682"/><line style="stroke:#495057;stroke-width:1;" x1="1280.33" x2="1280.33" y1="584.1682" y2="592.1682"/><ellipse cx="1280.33" cy="578.1682" fill="none" rx="4" ry="4" style="stroke:#495057;stroke-width:1;"/><text fill="#000000" font-family="Verdana" font-size="20" lengthAdjust="spacing" textLength="130.4199" x="996.44" y="388.9782">gestiona (1:N)</text></g><!--link User to TimeBlock--><g class="link" data-entity-1="User" data-entity-2="TimeBlock" data-source-line="123" data-uid="lnk11" id="link_User_TimeBlock"><path codeLine="123" d="M620.33,528.5682 C620.33,703.8882 620.33,993.5982 620.33,993.5982 C620.33,993.5982 506.57,993.5982 389.09,993.5982" fill="none" id="User-TimeBlock" style="stroke:#495057;stroke-width:1;"/><line style="stroke:#495057;stroke-width:1;" x1="616.33" x2="624.33" y1="524.5682" y2="524.5682"/><line style="stroke:#495057;stroke-width:1;" x1="616.33" x2="624.33" y1="527.5682" y2="527.5682"/><line style="stroke:#495057;stroke-width:1;" x1="620.33" x2="620.33" y1="528.5682" y2="520.5682"/><line style="stroke:#495057;stroke-width:1;" x1="379.09" x2="371.09" y1="993.5982" y2="999.5982"/><line style="stroke:#495057;stroke-width:1;" x1="379.09" x2="371.09" y1="993.5982" y2="987.5982"/><line style="stroke:#495057;stroke-width:1;" x1="379.09" x2="371.09" y1="993.5982" y2="993.5982"/><ellipse cx="385.09" cy="993.5982" fill="none" rx="4" ry="4" style="stroke:#495057;stroke-width:1;"/><text fill="#000000" font-family="Verdana" font-size="20" lengthAdjust="spacing" textLength="131.2199" x="488.33" y="904.0882">organiza (1:N)</text></g><!--link Task to Subtask--><g class="link" data-entity-1="Task" data-entity-2="Subtask" data-source-line="125" data-uid="lnk12" id="link_Task_Subtask"><path codeLine="125" d="M1315.71,899.3882 C1315.71,943.4082 1315.71,964.8082 1315.71,1006.0982" fill="none" id="Task-Subtask" style="stroke:#495057;stroke-width:1;"/><line style="stroke:#495057;stroke-width:1;" x1="1311.71" x2="1319.71" y1="895.3882" y2="895.3882"/><line style="stroke:#495057;stroke-width:1;" x1="1311.71" x2="1319.71" y1="898.3882" y2="898.3882"/><line style="stroke:#495057;stroke-width:1;" x1="1315.71" x2="1315.71" y1="899.3882" y2="891.3882"/><line style="stroke:#495057;stroke-width:1;" x1="1315.71" x2="1321.71" y1="1016.0982" y2="1024.0982"/><line style="stroke:#495057;stroke-width:1;" x1="1315.71" x2="1309.71" y1="1016.0982" y2="1024.0982"/><line style="stroke:#495057;stroke-width:1;" x1="1315.71" x2="1315.71" y1="1016.0982" y2="1024.0982"/><ellipse cx="1315.71" cy="1010.0982" fill="none" rx="4" ry="4" style="stroke:#495057;stroke-width:1;"/><text fill="#000000" font-family="Verdana" font-size="20" lengthAdjust="spacing" textLength="130.5599" x="1184.71" y="951.1282">contiene (1:N)</text></g><!--link Habit to TimeBlock--><g class="link" data-entity-1="Habit" data-entity-2="TimeBlock" data-source-line="126" data-uid="lnk13" id="link_Habit_TimeBlock"><path codeLine="126" d="M629.71,896.5982 C490.25,896.5982 328.44,896.5982 328.44,896.5982 C328.44,896.5982 328.44,907.3182 328.44,944.8882" fill="none" id="Habit-TimeBlock" style="stroke:#495057;stroke-width:1;"/><line style="stroke:#495057;stroke-width:1;" x1="633.71" x2="633.71" y1="892.5982" y2="900.5982"/><line style="stroke:#495057;stroke-width:1;" x1="630.71" x2="630.71" y1="892.5982" y2="900.5982"/><line style="stroke:#495057;stroke-width:1;" x1="629.71" x2="637.71" y1="896.5982" y2="896.5982"/><line style="stroke:#495057;stroke-width:1;" x1="328.44" x2="334.44" y1="954.8882" y2="962.8882"/><line style="stroke:#495057;stroke-width:1;" x1="328.44" x2="322.44" y1="954.8882" y2="962.8882"/><line style="stroke:#495057;stroke-width:1;" x1="328.44" x2="328.44" y1="954.8882" y2="962.8882"/><ellipse cx="328.44" cy="948.8882" fill="none" rx="4" ry="4" style="stroke:#495057;stroke-width:1;"/><text fill="#000000" font-family="Verdana" font-size="20" lengthAdjust="spacing" textLength="115.8999" x="333.93" y="918.9782">genera (1:N)</text></g><!--link Activity to TimeBlock--><g class="link" data-entity-1="Activity" data-entity-2="TimeBlock" data-source-line="127" data-uid="lnk14" id="link_Activity_TimeBlock"><path codeLine="127" d="M286.22,899.3882 C286.22,922.7682 286.22,924.0882 286.22,947.9482" fill="none" id="Activity-TimeBlock" style="stroke:#495057;stroke-width:1;"/><line style="stroke:#495057;stroke-width:1;" x1="282.22" x2="290.22" y1="895.3882" y2="895.3882"/><line style="stroke:#495057;stroke-width:1;" x1="282.22" x2="290.22" y1="898.3882" y2="898.3882"/><line style="stroke:#495057;stroke-width:1;" x1="286.22" x2="286.22" y1="899.3882" y2="891.3882"/><line style="stroke:#495057;stroke-width:1;" x1="286.22" x2="286.22" y1="951.9482" y2="962.9482"/><ellipse cx="286.22" cy="951.9482" fill="none" rx="4" ry="4" style="stroke:#495057;stroke-width:1;"/><line style="stroke:#495057;stroke-width:1;" x1="290.22" x2="282.22" y1="958.9482" y2="958.9482"/><text fill="#000000" font-family="Verdana" font-size="20" lengthAdjust="spacing" textLength="149.2798" x="136.22" y="920.5482">convierte a (1:1)</text></g><!--SRC=[rLTHSzeu47xthzYs3vSq9MD8Q0YJIyS1qpAbX0jaRkPwVH2s05sCv97a9cbpFwO_84_z2VonMyd6c40kfBcvkVFmWlVphlRRRwNLCpsXKmfnH1Xtd9-W8VY8ZHD90ZRxpk6qDsX_QF_cDJqemHcDijSX1Q9Y6cW1bVeUR8LiIhbYWbC5ezcjOW5HTIZNNFUgSk2wyTMsyooa8yOfD7jjs7TTHmKaeZ0bLnO6bopKay9BynbCA1jFjEEe2yPZ8iaKXYIu64kHyB0X8Y7XHSi-1GI68KcaMuBhFlj2eU8MZ454bCfDvSEx9azhoOQ9fWjChO29CJePq_M-8ynENySKXDGJuTnr3LyTmETaEO6ZemRbMfBe-1XU-7kjIgkPmeGCgLo5b0yFNZSh5c9MiGfmc_i7NjdvS-FuJJ75qjlmjLRLhws6No3sQZL_ht4t-i9UFgdwoCaZWXDDp8TOmZtVNHDwRgyUD5nt9N1czLzNo-wwi9wKuZ8JolvXrQqU511arUXefb5_JKR6Y23WSyr24fOMmY_Dtw7GUvBnWCMeMFKx_p3x7YQHg1Vi3I4foZ4298Xn9anx_RpvWsY_EsWtlQRVXzvPkzjezxoEtt-abvJ_SqKb58MI5kJbI_1InOkbVD1WxJiih4CV4NmC7tllFzcNfL9gerZsQ67kdWwWUzxfl8BpRlkNSpy5xt0ofQkWp1ZZsYwnuE-8cjmB2YGbceQUhWDMd0vmhrd1O9Aw8yQC5r5lZ2JI_D-H8TDGqEeJyjz9aCnsmT1w3wLZI_4k2r_1yjBcR5bftPiZwYMGBDQuXSuncO5SgzFHhvHUrA73b3vAZSUhB67IOo6lxmsXsTyKWYalqEmp0eP2HF2nwRUyyyu0j4ne1b4Qwu2hO5mlxEwd1SVM0zFN_s6Q7oH9QIBrm39rhzOe3nz0CDKGqpYYgDgxX8v8fEQCnf89YOJb5S-f711ryNzKwuycddfDg66qsB-RzF-2D3ISH2AmpAL7mx_6syx4R30B-9ivtcuy-4468rcFh47EsoS7RrQBVqQn3pR6XfLbE5q5YKgZhONbvUedGvt9_Ed5CfvMYsNQw8T5lc76Tbp9TiKbKJxsi3_pErwZVTfzqcblp_cRcr99VCtEl3eyrupYuBrLhdUtdoyXyXqRGNW3u6o4W_iweDsF43IcoZJzUapUVWWKSepklkH0nth8aFFA8ox0QQwukdJDwpoE4ILpV_dABVHc6OfEFpCgDLvI3BviudE1VxM8GOni3pj6QTci1jbOP8UrFXwoEDbOjU5l84AY00KBD1_ia8JPDuv6eaJ0Y04GI3WaAY6ui-qws6zW0cPXXq9hCJMHRNhueVy73H9Dq2U4irlZtDocPhV8lr2x27YRPfkdXH6m8QQpRnehX7SjJLUYI7DNCa7oZz1FBw6XkP4m78s8L6OUhUFhKYQEhPJLTBOjHDYsc9paBSCebSh2feGd9DfUXFyB]--></g></svg>