<svg xmlns="http://www.w3.org/2000/svg" xmlns:xlink="http://www.w3.org/1999/xlink" contentStyleType="text/css" data-diagram-type="DESCRIPTION" height="769px" preserveAspectRatio="none" style="width:2758px;height:769px;background:#FFFFFF;" version="1.1" viewBox="0 0 2758 769" width="2758px" zoomAndPan="magnify"><title>Diagrama de Casos de Uso - Gesti&#243;n de Entidades
M&#243;dulo de Gesti&#243;n de Actividades, H&#225;bitos y Time Blocks</title><defs/><g><g class="title" data-source-line="44"><text fill="#000000" font-family="Verdana" font-size="22" font-weight="bold" lengthAdjust="spacing" textLength="538.0779" x="1105.6511" y="38.5181">Diagrama de Casos de Uso - Gesti&#243;n de Entidades</text><text fill="#000000" font-family="Verdana" font-size="22" font-weight="bold" lengthAdjust="spacing" textLength="622.6241" x="1063.3779" y="68.4822">M&#243;dulo de Gesti&#243;n de Actividades, H&#225;bitos y Time Blocks</text></g><!--cluster TempoSage System--><g class="cluster" data-entity="TempoSage System" data-source-line="55" data-uid="ent0004" id="cluster_TempoSage System"><rect fill="#FFFFFF" height="504.95" rx="2.5" ry="2.5" style="stroke:#000000;stroke-width:1;" width="2414" x="68.78" y="258.8582"/><text fill="#000000" font-family="Verdana" font-size="20" font-weight="bold" lengthAdjust="spacing" textLength="193.4998" x="1179.0301" y="282.2382">TempoSage System</text></g><!--cluster activities--><g class="cluster" data-entity="activities" data-source-line="57" data-uid="ent0005" id="cluster_activities"><path d="M95.28,329.0982 L323.3398,329.0982 A3.75,3.75 0 0 1 325.8398,331.5982 L332.8398,362.3382 L1336.28,362.3382 A2.5,2.5 0 0 1 1338.78,364.8382 L1338.78,494.1282 A2.5,2.5 0 0 1 1336.28,496.6282 L95.28,496.6282 A2.5,2.5 0 0 1 92.78,494.1282 L92.78,331.5982 A2.5,2.5 0 0 1 95.28,329.0982" fill="#FFF3E0" style="stroke:#F57C00;stroke-width:1;"/><line style="stroke:#F57C00;stroke-width:1;" x1="92.78" x2="332.8398" y1="362.3382" y2="362.3382"/><text fill="#E65100" font-family="Verdana" font-size="20" font-weight="bold" lengthAdjust="spacing" textLength="227.0598" x="96.78" y="352.4782">Gesti&#243;n de Actividades</text><text fill="#E65100" font-family="Verdana" font-size="20" font-style="italic" lengthAdjust="spacing" textLength="137.4599" x="651.0501" y="385.7182">&#171;Management&#187;</text></g><!--cluster habits--><g class="cluster" data-entity="habits" data-source-line="65" data-uid="ent0011" id="cluster_habits"><path d="M1365.28,312.8582 L1554.9998,312.8582 A3.75,3.75 0 0 1 1557.4998,315.3582 L1564.4998,346.0982 L2456.28,346.0982 A2.5,2.5 0 0 1 2458.78,348.5982 L2458.78,510.3782 A2.5,2.5 0 0 1 2456.28,512.8782 L1365.28,512.8782 A2.5,2.5 0 0 1 1362.78,510.3782 L1362.78,315.3582 A2.5,2.5 0 0 1 1365.28,312.8582" fill="#FFF3E0" style="stroke:#F57C00;stroke-width:1;"/><line style="stroke:#F57C00;stroke-width:1;" x1="1362.78" x2="1564.4998" y1="346.0982" y2="346.0982"/><text fill="#E65100" font-family="Verdana" font-size="20" font-weight="bold" lengthAdjust="spacing" textLength="188.7198" x="1366.78" y="336.2382">Gesti&#243;n de H&#225;bitos</text><text fill="#E65100" font-family="Verdana" font-size="20" font-style="italic" lengthAdjust="spacing" textLength="137.4599" x="1846.0501" y="369.4782">&#171;Management&#187;</text></g><!--cluster timeblocks--><g class="cluster" data-entity="timeblocks" data-source-line="73" data-uid="ent0017" id="cluster_timeblocks"><path d="M1756.28,573.8782 L1987.5598,573.8782 A3.75,3.75 0 0 1 1990.0598,576.3782 L1997.0598,607.1182 L2456.28,607.1182 A2.5,2.5 0 0 1 2458.78,609.6182 L2458.78,737.3082 A2.5,2.5 0 0 1 2456.28,739.8082 L1756.28,739.8082 A2.5,2.5 0 0 1 1753.78,737.3082 L1753.78,576.3782 A2.5,2.5 0 0 1 1756.28,573.8782" fill="#E8F5E8" style="stroke:#388E3C;stroke-width:1;"/><line style="stroke:#388E3C;stroke-width:1;" x1="1753.78" x2="1997.0598" y1="607.1182" y2="607.1182"/><text fill="#1B5E20" font-family="Verdana" font-size="20" font-weight="bold" lengthAdjust="spacing" textLength="230.2798" x="1757.78" y="597.2582">Gesti&#243;n de Time Blocks</text><text fill="#1B5E20" font-family="Verdana" font-size="20" font-style="italic" lengthAdjust="spacing" textLength="60.02" x="2080.27" y="630.4982">&#171;Core&#187;</text></g><!--entity UC_CreateActivity--><g class="entity" data-entity="UC_CreateActivity" data-source-line="58" data-uid="ent0006" id="entity_UC_CreateActivity"><ellipse cx="1224.78" cy="441.3635" fill="#FFE0B2" rx="98.03" ry="39.2653" style="stroke:#FB8C00;stroke-width:1;"/><text fill="#E65100" font-family="Verdana" font-size="19" font-style="italic" lengthAdjust="spacing" textLength="130.5874" x="1159.4863" y="437.3921">&#171;Management&#187;</text><text fill="#E65100" font-family="Verdana" font-size="19" lengthAdjust="spacing" textLength="135.6224" x="1156.9688" y="463.2701">Crear Actividad</text></g><!--entity UC_EditActivity--><g class="entity" data-entity="UC_EditActivity" data-source-line="59" data-uid="ent0007" id="entity_UC_EditActivity"><ellipse cx="991.7798" cy="441.3688" fill="#FFE0B2" rx="99.8898" ry="39.0606" style="stroke:#FB8C00;stroke-width:1;"/><text fill="#E65100" font-family="Verdana" font-size="19" font-style="italic" lengthAdjust="spacing" textLength="130.5874" x="926.4861" y="437.1044">&#171;Management&#187;</text><text fill="#E65100" font-family="Verdana" font-size="19" lengthAdjust="spacing" textLength="139.0614" x="922.2491" y="462.9825">Editar Actividad</text></g><!--entity UC_CompleteActivity--><g class="entity" data-entity="UC_CompleteActivity" data-source-line="60" data-uid="ent0008" id="entity_UC_CompleteActivity"><ellipse cx="231.7792" cy="441.3646" fill="#FFE0B2" rx="123.2592" ry="37.4864" style="stroke:#FB8C00;stroke-width:1;"/><text fill="#E65100" font-family="Verdana" font-size="19" font-style="italic" lengthAdjust="spacing" textLength="130.5874" x="166.4855" y="434.782">&#171;Management&#187;</text><text fill="#E65100" font-family="Verdana" font-size="19" lengthAdjust="spacing" textLength="180.4815" x="141.5384" y="460.6601">Completar Actividad</text></g><!--entity UC_CancelActivity--><g class="entity" data-entity="UC_CancelActivity" data-source-line="61" data-uid="ent0009" id="entity_UC_CancelActivity"><ellipse cx="503.7806" cy="441.3646" fill="#FFE0B2" rx="113.9006" ry="37.9564" style="stroke:#FB8C00;stroke-width:1;"/><text fill="#E65100" font-family="Verdana" font-size="19" font-style="italic" lengthAdjust="spacing" textLength="130.5874" x="438.4869" y="435.4871">&#171;Management&#187;</text><text fill="#E65100" font-family="Verdana" font-size="19" lengthAdjust="spacing" textLength="164.1984" x="421.6814" y="461.3652">Cancelar Actividad</text></g><!--entity UC_ListActivities--><g class="entity" data-entity="UC_ListActivities" data-source-line="62" data-uid="ent0010" id="entity_UC_ListActivities"><ellipse cx="754.7823" cy="441.3638" fill="#C8E6C9" rx="101.8923" ry="35.8756" style="stroke:#2E7D32;stroke-width:1;"/><text fill="#1B5E20" font-family="Verdana" font-size="19" font-style="italic" lengthAdjust="spacing" textLength="57.0192" x="726.2727" y="432.2621">&#171;Core&#187;</text><text fill="#1B5E20" font-family="Verdana" font-size="19" lengthAdjust="spacing" textLength="155.6864" x="676.9391" y="458.1401">Listar Actividades</text></g><!--entity UC_CreateHabit--><g class="entity" data-entity="UC_CreateHabit" data-source-line="66" data-uid="ent0012" id="entity_UC_CreateHabit"><ellipse cx="1471.7788" cy="441.3646" fill="#FFE0B2" rx="93.3188" ry="38.2564" style="stroke:#FB8C00;stroke-width:1;"/><text fill="#E65100" font-family="Verdana" font-size="19" font-style="italic" lengthAdjust="spacing" textLength="130.5874" x="1406.4851" y="439.3831">&#171;Management&#187;</text><text fill="#E65100" font-family="Verdana" font-size="19" lengthAdjust="spacing" textLength="113.6963" x="1414.9306" y="465.2612">Crear H&#225;bito</text></g><!--entity UC_EditHabit--><g class="entity" data-entity="UC_EditHabit" data-source-line="67" data-uid="ent0013" id="entity_UC_EditHabit"><ellipse cx="1693.7775" cy="441.3671" fill="#FFE0B2" rx="93.8375" ry="38.4589" style="stroke:#FB8C00;stroke-width:1;"/><text fill="#E65100" font-family="Verdana" font-size="19" font-style="italic" lengthAdjust="spacing" textLength="130.5874" x="1628.4838" y="439.0934">&#171;Management&#187;</text><text fill="#E65100" font-family="Verdana" font-size="19" lengthAdjust="spacing" textLength="117.1353" x="1635.2098" y="464.9715">Editar H&#225;bito</text></g><!--entity UC_DeleteHabit--><g class="entity" data-entity="UC_DeleteHabit" data-source-line="68" data-uid="ent0014" id="entity_UC_DeleteHabit"><ellipse cx="1921.7811" cy="441.366" fill="#FFE0B2" rx="99.2611" ry="39.1278" style="stroke:#FB8C00;stroke-width:1;"/><text fill="#E65100" font-family="Verdana" font-size="19" font-style="italic" lengthAdjust="spacing" textLength="130.5874" x="1856.4874" y="437.1978">&#171;Management&#187;</text><text fill="#E65100" font-family="Verdana" font-size="19" lengthAdjust="spacing" textLength="137.9023" x="1852.8299" y="463.0759">Eliminar H&#225;bito</text></g><!--entity UC_CompleteHabit--><g class="entity" data-entity="UC_CompleteHabit" data-source-line="69" data-uid="ent0015" id="entity_UC_CompleteHabit"><ellipse cx="2148.7783" cy="441.3678" fill="#FFE0B2" rx="92.6783" ry="55.5096" style="stroke:#FB8C00;stroke-width:1;"/><text fill="#E65100" font-family="Verdana" font-size="19" font-style="italic" lengthAdjust="spacing" textLength="130.5874" x="2083.4846" y="427.7514">&#171;Management&#187;</text><text fill="#E65100" font-family="Verdana" font-size="19" lengthAdjust="spacing" textLength="127.9843" x="2084.7861" y="453.6295">Marcar H&#225;bito</text><text fill="#E65100" font-family="Verdana" font-size="19" lengthAdjust="spacing" textLength="109.2693" x="2094.1437" y="479.5075">Completado</text></g><!--entity UC_ViewHabitStats--><g class="entity" data-entity="UC_ViewHabitStats" data-source-line="70" data-uid="ent0016" id="entity_UC_ViewHabitStats"><ellipse cx="2359.7765" cy="441.3692" fill="#C8E6C9" rx="82.8765" ry="47.801" style="stroke:#2E7D32;stroke-width:1;"/><text fill="#1B5E20" font-family="Verdana" font-size="19" font-style="italic" lengthAdjust="spacing" textLength="57.0192" x="2331.2669" y="421.8971">&#171;Core&#187;</text><text fill="#1B5E20" font-family="Verdana" font-size="19" lengthAdjust="spacing" textLength="138.4154" x="2290.5688" y="447.7752">Ver Estad&#237;sticas</text><text fill="#1B5E20" font-family="Verdana" font-size="19" lengthAdjust="spacing" textLength="96.1213" x="2311.7159" y="473.6533">de H&#225;bitos</text></g><!--entity UC_CreateTimeBlock--><g class="entity" data-entity="UC_CreateTimeBlock" data-source-line="74" data-uid="ent0018" id="entity_UC_CreateTimeBlock"><ellipse cx="1875.7772" cy="685.3345" fill="#FFE0B2" rx="106.4172" ry="38.4663" style="stroke:#FB8C00;stroke-width:1;"/><text fill="#E65100" font-family="Verdana" font-size="19" font-style="italic" lengthAdjust="spacing" textLength="130.5874" x="1810.4835" y="680.2089">&#171;Management&#187;</text><text fill="#E65100" font-family="Verdana" font-size="19" lengthAdjust="spacing" textLength="150.9174" x="1800.3185" y="706.0869">Crear Time Block</text></g><!--entity UC_EditTimeBlock--><g class="entity" data-entity="UC_EditTimeBlock" data-source-line="75" data-uid="ent0019" id="entity_UC_EditTimeBlock"><ellipse cx="2334.7796" cy="685.3389" fill="#FFE0B2" rx="108.3396" ry="38.3207" style="stroke:#FB8C00;stroke-width:1;"/><text fill="#E65100" font-family="Verdana" font-size="19" font-style="italic" lengthAdjust="spacing" textLength="130.5874" x="2269.4859" y="679.9998">&#171;Management&#187;</text><text fill="#E65100" font-family="Verdana" font-size="19" lengthAdjust="spacing" textLength="154.3564" x="2257.6014" y="705.8779">Editar Time Block</text></g><!--entity UC_ViewCalendar--><g class="entity" data-entity="UC_ViewCalendar" data-source-line="76" data-uid="ent0020" id="entity_UC_ViewCalendar"><ellipse cx="2104.7793" cy="685.3397" fill="#C8E6C9" rx="87.0893" ry="36.0915" style="stroke:#2E7D32;stroke-width:1;"/><text fill="#1B5E20" font-family="Verdana" font-size="19" font-style="italic" lengthAdjust="spacing" textLength="57.0192" x="2076.2698" y="676.5862">&#171;Core&#187;</text><text fill="#1B5E20" font-family="Verdana" font-size="19" lengthAdjust="spacing" textLength="131.5184" x="2039.0202" y="702.4643">Ver Calendario</text></g><!--entity user--><g class="entity" data-entity="user" data-source-line="49" data-uid="ent0002" id="entity_user"><ellipse cx="1471.7851" cy="114.9082" fill="#E3F2FD" rx="8" ry="8" style="stroke:#1976D2;stroke-width:1;"/><path d="M1471.7851,122.9082 L1471.7851,149.9082 M1458.7851,130.9082 L1484.7851,130.9082 M1471.7851,149.9082 L1458.7851,164.9082 M1471.7851,149.9082 L1484.7851,164.9082" fill="none" style="stroke:#1976D2;stroke-width:1;"/><text fill="#0D47A1" font-family="Verdana" font-size="22" lengthAdjust="spacing" textLength="80.6303" x="1431.47" y="190.4263">Usuario</text></g><!--entity database--><g class="entity" data-entity="database" data-source-line="50" data-uid="ent0003" id="entity_database"><ellipse cx="2270.7792" cy="99.9282" fill="#E3F2FD" rx="8" ry="8" style="stroke:#1976D2;stroke-width:1;"/><path d="M2270.7792,107.9282 L2270.7792,134.9282 M2257.7792,115.9282 L2283.7792,115.9282 M2270.7792,134.9282 L2257.7792,149.9282 M2270.7792,134.9282 L2283.7792,149.9282" fill="none" style="stroke:#1976D2;stroke-width:1;"/><text fill="#0D47A1" font-family="Verdana" font-size="22" lengthAdjust="spacing" textLength="147.1585" x="2197.2" y="175.4463">Base de Datos</text><text fill="#0D47A1" font-family="Verdana" font-size="22" lengthAdjust="spacing" textLength="53.4162" x="2197.2" y="205.4104">Local</text></g><!--link user to UC_CreateActivity--><g class="link" data-entity-1="user" data-entity-2="UC_CreateActivity" data-source-line="83" data-uid="lnk21" id="link_user_UC_CreateActivity"><path d="M1431.08,185.6282 C1409.74,203.8982 1383.76,227.5382 1362.78,250.8582 C1318.4,300.1682 1277.8856,358.5043 1251.9156,398.0143" fill="none" id="user-to-UC_CreateActivity" style="stroke:#000000;stroke-width:1;"/><polygon fill="#000000" points="1248.62,403.0282,1256.906,397.7045,1251.3664,398.85,1250.2209,393.3103,1248.62,403.0282" style="stroke:#000000;stroke-width:1;"/></g><!--link user to UC_EditActivity--><g class="link" data-entity-1="user" data-entity-2="UC_EditActivity" data-source-line="84" data-uid="lnk22" id="link_user_UC_EditActivity"><path d="M1431.09,153.8882 C1359.2,158.4482 1207.94,176.8282 1108.78,250.8582 C1056.73,289.7182 1024.843,353.6192 1007.533,396.7892" fill="none" id="user-to-UC_EditActivity" style="stroke:#000000;stroke-width:1;"/><polygon fill="#000000" points="1005.3,402.3582,1012.3622,395.4934,1007.1608,397.7174,1004.9369,392.516,1005.3,402.3582" style="stroke:#000000;stroke-width:1;"/></g><!--link user to UC_CompleteActivity--><g class="link" data-entity-1="user" data-entity-2="UC_CompleteActivity" data-source-line="85" data-uid="lnk23" id="link_user_UC_CompleteActivity"><path d="M1431.16,154.0682 C1243.64,162.0882 466.76,198.2582 372.78,250.8582 C311.05,285.4082 271.0639,354.0183 249.8739,398.6383" fill="none" id="user-to-UC_CompleteActivity" style="stroke:#000000;stroke-width:1;"/><polygon fill="#000000" points="247.3,404.0582,254.7741,397.6443,249.4449,399.5416,247.5476,394.2125,247.3,404.0582" style="stroke:#000000;stroke-width:1;"/></g><!--link user to UC_CancelActivity--><g class="link" data-entity-1="user" data-entity-2="UC_CancelActivity" data-source-line="86" data-uid="lnk24" id="link_user_UC_CancelActivity"><path d="M1431.02,152.8482 C1282.58,155.1482 772.42,168.9782 635.78,250.8582 C576.79,286.1982 540.0089,353.743 520.5589,398.113" fill="none" id="user-to-UC_CancelActivity" style="stroke:#000000;stroke-width:1;"/><polygon fill="#000000" points="518.15,403.6082,525.4268,396.9713,520.1574,399.0289,518.0998,393.7595,518.15,403.6082" style="stroke:#000000;stroke-width:1;"/></g><!--link user to UC_ListActivities--><g class="link" data-entity-1="user" data-entity-2="UC_ListActivities" data-source-line="87" data-uid="lnk25" id="link_user_UC_ListActivities"><path d="M1431.07,154.8082 C1312.01,162.5182 967.07,189.7382 874.78,250.8582 C818.61,288.0482 785.704,355.9182 768.884,399.6482" fill="none" id="user-to-UC_ListActivities" style="stroke:#000000;stroke-width:1;"/><polygon fill="#000000" points="766.73,405.2482,773.6943,398.2841,768.525,400.5815,766.2276,395.4122,766.73,405.2482" style="stroke:#000000;stroke-width:1;"/></g><!--link database to UC_CreateActivity--><g class="link" data-entity-1="database" data-entity-2="UC_CreateActivity" data-source-line="88" data-uid="lnk26" id="link_database_UC_CreateActivity"><path d="M2196.92,180.9982 C2137,202.6482 2049.81,230.6682 1970.78,242.8582 C1954.09,245.4282 1377.78,243.0982 1362.78,250.8582 C1300.96,282.8282 1262.6036,351.1584 1242.3136,396.6584" fill="none" id="database-to-UC_CreateActivity" style="stroke:#000000;stroke-width:1;"/><polygon fill="#000000" points="1239.87,402.1382,1247.1887,395.5475,1241.9064,397.5717,1239.8822,392.2894,1239.87,402.1382" style="stroke:#000000;stroke-width:1;"/></g><!--link database to UC_EditActivity--><g class="link" data-entity-1="database" data-entity-2="UC_EditActivity" data-source-line="89" data-uid="lnk27" id="link_database_UC_EditActivity"><path d="M2196.72,158.2282 C1942.51,178.2982 1120.44,243.6882 1108.78,250.8582 C1052.78,285.2782 1021.5828,351.8995 1005.5828,396.5795" fill="none" id="database-to-UC_EditActivity" style="stroke:#000000;stroke-width:1;"/><polygon fill="#000000" points="1003.56,402.2282,1010.3601,395.1037,1005.2457,397.5209,1002.8284,392.4066,1003.56,402.2282" style="stroke:#000000;stroke-width:1;"/></g><!--link user to UC_CreateHabit--><g class="link" data-entity-1="user" data-entity-2="UC_CreateHabit" data-source-line="91" data-uid="lnk28" id="link_user_UC_CreateHabit"><path d="M1471.78,197.0682 C1471.78,253.6282 1471.78,344.0382 1471.78,396.9282" fill="none" id="user-to-UC_CreateHabit" style="stroke:#000000;stroke-width:1;"/><polygon fill="#000000" points="1471.78,402.9282,1475.78,393.9282,1471.78,397.9282,1467.78,393.9282,1471.78,402.9282" style="stroke:#000000;stroke-width:1;"/></g><!--link user to UC_EditHabit--><g class="link" data-entity-1="user" data-entity-2="UC_EditHabit" data-source-line="92" data-uid="lnk29" id="link_user_UC_EditHabit"><path d="M1512.38,183.1582 C1534.75,201.3382 1562.1,225.6682 1582.78,250.8582 C1622.46,299.1782 1654.2151,357.9826 1673.8051,397.8726" fill="none" id="user-to-UC_EditHabit" style="stroke:#000000;stroke-width:1;"/><polygon fill="#000000" points="1676.45,403.2582,1676.0731,393.4166,1674.2459,398.7702,1668.8923,396.9431,1676.45,403.2582" style="stroke:#000000;stroke-width:1;"/></g><!--link user to UC_DeleteHabit--><g class="link" data-entity-1="user" data-entity-2="UC_DeleteHabit" data-source-line="93" data-uid="lnk30" id="link_user_UC_DeleteHabit"><path d="M1512.33,155.1282 C1579.54,161.5282 1715.45,182.5782 1804.78,250.8582 C1856.24,290.1882 1888.1883,353.6208 1905.6883,396.6208" fill="none" id="user-to-UC_DeleteHabit" style="stroke:#000000;stroke-width:1;"/><polygon fill="#000000" points="1907.95,402.1782,1908.2623,392.3343,1906.0652,397.547,1900.8525,395.3499,1907.95,402.1782" style="stroke:#000000;stroke-width:1;"/></g><!--link user to UC_CompleteHabit--><g class="link" data-entity-1="user" data-entity-2="UC_CompleteHabit" data-source-line="94" data-uid="lnk31" id="link_user_UC_CompleteHabit"><path d="M1512.19,155.0082 C1627.08,163.1182 1952.8,190.9682 2038.78,250.8582 C2085.6,283.4682 2113.1895,337.3192 2129.7695,380.9692" fill="none" id="user-to-UC_CompleteHabit" style="stroke:#000000;stroke-width:1;"/><polygon fill="#000000" points="2131.9,386.5782,2132.4436,376.7444,2130.1246,381.904,2124.9649,379.5851,2131.9,386.5782" style="stroke:#000000;stroke-width:1;"/></g><!--link user to UC_ViewHabitStats--><g class="link" data-entity-1="user" data-entity-2="UC_ViewHabitStats" data-source-line="95" data-uid="lnk32" id="link_user_UC_ViewHabitStats"><path d="M1512.44,152.6582 C1655.81,154.2982 2135.71,166.1482 2258.78,250.8582 C2307.61,284.4682 2332.999,343.6894 2346.549,388.0994" fill="none" id="user-to-UC_ViewHabitStats" style="stroke:#000000;stroke-width:1;"/><polygon fill="#000000" points="2348.3,393.8382,2349.4994,384.0627,2346.8408,389.0559,2341.8476,386.3973,2348.3,393.8382" style="stroke:#000000;stroke-width:1;"/></g><!--link user to UC_CreateTimeBlock--><g class="link" data-entity-1="user" data-entity-2="UC_CreateTimeBlock" data-source-line="97" data-uid="lnk33" id="link_user_UC_CreateTimeBlock"><path d="M1431.05,152.0882 C1212.62,150.8482 186.27,150.4582 92.78,250.8582 C11,338.6882 11.89,432.2282 92.78,520.8782 C206.15,645.1182 1396.311,676.01 1763.321,682.63" fill="none" id="user-to-UC_CreateTimeBlock" style="stroke:#000000;stroke-width:1;"/><polygon fill="#000000" points="1769.32,682.7382,1760.3936,678.5765,1764.3208,682.648,1760.2493,686.5752,1769.32,682.7382" style="stroke:#000000;stroke-width:1;"/></g><!--link user to UC_EditTimeBlock--><g class="link" data-entity-1="user" data-entity-2="UC_EditTimeBlock" data-source-line="98" data-uid="lnk34" id="link_user_UC_EditTimeBlock"><path d="M1512.59,155.8682 C1704.16,172.2382 2505.35,241.2282 2513.78,250.8582 C2592.88,341.1082 2562.21,411.0682 2513.78,520.8782 C2488.65,577.8682 2437.7437,620.2722 2395.0437,648.7122" fill="none" id="user-to-UC_EditTimeBlock" style="stroke:#000000;stroke-width:1;"/><polygon fill="#000000" points="2390.05,652.0382,2399.758,650.3783,2394.2115,649.2665,2395.3232,643.72,2390.05,652.0382" style="stroke:#000000;stroke-width:1;"/></g><!--link user to UC_ViewCalendar--><g class="link" data-entity-1="user" data-entity-2="UC_ViewCalendar" data-source-line="99" data-uid="lnk35" id="link_user_UC_ViewCalendar"><path d="M1512.5,155.7082 C1696.57,170.7982 2442.57,232.9482 2458.78,250.8582 C2539.32,339.8282 2535.32,428.4482 2458.78,520.8782 C2402.52,588.8182 2350.78,543.2982 2263.78,557.8782 C2239.42,561.9582 2230.49,554.0882 2208.78,565.8782 C2172.82,585.3982 2146.7081,617.5192 2128.4481,645.0292" fill="none" id="user-to-UC_ViewCalendar" style="stroke:#000000;stroke-width:1;"/><polygon fill="#000000" points="2125.13,650.0282,2133.4399,644.7418,2127.8951,645.8624,2126.7745,640.3176,2125.13,650.0282" style="stroke:#000000;stroke-width:1;"/></g><!--link database to UC_CreateTimeBlock--><g class="link" data-entity-1="database" data-entity-2="UC_CreateTimeBlock" data-source-line="100" data-uid="lnk36" id="link_database_UC_CreateTimeBlock"><path d="M2344.56,170.6882 C2385.89,185.1282 2433.98,209.8782 2458.78,250.8582 C2520.91,353.5282 2539.39,431.9782 2458.78,520.8782 C2389.94,596.7982 2092.93,523.1382 1999.78,565.8782 C1960.14,584.0682 1929.0586,615.5838 1906.4686,643.2038" fill="none" id="database-to-UC_CreateTimeBlock" style="stroke:#000000;stroke-width:1;"/><polygon fill="#000000" points="1902.67,647.8482,1911.4642,643.414,1905.8355,643.9779,1905.2716,638.3492,1902.67,647.8482" style="stroke:#000000;stroke-width:1;"/></g><!--link database to UC_EditTimeBlock--><g class="link" data-entity-1="database" data-entity-2="UC_EditTimeBlock" data-source-line="101" data-uid="lnk37" id="link_database_UC_EditTimeBlock"><path d="M2344.6,158.4382 C2447.15,168.5382 2624.61,192.7682 2663.78,241.8582 C2751.38,351.6382 2743.31,442.1082 2663.78,557.8782 C2613.71,630.7582 2521.2634,660.6422 2445.0734,673.7322" fill="none" id="database-to-UC_EditTimeBlock" style="stroke:#000000;stroke-width:1;"/><polygon fill="#000000" points="2439.16,674.7482,2448.7073,677.1665,2444.0878,673.9016,2447.3527,669.282,2439.16,674.7482" style="stroke:#000000;stroke-width:1;"/></g><!--link UC_CreateHabit to UC_CreateTimeBlock--><g class="link" data-entity-1="UC_CreateHabit" data-entity-2="UC_CreateTimeBlock" data-source-line="104" data-uid="lnk38" id="link_UC_CreateHabit_UC_CreateTimeBlock"><path d="M1516.13,475.3682 C1536.16,489.8482 1560.31,506.7182 1582.78,520.8782 C1661.39,570.4082 1750.472,618.8709 1810.472,650.4909" fill="none" id="UC_CreateHabit-to-UC_CreateTimeBlock" style="stroke:#000000;stroke-width:1;stroke-dasharray:7,7;"/><polygon fill="#000000" points="1815.78,653.2882,1809.6829,645.5535,1811.3567,650.9571,1805.9531,652.6309,1815.78,653.2882" style="stroke:#000000;stroke-width:1;"/><text fill="#000000" font-family="Verdana" font-size="20" lengthAdjust="spacing" textLength="88.5799" x="1638.59" y="551.2582">&#171;include&#187;</text></g><!--link UC_CreateActivity to UC_CreateTimeBlock--><g class="link" data-entity-1="UC_CreateActivity" data-entity-2="UC_CreateTimeBlock" data-source-line="105" data-uid="lnk39" id="link_UC_CreateActivity_UC_CreateTimeBlock"><path d="M1276.2,475.0282 C1301.61,490.2782 1333.11,507.8782 1362.78,520.8782 C1507.91,584.4482 1679.9472,633.9726 1783.5572,661.2126" fill="none" id="UC_CreateActivity-to-UC_CreateTimeBlock" style="stroke:#000000;stroke-width:1;stroke-dasharray:7,7;"/><polygon fill="#000000" points="1789.36,662.7382,1781.6729,656.5813,1784.5243,661.4669,1779.6387,664.3183,1789.36,662.7382" style="stroke:#000000;stroke-width:1;"/><text fill="#000000" font-family="Verdana" font-size="20" lengthAdjust="spacing" textLength="88.5799" x="1445.28" y="551.2582">&#171;include&#187;</text></g><!--SRC=[dLRRJjj047ttLopfGrkf8CSX920QoR4TY4GA8e67AbAriPTaXRqRUJS5Ml4n_O0-yGdviSxwGcp7pgNxWD2ScJEpPtOcFf0p4X0qzp5bclOHMPmzqEaYn2vTlZ5qVJFg3_hVJTj4X-YM-8dP8mYBEN4bHyPP0ttoQ42Oe9mHWHwMVmLriJX3zRQkFnijNPy_VzOEFF906K7sJHyTwxecNEmJ5E3do0qzKK_ECaOLXcQ4JcTIqyGZPNCSuW1DiFiu3Vc2UHRtUOW-zAAJyO0qUE7B7cToI7yHPEWPS248L4RUmVff1iHmdN0LPsIWEQJ5Kv8bBGQYtng2qoqMw3HwHi-ECHvw94pizTFMYMr4TaMRM7Nxk6NMjLTjFNbvWlFp0MQ0WlwoqudqQ3XwCTsQLxDbwNe-UT77EMdMmMUVKYmUaYYqtMiwxVKYKhpHRZiDgvW-HUlTfcCK4YUDsrK3H-yQMpNejlzBWosbfBUmsiw9TLgjWU6qx8QnNGD99Oo4JV4KacCrUHOMNAX_xWI7gRmWGgP3wJ19FUmHCMQ3vPktyBcoPZrCLzAViSyNTBdyCw4Io5xG22OOTNtkFWgr1hxkVi3Rj4RNjyvmpxXuR6ftOe53ockmKPIsOMhlAf6XOXj3XMDsnM4tH4uUbdW2uFvr3ll3aJCmzumBOSzXDeKkr4OacFEXce3XYv0ag2Ml8FgJ3aUjGkyQAZmlk0kEO4bXRyPCwgGlh6Q518ShYZA2E-k7yf8azf8lwooEH-KEDCgjciJYmTmdk_0adXiAiZ1puQTa1wh8iPheYefSHR76oGp55Ch5V1SvedZTqh9qAigAcc60DlGgYTtOgKl5KTccpGpAgIhUfm5bMnbieffJmJ70eRjY6BEqwnxVqkmAldiI8WTwvC4tWLGV1MDM43ZNh7jAdYAceSHojsPbzbQUJW8mYUpLtLe5RsoOSekyAfksbKZvRQ1HEbdmwSEyU1MMw9B2YIgl-s-_M-VAjFhNt_PUr6eheyF3JicooKAv1PABAMw479YVyInKcDrqxrUKKeHpvPJS8NwonGkiMxC3KtQhTQJmZ4johvv2CNyvadi0vJgi0ik4MA7G-pvp_GKiIosl1JewAkD3P_0SQHpIwMXhmkyMzWy0]--></g></svg>