<svg xmlns="http://www.w3.org/2000/svg" xmlns:xlink="http://www.w3.org/1999/xlink" contentStyleType="text/css" data-diagram-type="DESCRIPTION" height="474px" preserveAspectRatio="none" style="width:1306px;height:474px;background:#FFFFFF;" version="1.1" viewBox="0 0 1306 474" width="1306px" zoomAndPan="magnify"><title>Diagrama de Casos de Uso - Autenticaci&#243;n
M&#243;dulo de Autenticaci&#243;n y Gesti&#243;n de Usuarios</title><defs/><g><g class="title" data-source-line="32"><text fill="#000000" font-family="Verdana" font-size="22" font-weight="bold" lengthAdjust="spacing" textLength="460.5496" x="418.2951" y="38.5181">Diagrama de Casos de Uso - Autenticaci&#243;n</text><text fill="#000000" font-family="Verdana" font-size="22" font-weight="bold" lengthAdjust="spacing" textLength="517.7498" x="389.695" y="68.4822">M&#243;dulo de Autenticaci&#243;n y Gesti&#243;n de Usuarios</text></g><!--cluster TempoSage System--><g class="cluster" data-entity="TempoSage System" data-source-line="43" data-uid="ent0004" id="cluster_TempoSage System"><rect fill="#FFFFFF" height="241.11" rx="2.5" ry="2.5" style="stroke:#000000;stroke-width:1;" width="683" x="12" y="227.8582"/><text fill="#000000" font-family="Verdana" font-size="20" font-weight="bold" lengthAdjust="spacing" textLength="193.4998" x="256.7501" y="251.2382">TempoSage System</text></g><!--cluster auth--><g class="cluster" data-entity="auth" data-source-line="45" data-uid="ent0005" id="cluster_auth"><path d="M38.5,281.8582 L178.7199,281.8582 A3.75,3.75 0 0 1 181.2199,284.3582 L188.2199,315.0982 L668.5,315.0982 A2.5,2.5 0 0 1 671,317.5982 L671,442.4682 A2.5,2.5 0 0 1 668.5,444.9682 L38.5,444.9682 A2.5,2.5 0 0 1 36,442.4682 L36,284.3582 A2.5,2.5 0 0 1 38.5,281.8582" fill="#FFEBEE" style="stroke:#C62828;stroke-width:1;"/><line style="stroke:#C62828;stroke-width:1;" x1="36" x2="188.2199" y1="315.0982" y2="315.0982"/><text fill="#B71C1C" font-family="Verdana" font-size="20" font-weight="bold" lengthAdjust="spacing" textLength="139.2199" x="40" y="305.2382">Autenticaci&#243;n</text><text fill="#B71C1C" font-family="Verdana" font-size="20" font-style="italic" lengthAdjust="spacing" textLength="81.28" x="316.86" y="338.4782">&#171;System&#187;</text></g><!--entity UC_RegisterUser--><g class="entity" data-entity="UC_RegisterUser" data-source-line="46" data-uid="ent0006" id="entity_UC_RegisterUser"><ellipse cx="552.005" cy="391.9208" fill="#FFCDD2" rx="103.445" ry="36.3226" style="stroke:#D32F2F;stroke-width:1;"/><text fill="#B71C1C" font-family="Verdana" font-size="19" font-style="italic" lengthAdjust="spacing" textLength="77.2162" x="513.3968" y="383.5362">&#171;System&#187;</text><text fill="#B71C1C" font-family="Verdana" font-size="19" lengthAdjust="spacing" textLength="156.0094" x="474.0002" y="409.4142">Registrar Usuario</text></g><!--entity UC_Login--><g class="entity" data-entity="UC_Login" data-source-line="47" data-uid="ent0007" id="entity_UC_Login"><ellipse cx="331.9981" cy="391.9217" fill="#FFCDD2" rx="81.2581" ry="37.0535" style="stroke:#D32F2F;stroke-width:1;"/><text fill="#B71C1C" font-family="Verdana" font-size="19" font-style="italic" lengthAdjust="spacing" textLength="77.2162" x="293.39" y="384.6789">&#171;System&#187;</text><text fill="#B71C1C" font-family="Verdana" font-size="19" lengthAdjust="spacing" textLength="118.9403" x="272.5279" y="410.5569">Iniciar Sesi&#243;n</text></g><!--entity UC_Logout--><g class="entity" data-entity="UC_Logout" data-source-line="48" data-uid="ent0008" id="entity_UC_Logout"><ellipse cx="134.0014" cy="391.9133" fill="#FFCDD2" rx="82.0314" ry="37.0151" style="stroke:#D32F2F;stroke-width:1;"/><text fill="#B71C1C" font-family="Verdana" font-size="19" font-style="italic" lengthAdjust="spacing" textLength="77.2162" x="95.3933" y="384.6113">&#171;System&#187;</text><text fill="#B71C1C" font-family="Verdana" font-size="19" lengthAdjust="spacing" textLength="120.2513" x="73.8758" y="410.4894">Cerrar Sesi&#243;n</text></g><!--entity user--><g class="entity" data-entity="user" data-source-line="37" data-uid="ent0002" id="entity_user"><ellipse cx="331.9951" cy="114.9182" fill="#E3F2FD" rx="8" ry="8" style="stroke:#1976D2;stroke-width:1;"/><path d="M331.9951,122.9182 L331.9951,149.9182 M318.9951,130.9182 L344.9951,130.9182 M331.9951,149.9182 L318.9951,164.9182 M331.9951,149.9182 L344.9951,164.9182" fill="none" style="stroke:#1976D2;stroke-width:1;"/><text fill="#0D47A1" font-family="Verdana" font-size="22" lengthAdjust="spacing" textLength="80.6303" x="291.68" y="190.4363">Usuario</text></g><!--entity database--><g class="entity" data-entity="database" data-source-line="38" data-uid="ent0003" id="entity_database"><ellipse cx="515.9992" cy="99.9282" fill="#E3F2FD" rx="8" ry="8" style="stroke:#1976D2;stroke-width:1;"/><path d="M515.9992,107.9282 L515.9992,134.9282 M502.9992,115.9282 L528.9992,115.9282 M515.9992,134.9282 L502.9992,149.9282 M515.9992,134.9282 L528.9992,149.9282" fill="none" style="stroke:#1976D2;stroke-width:1;"/><text fill="#0D47A1" font-family="Verdana" font-size="22" lengthAdjust="spacing" textLength="147.1585" x="442.42" y="175.4463">Base de Datos</text><text fill="#0D47A1" font-family="Verdana" font-size="22" lengthAdjust="spacing" textLength="53.4162" x="442.42" y="205.4104">Local</text></g><g class="entity" data-entity="GMN14" data-source-line="63" data-uid="ent0015" id="entity_GMN14"><path d="M710.51,359.6782 L710.51,387.9182 L655.81,391.9182 L710.51,395.9182 L710.51,424.1582 A0,0 0 0 0 710.51,424.1582 L997.4897,424.1582 A0,0 0 0 0 997.4897,424.1582 L997.4897,369.6782 L987.4897,359.6782 L710.51,359.6782 A0,0 0 0 0 710.51,359.6782" fill="#FFFFFF" style="stroke:#000000;stroke-width:1;"/><path d="M987.4897,359.6782 L987.4897,369.6782 L997.4897,369.6782 L987.4897,359.6782" fill="#FFFFFF" style="stroke:#000000;stroke-width:1;"/><text fill="#000000" font-family="Verdana" font-size="20" lengthAdjust="spacing" textLength="265.9797" x="716.51" y="386.0582">Registro de nuevos usuarios</text><text fill="#000000" font-family="Verdana" font-size="20" lengthAdjust="spacing" textLength="220.0997" x="716.51" y="413.2982">con validaci&#243;n de datos</text></g><g class="entity" data-entity="GMN17" data-source-line="68" data-uid="ent0018" id="entity_GMN17"><path d="M1032.86,359.6782 L1032.86,424.1582 L1299.1397,424.1582 L1299.1397,369.6782 L1289.1397,359.6782 L1032.86,359.6782" fill="#FFFFFF" style="stroke:#000000;stroke-width:1;"/><path d="M1289.1397,359.6782 L1289.1397,369.6782 L1299.1397,369.6782 L1289.1397,359.6782" fill="#FFFFFF" style="stroke:#000000;stroke-width:1;"/><text fill="#000000" font-family="Verdana" font-size="20" lengthAdjust="spacing" textLength="216.2798" x="1038.86" y="386.0582">Inicio de sesi&#243;n seguro</text><text fill="#000000" font-family="Verdana" font-size="20" lengthAdjust="spacing" textLength="245.2797" x="1038.86" y="413.2982">con almacenamiento local</text></g><!--link user to UC_RegisterUser--><g class="link" data-entity-1="user" data-entity-2="UC_RegisterUser" data-source-line="55" data-uid="lnk9" id="link_user_UC_RegisterUser"><path d="M372.51,175.3782 C391.47,187.2482 413.64,202.8082 431,219.8582 C473.29,261.4182 507.7273,314.2328 529.3873,350.8828" fill="none" id="user-to-UC_RegisterUser" style="stroke:#000000;stroke-width:1;"/><polygon fill="#000000" points="532.44,356.0482,531.3045,346.265,529.8961,351.7437,524.4174,350.3353,532.44,356.0482" style="stroke:#000000;stroke-width:1;"/></g><!--link user to UC_Login--><g class="link" data-entity-1="user" data-entity-2="UC_Login" data-source-line="56" data-uid="lnk10" id="link_user_UC_Login"><path d="M332,197.2582 C332,242.7382 332,306.2482 332,348.4482" fill="none" id="user-to-UC_Login" style="stroke:#000000;stroke-width:1;"/><polygon fill="#000000" points="332,354.4482,336,345.4482,332,349.4482,328,345.4482,332,354.4482" style="stroke:#000000;stroke-width:1;"/></g><!--link user to UC_Logout--><g class="link" data-entity-1="user" data-entity-2="UC_Logout" data-source-line="57" data-uid="lnk11" id="link_user_UC_Logout"><path d="M291.27,174.3982 C272.04,186.1382 249.7,201.8782 233,219.8582 C195.17,260.5882 168.0369,312.7988 151.4069,349.6688" fill="none" id="user-to-UC_Logout" style="stroke:#000000;stroke-width:1;"/><polygon fill="#000000" points="148.94,355.1382,156.2867,348.5787,150.9958,350.5804,148.9941,345.2895,148.94,355.1382" style="stroke:#000000;stroke-width:1;"/></g><!--link database to UC_RegisterUser--><g class="link" data-entity-1="database" data-entity-2="UC_RegisterUser" data-source-line="59" data-uid="lnk12" id="link_database_UC_RegisterUser"><path d="M525.04,212.2782 C531.85,257.3982 540.0653,311.8153 545.7553,349.5453" fill="none" id="database-to-UC_RegisterUser" style="stroke:#000000;stroke-width:1;"/><polygon fill="#000000" points="546.65,355.4782,549.2632,345.9823,545.9044,350.5341,541.3526,347.1753,546.65,355.4782" style="stroke:#000000;stroke-width:1;"/></g><!--link database to UC_Login--><g class="link" data-entity-1="database" data-entity-2="UC_Login" data-source-line="60" data-uid="lnk13" id="link_database_UC_Login"><path d="M442.03,208.1182 C438.16,211.9382 434.45,215.8682 431,219.8582 C394.78,261.7982 367.415,313.4694 350.265,349.9094" fill="none" id="database-to-UC_Login" style="stroke:#000000;stroke-width:1;"/><polygon fill="#000000" points="347.71,355.3382,355.1617,348.8983,349.8392,350.8142,347.9233,345.4917,347.71,355.3382" style="stroke:#000000;stroke-width:1;"/></g><!--link UC_Login to GMN17--><g class="link" data-entity-1="UC_Login" data-entity-2="GMN17" data-source-line="68" data-uid="lnk19" id="link_UC_Login_GMN17"><path d="M343.3,354.9682 C357.37,315.3682 385.28,253.6682 431,219.8582 C437.42,215.1182 440.57,216.7582 448.5,215.8582 C478.81,212.4382 967.19,212.4382 997.5,215.8582 C1074.44,224.5382 1127.48,310.7782 1151.48,359.2482" fill="none" id="UC_Login-GMN17" style="stroke:#000000;stroke-width:1;stroke-dasharray:7,7;"/></g><!--SRC=[bLNDRfj04Bxp51DwQ7k8P4YKFwMHCE3AKj94nhvKaQe9ZF4gi6ljBgdJAe_KKnuXBzPTm0d-gHhl0LipyyqtE_CDxEaPbGJp0Xbtd8yG2ZvbUIKnPI_F7AvlniEhuVSW2c0VHbIqvem0rPnIBS0xy-1JnahYYWbE2gOlVnHBKPs1t-lr5lOnNtnszZAQCauGtGpXiDTpL8e5GOcBEWn-iapFreqpOlbCEuwwPtoE4akum_G-bwBYMIWA8U73e3wT24E3LQ47Wkk4_IAJgEEi59dAwDNfdNQSQAuZtt1-npKtj9XJD-aw47uxO4v_lS3uOE0FeiOdP4QojNkdnqUHNzjjsjRQYmwF0yzvSZR9jnESdoUFIbDvSM5x4VVZU9sg6n4U-IV-oIffrzy_za8lNALlU_OU-Z1gR_GF-kZ0Dyru3xrcsWWXOfYR4j3gBKGbbFqpKS9eCQWqSMrqLWlobb-zF6TL8Mp0gWiUuIiflPJjH5KecL1Mwr_UVqnq48wlHt6o8wxHXjlIkcPjR4FbqjwtdJLbHQY5kkMNmYn07PIXnZlZtBtEP9YCuwjWHvmqoumyDqrtnrJEHM8Lrqp6RKTVFvPYT5Uxx49dZgPyhFIiXTcpr90xefmfBL72QqTMWPFmHnD3ScBxj95Xo5dA33uXjOtOu2z5Rjvb6y2GfFmVJbIw1ZvP3UxQ-55y6OJ3wsyxQyGA0lRtBpOkttKqjrgps7gTfLIsfbXtDcaSBZI1j6zN4DCjJM_dLEyJh-X1MDcscmEG2WuFMB3ixNEGMG4xn3EmgRSGBATIpw_Egvf9c5_plH5jMYnAJ8bZoOow11Hs8TxI_WK0]--></g></svg>