<svg xmlns="http://www.w3.org/2000/svg" xmlns:xlink="http://www.w3.org/1999/xlink" contentStyleType="text/css" data-diagram-type="CLASS" height="1057px" preserveAspectRatio="none" style="width:1819px;height:1057px;background:#FFFFFF;" version="1.1" viewBox="0 0 1819 1057" width="1819px" zoomAndPan="magnify"><title>Diagrama de Clases - Data Layer
M&#243;dulo: Capa de Datos e Implementaciones</title><defs/><g><g class="title" data-source-line="47"><text fill="#000000" font-family="Verdana" font-size="22" font-weight="bold" lengthAdjust="spacing" textLength="352.1772" x="728.9114" y="38.5181">Diagrama de Clases - Data Layer</text><text fill="#000000" font-family="Verdana" font-size="22" font-weight="bold" lengthAdjust="spacing" textLength="481.3396" x="664.3302" y="68.4822">M&#243;dulo: Capa de Datos e Implementaciones</text></g><!--cluster domain--><g class="cluster" data-entity="domain" data-source-line="52" data-uid="ent0002" id="cluster_domain"><path d="M727.5,812.5682 L1002.4597,812.5682 A3.75,3.75 0 0 1 1004.9597,815.0682 L1011.9597,845.8082 L1809.5,845.8082 A2.5,2.5 0 0 1 1812,848.3082 L1812,1047.8882 A2.5,2.5 0 0 1 1809.5,1050.3882 L727.5,1050.3882 A2.5,2.5 0 0 1 725,1047.8882 L725,815.0682 A2.5,2.5 0 0 1 727.5,812.5682" fill="#E8F5E8" style="stroke:#495057;stroke-width:1;"/><line style="stroke:#495057;stroke-width:1;" x1="725" x2="1011.9597" y1="845.8082" y2="845.8082"/><text fill="#212529" font-family="Verdana" font-size="20" font-weight="bold" lengthAdjust="spacing" textLength="273.9597" x="729" y="835.9482">Domain Layer (Referencias)</text></g><!--cluster data--><g class="cluster" data-entity="data" data-source-line="85" data-uid="ent0007" id="cluster_data"><path d="M13.5,94.2882 L122.4399,94.2882 A3.75,3.75 0 0 1 124.9399,96.7882 L131.9399,127.5282 L1216.5,127.5282 A2.5,2.5 0 0 1 1219,130.0282 L1219,786.0682 A2.5,2.5 0 0 1 1216.5,788.5682 L13.5,788.5682 A2.5,2.5 0 0 1 11,786.0682 L11,96.7882 A2.5,2.5 0 0 1 13.5,94.2882" fill="#FFF3E0" style="stroke:#495057;stroke-width:1;"/><line style="stroke:#495057;stroke-width:1;" x1="11" x2="131.9399" y1="127.5282" y2="127.5282"/><text fill="#212529" font-family="Verdana" font-size="20" font-weight="bold" lengthAdjust="spacing" textLength="107.9399" x="15" y="117.6682">Data Layer</text></g><!--cluster core--><g class="cluster" data-entity="core" data-source-line="143" data-uid="ent0013" id="cluster_core"><path d="M1245.5,513.9782 L1479.0398,513.9782 A3.75,3.75 0 0 1 1481.5398,516.4782 L1488.5398,547.2182 L1546.5,547.2182 A2.5,2.5 0 0 1 1549,549.7182 L1549,700.2682 A2.5,2.5 0 0 1 1546.5,702.7682 L1245.5,702.7682 A2.5,2.5 0 0 1 1243,700.2682 L1243,516.4782 A2.5,2.5 0 0 1 1245.5,513.9782" fill="#E3F2FD" style="stroke:#495057;stroke-width:1;"/><line style="stroke:#495057;stroke-width:1;" x1="1243" x2="1488.5398" y1="547.2182" y2="547.2182"/><text fill="#212529" font-family="Verdana" font-size="20" font-weight="bold" lengthAdjust="spacing" textLength="232.5398" x="1247" y="537.3582">Core Layer (Referencia)</text></g><!--class HabitRepository--><g class="entity" data-entity="HabitRepository" data-source-line="53" data-uid="ent0003" id="entity_HabitRepository"><rect fill="#E8F5E8" height="175.8192" rx="2.5" ry="2.5" style="stroke:#388E3C;stroke-width:1;" width="355.7379" x="1247.13" y="858.5682"/><ellipse cx="1357.5204" cy="889.4461" fill="#FFFFFF" rx="9" ry="9" style="stroke:#000000;stroke-width:1;"/><path d="M1351.7235,895.4461 L1355.661,881.1024 L1359.3641,881.1024 L1363.3172,895.4461 L1360.4266,895.4461 L1359.5672,891.8992 L1355.4266,891.8992 L1354.536,895.4461 L1351.7235,895.4461 Z M1356.8954,885.993 L1356.0204,889.5086 L1358.9735,889.5086 L1358.1454,885.993 Q1357.9735,885.3055 1357.8172,884.6492 Q1357.6766,883.993 1357.5204,883.3055 Q1357.3797,883.993 1357.2235,884.6492 Q1357.0672,885.3055 1356.8954,885.993 Z " fill="#000000"/><text fill="#000000" font-family="Verdana" font-size="20" font-style="italic" lengthAdjust="spacing" textLength="89.2799" x="1394.109" y="884.9482">&#171;Domain&#187;</text><text fill="#1B5E20" font-family="Verdana" font-size="18" font-style="italic" lengthAdjust="spacing" textLength="127.4572" x="1375.0204" y="910.0501">HabitRepository</text><line style="stroke:#388E3C;stroke-width:1;" x1="1248.13" x2="1601.8679" y1="920.324" y2="920.324"/><line style="stroke:#388E3C;stroke-width:1;" x1="1248.13" x2="1601.8679" y1="928.324" y2="928.324"/><ellipse cx="1258.13" cy="946.0819" fill="#FFFFFF" rx="3" ry="3" style="stroke:#000000;stroke-width:1;"/><text fill="#000000" font-family="Verdana" font-size="18" lengthAdjust="spacing" textLength="294.7841" x="1265.13" y="951.5659">getAllHabits(): Future&lt;List&lt;Habit&gt;&gt;</text><ellipse cx="1258.13" cy="970.5978" fill="#FFFFFF" rx="3" ry="3" style="stroke:#000000;stroke-width:1;"/><text fill="#000000" font-family="Verdana" font-size="18" lengthAdjust="spacing" textLength="303.9641" x="1265.13" y="976.0817">addHabit(Habit habit): Future&lt;void&gt;</text><ellipse cx="1258.13" cy="995.1136" fill="#FFFFFF" rx="3" ry="3" style="stroke:#000000;stroke-width:1;"/><text fill="#000000" font-family="Verdana" font-size="18" lengthAdjust="spacing" textLength="331.7379" x="1265.13" y="1000.5976">updateHabit(Habit habit): Future&lt;void&gt;</text><ellipse cx="1258.13" cy="1019.6295" fill="#FFFFFF" rx="3" ry="3" style="stroke:#000000;stroke-width:1;"/><text fill="#000000" font-family="Verdana" font-size="18" lengthAdjust="spacing" textLength="301.6781" x="1265.13" y="1025.1134">deleteHabit(String id): Future&lt;void&gt;</text></g><!--class Habit--><g class="entity" data-entity="Habit" data-source-line="60" data-uid="ent0004" id="entity_Habit"><rect fill="#E8F5E8" height="175.8192" rx="2.5" ry="2.5" style="stroke:#388E3C;stroke-width:1;" width="239.8186" x="741.09" y="858.5682"/><ellipse cx="814.6094" cy="889.4461" fill="#FFFFFF" rx="9" ry="9" style="stroke:#000000;stroke-width:1;"/><path d="M814.125,896.6492 Q812.0625,896.6492 810.7344,895.7742 Q809.4062,894.8992 808.75,893.3211 Q808.1094,891.7274 808.1094,889.6024 Q808.1094,887.2274 808.875,885.5242 Q809.6562,883.8055 811.1562,882.8836 Q812.6719,881.9617 814.875,881.9617 Q815.9062,881.9617 816.6875,882.1805 Q817.4844,882.3836 818.3125,882.7899 L817.3437,885.1649 Q816.6094,884.7899 815.9687,884.6492 Q815.3437,884.5086 814.7656,884.5086 Q813.3906,884.5086 812.5625,885.1336 Q811.75,885.743 811.3906,886.868 Q811.0469,887.993 811.0469,889.493 Q811.0469,891.8524 811.8906,892.9774 Q812.7344,894.1024 814.6094,894.1024 Q815.3125,894.1024 816.0312,893.9305 Q816.7656,893.743 817.75,893.3055 L817.75,895.8992 Q816.8906,896.2899 815.9531,896.4617 Q815.0312,896.6492 814.125,896.6492 Z " fill="#000000"/><text fill="#000000" font-family="Verdana" font-size="20" font-style="italic" lengthAdjust="spacing" textLength="89.2799" x="830.1094" y="884.9482">&#171;Domain&#187;</text><text fill="#1B5E20" font-family="Verdana" font-size="18" lengthAdjust="spacing" textLength="45.6477" x="851.9255" y="910.0501">Habit</text><line style="stroke:#388E3C;stroke-width:1;" x1="742.09" x2="979.9086" y1="920.324" y2="920.324"/><ellipse cx="752.09" cy="938.0819" fill="none" rx="3" ry="3" style="stroke:#000000;stroke-width:1;"/><text fill="#000000" font-family="Verdana" font-size="18" lengthAdjust="spacing" textLength="75.8695" x="759.09" y="943.5659">id: String</text><ellipse cx="752.09" cy="962.5978" fill="none" rx="3" ry="3" style="stroke:#000000;stroke-width:1;"/><text fill="#000000" font-family="Verdana" font-size="18" lengthAdjust="spacing" textLength="108.3593" x="759.09" y="968.0817">name: String</text><ellipse cx="752.09" cy="987.1136" fill="none" rx="3" ry="3" style="stroke:#000000;stroke-width:1;"/><text fill="#000000" font-family="Verdana" font-size="18" lengthAdjust="spacing" textLength="215.8186" x="759.09" y="992.5976">daysOfWeek: List&lt;String&gt;</text><ellipse cx="752.09" cy="1011.6295" fill="none" rx="3" ry="3" style="stroke:#000000;stroke-width:1;"/><text fill="#000000" font-family="Verdana" font-size="18" lengthAdjust="spacing" textLength="134.1172" x="759.09" y="1017.1134">category: String</text><line style="stroke:#388E3C;stroke-width:1;" x1="742.09" x2="979.9086" y1="1026.3874" y2="1026.3874"/></g><!--class Activity--><g class="entity" data-entity="Activity" data-source-line="67" data-uid="ent0005" id="entity_Activity"><rect fill="#E8F5E8" height="175.8192" rx="2.5" ry="2.5" style="stroke:#388E3C;stroke-width:1;" width="158.1172" x="1637.94" y="858.5682"/><ellipse cx="1671.1168" cy="889.4461" fill="#FFFFFF" rx="9" ry="9" style="stroke:#000000;stroke-width:1;"/><path d="M1670.6324,896.6492 Q1668.5699,896.6492 1667.2418,895.7742 Q1665.9137,894.8992 1665.2574,893.3211 Q1664.6168,891.7274 1664.6168,889.6024 Q1664.6168,887.2274 1665.3824,885.5242 Q1666.1637,883.8055 1667.6637,882.8836 Q1669.1793,881.9617 1671.3824,881.9617 Q1672.4137,881.9617 1673.1949,882.1805 Q1673.9918,882.3836 1674.8199,882.7899 L1673.8512,885.1649 Q1673.1168,884.7899 1672.4762,884.6492 Q1671.8512,884.5086 1671.273,884.5086 Q1669.898,884.5086 1669.0699,885.1336 Q1668.2574,885.743 1667.898,886.868 Q1667.5543,887.993 1667.5543,889.493 Q1667.5543,891.8524 1668.398,892.9774 Q1669.2418,894.1024 1671.1168,894.1024 Q1671.8199,894.1024 1672.5387,893.9305 Q1673.273,893.743 1674.2574,893.3055 L1674.2574,895.8992 Q1673.398,896.2899 1672.4605,896.4617 Q1671.5387,896.6492 1670.6324,896.6492 Z " fill="#000000"/><text fill="#000000" font-family="Verdana" font-size="20" font-style="italic" lengthAdjust="spacing" textLength="89.2799" x="1685.6005" y="884.9482">&#171;Domain&#187;</text><text fill="#1B5E20" font-family="Verdana" font-size="18" lengthAdjust="spacing" textLength="60.7496" x="1699.8657" y="910.0501">Activity</text><line style="stroke:#388E3C;stroke-width:1;" x1="1638.94" x2="1795.0572" y1="920.324" y2="920.324"/><ellipse cx="1648.94" cy="938.0819" fill="none" rx="3" ry="3" style="stroke:#000000;stroke-width:1;"/><text fill="#000000" font-family="Verdana" font-size="18" lengthAdjust="spacing" textLength="75.8695" x="1655.94" y="943.5659">id: String</text><ellipse cx="1648.94" cy="962.5978" fill="none" rx="3" ry="3" style="stroke:#000000;stroke-width:1;"/><text fill="#000000" font-family="Verdana" font-size="18" lengthAdjust="spacing" textLength="108.3593" x="1655.94" y="968.0817">name: String</text><ellipse cx="1648.94" cy="987.1136" fill="none" rx="3" ry="3" style="stroke:#000000;stroke-width:1;"/><text fill="#000000" font-family="Verdana" font-size="18" lengthAdjust="spacing" textLength="128.8432" x="1655.94" y="992.5976">date: DateTime</text><ellipse cx="1648.94" cy="1011.6295" fill="none" rx="3" ry="3" style="stroke:#000000;stroke-width:1;"/><text fill="#000000" font-family="Verdana" font-size="18" lengthAdjust="spacing" textLength="134.1172" x="1655.94" y="1017.1134">category: String</text><line style="stroke:#388E3C;stroke-width:1;" x1="1638.94" x2="1795.0572" y1="1026.3874" y2="1026.3874"/></g><!--class TimeBlock--><g class="entity" data-entity="TimeBlock" data-source-line="74" data-uid="ent0006" id="entity_TimeBlock"><rect fill="#E8F5E8" height="175.8192" rx="2.5" ry="2.5" style="stroke:#388E3C;stroke-width:1;" width="195.8089" x="1016.1" y="858.5682"/><ellipse cx="1066.6947" cy="889.4461" fill="#FFFFFF" rx="9" ry="9" style="stroke:#000000;stroke-width:1;"/><path d="M1066.2104,896.6492 Q1064.1479,896.6492 1062.8197,895.7742 Q1061.4916,894.8992 1060.8354,893.3211 Q1060.1947,891.7274 1060.1947,889.6024 Q1060.1947,887.2274 1060.9604,885.5242 Q1061.7416,883.8055 1063.2416,882.8836 Q1064.7572,881.9617 1066.9604,881.9617 Q1067.9916,881.9617 1068.7729,882.1805 Q1069.5697,882.3836 1070.3979,882.7899 L1069.4291,885.1649 Q1068.6947,884.7899 1068.0541,884.6492 Q1067.4291,884.5086 1066.851,884.5086 Q1065.476,884.5086 1064.6479,885.1336 Q1063.8354,885.743 1063.476,886.868 Q1063.1322,887.993 1063.1322,889.493 Q1063.1322,891.8524 1063.976,892.9774 Q1064.8197,894.1024 1066.6947,894.1024 Q1067.3979,894.1024 1068.1166,893.9305 Q1068.851,893.743 1069.8354,893.3055 L1069.8354,895.8992 Q1068.976,896.2899 1068.0385,896.4617 Q1067.1166,896.6492 1066.2104,896.6492 Z " fill="#000000"/><text fill="#000000" font-family="Verdana" font-size="20" font-style="italic" lengthAdjust="spacing" textLength="89.2799" x="1083.1145" y="884.9482">&#171;Domain&#187;</text><text fill="#1B5E20" font-family="Verdana" font-size="18" lengthAdjust="spacing" textLength="87.1194" x="1084.1947" y="910.0501">TimeBlock</text><line style="stroke:#388E3C;stroke-width:1;" x1="1017.1" x2="1210.9089" y1="920.324" y2="920.324"/><ellipse cx="1027.1" cy="938.0819" fill="none" rx="3" ry="3" style="stroke:#000000;stroke-width:1;"/><text fill="#000000" font-family="Verdana" font-size="18" lengthAdjust="spacing" textLength="75.8695" x="1034.1" y="943.5659">id: String</text><ellipse cx="1027.1" cy="962.5978" fill="none" rx="3" ry="3" style="stroke:#000000;stroke-width:1;"/><text fill="#000000" font-family="Verdana" font-size="18" lengthAdjust="spacing" textLength="92.5914" x="1034.1" y="968.0817">title: String</text><ellipse cx="1027.1" cy="987.1136" fill="none" rx="3" ry="3" style="stroke:#000000;stroke-width:1;"/><text fill="#000000" font-family="Verdana" font-size="18" lengthAdjust="spacing" textLength="171.8089" x="1034.1" y="992.5976">startTime: DateTime</text><ellipse cx="1027.1" cy="1011.6295" fill="none" rx="3" ry="3" style="stroke:#000000;stroke-width:1;"/><text fill="#000000" font-family="Verdana" font-size="18" lengthAdjust="spacing" textLength="165.0049" x="1034.1" y="1017.1134">endTime: DateTime</text><line style="stroke:#388E3C;stroke-width:1;" x1="1017.1" x2="1210.9089" y1="1026.3874" y2="1026.3874"/></g><!--class HabitModel--><g class="entity" data-entity="HabitModel" data-source-line="88" data-uid="ent0008" id="entity_HabitModel"><rect fill="#FFF3E0" height="298.3984" rx="2.5" ry="2.5" style="stroke:#F57C00;stroke-width:1;" width="287.0684" x="150.47" y="474.1682"/><ellipse cx="240.8895" cy="505.0461" fill="#FFFFFF" rx="9" ry="9" style="stroke:#000000;stroke-width:1;"/><path d="M240.4051,512.2492 Q238.3426,512.2492 237.0145,511.3742 Q235.6864,510.4992 235.0301,508.9211 Q234.3895,507.3274 234.3895,505.2024 Q234.3895,502.8274 235.1551,501.1242 Q235.9364,499.4055 237.4364,498.4836 Q238.952,497.5617 241.1551,497.5617 Q242.1864,497.5617 242.9676,497.7805 Q243.7645,497.9836 244.5926,498.3899 L243.6239,500.7649 Q242.8895,500.3899 242.2489,500.2492 Q241.6239,500.1086 241.0457,500.1086 Q239.6707,500.1086 238.8426,500.7336 Q238.0301,501.343 237.6707,502.468 Q237.327,503.593 237.327,505.093 Q237.327,507.4524 238.1707,508.5774 Q239.0145,509.7024 240.8895,509.7024 Q241.5926,509.7024 242.3114,509.5305 Q243.0457,509.343 244.0301,508.9055 L244.0301,511.4992 Q243.1707,511.8899 242.2332,512.0617 Q241.3114,512.2492 240.4051,512.2492 Z " fill="#000000"/><text fill="#000000" font-family="Verdana" font-size="20" font-style="italic" lengthAdjust="spacing" textLength="61.7799" x="276.8642" y="500.5482">&#171;Data&#187;</text><text fill="#E65100" font-family="Verdana" font-size="18" lengthAdjust="spacing" textLength="98.7294" x="258.3895" y="525.6501">HabitModel</text><line style="stroke:#F57C00;stroke-width:1;" x1="151.47" x2="436.5384" y1="535.924" y2="535.924"/><text fill="#000000" font-family="Verdana" font-size="18" lengthAdjust="spacing" textLength="96.0114" x="168.47" y="559.1659">&#171;HiveType&#187;</text><ellipse cx="161.47" cy="578.1978" fill="none" rx="3" ry="3" style="stroke:#000000;stroke-width:1;"/><text fill="#000000" font-family="Verdana" font-size="18" lengthAdjust="spacing" textLength="75.8695" x="168.47" y="583.6817">id: String</text><ellipse cx="161.47" cy="602.7136" fill="none" rx="3" ry="3" style="stroke:#000000;stroke-width:1;"/><text fill="#000000" font-family="Verdana" font-size="18" lengthAdjust="spacing" textLength="92.5914" x="168.47" y="608.1976">title: String</text><ellipse cx="161.47" cy="627.2295" fill="none" rx="3" ry="3" style="stroke:#000000;stroke-width:1;"/><text fill="#000000" font-family="Verdana" font-size="18" lengthAdjust="spacing" textLength="154.9431" x="168.47" y="632.7134">description: String</text><ellipse cx="161.47" cy="651.7453" fill="none" rx="3" ry="3" style="stroke:#000000;stroke-width:1;"/><text fill="#000000" font-family="Verdana" font-size="18" lengthAdjust="spacing" textLength="215.8186" x="168.47" y="657.2293">daysOfWeek: List&lt;String&gt;</text><ellipse cx="161.47" cy="676.2612" fill="none" rx="3" ry="3" style="stroke:#000000;stroke-width:1;"/><text fill="#000000" font-family="Verdana" font-size="18" lengthAdjust="spacing" textLength="152.9451" x="168.47" y="681.7451">isCompleted: bool</text><line style="stroke:#F57C00;stroke-width:1;" x1="151.47" x2="436.5384" y1="691.0191" y2="691.0191"/><ellipse cx="161.47" cy="708.777" fill="#FFFFFF" rx="3" ry="3" style="stroke:#000000;stroke-width:1;"/><text fill="#000000" font-family="Verdana" font-size="18" lengthAdjust="spacing" textLength="197.8188" x="168.47" y="714.261">copyWith(): HabitModel</text><ellipse cx="161.47" cy="733.2929" fill="#FFFFFF" rx="3" ry="3" style="stroke:#000000;stroke-width:1;"/><text fill="#000000" font-family="Verdana" font-size="18" lengthAdjust="spacing" textLength="263.0684" x="168.47" y="738.7768">toJson(): Map&lt;String, dynamic&gt;</text><ellipse cx="161.47" cy="757.8087" fill="#FFFFFF" rx="3" ry="3" style="stroke:#000000;stroke-width:1;"/><text fill="#000000" font-family="Verdana" font-size="18" lengthAdjust="spacing" textLength="150.0651" x="168.47" y="763.2927">toDomain(): Habit</text></g><!--class ActivityModel--><g class="entity" data-entity="ActivityModel" data-source-line="100" data-uid="ent0009" id="entity_ActivityModel"><rect fill="#FFF3E0" height="273.8826" rx="2.5" ry="2.5" style="stroke:#F57C00;stroke-width:1;" width="310.5762" x="892.71" y="140.2882"/><ellipse cx="987.3325" cy="171.1661" fill="#FFFFFF" rx="9" ry="9" style="stroke:#000000;stroke-width:1;"/><path d="M986.8481,178.3692 Q984.7856,178.3692 983.4575,177.4942 Q982.1293,176.6192 981.4731,175.0411 Q980.8325,173.4474 980.8325,171.3224 Q980.8325,168.9474 981.5981,167.2442 Q982.3793,165.5255 983.8793,164.6036 Q985.395,163.6817 987.5981,163.6817 Q988.6293,163.6817 989.4106,163.9005 Q990.2075,164.1036 991.0356,164.5099 L990.0668,166.8849 Q989.3325,166.5099 988.6918,166.3692 Q988.0668,166.2286 987.4887,166.2286 Q986.1137,166.2286 985.2856,166.8536 Q984.4731,167.463 984.1137,168.588 Q983.77,169.713 983.77,171.213 Q983.77,173.5724 984.6137,174.6974 Q985.4575,175.8224 987.3325,175.8224 Q988.0356,175.8224 988.7543,175.6505 Q989.4887,175.463 990.4731,175.0255 L990.4731,177.6192 Q989.6137,178.0099 988.6762,178.1817 Q987.7543,178.3692 986.8481,178.3692 Z " fill="#000000"/><text fill="#000000" font-family="Verdana" font-size="20" font-style="italic" lengthAdjust="spacing" textLength="61.7799" x="1030.8581" y="166.6682">&#171;Data&#187;</text><text fill="#E65100" font-family="Verdana" font-size="18" lengthAdjust="spacing" textLength="113.8313" x="1004.8325" y="191.7701">ActivityModel</text><line style="stroke:#F57C00;stroke-width:1;" x1="893.71" x2="1202.2862" y1="202.044" y2="202.044"/><text fill="#000000" font-family="Verdana" font-size="18" lengthAdjust="spacing" textLength="81.9355" x="910.71" y="225.2859">&#171;freezed&#187;</text><ellipse cx="903.71" cy="244.3178" fill="none" rx="3" ry="3" style="stroke:#000000;stroke-width:1;"/><text fill="#000000" font-family="Verdana" font-size="18" lengthAdjust="spacing" textLength="75.8695" x="910.71" y="249.8017">id: String</text><ellipse cx="903.71" cy="268.8336" fill="none" rx="3" ry="3" style="stroke:#000000;stroke-width:1;"/><text fill="#000000" font-family="Verdana" font-size="18" lengthAdjust="spacing" textLength="92.5914" x="910.71" y="274.3176">title: String</text><ellipse cx="903.71" cy="293.3495" fill="none" rx="3" ry="3" style="stroke:#000000;stroke-width:1;"/><text fill="#000000" font-family="Verdana" font-size="18" lengthAdjust="spacing" textLength="134.1172" x="910.71" y="298.8334">category: String</text><ellipse cx="903.71" cy="317.8653" fill="none" rx="3" ry="3" style="stroke:#000000;stroke-width:1;"/><text fill="#000000" font-family="Verdana" font-size="18" lengthAdjust="spacing" textLength="171.8089" x="910.71" y="323.3493">startTime: DateTime</text><ellipse cx="903.71" cy="342.3812" fill="none" rx="3" ry="3" style="stroke:#000000;stroke-width:1;"/><text fill="#000000" font-family="Verdana" font-size="18" lengthAdjust="spacing" textLength="165.0049" x="910.71" y="347.8651">endTime: DateTime</text><ellipse cx="903.71" cy="366.897" fill="none" rx="3" ry="3" style="stroke:#000000;stroke-width:1;"/><text fill="#000000" font-family="Verdana" font-size="18" lengthAdjust="spacing" textLength="152.9451" x="910.71" y="372.381">isCompleted: bool</text><line style="stroke:#F57C00;stroke-width:1;" x1="893.71" x2="1202.2862" y1="381.6549" y2="381.6549"/><ellipse cx="903.71" cy="399.4129" fill="#FFFFFF" rx="3" ry="3" style="stroke:#000000;stroke-width:1;"/><text fill="#000000" font-family="Verdana" font-size="18" lengthAdjust="spacing" textLength="286.5762" x="910.71" y="404.8968">toggleCompletion(): ActivityModel</text></g><!--class TimeBlockModel--><g class="entity" data-entity="TimeBlockModel" data-source-line="111" data-uid="ent0010" id="entity_TimeBlockModel"><rect fill="#FFF3E0" height="273.8826" rx="2.5" ry="2.5" style="stroke:#F57C00;stroke-width:1;" width="195.8089" x="561.1" y="486.4282"/><ellipse cx="586.5235" cy="517.3061" fill="#FFFFFF" rx="9" ry="9" style="stroke:#000000;stroke-width:1;"/><path d="M586.0391,524.5092 Q583.9766,524.5092 582.6485,523.6342 Q581.3204,522.7592 580.6641,521.1811 Q580.0235,519.5874 580.0235,517.4624 Q580.0235,515.0874 580.7891,513.3842 Q581.5704,511.6655 583.0704,510.7436 Q584.586,509.8217 586.7891,509.8217 Q587.8204,509.8217 588.6016,510.0405 Q589.3985,510.2436 590.2266,510.6499 L589.2579,513.0249 Q588.5235,512.6499 587.8829,512.5092 Q587.2579,512.3686 586.6798,512.3686 Q585.3048,512.3686 584.4766,512.9936 Q583.6641,513.603 583.3048,514.728 Q582.961,515.853 582.961,517.353 Q582.961,519.7124 583.8048,520.8374 Q584.6485,521.9624 586.5235,521.9624 Q587.2266,521.9624 587.9454,521.7905 Q588.6798,521.603 589.6641,521.1655 L589.6641,523.7592 Q588.8048,524.1499 587.8673,524.3217 Q586.9454,524.5092 586.0391,524.5092 Z " fill="#000000"/><text fill="#000000" font-family="Verdana" font-size="20" font-style="italic" lengthAdjust="spacing" textLength="61.7799" x="640.4949" y="512.8082">&#171;Data&#187;</text><text fill="#E65100" font-family="Verdana" font-size="18" lengthAdjust="spacing" textLength="140.2011" x="601.2843" y="537.9101">TimeBlockModel</text><line style="stroke:#F57C00;stroke-width:1;" x1="562.1" x2="755.9089" y1="548.184" y2="548.184"/><text fill="#000000" font-family="Verdana" font-size="18" lengthAdjust="spacing" textLength="96.0114" x="579.1" y="571.4259">&#171;HiveType&#187;</text><ellipse cx="572.1" cy="590.4578" fill="none" rx="3" ry="3" style="stroke:#000000;stroke-width:1;"/><text fill="#000000" font-family="Verdana" font-size="18" lengthAdjust="spacing" textLength="75.8695" x="579.1" y="595.9417">id: String</text><ellipse cx="572.1" cy="614.9736" fill="none" rx="3" ry="3" style="stroke:#000000;stroke-width:1;"/><text fill="#000000" font-family="Verdana" font-size="18" lengthAdjust="spacing" textLength="92.5914" x="579.1" y="620.4576">title: String</text><ellipse cx="572.1" cy="639.4895" fill="none" rx="3" ry="3" style="stroke:#000000;stroke-width:1;"/><text fill="#000000" font-family="Verdana" font-size="18" lengthAdjust="spacing" textLength="171.8089" x="579.1" y="644.9734">startTime: DateTime</text><ellipse cx="572.1" cy="664.0053" fill="none" rx="3" ry="3" style="stroke:#000000;stroke-width:1;"/><text fill="#000000" font-family="Verdana" font-size="18" lengthAdjust="spacing" textLength="165.0049" x="579.1" y="669.4893">endTime: DateTime</text><ellipse cx="572.1" cy="688.5212" fill="none" rx="3" ry="3" style="stroke:#000000;stroke-width:1;"/><text fill="#000000" font-family="Verdana" font-size="18" lengthAdjust="spacing" textLength="134.1172" x="579.1" y="694.0051">category: String</text><ellipse cx="572.1" cy="713.037" fill="none" rx="3" ry="3" style="stroke:#000000;stroke-width:1;"/><text fill="#000000" font-family="Verdana" font-size="18" lengthAdjust="spacing" textLength="150.5151" x="579.1" y="718.521">isFocusTime: bool</text><ellipse cx="572.1" cy="737.5529" fill="none" rx="3" ry="3" style="stroke:#000000;stroke-width:1;"/><text fill="#000000" font-family="Verdana" font-size="18" lengthAdjust="spacing" textLength="152.9451" x="579.1" y="743.0368">isCompleted: bool</text><line style="stroke:#F57C00;stroke-width:1;" x1="562.1" x2="755.9089" y1="752.3108" y2="752.3108"/></g><!--class HabitRepositoryImpl--><g class="entity" data-entity="HabitRepositoryImpl" data-source-line="123" data-uid="ent0011" id="entity_HabitRepositoryImpl"><rect fill="#FFF3E0" height="224.8509" rx="2.5" ry="2.5" style="stroke:#F57C00;stroke-width:1;" width="355.7379" x="27.13" y="164.8082"/><ellipse cx="113.8145" cy="195.6861" fill="#FFFFFF" rx="9" ry="9" style="stroke:#000000;stroke-width:1;"/><path d="M113.3301,202.8892 Q111.2676,202.8892 109.9395,202.0142 Q108.6114,201.1392 107.9551,199.5611 Q107.3145,197.9674 107.3145,195.8424 Q107.3145,193.4674 108.0801,191.7642 Q108.8614,190.0455 110.3614,189.1236 Q111.877,188.2017 114.0801,188.2017 Q115.1114,188.2017 115.8926,188.4205 Q116.6895,188.6236 117.5176,189.0299 L116.5489,191.4049 Q115.8145,191.0299 115.1739,190.8892 Q114.5489,190.7486 113.9708,190.7486 Q112.5958,190.7486 111.7676,191.3736 Q110.9551,191.983 110.5958,193.108 Q110.252,194.233 110.252,195.733 Q110.252,198.0924 111.0958,199.2174 Q111.9395,200.3424 113.8145,200.3424 Q114.5176,200.3424 115.2364,200.1705 Q115.9708,199.983 116.9551,199.5455 L116.9551,202.1392 Q116.0958,202.5299 115.1583,202.7017 Q114.2364,202.8892 113.3301,202.8892 Z " fill="#000000"/><text fill="#000000" font-family="Verdana" font-size="20" font-style="italic" lengthAdjust="spacing" textLength="61.7799" x="187.859" y="191.1882">&#171;Data&#187;</text><text fill="#E65100" font-family="Verdana" font-size="18" lengthAdjust="spacing" textLength="174.8689" x="131.3145" y="216.2901">HabitRepositoryImpl</text><line style="stroke:#F57C00;stroke-width:1;" x1="28.13" x2="381.8679" y1="226.564" y2="226.564"/><rect fill="none" height="6" style="stroke:#000000;stroke-width:1;" width="6" x="35.13" y="241.3219"/><text fill="#000000" font-family="Verdana" font-size="18" lengthAdjust="spacing" text-decoration="underline" textLength="150.3891" x="45.13" y="249.8059">_boxName: String</text><rect fill="none" height="6" style="stroke:#000000;stroke-width:1;" width="6" x="35.13" y="265.8378"/><text fill="#000000" font-family="Verdana" font-size="18" lengthAdjust="spacing" textLength="232.1626" x="45.13" y="274.3217">_localStorage: LocalStorage</text><line style="stroke:#F57C00;stroke-width:1;" x1="28.13" x2="381.8679" y1="283.5957" y2="283.5957"/><ellipse cx="38.13" cy="301.3536" fill="#FFFFFF" rx="3" ry="3" style="stroke:#000000;stroke-width:1;"/><text fill="#000000" font-family="Verdana" font-size="18" lengthAdjust="spacing" textLength="294.7841" x="45.13" y="306.8376">getAllHabits(): Future&lt;List&lt;Habit&gt;&gt;</text><ellipse cx="38.13" cy="325.8695" fill="#FFFFFF" rx="3" ry="3" style="stroke:#000000;stroke-width:1;"/><text fill="#000000" font-family="Verdana" font-size="18" lengthAdjust="spacing" textLength="303.9641" x="45.13" y="331.3534">addHabit(Habit habit): Future&lt;void&gt;</text><ellipse cx="38.13" cy="350.3853" fill="#FFFFFF" rx="3" ry="3" style="stroke:#000000;stroke-width:1;"/><text fill="#000000" font-family="Verdana" font-size="18" lengthAdjust="spacing" textLength="331.7379" x="45.13" y="355.8693">updateHabit(Habit habit): Future&lt;void&gt;</text><ellipse cx="38.13" cy="374.9012" fill="#FFFFFF" rx="3" ry="3" style="stroke:#000000;stroke-width:1;"/><text fill="#000000" font-family="Verdana" font-size="18" lengthAdjust="spacing" textLength="301.6781" x="45.13" y="380.3851">deleteHabit(String id): Future&lt;void&gt;</text></g><!--class TimeBlockRepository--><g class="entity" data-entity="TimeBlockRepository" data-source-line="132" data-uid="ent0012" id="entity_TimeBlockRepository"><rect fill="#FFF3E0" height="175.8192" rx="2.5" ry="2.5" style="stroke:#F57C00;stroke-width:1;" width="440.1034" x="417.95" y="189.3182"/><ellipse cx="545.4043" cy="220.1961" fill="#FFFFFF" rx="9" ry="9" style="stroke:#000000;stroke-width:1;"/><path d="M544.9199,227.3992 Q542.8574,227.3992 541.5293,226.5242 Q540.2011,225.6492 539.5449,224.0711 Q538.9043,222.4774 538.9043,220.3524 Q538.9043,217.9774 539.6699,216.2742 Q540.4511,214.5555 541.9511,213.6336 Q543.4668,212.7117 545.6699,212.7117 Q546.7011,212.7117 547.4824,212.9305 Q548.2793,213.1336 549.1074,213.5399 L548.1386,215.9149 Q547.4043,215.5399 546.7636,215.3992 Q546.1386,215.2586 545.5605,215.2586 Q544.1855,215.2586 543.3574,215.8836 Q542.5449,216.493 542.1855,217.618 Q541.8418,218.743 541.8418,220.243 Q541.8418,222.6024 542.6855,223.7274 Q543.5293,224.8524 545.4043,224.8524 Q546.1074,224.8524 546.8261,224.6805 Q547.5605,224.493 548.5449,224.0555 L548.5449,226.6492 Q547.6855,227.0399 546.748,227.2117 Q545.8261,227.3992 544.9199,227.3992 Z " fill="#000000"/><text fill="#000000" font-family="Verdana" font-size="20" font-style="italic" lengthAdjust="spacing" textLength="61.7799" x="620.8617" y="215.6982">&#171;Data&#187;</text><text fill="#E65100" font-family="Verdana" font-size="18" lengthAdjust="spacing" textLength="177.6949" x="562.9043" y="240.8001">TimeBlockRepository</text><line style="stroke:#F57C00;stroke-width:1;" x1="418.95" x2="857.0534" y1="251.074" y2="251.074"/><rect fill="none" height="6" style="stroke:#000000;stroke-width:1;" width="6" x="425.95" y="265.8319"/><text fill="#000000" font-family="Verdana" font-size="18" lengthAdjust="spacing" textLength="232.1626" x="435.95" y="274.3159">_localStorage: LocalStorage</text><line style="stroke:#F57C00;stroke-width:1;" x1="418.95" x2="857.0534" y1="283.5899" y2="283.5899"/><ellipse cx="428.95" cy="301.3478" fill="#FFFFFF" rx="3" ry="3" style="stroke:#000000;stroke-width:1;"/><text fill="#000000" font-family="Verdana" font-size="18" lengthAdjust="spacing" textLength="377.7275" x="435.95" y="306.8317">getAllTimeBlocks(): Future&lt;List&lt;TimeBlock&gt;&gt;</text><ellipse cx="428.95" cy="325.8636" fill="#FFFFFF" rx="3" ry="3" style="stroke:#000000;stroke-width:1;"/><text fill="#000000" font-family="Verdana" font-size="18" lengthAdjust="spacing" textLength="388.3296" x="435.95" y="331.3476">addTimeBlock(TimeBlock block): Future&lt;void&gt;</text><ellipse cx="428.95" cy="350.3795" fill="#FFFFFF" rx="3" ry="3" style="stroke:#000000;stroke-width:1;"/><text fill="#000000" font-family="Verdana" font-size="18" lengthAdjust="spacing" textLength="416.1034" x="435.95" y="355.8634">updateTimeBlock(TimeBlock block): Future&lt;void&gt;</text></g><!--class LocalStorage--><g class="entity" data-entity="LocalStorage" data-source-line="144" data-uid="ent0014" id="entity_LocalStorage"><rect fill="#E3F2FD" height="126.7875" rx="2.5" ry="2.5" style="stroke:#1976D2;stroke-width:1;" width="273.7124" x="1259.14" y="559.9782"/><ellipse cx="1340.3705" cy="590.8561" fill="#FFFFFF" rx="9" ry="9" style="stroke:#000000;stroke-width:1;"/><path d="M1334.5736,596.8561 L1338.5111,582.5124 L1342.2143,582.5124 L1346.1674,596.8561 L1343.2768,596.8561 L1342.4174,593.3092 L1338.2768,593.3092 L1337.3861,596.8561 L1334.5736,596.8561 Z M1339.7455,587.403 L1338.8705,590.9186 L1341.8236,590.9186 L1340.9955,587.403 Q1340.8236,586.7155 1340.6674,586.0592 Q1340.5268,585.403 1340.3705,584.7155 Q1340.2299,585.403 1340.0736,586.0592 Q1339.9174,586.7155 1339.7455,587.403 Z " fill="#000000"/><text fill="#000000" font-family="Verdana" font-size="20" font-style="italic" lengthAdjust="spacing" textLength="60.02" x="1379.7362" y="586.3582">&#171;Core&#187;</text><text fill="#0D47A1" font-family="Verdana" font-size="18" font-style="italic" lengthAdjust="spacing" textLength="103.7514" x="1357.8705" y="611.4601">LocalStorage</text><line style="stroke:#1976D2;stroke-width:1;" x1="1260.14" x2="1531.8524" y1="621.734" y2="621.734"/><line style="stroke:#1976D2;stroke-width:1;" x1="1260.14" x2="1531.8524" y1="629.734" y2="629.734"/><ellipse cx="1270.14" cy="647.4919" fill="#FFFFFF" rx="3" ry="3" style="stroke:#000000;stroke-width:1;"/><text fill="#000000" font-family="Verdana" font-size="18" lengthAdjust="spacing" textLength="249.7124" x="1277.14" y="652.9759">getBox&lt;T&gt;(): Future&lt;Box&lt;T&gt;&gt;</text><ellipse cx="1270.14" cy="672.0078" fill="#FFFFFF" rx="3" ry="3" style="stroke:#000000;stroke-width:1;"/><text fill="#000000" font-family="Verdana" font-size="18" lengthAdjust="spacing" textLength="240.7664" x="1277.14" y="677.4917">saveData&lt;T&gt;(): Future&lt;void&gt;</text></g><g class="entity" data-entity="GMN25" data-source-line="169" data-uid="ent0026" id="entity_GMN25"><path d="M1238.72,244.9882 L1238.72,309.4681 L1531.2797,309.4681 L1531.2797,254.9882 L1521.2797,244.9882 L1238.72,244.9882" fill="#FFFFFF" style="stroke:#000000;stroke-width:1;"/><path d="M1521.2797,244.9882 L1521.2797,254.9882 L1531.2797,254.9882 L1521.2797,244.9882" fill="#FFFFFF" style="stroke:#000000;stroke-width:1;"/><text fill="#000000" font-family="Verdana" font-size="20" lengthAdjust="spacing" textLength="271.5597" x="1244.72" y="271.3682">Implementa HabitRepository</text><text fill="#000000" font-family="Verdana" font-size="20" lengthAdjust="spacing" textLength="164.7198" x="1244.72" y="298.6082">del Domain Layer</text></g><g class="entity" data-entity="GMN28" data-source-line="174" data-uid="ent0029" id="entity_GMN28"><path d="M135.03,914.2382 L135.03,978.7181 A0,0 0 0 0 135.03,978.7181 L452.9697,978.7181 A0,0 0 0 0 452.9697,978.7181 L452.9697,924.2382 L442.9697,914.2382 L298,914.2382 L294,772.6282 L290,914.2382 L135.03,914.2382 A0,0 0 0 0 135.03,914.2382" fill="#FFFFFF" style="stroke:#000000;stroke-width:1;"/><path d="M442.9697,914.2382 L442.9697,924.2382 L452.9697,924.2382 L442.9697,914.2382" fill="#FFFFFF" style="stroke:#000000;stroke-width:1;"/><text fill="#000000" font-family="Verdana" font-size="20" lengthAdjust="spacing" textLength="216.0998" x="141.03" y="940.6182">Modelo de datos (Hive)</text><text fill="#000000" font-family="Verdana" font-size="20" lengthAdjust="spacing" textLength="296.9397" x="141.03" y="967.8582">Se transforma a Habit (Domain)</text></g><!--reverse link HabitRepository to HabitRepositoryImpl--><g class="link" data-entity-1="HabitRepository" data-entity-2="HabitRepositoryImpl" data-source-line="153" data-uid="lnk15" id="link_HabitRepository_HabitRepositoryImpl"><path codeLine="153" d="M1253.14,840.1582 C1253.14,696.0882 1253.14,444.3882 1253.14,444.3882 C1253.14,444.3882 266.67,444.3882 266.67,444.3882 C266.67,444.3882 266.67,420.1382 266.67,390.1182" fill="none" id="HabitRepository-backto-HabitRepositoryImpl" style="stroke:#495057;stroke-width:1;"/><polygon fill="none" points="1253.14,858.1582,1259.14,840.1582,1247.14,840.1582,1253.14,858.1582" style="stroke:#495057;stroke-width:1;"/><text fill="#000000" font-family="Verdana" font-size="20" lengthAdjust="spacing" textLength="111.7399" x="827.65" y="437.7682">implements</text></g><!--link HabitRepositoryImpl to LocalStorage--><g class="link" data-entity-1="HabitRepositoryImpl" data-entity-2="LocalStorage" data-source-line="155" data-uid="lnk16" id="link_HabitRepositoryImpl_LocalStorage"><path codeLine="155" d="M383.13,373.3882 C557.58,373.3882 797.36,373.3882 797.36,373.3882 C797.36,373.3882 797.36,644.3882 797.36,644.3882 C797.36,644.3882 1075.92,644.3882 1252.66,644.3882" fill="none" id="HabitRepositoryImpl-to-LocalStorage" style="stroke:#495057;stroke-width:1;"/><polygon fill="#495057" points="1258.66,644.3882,1249.66,640.3882,1253.66,644.3882,1249.66,648.3882,1258.66,644.3882" style="stroke:#495057;stroke-width:1;"/><text fill="#000000" font-family="Verdana" font-size="20" lengthAdjust="spacing" textLength="42.7999" x="798.36" y="525.7982">uses</text></g><!--link TimeBlockRepository to LocalStorage--><g class="link" data-entity-1="TimeBlockRepository" data-entity-2="LocalStorage" data-source-line="156" data-uid="lnk17" id="link_TimeBlockRepository_LocalStorage"><path codeLine="156" d="M817.59,365.2182 C817.59,461.5182 817.59,602.3882 817.59,602.3882 C817.59,602.3882 1081.88,602.3882 1252.93,602.3882" fill="none" id="TimeBlockRepository-to-LocalStorage" style="stroke:#495057;stroke-width:1;"/><polygon fill="#495057" points="1258.93,602.3882,1249.93,598.3882,1253.93,602.3882,1249.93,606.3882,1258.93,602.3882" style="stroke:#495057;stroke-width:1;"/><text fill="#000000" font-family="Verdana" font-size="20" lengthAdjust="spacing" textLength="42.7999" x="876.68" y="595.7682">uses</text></g><!--link HabitRepositoryImpl to HabitModel--><g class="link" data-entity-1="HabitRepositoryImpl" data-entity-2="HabitModel" data-source-line="158" data-uid="lnk18" id="link_HabitRepositoryImpl_HabitModel"><path codeLine="158" d="M208.57,390.0882 C208.57,416.8182 208.57,439.7482 208.57,467.8282" fill="none" id="HabitRepositoryImpl-to-HabitModel" style="stroke:#495057;stroke-width:1;"/><polygon fill="#495057" points="208.57,473.8282,212.57,464.8282,208.57,468.8282,204.57,464.8282,208.57,473.8282" style="stroke:#495057;stroke-width:1;"/><text fill="#000000" font-family="Verdana" font-size="20" lengthAdjust="spacing" textLength="42.7999" x="165.57" y="425.3382">uses</text></g><!--link TimeBlockRepository to TimeBlockModel--><g class="link" data-entity-1="TimeBlockRepository" data-entity-2="TimeBlockModel" data-source-line="159" data-uid="lnk19" id="link_TimeBlockRepository_TimeBlockModel"><path codeLine="159" d="M659,365.4682 C659,402.1282 659,439.5282 659,480.1682" fill="none" id="TimeBlockRepository-to-TimeBlockModel" style="stroke:#495057;stroke-width:1;"/><polygon fill="#495057" points="659,486.1682,663,477.1682,659,481.1682,655,477.1682,659,486.1682" style="stroke:#495057;stroke-width:1;"/><text fill="#000000" font-family="Verdana" font-size="20" lengthAdjust="spacing" textLength="42.7999" x="616" y="419.1982">uses</text></g><!--link HabitModel to Habit--><g class="link" data-entity-1="HabitModel" data-entity-2="Habit" data-source-line="161" data-uid="lnk20" id="link_HabitModel_Habit"><path codeLine="161" d="M437.96,766.3882 C571.26,766.3882 749,766.3882 749,766.3882 C749,766.3882 749,806.6482 749,852.2782" fill="none" id="HabitModel-to-Habit" style="stroke:#495057;stroke-width:1;stroke-dasharray:7,7;"/><polygon fill="#495057" points="749,858.2782,753,849.2782,749,853.2782,745,849.2782,749,858.2782" style="stroke:#495057;stroke-width:1;"/><text fill="#000000" font-family="Verdana" font-size="20" lengthAdjust="spacing" textLength="128.6799" x="510.43" y="788.7682">transforms to</text></g><!--link ActivityModel to Activity--><g class="link" data-entity-1="ActivityModel" data-entity-2="Activity" data-source-line="162" data-uid="lnk21" id="link_ActivityModel_Activity"><path codeLine="162" d="M1203.58,361.3882 C1401.24,361.3882 1717,361.3882 1717,361.3882 C1717,361.3882 1717,688.7982 1717,852.2482" fill="none" id="ActivityModel-to-Activity" style="stroke:#495057;stroke-width:1;stroke-dasharray:7,7;"/><polygon fill="#495057" points="1717,858.2482,1721,849.2482,1717,853.2482,1713,849.2482,1717,858.2482" style="stroke:#495057;stroke-width:1;"/><text fill="#000000" font-family="Verdana" font-size="20" lengthAdjust="spacing" textLength="128.6799" x="1579.72" y="354.7682">transforms to</text></g><!--link TimeBlockModel to TimeBlock--><g class="link" data-entity-1="TimeBlockModel" data-entity-2="TimeBlock" data-source-line="163" data-uid="lnk22" id="link_TimeBlockModel_TimeBlock"><path codeLine="163" d="M757.35,723.3882 C881.34,723.3882 1078.49,723.3882 1078.49,723.3882 C1078.49,723.3882 1078.49,789.9482 1078.49,852.3082" fill="none" id="TimeBlockModel-to-TimeBlock" style="stroke:#495057;stroke-width:1;stroke-dasharray:7,7;"/><polygon fill="#495057" points="1078.49,858.3082,1082.49,849.3082,1078.49,853.3082,1074.49,849.3082,1078.49,858.3082" style="stroke:#495057;stroke-width:1;"/><text fill="#000000" font-family="Verdana" font-size="20" lengthAdjust="spacing" textLength="128.6799" x="856.38" y="716.7682">transforms to</text></g><!--link HabitRepositoryImpl to Habit--><g class="link" data-entity-1="HabitRepositoryImpl" data-entity-2="Habit" data-source-line="165" data-uid="lnk23" id="link_HabitRepositoryImpl_Habit"><path codeLine="165" d="M383.28,381.3882 C551.19,381.3882 777.13,381.3882 777.13,381.3882 C777.13,381.3882 777.13,693.2482 777.13,852.1882" fill="none" id="HabitRepositoryImpl-to-Habit" style="stroke:#495057;stroke-width:1;stroke-dasharray:7,7;"/><polygon fill="#495057" points="777.13,858.1882,781.13,849.1882,777.13,853.1882,773.13,849.1882,777.13,858.1882" style="stroke:#495057;stroke-width:1;"/><text fill="#000000" font-family="Verdana" font-size="20" lengthAdjust="spacing" textLength="69.3199" x="707.13" y="416.2382">returns</text></g><!--link TimeBlockRepository to TimeBlock--><g class="link" data-entity-1="TimeBlockRepository" data-entity-2="TimeBlock" data-source-line="166" data-uid="lnk24" id="link_TimeBlockRepository_TimeBlock"><path codeLine="166" d="M837.82,365.3782 C837.82,411.8682 837.82,459.3882 837.82,459.3882 C837.82,459.3882 1140.89,459.3882 1140.89,459.3882 C1140.89,459.3882 1140.89,711.9082 1140.89,852.2682" fill="none" id="TimeBlockRepository-to-TimeBlock" style="stroke:#495057;stroke-width:1;stroke-dasharray:7,7;"/><polygon fill="#495057" points="1140.89,858.2682,1144.89,849.2682,1140.89,853.2682,1136.89,849.2682,1140.89,858.2682" style="stroke:#495057;stroke-width:1;"/><text fill="#000000" font-family="Verdana" font-size="20" lengthAdjust="spacing" textLength="69.3199" x="1070.89" y="453.6682">returns</text></g><!--link HabitRepositoryImpl to GMN25--><g class="link" data-entity-1="HabitRepositoryImpl" data-entity-2="GMN25" data-source-line="169" data-uid="lnk27" id="link_HabitRepositoryImpl_GMN25"><path d="M324.77,389.8082 C324.77,412.4182 324.77,429.3882 324.77,429.3882 C324.77,429.3882 1242.93,429.3882 1242.93,429.3882 C1242.93,429.3882 1242.93,354.5782 1242.93,309.8682" fill="none" id="HabitRepositoryImpl-GMN25" style="stroke:#495057;stroke-width:1;stroke-dasharray:7,7;"/></g><!--SRC=[tLXVRzis47_NfxXsmEfWSo4xSUCOdW75Vr0FSL8u0O8D0mfQFDj4P54WwJHkbu-qftw4VB6HaYpHajBKtlOoFJ3mtOztlDFzUAUyKajS8KG1OQ7Zl84-3-TiiHR4PqzVGxZwS3EUZ7_t1XxKOOf1AgO8H4ReAmxDpZ7KA5jXA1aFKSBywI_9V28xq6YxxaFpr7MZXoFd5SKv2n467yPmuhgEz4c0i28FCGm-CQgMbj1iWoMonL8vZhnZOKG4MS6C-7SBmTSXxVE02_XX53yMGhiXwq2DUAYksMU4fcif_O18cQaQPqMLfvHWixN27DCkOYQebfnM0o9zFBB0QkU13bzj8WGkj0Mdl0s-EA2VyrACxT7Po4jqN50KgVpahEMsJcEvyPXAcurcgtdcF3h5WrURxtO7H95UBqxbyT0jkh7qhTE-w-wwoxN3Tws6rkxXbgzqpSLRswFMi5tXE4CSjzl3utx9TQPldBU6pNsSzxd0sFNng3aQb5rlzOspqtU3Pj7nLkiEJawzHeLRJmZ-QVSjvGXILbhQ5GlxniIj8GGqJkmAqiImTUrIQOzz7iQ5vpgEOafpQS38Ggk9eQpPgmbQ1_FEu89iKFmHJfw-qdN0Ez0dKOpIIYu1ORoA0dqrX4fptX3Rt0w_VF-ZqOEhYJU-X0llj-5KU_LcKkbx9R46DO5p51ZwZCYZFKrl-V8wgO0a5AXDBOklzGK5D56d1PRM0acEeT82UKzcJ4qnuf8fBZPWbLM2DyzF2rHU4CHOMJlgm6YjrWAx5qogRYpjzN8meJIMrU8LbcRDzznpHYtmEg94uVVZAGQunL_hsofS0ADLwCTuZHShqcVYOxG3YRLS5f8LbgMKREJL_1RnhWDn-0d0Eg6lurdeLExiBPt6ynMxPshpBnn8QQckMhpHNMZVOvWzvm7tx_OuHyoiibWg8fInLtKQ36c5wj7S7NlJohlnCb9Dk2u82JzQT5MQOF9WHcLNGy8WypFj36bQukLDwhXONh4KigwG9xBRVS_kyKQtFvifUsINelG5YqnmXnGbatrkCgHGkvnn7bY5mgFDBLDBm-iy2Ej0_5V9GwETa2Yr_3FGZIv7vlTiN590cPrl5_utKZKNY9-H7fYfoi8_j49VIfxYYqM0gPebQTg9y0NQ_NS5SsYmpwUFwT7HNyjausuQgZFqQ1F6wZ55hXP8b2CDi2evzI_IxFKVuUECFrnMtOlrZpgz9BZMPZInDIsiN_-llfRLqcuNB-LiZuHa9aj9oJI5n6JoMjvHPcPz8K5xxJkeNVIlfiEqNLWJqi4ZbvbzomDNCc_vHfVErDNJbfrqo0RftK7hd3zqRtfMuXE1bJf9xj6ytrtOFypJT7ZXzSTNbyFhFRUM9iW_w_LA8dU0ROclf-agHBtUsqrH1zPwP7UgIlmvxBE6hGRzWjd2xRnZE16zVPlQqqhzVaCvvs8bGN5djxqPN3Rf5Q45DmQRaw08hWpBFeP0NGLXTL15qrki4tA58Cn_6O3FgrwQhgVyjYu2jD8StFuASNHd0MCrjJtZIl5LPdpR4kE_t7nkqVXpgsQQtP5MN6CUDu7K8zGI5qUvzRy1]--></g></svg>