<svg xmlns="http://www.w3.org/2000/svg" xmlns:xlink="http://www.w3.org/1999/xlink" contentStyleType="text/css" data-diagram-type="SEQUENCE" height="1639px" preserveAspectRatio="none" style="width:2051px;height:1639px;background:#FFFFFF;" version="1.1" viewBox="0 0 2051 1639" width="2051px" zoomAndPan="magnify"><title>Diagrama de Secuencia - Creaci&#243;n de Actividad
Flujo Completo de Planificaci&#243;n</title><defs/><g><text fill="#000000" font-family="Verdana" font-size="22" font-weight="bold" lengthAdjust="spacing" textLength="511.3698" x="768.6818" y="38.5181">Diagrama de Secuencia - Creaci&#243;n de Actividad</text><text fill="#000000" font-family="Verdana" font-size="22" font-weight="bold" lengthAdjust="spacing" textLength="343.5311" x="852.6011" y="68.4822">Flujo Completo de Planificaci&#243;n</text><g><title>ActivitiesScreen</title><rect fill="#FFFFFF" height="1181.5136" style="stroke:#000000;stroke-width:1;" width="10" x="377.9068" y="271.2862"/></g><g><title>CreateActivityDialog</title><rect fill="#FFFFFF" height="39.8781" style="stroke:#000000;stroke-width:1;" width="10" x="657.5934" y="311.1643"/></g><g><title>CreateActivityDialog</title><rect fill="#FFFFFF" height="969.1233" style="stroke:#000000;stroke-width:1;" width="10" x="657.5934" y="390.9205"/></g><g><title>ActivityController</title><rect fill="#FFFFFF" height="788.0091" style="stroke:#000000;stroke-width:1;" width="10" x="922.7261" y="532.1566"/></g><g><title>ActivityRepository</title><rect fill="#FFFFFF" height="119.6342" style="stroke:#000000;stroke-width:1;" width="10" x="1160.5776" y="624.9127"/></g><g><title>ActivityRepository</title><rect fill="#FFFFFF" height="119.6342" style="stroke:#000000;stroke-width:1;" width="10" x="1160.5776" y="925.6611"/></g><g><title>HiveDatabase</title><rect fill="#FFFFFF" height="39.8781" style="stroke:#000000;stroke-width:1;" width="10" x="1423.9053" y="664.7908"/></g><g><title>HiveDatabase</title><rect fill="#FFFFFF" height="39.8781" style="stroke:#000000;stroke-width:1;" width="10" x="1423.9053" y="965.5392"/></g><g><title>TimeBlockService</title><rect fill="#FFFFFF" height="252.2684" style="stroke:#000000;stroke-width:1;" width="10" x="1600.6951" y="832.9049"/></g><g><title>NotificationService</title><rect fill="#FFFFFF" height="92.7561" style="stroke:#000000;stroke-width:1;" width="10" x="1814.5049" y="1180.5314"/></g><rect fill="#FFFFFF" height="1071.1194" style="stroke:#000000;stroke-width:1;" width="2019.7334" x="15" y="458.7985"/><rect fill="#FFFFFF" height="333.6265" style="stroke:#000000;stroke-width:1;" width="968.6643" x="819.7062" y="759.5469"/><rect fill="#FFFFFF" height="174.1142" style="stroke:#000000;stroke-width:1;" width="1205.0272" x="819.7062" y="1107.1734"/><rect fill="#FFFFFF" height="69.118" style="stroke:none;stroke-width:1;" width="2019.7334" x="15" y="1460.7999"/><g><title>Usuario</title><rect fill="#000000" fill-opacity="0.00000" height="1372.7497" width="8" x="60.65" y="174.1682"/><line style="stroke:#000000;stroke-width:1;stroke-dasharray:5,5;" x1="64" x2="64" y1="174.1682" y2="1546.9179"/></g><g><title>ActivitiesScreen</title><rect fill="#000000" fill-opacity="0.00000" height="1372.7497" width="8" x="378.9068" y="174.1682"/><line style="stroke:#000000;stroke-width:1;stroke-dasharray:5,5;" x1="382.3669" x2="382.3669" y1="174.1682" y2="1546.9179"/></g><g><title>CreateActivityDialog</title><rect fill="#000000" fill-opacity="0.00000" height="1372.7497" width="8" x="658.5934" y="174.1682"/><line style="stroke:#000000;stroke-width:1;stroke-dasharray:5,5;" x1="661.6236" x2="661.6236" y1="174.1682" y2="1546.9179"/></g><g><title>ActivityController</title><rect fill="#000000" fill-opacity="0.00000" height="1372.7497" width="8" x="923.7261" y="174.1682"/><line style="stroke:#000000;stroke-width:1;stroke-dasharray:5,5;" x1="927.7062" x2="927.7062" y1="174.1682" y2="1546.9179"/></g><g><title>ActivityRepository</title><rect fill="#000000" fill-opacity="0.00000" height="1372.7497" width="8" x="1161.5776" y="174.1682"/><line style="stroke:#000000;stroke-width:1;stroke-dasharray:5,5;" x1="1165.5077" x2="1165.5077" y1="174.1682" y2="1546.9179"/></g><g><title>HiveDatabase</title><rect fill="#000000" fill-opacity="0.00000" height="1372.7497" width="8" x="1424.9053" y="174.1682"/><line style="stroke:#000000;stroke-width:1;stroke-dasharray:5,5;" x1="1428.8753" x2="1428.8753" y1="174.1682" y2="1546.9179"/></g><g><title>TimeBlockService</title><rect fill="#000000" fill-opacity="0.00000" height="1372.7497" width="8" x="1601.6951" y="174.1682"/><line style="stroke:#000000;stroke-width:1;stroke-dasharray:5,5;" x1="1604.9352" x2="1604.9352" y1="174.1682" y2="1546.9179"/></g><g><title>NotificationService</title><rect fill="#000000" fill-opacity="0.00000" height="1372.7497" width="8" x="1815.5049" y="174.1682"/><line style="stroke:#000000;stroke-width:1;stroke-dasharray:5,5;" x1="1819.455" x2="1819.455" y1="174.1682" y2="1546.9179"/></g><g class="participant participant-head" data-participant="user"><text fill="#0D47A1" font-family="Verdana" font-size="20" lengthAdjust="spacing" textLength="73.2999" x="25" y="168.3082">Usuario</text><ellipse cx="64.65" cy="94.9282" fill="#E3F2FD" rx="8" ry="8" style="stroke:#1976D2;stroke-width:1;"/><path d="M64.65,102.9282 L64.65,129.9282 M51.65,110.9282 L77.65,110.9282 M64.65,129.9282 L51.65,144.9282 M64.65,129.9282 L77.65,144.9282" fill="none" style="stroke:#1976D2;stroke-width:1;"/></g><g class="participant participant-tail" data-participant="user"><text fill="#0D47A1" font-family="Verdana" font-size="20" lengthAdjust="spacing" textLength="73.2999" x="25" y="1567.2979">Usuario</text><ellipse cx="64.65" cy="1582.1579" fill="#E3F2FD" rx="8" ry="8" style="stroke:#1976D2;stroke-width:1;"/><path d="M64.65,1590.1579 L64.65,1617.1579 M51.65,1598.1579 L77.65,1598.1579 M64.65,1617.1579 L51.65,1632.1579 M64.65,1617.1579 L77.65,1632.1579" fill="none" style="stroke:#1976D2;stroke-width:1;"/></g><g class="participant participant-head" data-participant="screen"><rect fill="#F3E5F5" height="41.24" rx="2.5" ry="2.5" style="stroke:#7B1FA2;stroke-width:1;" width="161.0798" x="302.3669" y="131.9282"/><text fill="#4A148C" font-family="Verdana" font-size="20" lengthAdjust="spacing" textLength="147.0798" x="309.3669" y="160.3082">ActivitiesScreen</text></g><g class="participant participant-tail" data-participant="screen"><rect fill="#F3E5F5" height="41.24" rx="2.5" ry="2.5" style="stroke:#7B1FA2;stroke-width:1;" width="161.0798" x="302.3669" y="1545.9179"/><text fill="#4A148C" font-family="Verdana" font-size="20" lengthAdjust="spacing" textLength="147.0798" x="309.3669" y="1574.2979">ActivitiesScreen</text></g><g class="participant participant-head" data-participant="dialog"><rect fill="#F3E5F5" height="41.24" rx="2.5" ry="2.5" style="stroke:#7B1FA2;stroke-width:1;" width="203.9398" x="560.6236" y="131.9282"/><text fill="#4A148C" font-family="Verdana" font-size="20" lengthAdjust="spacing" textLength="189.9398" x="567.6236" y="160.3082">CreateActivityDialog</text></g><g class="participant participant-tail" data-participant="dialog"><rect fill="#F3E5F5" height="41.24" rx="2.5" ry="2.5" style="stroke:#7B1FA2;stroke-width:1;" width="203.9398" x="560.6236" y="1545.9179"/><text fill="#4A148C" font-family="Verdana" font-size="20" lengthAdjust="spacing" textLength="189.9398" x="567.6236" y="1574.2979">CreateActivityDialog</text></g><g class="participant participant-head" data-participant="controller"><rect fill="#F3E5F5" height="41.24" rx="2.5" ry="2.5" style="stroke:#7B1FA2;stroke-width:1;" width="176.0398" x="839.7062" y="131.9282"/><text fill="#4A148C" font-family="Verdana" font-size="20" lengthAdjust="spacing" textLength="162.0398" x="846.7062" y="160.3082">ActivityController</text></g><g class="participant participant-tail" data-participant="controller"><rect fill="#F3E5F5" height="41.24" rx="2.5" ry="2.5" style="stroke:#7B1FA2;stroke-width:1;" width="176.0398" x="839.7062" y="1545.9179"/><text fill="#4A148C" font-family="Verdana" font-size="20" lengthAdjust="spacing" textLength="162.0398" x="846.7062" y="1574.2979">ActivityController</text></g><g class="participant participant-head" data-participant="repo"><rect fill="#F3E5F5" height="41.24" rx="2.5" ry="2.5" style="stroke:#7B1FA2;stroke-width:1;" width="182.1398" x="1074.5077" y="131.9282"/><text fill="#4A148C" font-family="Verdana" font-size="20" lengthAdjust="spacing" textLength="168.1398" x="1081.5077" y="160.3082">ActivityRepository</text></g><g class="participant participant-tail" data-participant="repo"><rect fill="#F3E5F5" height="41.24" rx="2.5" ry="2.5" style="stroke:#7B1FA2;stroke-width:1;" width="182.1398" x="1074.5077" y="1545.9179"/><text fill="#4A148C" font-family="Verdana" font-size="20" lengthAdjust="spacing" textLength="168.1398" x="1081.5077" y="1574.2979">ActivityRepository</text></g><g class="participant participant-head" data-participant="hive"><text fill="#1B5E20" font-family="Verdana" font-size="20" lengthAdjust="spacing" textLength="130.0598" x="1360.8753" y="168.3082">HiveDatabase</text><path d="M1410.9053,110.9282 C1410.9053,100.9282 1428.9053,100.9282 1428.9053,100.9282 C1428.9053,100.9282 1446.9053,100.9282 1446.9053,110.9282 L1446.9053,136.9282 C1446.9053,146.9282 1428.9053,146.9282 1428.9053,146.9282 C1428.9053,146.9282 1410.9053,146.9282 1410.9053,136.9282 L1410.9053,110.9282" fill="#E8F5E8" style="stroke:#388E3C;stroke-width:1;"/><path d="M1410.9053,110.9282 C1410.9053,120.9282 1428.9053,120.9282 1428.9053,120.9282 C1428.9053,120.9282 1446.9053,120.9282 1446.9053,110.9282" fill="none" style="stroke:#388E3C;stroke-width:1;"/></g><g class="participant participant-tail" data-participant="hive"><text fill="#1B5E20" font-family="Verdana" font-size="20" lengthAdjust="spacing" textLength="130.0598" x="1360.8753" y="1567.2979">HiveDatabase</text><path d="M1410.9053,1583.1579 C1410.9053,1573.1579 1428.9053,1573.1579 1428.9053,1573.1579 C1428.9053,1573.1579 1446.9053,1573.1579 1446.9053,1583.1579 L1446.9053,1609.1579 C1446.9053,1619.1579 1428.9053,1619.1579 1428.9053,1619.1579 C1428.9053,1619.1579 1410.9053,1619.1579 1410.9053,1609.1579 L1410.9053,1583.1579" fill="#E8F5E8" style="stroke:#388E3C;stroke-width:1;"/><path d="M1410.9053,1583.1579 C1410.9053,1593.1579 1428.9053,1593.1579 1428.9053,1593.1579 C1428.9053,1593.1579 1446.9053,1593.1579 1446.9053,1583.1579" fill="none" style="stroke:#388E3C;stroke-width:1;"/></g><g class="participant participant-head" data-participant="timeService"><rect fill="#F3E5F5" height="41.24" rx="2.5" ry="2.5" style="stroke:#7B1FA2;stroke-width:1;" width="177.5198" x="1516.9352" y="131.9282"/><text fill="#4A148C" font-family="Verdana" font-size="20" lengthAdjust="spacing" textLength="163.5198" x="1523.9352" y="160.3082">TimeBlockService</text></g><g class="participant participant-tail" data-participant="timeService"><rect fill="#F3E5F5" height="41.24" rx="2.5" ry="2.5" style="stroke:#7B1FA2;stroke-width:1;" width="177.5198" x="1516.9352" y="1545.9179"/><text fill="#4A148C" font-family="Verdana" font-size="20" lengthAdjust="spacing" textLength="163.5198" x="1523.9352" y="1574.2979">TimeBlockService</text></g><g class="participant participant-head" data-participant="notifService"><rect fill="#F3E5F5" height="41.24" rx="2.5" ry="2.5" style="stroke:#7B1FA2;stroke-width:1;" width="190.0998" x="1724.455" y="131.9282"/><text fill="#4A148C" font-family="Verdana" font-size="20" lengthAdjust="spacing" textLength="176.0998" x="1731.455" y="160.3082">NotificationService</text></g><g class="participant participant-tail" data-participant="notifService"><rect fill="#F3E5F5" height="41.24" rx="2.5" ry="2.5" style="stroke:#7B1FA2;stroke-width:1;" width="190.0998" x="1724.455" y="1545.9179"/><text fill="#4A148C" font-family="Verdana" font-size="20" lengthAdjust="spacing" textLength="176.0998" x="1731.455" y="1574.2979">NotificationService</text></g><g><title>ActivitiesScreen</title><rect fill="#FFFFFF" height="1181.5136" style="stroke:#000000;stroke-width:1;" width="10" x="377.9068" y="271.2862"/></g><g><title>CreateActivityDialog</title><rect fill="#FFFFFF" height="39.8781" style="stroke:#000000;stroke-width:1;" width="10" x="657.5934" y="311.1643"/></g><g><title>CreateActivityDialog</title><rect fill="#FFFFFF" height="969.1233" style="stroke:#000000;stroke-width:1;" width="10" x="657.5934" y="390.9205"/></g><g><title>ActivityController</title><rect fill="#FFFFFF" height="788.0091" style="stroke:#000000;stroke-width:1;" width="10" x="922.7261" y="532.1566"/></g><g><title>ActivityRepository</title><rect fill="#FFFFFF" height="119.6342" style="stroke:#000000;stroke-width:1;" width="10" x="1160.5776" y="624.9127"/></g><g><title>ActivityRepository</title><rect fill="#FFFFFF" height="119.6342" style="stroke:#000000;stroke-width:1;" width="10" x="1160.5776" y="925.6611"/></g><g><title>HiveDatabase</title><rect fill="#FFFFFF" height="39.8781" style="stroke:#000000;stroke-width:1;" width="10" x="1423.9053" y="664.7908"/></g><g><title>HiveDatabase</title><rect fill="#FFFFFF" height="39.8781" style="stroke:#000000;stroke-width:1;" width="10" x="1423.9053" y="965.5392"/></g><g><title>TimeBlockService</title><rect fill="#FFFFFF" height="252.2684" style="stroke:#000000;stroke-width:1;" width="10" x="1600.6951" y="832.9049"/></g><g><title>NotificationService</title><rect fill="#FFFFFF" height="92.7561" style="stroke:#000000;stroke-width:1;" width="10" x="1814.5049" y="1180.5314"/></g><rect fill="#FFFFFF" height="3" style="stroke:#FFFFFF;stroke-width:1;" width="2039.7334" x="5" y="210.7882"/><line style="stroke:#000000;stroke-width:0.5;" x1="5" x2="2044.7334" y1="210.7882" y2="210.7882"/><line style="stroke:#000000;stroke-width:0.5;" x1="5" x2="2044.7334" y1="213.7882" y2="213.7882"/><rect fill="#FFFFFF" height="35.24" style="stroke:#000000;stroke-width:1;" width="304.9597" x="872.3869" y="194.1682"/><text fill="#000000" font-family="Verdana" font-size="20" font-weight="bold" lengthAdjust="spacing" textLength="285.7597" x="878.3869" y="219.5482">Creaci&#243;n de Nueva Actividad</text><g class="message" data-participant-1="user" data-participant-2="screen"><polygon fill="#000000" points="365.9068,267.2862,375.9068,271.2862,365.9068,275.2862,369.9068,271.2862" style="stroke:#000000;stroke-width:1;"/><line style="stroke:#000000;stroke-width:1;" x1="64.65" x2="371.9068" y1="271.2862" y2="271.2862"/><text fill="#000000" font-family="Verdana" font-size="19" lengthAdjust="spacing" textLength="188.9745" x="126.7911" y="263.7192">Tap "Crear Actividad"</text></g><g class="message" data-participant-1="screen" data-participant-2="dialog"><polygon fill="#000000" points="645.5934,307.1643,655.5934,311.1643,645.5934,315.1643,649.5934,311.1643" style="stroke:#000000;stroke-width:1;"/><line style="stroke:#000000;stroke-width:1;" x1="387.9068" x2="651.5934" y1="311.1643" y2="311.1643"/><text fill="#000000" font-family="Verdana" font-size="19" lengthAdjust="spacing" textLength="250.6866" x="397.4068" y="303.5973">Mostrar di&#225;logo de creaci&#243;n</text></g><g class="message" data-participant-1="dialog" data-participant-2="user"><polygon fill="#000000" points="75.65,347.0424,65.65,351.0424,75.65,355.0424,71.65,351.0424" style="stroke:#000000;stroke-width:1;"/><line style="stroke:#000000;stroke-width:1;stroke-dasharray:2,2;" x1="69.65" x2="661.5934" y1="351.0424" y2="351.0424"/><text fill="#000000" font-family="Verdana" font-size="19" lengthAdjust="spacing" textLength="210.5775" x="258.3329" y="343.4754">Formulario con campos</text></g><g class="message" data-participant-1="user" data-participant-2="dialog"><polygon fill="#000000" points="645.5934,386.9205,655.5934,390.9205,645.5934,394.9205,649.5934,390.9205" style="stroke:#000000;stroke-width:1;"/><line style="stroke:#000000;stroke-width:1;" x1="64.65" x2="651.5934" y1="390.9205" y2="390.9205"/><text fill="#000000" font-family="Verdana" font-size="19" lengthAdjust="spacing" textLength="285.7607" x="218.2413" y="383.3534">Completar formulario y guardar</text></g><g class="message" data-participant-1="dialog" data-participant-2="dialog"><line style="stroke:#000000;stroke-width:1;" x1="667.5934" x2="709.5934" y1="430.7985" y2="430.7985"/><line style="stroke:#000000;stroke-width:1;" x1="709.5934" x2="709.5934" y1="430.7985" y2="443.7985"/><line style="stroke:#000000;stroke-width:1;" x1="668.5934" x2="709.5934" y1="443.7985" y2="443.7985"/><polygon fill="#000000" points="678.5934,439.7985,668.5934,443.7985,678.5934,447.7985,674.5934,443.7985" style="stroke:#000000;stroke-width:1;"/><text fill="#000000" font-family="Verdana" font-size="19" lengthAdjust="spacing" textLength="116.7933" x="674.5934" y="423.2315">Validar datos</text></g><path d="M15,458.7985 L86.62,458.7985 L86.62,478.0385 L76.62,488.0385 L15,488.0385 L15,458.7985" fill="#FFFFFF" style="stroke:#000000;stroke-width:1;"/><rect fill="none" height="1071.1194" style="stroke:#000000;stroke-width:1;" width="2019.7334" x="15" y="458.7985"/><text fill="#000000" font-family="Verdana" font-size="20" font-weight="bold" lengthAdjust="spacing" textLength="26.62" x="30" y="481.1785">alt</text><text fill="#000000" font-family="Verdana" font-size="20" font-weight="bold" lengthAdjust="spacing" textLength="146.7999" x="101.62" y="482.1785">[Datos v&#225;lidos]</text><g class="message" data-participant-1="dialog" data-participant-2="controller"><polygon fill="#000000" points="910.7261,528.1566,920.7261,532.1566,910.7261,536.1566,914.7261,532.1566" style="stroke:#000000;stroke-width:1;"/><line style="stroke:#000000;stroke-width:1;" x1="667.5934" x2="916.7261" y1="532.1566" y2="532.1566"/><text fill="#000000" font-family="Verdana" font-size="19" lengthAdjust="spacing" textLength="236.1327" x="677.0934" y="524.5895">createActivity(activityData)</text></g><g class="message" data-participant-1="controller" data-participant-2="controller"><line style="stroke:#000000;stroke-width:1;" x1="932.7261" x2="974.7261" y1="572.0346" y2="572.0346"/><line style="stroke:#000000;stroke-width:1;" x1="974.7261" x2="974.7261" y1="572.0346" y2="585.0346"/><line style="stroke:#000000;stroke-width:1;" x1="933.7261" x2="974.7261" y1="585.0346" y2="585.0346"/><polygon fill="#000000" points="943.7261,581.0346,933.7261,585.0346,943.7261,589.0346,939.7261,585.0346" style="stroke:#000000;stroke-width:1;"/><text fill="#000000" font-family="Verdana" font-size="19" lengthAdjust="spacing" textLength="203.8515" x="939.7261" y="564.4676">Preparar ActivityModel</text></g><g class="message" data-participant-1="controller" data-participant-2="repo"><polygon fill="#000000" points="1148.5776,620.9127,1158.5776,624.9127,1148.5776,628.9127,1152.5776,624.9127" style="stroke:#000000;stroke-width:1;"/><line style="stroke:#000000;stroke-width:1;" x1="932.7261" x2="1154.5776" y1="624.9127" y2="624.9127"/><text fill="#000000" font-family="Verdana" font-size="19" lengthAdjust="spacing" textLength="172.1975" x="960.5531" y="617.3457">addActivity(activity)</text></g><g class="message" data-participant-1="repo" data-participant-2="hive"><polygon fill="#000000" points="1411.9053,660.7908,1421.9053,664.7908,1411.9053,668.7908,1415.9053,664.7908" style="stroke:#000000;stroke-width:1;"/><line style="stroke:#000000;stroke-width:1;" x1="1170.5776" x2="1417.9053" y1="664.7908" y2="664.7908"/><text fill="#000000" font-family="Verdana" font-size="19" lengthAdjust="spacing" textLength="234.3276" x="1180.0776" y="657.2238">saveActivity(activityModel)</text></g><g class="message" data-participant-1="hive" data-participant-2="repo"><polygon fill="#000000" points="1181.5776,700.6688,1171.5776,704.6688,1181.5776,708.6688,1177.5776,704.6688" style="stroke:#000000;stroke-width:1;"/><line style="stroke:#000000;stroke-width:1;stroke-dasharray:2,2;" x1="1175.5776" x2="1427.9053" y1="704.6688" y2="704.6688"/><text fill="#000000" font-family="Verdana" font-size="19" lengthAdjust="spacing" textLength="115.7863" x="1241.8483" y="697.1018">activitySaved</text></g><g class="message" data-participant-1="repo" data-participant-2="controller"><polygon fill="#000000" points="943.7261,740.5469,933.7261,744.5469,943.7261,748.5469,939.7261,744.5469" style="stroke:#000000;stroke-width:1;"/><line style="stroke:#000000;stroke-width:1;stroke-dasharray:2,2;" x1="937.7261" x2="1164.5776" y1="744.5469" y2="744.5469"/><text fill="#000000" font-family="Verdana" font-size="19" lengthAdjust="spacing" textLength="68.0012" x="1015.1513" y="736.9799">success</text></g><path d="M819.7062,759.5469 L898.5262,759.5469 L898.5262,778.7869 L888.5262,788.7869 L819.7062,788.7869 L819.7062,759.5469" fill="#FFFFFF" style="stroke:#000000;stroke-width:1;"/><rect fill="none" height="333.6265" style="stroke:#000000;stroke-width:1;" width="968.6643" x="819.7062" y="759.5469"/><text fill="#000000" font-family="Verdana" font-size="20" font-weight="bold" lengthAdjust="spacing" textLength="33.82" x="834.7062" y="781.9269">opt</text><text fill="#000000" font-family="Verdana" font-size="20" font-weight="bold" lengthAdjust="spacing" textLength="387.9597" x="913.5262" y="782.9269">[Generar TimeBlock autom&#225;ticamente]</text><g class="message" data-participant-1="controller" data-participant-2="timeService"><polygon fill="#000000" points="1588.6951,828.9049,1598.6951,832.9049,1588.6951,836.9049,1592.6951,832.9049" style="stroke:#000000;stroke-width:1;"/><line style="stroke:#000000;stroke-width:1;" x1="932.7261" x2="1594.6951" y1="832.9049" y2="832.9049"/><text fill="#000000" font-family="Verdana" font-size="19" lengthAdjust="spacing" textLength="358.037" x="1087.6921" y="825.3379">generateTimeBlockFromActivity(activity)</text></g><g class="message" data-participant-1="timeService" data-participant-2="timeService"><line style="stroke:#000000;stroke-width:1;" x1="1610.6951" x2="1652.6951" y1="872.783" y2="872.783"/><line style="stroke:#000000;stroke-width:1;" x1="1652.6951" x2="1652.6951" y1="872.783" y2="885.783"/><line style="stroke:#000000;stroke-width:1;" x1="1611.6951" x2="1652.6951" y1="885.783" y2="885.783"/><polygon fill="#000000" points="1621.6951,881.783,1611.6951,885.783,1621.6951,889.783,1617.6951,885.783" style="stroke:#000000;stroke-width:1;"/><text fill="#000000" font-family="Verdana" font-size="19" lengthAdjust="spacing" textLength="148.6754" x="1617.6951" y="865.216">calcularHorario()</text></g><g class="message" data-participant-1="timeService" data-participant-2="repo"><polygon fill="#000000" points="1181.5776,921.6611,1171.5776,925.6611,1181.5776,929.6611,1177.5776,925.6611" style="stroke:#000000;stroke-width:1;"/><line style="stroke:#000000;stroke-width:1;" x1="1175.5776" x2="1599.6951" y1="925.6611" y2="925.6611"/><text fill="#000000" font-family="Verdana" font-size="19" lengthAdjust="spacing" textLength="231.7436" x="1269.7646" y="918.0941">saveTimeBlock(timeBlock)</text></g><g class="message" data-participant-1="repo" data-participant-2="hive"><polygon fill="#000000" points="1411.9053,961.5392,1421.9053,965.5392,1411.9053,969.5392,1415.9053,965.5392" style="stroke:#000000;stroke-width:1;"/><line style="stroke:#000000;stroke-width:1;" x1="1170.5776" x2="1417.9053" y1="965.5392" y2="965.5392"/><text fill="#000000" font-family="Verdana" font-size="19" lengthAdjust="spacing" textLength="143.4884" x="1225.4973" y="957.9722">saveTimeBlock()</text></g><g class="message" data-participant-1="hive" data-participant-2="repo"><polygon fill="#000000" points="1181.5776,1001.4172,1171.5776,1005.4172,1181.5776,1009.4172,1177.5776,1005.4172" style="stroke:#000000;stroke-width:1;"/><line style="stroke:#000000;stroke-width:1;stroke-dasharray:2,2;" x1="1175.5776" x2="1427.9053" y1="1005.4172" y2="1005.4172"/><text fill="#000000" font-family="Verdana" font-size="19" lengthAdjust="spacing" textLength="51.8131" x="1273.8349" y="997.8502">saved</text></g><g class="message" data-participant-1="repo" data-participant-2="timeService"><polygon fill="#000000" points="1588.6951,1041.2953,1598.6951,1045.2953,1588.6951,1049.2953,1592.6951,1045.2953" style="stroke:#000000;stroke-width:1;"/><line style="stroke:#000000;stroke-width:1;stroke-dasharray:2,2;" x1="1165.5776" x2="1594.6951" y1="1045.2953" y2="1045.2953"/><text fill="#000000" font-family="Verdana" font-size="19" lengthAdjust="spacing" textLength="158.7454" x="1303.7636" y="1037.7283">timeBlockCreated</text></g><g class="message" data-participant-1="timeService" data-participant-2="controller"><polygon fill="#000000" points="943.7261,1081.1734,933.7261,1085.1734,943.7261,1089.1734,939.7261,1085.1734" style="stroke:#000000;stroke-width:1;"/><line style="stroke:#000000;stroke-width:1;stroke-dasharray:2,2;" x1="937.7261" x2="1604.6951" y1="1085.1734" y2="1085.1734"/><text fill="#000000" font-family="Verdana" font-size="19" lengthAdjust="spacing" textLength="183.0275" x="1177.6968" y="1077.6064">timeBlockGenerated</text></g><path d="M819.7062,1107.1734 L898.5262,1107.1734 L898.5262,1126.4134 L888.5262,1136.4134 L819.7062,1136.4134 L819.7062,1107.1734" fill="#FFFFFF" style="stroke:#000000;stroke-width:1;"/><rect fill="none" height="174.1142" style="stroke:#000000;stroke-width:1;" width="1205.0272" x="819.7062" y="1107.1734"/><text fill="#000000" font-family="Verdana" font-size="20" font-weight="bold" lengthAdjust="spacing" textLength="33.82" x="834.7062" y="1129.5534">opt</text><text fill="#000000" font-family="Verdana" font-size="20" font-weight="bold" lengthAdjust="spacing" textLength="233.9798" x="913.5262" y="1130.5534">[Recordatorio activado]</text><g class="message" data-participant-1="controller" data-participant-2="notifService"><polygon fill="#000000" points="1802.5049,1176.5314,1812.5049,1180.5314,1802.5049,1184.5314,1806.5049,1180.5314" style="stroke:#000000;stroke-width:1;"/><line style="stroke:#000000;stroke-width:1;" x1="932.7261" x2="1808.5049" y1="1180.5314" y2="1180.5314"/><text fill="#000000" font-family="Verdana" font-size="19" lengthAdjust="spacing" textLength="305.0838" x="1221.0736" y="1172.9644">scheduleActivityReminder(activity)</text></g><g class="message" data-participant-1="notifService" data-participant-2="notifService"><line style="stroke:#000000;stroke-width:1;" x1="1824.5049" x2="1866.5049" y1="1220.4095" y2="1220.4095"/><line style="stroke:#000000;stroke-width:1;" x1="1866.5049" x2="1866.5049" y1="1220.4095" y2="1233.4095"/><line style="stroke:#000000;stroke-width:1;" x1="1825.5049" x2="1866.5049" y1="1233.4095" y2="1233.4095"/><polygon fill="#000000" points="1835.5049,1229.4095,1825.5049,1233.4095,1835.5049,1237.4095,1831.5049,1233.4095" style="stroke:#000000;stroke-width:1;"/><text fill="#000000" font-family="Verdana" font-size="19" lengthAdjust="spacing" textLength="171.2285" x="1831.5049" y="1212.8425">createNotification()</text></g><g class="message" data-participant-1="notifService" data-participant-2="controller"><polygon fill="#000000" points="943.7261,1269.2876,933.7261,1273.2876,943.7261,1277.2876,939.7261,1273.2876" style="stroke:#000000;stroke-width:1;"/><line style="stroke:#000000;stroke-width:1;stroke-dasharray:2,2;" x1="937.7261" x2="1818.5049" y1="1273.2876" y2="1273.2876"/><text fill="#000000" font-family="Verdana" font-size="19" lengthAdjust="spacing" textLength="175.9595" x="1288.1358" y="1265.7206">reminderScheduled</text></g><g class="message" data-participant-1="controller" data-participant-2="dialog"><polygon fill="#000000" points="678.5934,1316.1656,668.5934,1320.1656,678.5934,1324.1656,674.5934,1320.1656" style="stroke:#000000;stroke-width:1;"/><line style="stroke:#000000;stroke-width:1;stroke-dasharray:2,2;" x1="672.5934" x2="926.7261" y1="1320.1656" y2="1320.1656"/><text fill="#000000" font-family="Verdana" font-size="19" lengthAdjust="spacing" textLength="133.1334" x="731.0931" y="1312.5986">activityCreated</text></g><g class="message" data-participant-1="dialog" data-participant-2="screen"><polygon fill="#000000" points="398.9068,1356.0437,388.9068,1360.0437,398.9068,1364.0437,394.9068,1360.0437" style="stroke:#000000;stroke-width:1;"/><line style="stroke:#000000;stroke-width:1;" x1="392.9068" x2="661.5934" y1="1360.0437" y2="1360.0437"/><text fill="#000000" font-family="Verdana" font-size="19" lengthAdjust="spacing" textLength="114.2473" x="468.1265" y="1352.4767">closeDialog()</text></g><g class="message" data-participant-1="screen" data-participant-2="screen"><line style="stroke:#000000;stroke-width:1;" x1="387.9068" x2="429.9068" y1="1399.9218" y2="1399.9218"/><line style="stroke:#000000;stroke-width:1;" x1="429.9068" x2="429.9068" y1="1399.9218" y2="1412.9218"/><line style="stroke:#000000;stroke-width:1;" x1="388.9068" x2="429.9068" y1="1412.9218" y2="1412.9218"/><polygon fill="#000000" points="398.9068,1408.9218,388.9068,1412.9218,398.9068,1416.9218,394.9068,1412.9218" style="stroke:#000000;stroke-width:1;"/><text fill="#000000" font-family="Verdana" font-size="19" lengthAdjust="spacing" textLength="185.8775" x="394.9068" y="1392.3548">refreshActivitiesList()</text></g><g class="message" data-participant-1="screen" data-participant-2="user"><polygon fill="#000000" points="75.65,1448.7999,65.65,1452.7999,75.65,1456.7999,71.65,1452.7999" style="stroke:#000000;stroke-width:1;"/><line style="stroke:#000000;stroke-width:1;stroke-dasharray:2,2;" x1="69.65" x2="381.9068" y1="1452.7999" y2="1452.7999"/><text fill="#000000" font-family="Verdana" font-size="19" lengthAdjust="spacing" textLength="289.2568" x="79.15" y="1445.2329">"Actividad creada exitosamente"</text></g><line style="stroke:#000000;stroke-width:1;stroke-dasharray:2,2;" x1="15" x2="2034.7334" y1="1461.7999" y2="1461.7999"/><text fill="#000000" font-family="Verdana" font-size="20" font-weight="bold" lengthAdjust="spacing" textLength="165.7798" x="20" y="1483.1799">[Datos inv&#225;lidos]</text><g class="message" data-participant-1="dialog" data-participant-2="user"><polygon fill="#000000" points="75.65,1517.9179,65.65,1521.9179,75.65,1525.9179,71.65,1521.9179" style="stroke:#000000;stroke-width:1;"/><line style="stroke:#000000;stroke-width:1;stroke-dasharray:2,2;" x1="69.65" x2="661.5934" y1="1521.9179" y2="1521.9179"/><text fill="#000000" font-family="Verdana" font-size="19" lengthAdjust="spacing" textLength="263.5497" x="231.8469" y="1514.3509">Mostrar errores de validaci&#243;n</text></g><!--SRC=[bLVDSjis4BxpAH3r4FlW6KcsRCKpxWmjYOawjgEHb1mwlI30Ia9D4Ie0AdOxVOeyGHuWfpw2NwmBa2B17tLg7ZGaiBlVOlVRNUYDsS0Mo2wc8Wc2jsGaavLOfueoyV9FGZxEbjFxwQ_XE2HdP0vnlio1KBq3PYJfNv-J4owsa6WX4z1azV932qRrDUbTThjF_OjkT_Tq6hpXi189aF5iId0fq8p6GBRqoOcHhuARZRTerSW6n7fZWa0_YcH75TsIBvGzhfLC4pwIiLJafyWzdWJ2q3GsaKpCGlm9fD_rDl7N22PsD3aYeE6F5186zw0rNKCOYtL262G6L8jKg9JyMXZglMiHcSCAb7qfnOQUM29DPSTb00-6SRG2X0kdRl3RY9tKDl9CRdSOQRleMQAO34N-2WW-j_KeJSwZVZJEzgJYeFBrthkhot7VhLilyjNk-E8gx0L_1-sHEmOIdKy6qQ09SdNRYy86o4NOknYEgY0CjvMCZm942D5j0aI3gr6tMmUON0vwk5e1uDJGBrJ3qJWDey5as4Gu7mudvwCwGkzsCEax12CCydOiw1fHg4tI0fZDlw1ODoC5PTs4p8Yzu9J_baHn-hl4V6ztCM0buUOifebOOVKuSSk6c___eFGid2-de-aiV5XE5g_KpWZK-QHJgeJiO86JL2Fj_SntCk-D0BrW2Y1nOjgzLWNjcGtauiyOcLYkdJ1thwrMdqTP_cDGJfGLd-tYSy2A4EZrinDN-1aK6Uvy47iOvrzkVuCBLKDBR5ktiMIF2r1xmJ8nWulvTrNwGHgN6uDzpbT8xFf1uzKfY-u-_VAHpERJ1vktEqkN-IGSJL- -FP3nX8IZvVJpT1oENsduvgPAkuSKzhGa7zeA0fjUSlPpdZzoJPPqbsLEbP8TImonnsGUyXpaygYP9HCrxwKs2jMuUFcEAuxCx81VMiYJdwkTeGNdmpLMbTgciIMUpJfX55kS3ZZKDGkV2-IyV11xLTfu9cjaCQUg0LrWUoO-qnXFgcntGD20neQCxIlPus44npLR-ALYoKjKPXMYdz03uv5vfqwlyC2ZirrtFvwfkk4Pyfcg8XNc-LvoY5kqBEzHddBUyABcWQkG0jlfeRwj2zJNTDyyXiEiMN5rP5USufddGQwqG4iyYnaqjJpi-f5roXWEthfgrUstv3qaSBYWqDJ8xSjth5BNTekA9YTonx1GQUwzt9bSJtb2dlRM3bGdseomrnBGoxKpOw0m4ocvFHBwIk3ypdBOB5vyZ0OaNekOfVO7gIo_JqwFgUMPiBait3inXxSMduhO7c54QQL5kSXf6njqmO9ZJAWGeNhWmkLiZhJQgRZU7f0wmGgpx_CSjXgkvmaIxjDlfgGRyohh_6vQkvjl2-NcmF0UWSt4TgKCWCiZBFFdY8qVsm1FOoYdtLOaU2NvBuPLHj5XjsAtYPCrC7-uUQckwjR3gNAN5hchhT5i-5G9fny2loSV3kddtpFQralB1bqCD1PB3Tdb8pzKSwGK-kLOA_GLhF0glYblFNT2czpIGRmSOfrolDgWSahW2QydEkijdJf-FauTFiHuPSc6ZaXQnqu9SvYrWFy-x1y5R7jxDy6oOTj-IXlqVm40]--></g></svg>