<svg xmlns="http://www.w3.org/2000/svg" xmlns:xlink="http://www.w3.org/1999/xlink" contentStyleType="text/css" data-diagram-type="DESCRIPTION" height="726px" preserveAspectRatio="none" style="width:1153px;height:726px;background:#FFFFFF;" version="1.1" viewBox="0 0 1153 726" width="1153px" zoomAndPan="magnify"><title>Diagrama de Casos de Uso - Dashboard y An&#225;lisis
M&#243;dulo de Visualizaci&#243;n y An&#225;lisis de Productividad</title><defs/><g><g class="title" data-source-line="44"><text fill="#000000" font-family="Verdana" font-size="22" font-weight="bold" lengthAdjust="spacing" textLength="535.1078" x="304.6061" y="38.5181">Diagrama de Casos de Uso - Dashboard y An&#225;lisis</text><text fill="#000000" font-family="Verdana" font-size="22" font-weight="bold" lengthAdjust="spacing" textLength="564.0599" x="290.1301" y="68.4822">M&#243;dulo de Visualizaci&#243;n y An&#225;lisis de Productividad</text></g><!--cluster TempoSage System--><g class="cluster" data-entity="TempoSage System" data-source-line="55" data-uid="ent0004" id="cluster_TempoSage System"><rect fill="#FFFFFF" height="461.76" rx="2.5" ry="2.5" style="stroke:#000000;stroke-width:1;" width="1086" x="61.32" y="258.8582"/><text fill="#000000" font-family="Verdana" font-size="20" font-weight="bold" lengthAdjust="spacing" textLength="193.4998" x="507.5701" y="282.2382">TempoSage System</text></g><!--cluster dashboard--><g class="cluster" data-entity="dashboard" data-source-line="57" data-uid="ent0005" id="cluster_dashboard"><path d="M746.82,315.9182 L856.1799,315.9182 A3.75,3.75 0 0 1 858.6799,318.4182 L865.6799,349.1582 L1120.82,349.1582 A2.5,2.5 0 0 1 1123.32,351.6582 L1123.32,694.1182 A2.5,2.5 0 0 1 1120.82,696.6182 L746.82,696.6182 A2.5,2.5 0 0 1 744.32,694.1182 L744.32,318.4182 A2.5,2.5 0 0 1 746.82,315.9182" fill="#E8F5E8" style="stroke:#388E3C;stroke-width:1;"/><line style="stroke:#388E3C;stroke-width:1;" x1="744.32" x2="865.6799" y1="349.1582" y2="349.1582"/><text fill="#1B5E20" font-family="Verdana" font-size="20" font-weight="bold" lengthAdjust="spacing" textLength="108.3599" x="748.32" y="339.2982">Dashboard</text><text fill="#1B5E20" font-family="Verdana" font-size="20" font-style="italic" lengthAdjust="spacing" textLength="60.02" x="907.81" y="372.5382">&#171;Core&#187;</text></g><!--cluster sync--><g class="cluster" data-entity="sync" data-source-line="63" data-uid="ent0009" id="cluster_sync"><path d="M87.82,312.8582 L233.1999,312.8582 A3.75,3.75 0 0 1 235.6999,315.3582 L242.6999,346.0982 L717.82,346.0982 A2.5,2.5 0 0 1 720.32,348.5982 L720.32,497.5482 A2.5,2.5 0 0 1 717.82,500.0482 L87.82,500.0482 A2.5,2.5 0 0 1 85.32,497.5482 L85.32,315.3582 A2.5,2.5 0 0 1 87.82,312.8582" fill="#FFEBEE" style="stroke:#C62828;stroke-width:1;"/><line style="stroke:#C62828;stroke-width:1;" x1="85.32" x2="242.6999" y1="346.0982" y2="346.0982"/><text fill="#B71C1C" font-family="Verdana" font-size="20" font-weight="bold" lengthAdjust="spacing" textLength="144.3799" x="89.32" y="336.2382">Sincronizaci&#243;n</text><text fill="#B71C1C" font-family="Verdana" font-size="20" font-style="italic" lengthAdjust="spacing" textLength="81.28" x="366.18" y="369.4782">&#171;System&#187;</text></g><!--entity UC_ViewDashboard--><g class="entity" data-entity="UC_ViewDashboard" data-source-line="58" data-uid="ent0006" id="entity_UC_ViewDashboard"><ellipse cx="848.3181" cy="434.9558" fill="#C8E6C9" rx="88.3881" ry="36.0676" style="stroke:#2E7D32;stroke-width:1;"/><text fill="#1B5E20" font-family="Verdana" font-size="19" font-style="italic" lengthAdjust="spacing" textLength="57.0192" x="819.8086" y="426.1639">&#171;Core&#187;</text><text fill="#1B5E20" font-family="Verdana" font-size="19" lengthAdjust="spacing" textLength="133.6464" x="781.495" y="452.0419">Ver Dashboard</text></g><!--entity UC_AnalyzeProductivity--><g class="entity" data-entity="UC_AnalyzeProductivity" data-source-line="59" data-uid="ent0007" id="entity_UC_AnalyzeProductivity"><ellipse cx="845.3245" cy="627.8235" fill="#C8E6C9" rx="82.3445" ry="52.7853" style="stroke:#2E7D32;stroke-width:1;"/><text fill="#1B5E20" font-family="Verdana" font-size="19" font-style="italic" lengthAdjust="spacing" textLength="57.0192" x="816.8149" y="603.7411">&#171;Core&#187;</text><text fill="#1B5E20" font-family="Verdana" font-size="19" lengthAdjust="spacing" textLength="71.7822" x="809.4334" y="629.6192">Analizar</text><text fill="#1B5E20" font-family="Verdana" font-size="19" lengthAdjust="spacing" textLength="123.7283" x="783.4603" y="655.4973">Productividad</text></g><!--entity UC_ViewGoalProgress--><g class="entity" data-entity="UC_ViewGoalProgress" data-source-line="60" data-uid="ent0008" id="entity_UC_ViewGoalProgress"><ellipse cx="1039.3172" cy="434.9538" fill="#C8E6C9" rx="67.6272" ry="46.0356" style="stroke:#2E7D32;stroke-width:1;"/><text fill="#1B5E20" font-family="Verdana" font-size="19" font-style="italic" lengthAdjust="spacing" textLength="57.0192" x="1010.8076" y="418.7101">&#171;Core&#187;</text><text fill="#1B5E20" font-family="Verdana" font-size="19" lengthAdjust="spacing" textLength="116.5843" x="981.025" y="444.5881">Ver Progreso</text><text fill="#1B5E20" font-family="Verdana" font-size="19" lengthAdjust="spacing" textLength="54.5682" x="1012.0331" y="470.4662">Metas</text></g><!--entity UC_ExportData--><g class="entity" data-entity="UC_ExportData" data-source-line="64" data-uid="ent0010" id="entity_UC_ExportData"><ellipse cx="191.3197" cy="434.96" fill="#FFCDD2" rx="90.1597" ry="36.6818" style="stroke:#D32F2F;stroke-width:1;"/><text fill="#B71C1C" font-family="Verdana" font-size="19" font-style="italic" lengthAdjust="spacing" textLength="77.2162" x="152.7116" y="427.1409">&#171;System&#187;</text><text fill="#B71C1C" font-family="Verdana" font-size="19" lengthAdjust="spacing" textLength="133.9314" x="124.354" y="453.019">Exportar Datos</text></g><!--entity UC_ImportData--><g class="entity" data-entity="UC_ImportData" data-source-line="65" data-uid="ent0011" id="entity_UC_ImportData"><ellipse cx="408.3184" cy="434.9592" fill="#FFCDD2" rx="92.3084" ry="36.611" style="stroke:#D32F2F;stroke-width:1;"/><text fill="#B71C1C" font-family="Verdana" font-size="19" font-style="italic" lengthAdjust="spacing" textLength="77.2162" x="369.7103" y="427.0292">&#171;System&#187;</text><text fill="#B71C1C" font-family="Verdana" font-size="19" lengthAdjust="spacing" textLength="137.5224" x="339.5573" y="452.9073">Importar Datos</text></g><!--entity UC_SyncCalendar--><g class="entity" data-entity="UC_SyncCalendar" data-source-line="66" data-uid="ent0012" id="entity_UC_SyncCalendar"><ellipse cx="620.3194" cy="434.9616" fill="#FFCDD2" rx="84.2894" ry="49.0933" style="stroke:#D32F2F;stroke-width:1;"/><text fill="#B71C1C" font-family="Verdana" font-size="19" font-style="italic" lengthAdjust="spacing" textLength="77.2162" x="581.7113" y="416.7768">&#171;System&#187;</text><text fill="#B71C1C" font-family="Verdana" font-size="19" lengthAdjust="spacing" textLength="136.9144" x="551.8622" y="442.6549">Sincronizar con</text><text fill="#B71C1C" font-family="Verdana" font-size="19" lengthAdjust="spacing" textLength="96.6152" x="572.0118" y="468.5329">Calendario</text></g><!--entity user--><g class="entity" data-entity="user" data-source-line="49" data-uid="ent0002" id="entity_user"><ellipse cx="514.3251" cy="114.9182" fill="#E3F2FD" rx="8" ry="8" style="stroke:#1976D2;stroke-width:1;"/><path d="M514.3251,122.9182 L514.3251,149.9182 M501.3251,130.9182 L527.3251,130.9182 M514.3251,149.9182 L501.3251,164.9182 M514.3251,149.9182 L527.3251,164.9182" fill="none" style="stroke:#1976D2;stroke-width:1;"/><text fill="#0D47A1" font-family="Verdana" font-size="22" lengthAdjust="spacing" textLength="80.6303" x="474.01" y="190.4363">Usuario</text></g><!--entity database--><g class="entity" data-entity="database" data-source-line="50" data-uid="ent0003" id="entity_database"><ellipse cx="173.3192" cy="99.9282" fill="#E3F2FD" rx="8" ry="8" style="stroke:#1976D2;stroke-width:1;"/><path d="M173.3192,107.9282 L173.3192,134.9282 M160.3192,115.9282 L186.3192,115.9282 M173.3192,134.9282 L160.3192,149.9282 M173.3192,134.9282 L186.3192,149.9282" fill="none" style="stroke:#1976D2;stroke-width:1;"/><text fill="#0D47A1" font-family="Verdana" font-size="22" lengthAdjust="spacing" textLength="147.1585" x="99.74" y="175.4463">Base de Datos</text><text fill="#0D47A1" font-family="Verdana" font-size="22" lengthAdjust="spacing" textLength="53.4162" x="99.74" y="205.4104">Local</text></g><!--link user to UC_ViewDashboard--><g class="link" data-entity-1="user" data-entity-2="UC_ViewDashboard" data-source-line="73" data-uid="lnk13" id="link_user_UC_ViewDashboard"><path d="M555,164.8382 C599.28,179.8882 670.44,208.5582 720.32,250.8582 C770.17,293.1282 807.0376,353.7782 828.3376,393.9182" fill="none" id="user-to-UC_ViewDashboard" style="stroke:#000000;stroke-width:1;"/><polygon fill="#000000" points="831.15,399.2182,830.4647,389.3932,828.8063,394.8015,823.398,393.1431,831.15,399.2182" style="stroke:#000000;stroke-width:1;"/></g><!--link user to UC_AnalyzeProductivity--><g class="link" data-entity-1="user" data-entity-2="UC_AnalyzeProductivity" data-source-line="74" data-uid="lnk14" id="link_user_UC_AnalyzeProductivity"><path d="M473.68,162.3182 C424.25,174.3182 338.27,195.0082 264.32,211.8582 C184.94,229.9482 136.4,187.4582 85.32,250.8582 C13.62,339.8782 11,421.2082 85.32,508.0482 C171.83,609.1282 578.0704,624.7513 756.5904,626.7413" fill="none" id="user-to-UC_AnalyzeProductivity" style="stroke:#000000;stroke-width:1;"/><polygon fill="#000000" points="762.59,626.8082,753.6351,622.7081,757.5903,626.7525,753.546,630.7076,762.59,626.8082" style="stroke:#000000;stroke-width:1;"/></g><!--link user to UC_ViewGoalProgress--><g class="link" data-entity-1="user" data-entity-2="UC_ViewGoalProgress" data-source-line="75" data-uid="lnk15" id="link_user_UC_ViewGoalProgress"><path d="M555.14,156.8982 C652.03,168.3082 892.45,201.0182 954.32,250.8582 C997.31,285.4882 1018.0807,340.996 1028.8607,383.066" fill="none" id="user-to-UC_ViewGoalProgress" style="stroke:#000000;stroke-width:1;"/><polygon fill="#000000" points="1030.35,388.8782,1031.9908,379.167,1029.1089,384.0347,1024.2412,381.1528,1030.35,388.8782" style="stroke:#000000;stroke-width:1;"/></g><!--link user to UC_ExportData--><g class="link" data-entity-1="user" data-entity-2="UC_ExportData" data-source-line="77" data-uid="lnk16" id="link_user_UC_ExportData"><path d="M473.51,162.8482 C426.66,176.5382 349.69,204.4382 298.32,250.8582 C252.57,292.2082 223.1401,352.2701 206.7001,392.7001" fill="none" id="user-to-UC_ExportData" style="stroke:#000000;stroke-width:1;"/><polygon fill="#000000" points="204.44,398.2582,211.5355,391.4278,206.3234,393.6265,204.1247,388.4144,204.44,398.2582" style="stroke:#000000;stroke-width:1;"/></g><!--link user to UC_ImportData--><g class="link" data-entity-1="user" data-entity-2="UC_ImportData" data-source-line="78" data-uid="lnk17" id="link_user_UC_ImportData"><path d="M497.41,197.3182 C476.37,253.2182 442.9841,341.883 423.7641,392.933" fill="none" id="user-to-UC_ImportData" style="stroke:#000000;stroke-width:1;"/><polygon fill="#000000" points="421.65,398.5482,428.5646,391.5348,423.4117,393.8689,421.0777,388.716,421.65,398.5482" style="stroke:#000000;stroke-width:1;"/></g><!--link user to UC_SyncCalendar--><g class="link" data-entity-1="user" data-entity-2="UC_SyncCalendar" data-source-line="79" data-uid="lnk18" id="link_user_UC_SyncCalendar"><path d="M531.24,197.3182 C550.76,249.1782 580.6053,328.4632 600.4753,381.2232" fill="none" id="user-to-UC_SyncCalendar" style="stroke:#000000;stroke-width:1;"/><polygon fill="#000000" points="602.59,386.8382,603.1613,377.0059,600.8278,382.159,595.6747,379.8255,602.59,386.8382" style="stroke:#000000;stroke-width:1;"/></g><!--link database to UC_ExportData--><g class="link" data-entity-1="database" data-entity-2="UC_ExportData" data-source-line="81" data-uid="lnk19" id="link_database_UC_ExportData"><path d="M177.14,212.1082 C180.74,268.4482 185.6369,345.0704 188.6369,391.9604" fill="none" id="database-to-UC_ExportData" style="stroke:#000000;stroke-width:1;"/><polygon fill="#000000" points="189.02,397.9482,192.4372,388.7112,188.7008,392.9584,184.4535,389.222,189.02,397.9482" style="stroke:#000000;stroke-width:1;"/></g><!--link database to UC_ImportData--><g class="link" data-entity-1="database" data-entity-2="UC_ImportData" data-source-line="82" data-uid="lnk20" id="link_database_UC_ImportData"><path d="M247.31,202.8382 C265.49,217.1382 284.09,233.5682 299.32,250.8582 C339.8,296.7982 370.8793,354.466 389.6493,393.306" fill="none" id="database-to-UC_ImportData" style="stroke:#000000;stroke-width:1;"/><polygon fill="#000000" points="392.26,398.7082,391.9454,388.8644,390.0844,394.2063,384.7424,392.3453,392.26,398.7082" style="stroke:#000000;stroke-width:1;"/></g><!--link UC_ViewDashboard to UC_AnalyzeProductivity--><g class="link" data-entity-1="UC_ViewDashboard" data-entity-2="UC_AnalyzeProductivity" data-source-line="85" data-uid="lnk21" id="link_UC_ViewDashboard_UC_AnalyzeProductivity"><path d="M847.77,471.4082 C847.31,500.4082 846.7551,535.839 846.2351,568.639" fill="none" id="UC_ViewDashboard-to-UC_AnalyzeProductivity" style="stroke:#000000;stroke-width:1;stroke-dasharray:7,7;"/><polygon fill="#000000" points="846.14,574.6382,850.2822,565.7027,846.2193,569.6388,842.2832,565.5759,846.14,574.6382" style="stroke:#000000;stroke-width:1;"/><text fill="#000000" font-family="Verdana" font-size="20" lengthAdjust="spacing" textLength="88.5799" x="848" y="538.4282">&#171;include&#187;</text></g><!--SRC=[bLLDRjf05Dxx51EwQBj8X4qII9GYcR6fa98cYaaMLQHgOazW53E3PiODKEKmFK1NEG8NwnlRO6EC4homqFk-x_q_Sw37T4BHD2QCMzPdX0L_OgD4af0jtpYwlXaEhWO_NSz5X-YMnhaveeYeAGsrGFQvZRv4R4AvOe9JXPwM_nGBYJf7JhFPd9dNTFRLEeZe4-CKUJS3TDniMYeaCKKJCajfw8L5UbmrZYaRZRLbgMV6fqII2NeauVD8YeH7MCH2ea_zz2an80n9OjqNN0TiGS5H2KmKXSpe6hJFIY21ScIXSqhG5CAI4IqxhGhH7ml1qwicwBVwJj_BC24ZAdExVTO-zPpKRjpcrgPtt7PjwzNQ3buVuE822qcxNGZKwP_udMgW0czrEduBRmOiKBjtuaDL-mGEvahJYH7t-txFzxT35mnywdISJZLuWVVQDhRnPlXyME_LZJl-AJxRNRVZjxsMiq_TxmGkruszV8OxweR8CFwFrAsPXjNt61b12iHS62PAAFFZJWcuFe-eyQCWCa9pvFBbtvWffXxurV8jIc9XUFTC9IHcY_n8IpI3taWH9Q5clrb48dFgtpx-0Dl5m-jRFzXJbvr6umuIaqmquAjXkYjNzfvfC-Jc4IsWbai1zv-I8gB98u3xvnaCWg5_vUwfa_0j8tm44sWCwMGg0hFtsPWQ-HwahzL9DDRJQA3rCgLvhuQKYSopMgV6FPLeX-uE_xfdz6MDRejTdevMFl2DGMwvCRpvWXOaFQ_F11WZIPM05QAQgDfylWiIvpoLUdcjQKN0U2W5N-sTSRHUS72bvZoiwuO_cmgfYSo6NrL10Xa1KB8j7apU4MU4Ud6Hi4IXu0ySmxyEZx8DtV8KGFuhGjw3r_tNyjQ_TF7W-iVU5sJE1HqUThTNf8pKJRsgt1Zc1bhgTDbSwc7PlD4GQtMfDRwgKCaVD670mpY9gBAgXQ6ZerqreNEO3yk4tQxr7m00]--></g></svg>