<svg xmlns="http://www.w3.org/2000/svg" xmlns:xlink="http://www.w3.org/1999/xlink" contentStyleType="text/css" data-diagram-type="SEQUENCE" height="2052px" preserveAspectRatio="none" style="width:2272px;height:2052px;background:#FFFFFF;" version="1.1" viewBox="0 0 2272 2052" width="2272px" zoomAndPan="magnify"><title>Diagrama de Secuencia - Obtenci&#243;n de Recomendaciones
Sistema de IA y Recomendaciones Inteligentes</title><defs/><g><text fill="#000000" font-family="Verdana" font-size="22" font-weight="bold" lengthAdjust="spacing" textLength="625.3522" x="822.1102" y="38.5181">Diagrama de Secuencia - Obtenci&#243;n de Recomendaciones</text><text fill="#000000" font-family="Verdana" font-size="22" font-weight="bold" lengthAdjust="spacing" textLength="511.5677" x="879.0024" y="68.4822">Sistema de IA y Recomendaciones Inteligentes</text><g><title>DashboardScreen</title><rect fill="#FFFFFF" height="1679.9137" style="stroke:#000000;stroke-width:1;" width="10" x="462.4759" y="271.2862"/></g><g><title>DashboardScreen</title><rect fill="#FFFFFF" height="279.1465" style="stroke:#000000;stroke-width:1;" width="10" x="467.4759" y="1656.0534"/></g><g><title>RecommendationController</title><rect fill="#FFFFFF" height="1021.1957" style="stroke:#000000;stroke-width:1;" width="10" x="869.4849" y="311.1643"/></g><g><title>RecommendationController</title><rect fill="#FFFFFF" height="199.3904" style="stroke:#000000;stroke-width:1;" width="10" x="869.4849" y="1695.9315"/></g><g><title>RecommendationService</title><rect fill="#FFFFFF" height="569.5369" style="stroke:#000000;stroke-width:1;" width="10" x="1249.3779" y="670.067"/></g><g><title>ActivityRepository</title><rect fill="#FFFFFF" height="119.6342" style="stroke:#000000;stroke-width:1;" width="10" x="1535.3565" y="351.0424"/></g><g><title>ActivityRepository</title><rect fill="#FFFFFF" height="119.6342" style="stroke:#000000;stroke-width:1;" width="10" x="1535.3565" y="1735.8096"/></g><g><title>HabitRepository</title><rect fill="#FFFFFF" height="119.6342" style="stroke:#000000;stroke-width:1;" width="10" x="1739.1064" y="510.5547"/></g><g><title>TempoSageApiService</title><rect fill="#FFFFFF" height="145.6342" style="stroke:#000000;stroke-width:1;" width="10" x="1962.9062" y="868.5793"/></g><g><title>TempoSageApiService</title><rect fill="#FFFFFF" height="92.7561" style="stroke:#000000;stroke-width:1;" width="10" x="1962.9062" y="1054.0916"/></g><g><title>HiveDatabase</title><rect fill="#FFFFFF" height="39.8781" style="stroke:#000000;stroke-width:1;" width="10" x="2172.5426" y="390.9205"/></g><g><title>HiveDatabase</title><rect fill="#FFFFFF" height="39.8781" style="stroke:#000000;stroke-width:1;" width="10" x="2172.5426" y="550.4328"/></g><g><title>HiveDatabase</title><rect fill="#FFFFFF" height="39.8781" style="stroke:#000000;stroke-width:1;" width="10" x="2172.5426" y="1775.6876"/></g><rect fill="#FFFFFF" height="360.5045" style="stroke:#000000;stroke-width:1;" width="2240.5725" x="15" y="1582.6954"/><g><title>Usuario</title><rect fill="#000000" fill-opacity="0.00000" height="1786.0318" width="8" x="60.65" y="174.1682"/><line style="stroke:#000000;stroke-width:1;stroke-dasharray:5,5;" x1="64" x2="64" y1="174.1682" y2="1960.1999"/></g><g><title>DashboardScreen</title><rect fill="#000000" fill-opacity="0.00000" height="1786.0318" width="8" x="463.4759" y="174.1682"/><line style="stroke:#000000;stroke-width:1;stroke-dasharray:5,5;" x1="466.626" x2="466.626" y1="174.1682" y2="1960.1999"/></g><g><title>RecommendationController</title><rect fill="#000000" fill-opacity="0.00000" height="1786.0318" width="8" x="870.4849" y="174.1682"/><line style="stroke:#000000;stroke-width:1;stroke-dasharray:5,5;" x1="873.8051" x2="873.8051" y1="174.1682" y2="1960.1999"/></g><g><title>RecommendationService</title><rect fill="#000000" fill-opacity="0.00000" height="1786.0318" width="8" x="1250.3779" y="174.1682"/><line style="stroke:#000000;stroke-width:1;stroke-dasharray:5,5;" x1="1253.608" x2="1253.608" y1="174.1682" y2="1960.1999"/></g><g><title>ActivityRepository</title><rect fill="#000000" fill-opacity="0.00000" height="1786.0318" width="8" x="1536.3565" y="174.1682"/><line style="stroke:#000000;stroke-width:1;stroke-dasharray:5,5;" x1="1540.2866" x2="1540.2866" y1="174.1682" y2="1960.1999"/></g><g><title>HabitRepository</title><rect fill="#000000" fill-opacity="0.00000" height="1786.0318" width="8" x="1740.1064" y="174.1682"/><line style="stroke:#000000;stroke-width:1;stroke-dasharray:5,5;" x1="1743.4264" x2="1743.4264" y1="174.1682" y2="1960.1999"/></g><g><title>TempoSageApiService</title><rect fill="#000000" fill-opacity="0.00000" height="1786.0318" width="8" x="1963.9062" y="174.1682"/><line style="stroke:#000000;stroke-width:1;stroke-dasharray:5,5;" x1="1967.7863" x2="1967.7863" y1="174.1682" y2="1960.1999"/></g><g><title>HiveDatabase</title><rect fill="#000000" fill-opacity="0.00000" height="1786.0318" width="8" x="2173.5426" y="174.1682"/><line style="stroke:#000000;stroke-width:1;stroke-dasharray:5,5;" x1="2177.5127" x2="2177.5127" y1="174.1682" y2="1960.1999"/></g><g class="participant participant-head" data-participant="user"><text fill="#0D47A1" font-family="Verdana" font-size="20" lengthAdjust="spacing" textLength="73.2999" x="25" y="168.3082">Usuario</text><ellipse cx="64.65" cy="94.9282" fill="#E3F2FD" rx="8" ry="8" style="stroke:#1976D2;stroke-width:1;"/><path d="M64.65,102.9282 L64.65,129.9282 M51.65,110.9282 L77.65,110.9282 M64.65,129.9282 L51.65,144.9282 M64.65,129.9282 L77.65,144.9282" fill="none" style="stroke:#1976D2;stroke-width:1;"/></g><g class="participant participant-tail" data-participant="user"><text fill="#0D47A1" font-family="Verdana" font-size="20" lengthAdjust="spacing" textLength="73.2999" x="25" y="1980.5799">Usuario</text><ellipse cx="64.65" cy="1995.4399" fill="#E3F2FD" rx="8" ry="8" style="stroke:#1976D2;stroke-width:1;"/><path d="M64.65,2003.4399 L64.65,2030.4399 M51.65,2011.4399 L77.65,2011.4399 M64.65,2030.4399 L51.65,2045.4399 M64.65,2030.4399 L77.65,2045.4399" fill="none" style="stroke:#1976D2;stroke-width:1;"/></g><g class="participant participant-head" data-participant="dashboard"><rect fill="#F3E5F5" height="41.24" rx="2.5" ry="2.5" style="stroke:#7B1FA2;stroke-width:1;" width="181.6998" x="376.626" y="131.9282"/><text fill="#4A148C" font-family="Verdana" font-size="20" lengthAdjust="spacing" textLength="167.6998" x="383.626" y="160.3082">DashboardScreen</text></g><g class="participant participant-tail" data-participant="dashboard"><rect fill="#F3E5F5" height="41.24" rx="2.5" ry="2.5" style="stroke:#7B1FA2;stroke-width:1;" width="181.6998" x="376.626" y="1959.1999"/><text fill="#4A148C" font-family="Verdana" font-size="20" lengthAdjust="spacing" textLength="167.6998" x="383.626" y="1987.5799">DashboardScreen</text></g><g class="participant participant-head" data-participant="controller"><rect fill="#F3E5F5" height="41.24" rx="2.5" ry="2.5" style="stroke:#7B1FA2;stroke-width:1;" width="275.3597" x="736.8051" y="131.9282"/><text fill="#4A148C" font-family="Verdana" font-size="20" lengthAdjust="spacing" textLength="261.3597" x="743.8051" y="160.3082">RecommendationController</text></g><g class="participant participant-tail" data-participant="controller"><rect fill="#F3E5F5" height="41.24" rx="2.5" ry="2.5" style="stroke:#7B1FA2;stroke-width:1;" width="275.3597" x="736.8051" y="1959.1999"/><text fill="#4A148C" font-family="Verdana" font-size="20" lengthAdjust="spacing" textLength="261.3597" x="743.8051" y="1987.5799">RecommendationController</text></g><g class="participant participant-head" data-participant="service"><rect fill="#F3E5F5" height="41.24" rx="2.5" ry="2.5" style="stroke:#7B1FA2;stroke-width:1;" width="247.5397" x="1130.608" y="131.9282"/><text fill="#4A148C" font-family="Verdana" font-size="20" lengthAdjust="spacing" textLength="233.5397" x="1137.608" y="160.3082">RecommendationService</text></g><g class="participant participant-tail" data-participant="service"><rect fill="#F3E5F5" height="41.24" rx="2.5" ry="2.5" style="stroke:#7B1FA2;stroke-width:1;" width="247.5397" x="1130.608" y="1959.1999"/><text fill="#4A148C" font-family="Verdana" font-size="20" lengthAdjust="spacing" textLength="233.5397" x="1137.608" y="1987.5799">RecommendationService</text></g><g class="participant participant-head" data-participant="activityRepo"><rect fill="#F3E5F5" height="41.24" rx="2.5" ry="2.5" style="stroke:#7B1FA2;stroke-width:1;" width="182.1398" x="1449.2866" y="131.9282"/><text fill="#4A148C" font-family="Verdana" font-size="20" lengthAdjust="spacing" textLength="168.1398" x="1456.2866" y="160.3082">ActivityRepository</text></g><g class="participant participant-tail" data-participant="activityRepo"><rect fill="#F3E5F5" height="41.24" rx="2.5" ry="2.5" style="stroke:#7B1FA2;stroke-width:1;" width="182.1398" x="1449.2866" y="1959.1999"/><text fill="#4A148C" font-family="Verdana" font-size="20" lengthAdjust="spacing" textLength="168.1398" x="1456.2866" y="1987.5799">ActivityRepository</text></g><g class="participant participant-head" data-participant="habitRepo"><rect fill="#F3E5F5" height="41.24" rx="2.5" ry="2.5" style="stroke:#7B1FA2;stroke-width:1;" width="165.3598" x="1661.4264" y="131.9282"/><text fill="#4A148C" font-family="Verdana" font-size="20" lengthAdjust="spacing" textLength="151.3598" x="1668.4264" y="160.3082">HabitRepository</text></g><g class="participant participant-tail" data-participant="habitRepo"><rect fill="#F3E5F5" height="41.24" rx="2.5" ry="2.5" style="stroke:#7B1FA2;stroke-width:1;" width="165.3598" x="1661.4264" y="1959.1999"/><text fill="#4A148C" font-family="Verdana" font-size="20" lengthAdjust="spacing" textLength="151.3598" x="1668.4264" y="1987.5799">HabitRepository</text></g><g class="participant participant-head" data-participant="api"><rect fill="#F3E5F5" height="41.24" rx="2.5" ry="2.5" style="stroke:#7B1FA2;stroke-width:1;" width="222.2398" x="1856.7863" y="131.9282"/><text fill="#4A148C" font-family="Verdana" font-size="20" lengthAdjust="spacing" textLength="208.2398" x="1863.7863" y="160.3082">TempoSageApiService</text></g><g class="participant participant-tail" data-participant="api"><rect fill="#F3E5F5" height="41.24" rx="2.5" ry="2.5" style="stroke:#7B1FA2;stroke-width:1;" width="222.2398" x="1856.7863" y="1959.1999"/><text fill="#4A148C" font-family="Verdana" font-size="20" lengthAdjust="spacing" textLength="208.2398" x="1863.7863" y="1987.5799">TempoSageApiService</text></g><g class="participant participant-head" data-participant="hive"><text fill="#000000" font-family="Verdana" font-size="20" lengthAdjust="spacing" textLength="130.0598" x="2109.5127" y="168.3082">HiveDatabase</text><path d="M2159.5426,110.9282 C2159.5426,100.9282 2177.5426,100.9282 2177.5426,100.9282 C2177.5426,100.9282 2195.5426,100.9282 2195.5426,110.9282 L2195.5426,136.9282 C2195.5426,146.9282 2177.5426,146.9282 2177.5426,146.9282 C2177.5426,146.9282 2159.5426,146.9282 2159.5426,136.9282 L2159.5426,110.9282" fill="#FFFFFF" style="stroke:#000000;stroke-width:1;"/><path d="M2159.5426,110.9282 C2159.5426,120.9282 2177.5426,120.9282 2177.5426,120.9282 C2177.5426,120.9282 2195.5426,120.9282 2195.5426,110.9282" fill="none" style="stroke:#000000;stroke-width:1;"/></g><g class="participant participant-tail" data-participant="hive"><text fill="#000000" font-family="Verdana" font-size="20" lengthAdjust="spacing" textLength="130.0598" x="2109.5127" y="1980.5799">HiveDatabase</text><path d="M2159.5426,1996.4399 C2159.5426,1986.4399 2177.5426,1986.4399 2177.5426,1986.4399 C2177.5426,1986.4399 2195.5426,1986.4399 2195.5426,1996.4399 L2195.5426,2022.4399 C2195.5426,2032.4399 2177.5426,2032.4399 2177.5426,2032.4399 C2177.5426,2032.4399 2159.5426,2032.4399 2159.5426,2022.4399 L2159.5426,1996.4399" fill="#FFFFFF" style="stroke:#000000;stroke-width:1;"/><path d="M2159.5426,1996.4399 C2159.5426,2006.4399 2177.5426,2006.4399 2177.5426,2006.4399 C2177.5426,2006.4399 2195.5426,2006.4399 2195.5426,1996.4399" fill="none" style="stroke:#000000;stroke-width:1;"/></g><g><title>DashboardScreen</title><rect fill="#FFFFFF" height="1679.9137" style="stroke:#000000;stroke-width:1;" width="10" x="462.4759" y="271.2862"/></g><g><title>DashboardScreen</title><rect fill="#FFFFFF" height="279.1465" style="stroke:#000000;stroke-width:1;" width="10" x="467.4759" y="1656.0534"/></g><g><title>RecommendationController</title><rect fill="#FFFFFF" height="1021.1957" style="stroke:#000000;stroke-width:1;" width="10" x="869.4849" y="311.1643"/></g><g><title>RecommendationController</title><rect fill="#FFFFFF" height="199.3904" style="stroke:#000000;stroke-width:1;" width="10" x="869.4849" y="1695.9315"/></g><g><title>RecommendationService</title><rect fill="#FFFFFF" height="569.5369" style="stroke:#000000;stroke-width:1;" width="10" x="1249.3779" y="670.067"/></g><g><title>ActivityRepository</title><rect fill="#FFFFFF" height="119.6342" style="stroke:#000000;stroke-width:1;" width="10" x="1535.3565" y="351.0424"/></g><g><title>ActivityRepository</title><rect fill="#FFFFFF" height="119.6342" style="stroke:#000000;stroke-width:1;" width="10" x="1535.3565" y="1735.8096"/></g><g><title>HabitRepository</title><rect fill="#FFFFFF" height="119.6342" style="stroke:#000000;stroke-width:1;" width="10" x="1739.1064" y="510.5547"/></g><g><title>TempoSageApiService</title><rect fill="#FFFFFF" height="145.6342" style="stroke:#000000;stroke-width:1;" width="10" x="1962.9062" y="868.5793"/></g><g><title>TempoSageApiService</title><rect fill="#FFFFFF" height="92.7561" style="stroke:#000000;stroke-width:1;" width="10" x="1962.9062" y="1054.0916"/></g><g><title>HiveDatabase</title><rect fill="#FFFFFF" height="39.8781" style="stroke:#000000;stroke-width:1;" width="10" x="2172.5426" y="390.9205"/></g><g><title>HiveDatabase</title><rect fill="#FFFFFF" height="39.8781" style="stroke:#000000;stroke-width:1;" width="10" x="2172.5426" y="550.4328"/></g><g><title>HiveDatabase</title><rect fill="#FFFFFF" height="39.8781" style="stroke:#000000;stroke-width:1;" width="10" x="2172.5426" y="1775.6876"/></g><rect fill="#FFFFFF" height="3" style="stroke:#FFFFFF;stroke-width:1;" width="2260.5725" x="5" y="210.7882"/><line style="stroke:#000000;stroke-width:0.5;" x1="5" x2="2265.5725" y1="210.7882" y2="210.7882"/><line style="stroke:#000000;stroke-width:0.5;" x1="5" x2="2265.5725" y1="213.7882" y2="213.7882"/><rect fill="#FFFFFF" height="35.24" style="stroke:#000000;stroke-width:1;" width="414.8597" x="927.8564" y="194.1682"/><text fill="#000000" font-family="Verdana" font-size="20" font-weight="bold" lengthAdjust="spacing" textLength="395.6597" x="933.8564" y="219.5482">Obtener Recomendaciones Inteligentes</text><g class="message" data-participant-1="user" data-participant-2="dashboard"><polygon fill="#000000" points="450.4759,267.2862,460.4759,271.2862,450.4759,275.2862,454.4759,271.2862" style="stroke:#000000;stroke-width:1;"/><line style="stroke:#000000;stroke-width:1;" x1="64.65" x2="456.4759" y1="271.2862" y2="271.2862"/><text fill="#000000" font-family="Verdana" font-size="19" lengthAdjust="spacing" textLength="148.1054" x="189.5103" y="263.7192">Abrir Dashboard</text></g><g class="message" data-participant-1="dashboard" data-participant-2="controller"><polygon fill="#000000" points="857.4849,307.1643,867.4849,311.1643,857.4849,315.1643,861.4849,311.1643" style="stroke:#000000;stroke-width:1;"/><line style="stroke:#000000;stroke-width:1;" x1="472.4759" x2="863.4849" y1="311.1643" y2="311.1643"/><text fill="#000000" font-family="Verdana" font-size="19" lengthAdjust="spacing" textLength="217.7216" x="562.1197" y="303.5973">loadRecommendations()</text></g><g class="message" data-participant-1="controller" data-participant-2="activityRepo"><polygon fill="#000000" points="1523.3565,347.0424,1533.3565,351.0424,1523.3565,355.0424,1527.3565,351.0424" style="stroke:#000000;stroke-width:1;"/><line style="stroke:#000000;stroke-width:1;" x1="879.4849" x2="1529.3565" y1="351.0424" y2="351.0424"/><text fill="#000000" font-family="Verdana" font-size="19" lengthAdjust="spacing" textLength="180.7855" x="1117.028" y="343.4754">getRecentActivities()</text></g><g class="message" data-participant-1="activityRepo" data-participant-2="hive"><polygon fill="#000000" points="2160.5426,386.9205,2170.5426,390.9205,2160.5426,394.9205,2164.5426,390.9205" style="stroke:#000000;stroke-width:1;"/><line style="stroke:#000000;stroke-width:1;" x1="1545.3565" x2="2166.5426" y1="390.9205" y2="390.9205"/><text fill="#000000" font-family="Verdana" font-size="19" lengthAdjust="spacing" textLength="260.7377" x="1728.5807" y="383.3534">queryRecentActivities(userId)</text></g><g class="message" data-participant-1="hive" data-participant-2="activityRepo"><polygon fill="#000000" points="1556.3565,426.7985,1546.3565,430.7985,1556.3565,434.7985,1552.3565,430.7985" style="stroke:#000000;stroke-width:1;"/><line style="stroke:#000000;stroke-width:1;stroke-dasharray:2,2;" x1="1550.3565" x2="2176.5426" y1="430.7985" y2="430.7985"/><text fill="#000000" font-family="Verdana" font-size="19" lengthAdjust="spacing" textLength="108.4903" x="1807.2044" y="423.2315">activitiesList</text></g><g class="message" data-participant-1="activityRepo" data-participant-2="controller"><polygon fill="#000000" points="890.4849,466.6766,880.4849,470.6766,890.4849,474.6766,886.4849,470.6766" style="stroke:#000000;stroke-width:1;"/><line style="stroke:#000000;stroke-width:1;stroke-dasharray:2,2;" x1="884.4849" x2="1539.3565" y1="470.6766" y2="470.6766"/><text fill="#000000" font-family="Verdana" font-size="19" lengthAdjust="spacing" textLength="116.6793" x="1151.5811" y="463.1096">List&lt;Activity&gt;</text></g><g class="message" data-participant-1="controller" data-participant-2="habitRepo"><polygon fill="#000000" points="1727.1064,506.5547,1737.1064,510.5547,1727.1064,514.5547,1731.1064,510.5547" style="stroke:#000000;stroke-width:1;"/><line style="stroke:#000000;stroke-width:1;" x1="879.4849" x2="1733.1064" y1="510.5547" y2="510.5547"/><text fill="#000000" font-family="Verdana" font-size="19" lengthAdjust="spacing" textLength="151.3354" x="1233.6279" y="502.9877">getActiveHabits()</text></g><g class="message" data-participant-1="habitRepo" data-participant-2="hive"><polygon fill="#000000" points="2160.5426,546.4328,2170.5426,550.4328,2160.5426,554.4328,2164.5426,550.4328" style="stroke:#000000;stroke-width:1;"/><line style="stroke:#000000;stroke-width:1;" x1="1749.1064" x2="2166.5426" y1="550.4328" y2="550.4328"/><text fill="#000000" font-family="Verdana" font-size="19" lengthAdjust="spacing" textLength="231.2876" x="1845.1807" y="542.8657">queryActiveHabits(userId)</text></g><g class="message" data-participant-1="hive" data-participant-2="habitRepo"><polygon fill="#000000" points="1760.1064,586.3108,1750.1064,590.3108,1760.1064,594.3108,1756.1064,590.3108" style="stroke:#000000;stroke-width:1;"/><line style="stroke:#000000;stroke-width:1;stroke-dasharray:2,2;" x1="1754.1064" x2="2176.5426" y1="590.3108" y2="590.3108"/><text fill="#000000" font-family="Verdana" font-size="19" lengthAdjust="spacing" textLength="85.7662" x="1920.4414" y="582.7438">habitsList</text></g><g class="message" data-participant-1="habitRepo" data-participant-2="controller"><polygon fill="#000000" points="890.4849,626.1889,880.4849,630.1889,890.4849,634.1889,886.4849,630.1889" style="stroke:#000000;stroke-width:1;"/><line style="stroke:#000000;stroke-width:1;stroke-dasharray:2,2;" x1="884.4849" x2="1743.1064" y1="630.1889" y2="630.1889"/><text fill="#000000" font-family="Verdana" font-size="19" lengthAdjust="spacing" textLength="100.7383" x="1261.4265" y="622.6219">List&lt;Habit&gt;</text></g><g class="message" data-participant-1="controller" data-participant-2="service"><polygon fill="#000000" points="1237.3779,666.067,1247.3779,670.067,1237.3779,674.067,1241.3779,670.067" style="stroke:#000000;stroke-width:1;"/><line style="stroke:#000000;stroke-width:1;" x1="879.4849" x2="1243.3779" y1="670.067" y2="670.067"/><text fill="#000000" font-family="Verdana" font-size="19" lengthAdjust="spacing" textLength="350.8929" x="888.9849" y="662.5">getRecommendations(activities, habits)</text></g><g class="message" data-participant-1="service" data-participant-2="service"><line style="stroke:#000000;stroke-width:1;" x1="1259.3779" x2="1301.3779" y1="709.945" y2="709.945"/><line style="stroke:#000000;stroke-width:1;" x1="1301.3779" x2="1301.3779" y1="709.945" y2="722.945"/><line style="stroke:#000000;stroke-width:1;" x1="1260.3779" x2="1301.3779" y1="722.945" y2="722.945"/><polygon fill="#000000" points="1270.3779,718.945,1260.3779,722.945,1270.3779,726.945,1266.3779,722.945" style="stroke:#000000;stroke-width:1;"/><text fill="#000000" font-family="Verdana" font-size="19" lengthAdjust="spacing" textLength="195.5295" x="1266.3779" y="702.378">analyzeUserPatterns()</text></g><g class="message" data-participant-1="service" data-participant-2="service"><line style="stroke:#000000;stroke-width:1;" x1="1259.3779" x2="1301.3779" y1="762.8231" y2="762.8231"/><line style="stroke:#000000;stroke-width:1;" x1="1301.3779" x2="1301.3779" y1="762.8231" y2="775.8231"/><line style="stroke:#000000;stroke-width:1;" x1="1260.3779" x2="1301.3779" y1="775.8231" y2="775.8231"/><polygon fill="#000000" points="1270.3779,771.8231,1260.3779,775.8231,1270.3779,779.8231,1266.3779,775.8231" style="stroke:#000000;stroke-width:1;"/><text fill="#000000" font-family="Verdana" font-size="19" lengthAdjust="spacing" textLength="251.9787" x="1266.3779" y="755.2561">calcularPatronesDeTiempo()</text></g><g class="message" data-participant-1="service" data-participant-2="service"><line style="stroke:#000000;stroke-width:1;" x1="1259.3779" x2="1301.3779" y1="815.7012" y2="815.7012"/><line style="stroke:#000000;stroke-width:1;" x1="1301.3779" x2="1301.3779" y1="815.7012" y2="828.7012"/><line style="stroke:#000000;stroke-width:1;" x1="1260.3779" x2="1301.3779" y1="828.7012" y2="828.7012"/><polygon fill="#000000" points="1270.3779,824.7012,1260.3779,828.7012,1270.3779,832.7012,1266.3779,828.7012" style="stroke:#000000;stroke-width:1;"/><text fill="#000000" font-family="Verdana" font-size="19" lengthAdjust="spacing" textLength="236.2276" x="1266.3779" y="808.1342">identificarOportunidades()</text></g><g class="message" data-participant-1="service" data-participant-2="api"><polygon fill="#000000" points="1950.9062,864.5793,1960.9062,868.5793,1950.9062,872.5793,1954.9062,868.5793" style="stroke:#000000;stroke-width:1;"/><line style="stroke:#000000;stroke-width:1;" x1="1259.3779" x2="1956.9062" y1="868.5793" y2="868.5793"/><text fill="#000000" font-family="Verdana" font-size="19" lengthAdjust="spacing" textLength="261.9157" x="1480.1842" y="861.0123">predictProductivity(userData)</text></g><g class="message" data-participant-1="api" data-participant-2="api"><line style="stroke:#000000;stroke-width:1;" x1="1972.9062" x2="2014.9062" y1="908.4573" y2="908.4573"/><line style="stroke:#000000;stroke-width:1;" x1="2014.9062" x2="2014.9062" y1="908.4573" y2="921.4573"/><line style="stroke:#000000;stroke-width:1;" x1="1973.9062" x2="2014.9062" y1="921.4573" y2="921.4573"/><polygon fill="#000000" points="1983.9062,917.4573,1973.9062,921.4573,1983.9062,925.4573,1979.9062,921.4573" style="stroke:#000000;stroke-width:1;"/><text fill="#000000" font-family="Verdana" font-size="19" lengthAdjust="spacing" textLength="141.8544" x="1979.9062" y="900.8903">procesarDatos()</text></g><g class="message" data-participant-1="api" data-participant-2="api"><line style="stroke:#000000;stroke-width:1;" x1="1972.9062" x2="2014.9062" y1="961.3354" y2="961.3354"/><line style="stroke:#000000;stroke-width:1;" x1="2014.9062" x2="2014.9062" y1="961.3354" y2="974.3354"/><line style="stroke:#000000;stroke-width:1;" x1="1973.9062" x2="2014.9062" y1="974.3354" y2="974.3354"/><polygon fill="#000000" points="1983.9062,970.3354,1973.9062,974.3354,1983.9062,978.3354,1979.9062,974.3354" style="stroke:#000000;stroke-width:1;"/><text fill="#000000" font-family="Verdana" font-size="19" lengthAdjust="spacing" textLength="175.6364" x="1979.9062" y="953.7684">generarPrediccion()</text></g><g class="message" data-participant-1="api" data-participant-2="service"><polygon fill="#000000" points="1270.3779,1010.2135,1260.3779,1014.2135,1270.3779,1018.2135,1266.3779,1014.2135" style="stroke:#000000;stroke-width:1;"/><line style="stroke:#000000;stroke-width:1;stroke-dasharray:2,2;" x1="1264.3779" x2="1966.9062" y1="1014.2135" y2="1014.2135"/><text fill="#000000" font-family="Verdana" font-size="19" lengthAdjust="spacing" textLength="197.0115" x="1515.1363" y="1006.6465">ProductivityPrediction</text></g><g class="message" data-participant-1="service" data-participant-2="api"><polygon fill="#000000" points="1950.9062,1050.0916,1960.9062,1054.0916,1950.9062,1058.0916,1954.9062,1054.0916" style="stroke:#000000;stroke-width:1;"/><line style="stroke:#000000;stroke-width:1;" x1="1259.3779" x2="1956.9062" y1="1054.0916" y2="1054.0916"/><text fill="#000000" font-family="Verdana" font-size="19" lengthAdjust="spacing" textLength="306.9838" x="1457.6501" y="1046.5246">suggestOptimalTime(userContext)</text></g><g class="message" data-participant-1="api" data-participant-2="api"><line style="stroke:#000000;stroke-width:1;" x1="1972.9062" x2="2014.9062" y1="1093.9696" y2="1093.9696"/><line style="stroke:#000000;stroke-width:1;" x1="2014.9062" x2="2014.9062" y1="1093.9696" y2="1106.9696"/><line style="stroke:#000000;stroke-width:1;" x1="1973.9062" x2="2014.9062" y1="1106.9696" y2="1106.9696"/><polygon fill="#000000" points="1983.9062,1102.9696,1973.9062,1106.9696,1983.9062,1110.9696,1979.9062,1106.9696" style="stroke:#000000;stroke-width:1;"/><text fill="#000000" font-family="Verdana" font-size="19" lengthAdjust="spacing" textLength="156.4464" x="1979.9062" y="1086.4026">analizarHistorial()</text></g><g class="message" data-participant-1="api" data-participant-2="service"><polygon fill="#000000" points="1270.3779,1142.8477,1260.3779,1146.8477,1270.3779,1150.8477,1266.3779,1146.8477" style="stroke:#000000;stroke-width:1;"/><line style="stroke:#000000;stroke-width:1;stroke-dasharray:2,2;" x1="1264.3779" x2="1966.9062" y1="1146.8477" y2="1146.8477"/><text fill="#000000" font-family="Verdana" font-size="19" lengthAdjust="spacing" textLength="225.0176" x="1501.1332" y="1139.2807">OptimalTimeSuggestions</text></g><g class="message" data-participant-1="service" data-participant-2="service"><line style="stroke:#000000;stroke-width:1;" x1="1259.3779" x2="1301.3779" y1="1186.7258" y2="1186.7258"/><line style="stroke:#000000;stroke-width:1;" x1="1301.3779" x2="1301.3779" y1="1186.7258" y2="1199.7258"/><line style="stroke:#000000;stroke-width:1;" x1="1260.3779" x2="1301.3779" y1="1199.7258" y2="1199.7258"/><polygon fill="#000000" points="1270.3779,1195.7258,1260.3779,1199.7258,1270.3779,1203.7258,1266.3779,1199.7258" style="stroke:#000000;stroke-width:1;"/><text fill="#000000" font-family="Verdana" font-size="19" lengthAdjust="spacing" textLength="245.4047" x="1266.3779" y="1179.1588">generarRecomendaciones()</text></g><g class="message" data-participant-1="service" data-participant-2="controller"><polygon fill="#000000" points="890.4849,1235.6039,880.4849,1239.6039,890.4849,1243.6039,886.4849,1239.6039" style="stroke:#000000;stroke-width:1;"/><line style="stroke:#000000;stroke-width:1;stroke-dasharray:2,2;" x1="884.4849" x2="1253.3779" y1="1239.6039" y2="1239.6039"/><text fill="#000000" font-family="Verdana" font-size="19" lengthAdjust="spacing" textLength="213.6176" x="960.1226" y="1232.0369">RecommendationResult</text></g><g class="message" data-participant-1="controller" data-participant-2="controller"><line style="stroke:#000000;stroke-width:1;" x1="879.4849" x2="921.4849" y1="1279.4819" y2="1279.4819"/><line style="stroke:#000000;stroke-width:1;" x1="921.4849" x2="921.4849" y1="1279.4819" y2="1292.4819"/><line style="stroke:#000000;stroke-width:1;" x1="880.4849" x2="921.4849" y1="1292.4819" y2="1292.4819"/><polygon fill="#000000" points="890.4849,1288.4819,880.4849,1292.4819,890.4849,1296.4819,886.4849,1292.4819" style="stroke:#000000;stroke-width:1;"/><text fill="#000000" font-family="Verdana" font-size="19" lengthAdjust="spacing" textLength="252.6627" x="886.4849" y="1271.9149">procesarRecomendaciones()</text></g><g class="message" data-participant-1="controller" data-participant-2="dashboard"><polygon fill="#000000" points="483.4759,1328.36,473.4759,1332.36,483.4759,1336.36,479.4759,1332.36" style="stroke:#000000;stroke-width:1;"/><line style="stroke:#000000;stroke-width:1;stroke-dasharray:2,2;" x1="477.4759" x2="873.4849" y1="1332.36" y2="1332.36"/><text fill="#000000" font-family="Verdana" font-size="19" lengthAdjust="spacing" textLength="229.8056" x="558.5776" y="1324.793">recommendationsLoaded</text></g><g class="message" data-participant-1="dashboard" data-participant-2="dashboard"><line style="stroke:#000000;stroke-width:1;" x1="472.4759" x2="514.4759" y1="1372.2381" y2="1372.2381"/><line style="stroke:#000000;stroke-width:1;" x1="514.4759" x2="514.4759" y1="1372.2381" y2="1385.2381"/><line style="stroke:#000000;stroke-width:1;" x1="473.4759" x2="514.4759" y1="1385.2381" y2="1385.2381"/><polygon fill="#000000" points="483.4759,1381.2381,473.4759,1385.2381,483.4759,1389.2381,479.4759,1385.2381" style="stroke:#000000;stroke-width:1;"/><text fill="#000000" font-family="Verdana" font-size="19" lengthAdjust="spacing" textLength="245.7657" x="479.4759" y="1364.6711">mostrarRecomendaciones()</text></g><g class="message" data-participant-1="dashboard" data-participant-2="user"><polygon fill="#000000" points="75.65,1421.1162,65.65,1425.1162,75.65,1429.1162,71.65,1425.1162" style="stroke:#000000;stroke-width:1;"/><line style="stroke:#000000;stroke-width:1;stroke-dasharray:2,2;" x1="69.65" x2="461.4759" y1="1425.1162" y2="1425.1162"/><text fill="#000000" font-family="Verdana" font-size="19" lengthAdjust="spacing" textLength="373.826" x="76.65" y="1417.5492">Mostrar recomendaciones personalizadas</text></g><path d="M1259,1438.1162 L1259,1570.1162 L1549,1570.1162 L1549,1448.1162 L1539,1438.1162 L1259,1438.1162" fill="#FFFFFF" style="stroke:#000000;stroke-width:1;"/><path d="M1539,1438.1162 L1539,1448.1162 L1549,1448.1162 L1539,1438.1162" fill="#FFFFFF" style="stroke:#000000;stroke-width:1;"/><text fill="#000000" font-family="Verdana" font-size="18" lengthAdjust="spacing" textLength="234.3586" x="1265" y="1462.358">Recomendaciones incluyen:</text><text fill="#000000" font-family="Verdana" font-size="18" lengthAdjust="spacing" textLength="269.8543" x="1265" y="1486.8739">- Mejor horario para actividades</text><text fill="#000000" font-family="Verdana" font-size="18" lengthAdjust="spacing" textLength="163.943" x="1265" y="1511.3897">- H&#225;bitos sugeridos</text><text fill="#000000" font-family="Verdana" font-size="18" lengthAdjust="spacing" textLength="246.5805" x="1265" y="1535.9056">- Predicci&#243;n de productividad</text><text fill="#000000" font-family="Verdana" font-size="18" lengthAdjust="spacing" textLength="212.7407" x="1265" y="1560.4214">- Optimizaci&#243;n de tiempo</text><path d="M15,1582.6954 L86.62,1582.6954 L86.62,1601.9354 L76.62,1611.9354 L15,1611.9354 L15,1582.6954" fill="#FFFFFF" style="stroke:#000000;stroke-width:1;"/><rect fill="none" height="360.5045" style="stroke:#000000;stroke-width:1;" width="2240.5725" x="15" y="1582.6954"/><text fill="#000000" font-family="Verdana" font-size="20" font-weight="bold" lengthAdjust="spacing" textLength="26.62" x="30" y="1605.0754">alt</text><text fill="#000000" font-family="Verdana" font-size="20" font-weight="bold" lengthAdjust="spacing" textLength="323.2997" x="101.62" y="1606.0754">[Usuario acepta recomendaci&#243;n]</text><g class="message" data-participant-1="user" data-participant-2="dashboard"><polygon fill="#000000" points="455.4759,1652.0534,465.4759,1656.0534,455.4759,1660.0534,459.4759,1656.0534" style="stroke:#000000;stroke-width:1;"/><line style="stroke:#000000;stroke-width:1;" x1="64.65" x2="461.4759" y1="1656.0534" y2="1656.0534"/><text fill="#000000" font-family="Verdana" font-size="19" lengthAdjust="spacing" textLength="262.5237" x="134.8011" y="1648.4864">Tap "Aplicar Recomendaci&#243;n"</text></g><g class="message" data-participant-1="dashboard" data-participant-2="controller"><polygon fill="#000000" points="857.4849,1691.9315,867.4849,1695.9315,857.4849,1699.9315,861.4849,1695.9315" style="stroke:#000000;stroke-width:1;"/><line style="stroke:#000000;stroke-width:1;" x1="477.4759" x2="863.4849" y1="1695.9315" y2="1695.9315"/><text fill="#000000" font-family="Verdana" font-size="19" lengthAdjust="spacing" textLength="373.009" x="486.9759" y="1688.3645">applyRecommendation(recommendation)</text></g><g class="message" data-participant-1="controller" data-participant-2="activityRepo"><polygon fill="#000000" points="1523.3565,1731.8096,1533.3565,1735.8096,1523.3565,1739.8096,1527.3565,1735.8096" style="stroke:#000000;stroke-width:1;"/><line style="stroke:#000000;stroke-width:1;" x1="879.4849" x2="1529.3565" y1="1735.8096" y2="1735.8096"/><text fill="#000000" font-family="Verdana" font-size="19" lengthAdjust="spacing" textLength="336.8899" x="1038.9758" y="1728.2426">createActivityFromRecommendation()</text></g><g class="message" data-participant-1="activityRepo" data-participant-2="hive"><polygon fill="#000000" points="2160.5426,1771.6876,2170.5426,1775.6876,2160.5426,1779.6876,2164.5426,1775.6876" style="stroke:#000000;stroke-width:1;"/><line style="stroke:#000000;stroke-width:1;" x1="1545.3565" x2="2166.5426" y1="1775.6876" y2="1775.6876"/><text fill="#000000" font-family="Verdana" font-size="19" lengthAdjust="spacing" textLength="115.6533" x="1801.1229" y="1768.1206">saveActivity()</text></g><g class="message" data-participant-1="hive" data-participant-2="activityRepo"><polygon fill="#000000" points="1556.3565,1811.5657,1546.3565,1815.5657,1556.3565,1819.5657,1552.3565,1815.5657" style="stroke:#000000;stroke-width:1;"/><line style="stroke:#000000;stroke-width:1;stroke-dasharray:2,2;" x1="1550.3565" x2="2176.5426" y1="1815.5657" y2="1815.5657"/><text fill="#000000" font-family="Verdana" font-size="19" lengthAdjust="spacing" textLength="51.8131" x="1835.543" y="1807.9987">saved</text></g><g class="message" data-participant-1="activityRepo" data-participant-2="controller"><polygon fill="#000000" points="890.4849,1851.4438,880.4849,1855.4438,890.4849,1859.4438,886.4849,1855.4438" style="stroke:#000000;stroke-width:1;"/><line style="stroke:#000000;stroke-width:1;stroke-dasharray:2,2;" x1="884.4849" x2="1539.3565" y1="1855.4438" y2="1855.4438"/><text fill="#000000" font-family="Verdana" font-size="19" lengthAdjust="spacing" textLength="133.1334" x="1143.3541" y="1847.8768">activityCreated</text></g><g class="message" data-participant-1="controller" data-participant-2="dashboard"><polygon fill="#000000" points="488.4759,1891.3219,478.4759,1895.3219,488.4759,1899.3219,484.4759,1895.3219" style="stroke:#000000;stroke-width:1;"/><line style="stroke:#000000;stroke-width:1;stroke-dasharray:2,2;" x1="482.4759" x2="873.4849" y1="1895.3219" y2="1895.3219"/><text fill="#000000" font-family="Verdana" font-size="19" lengthAdjust="spacing" textLength="222.2246" x="564.8682" y="1887.7549">recommendationApplied</text></g><g class="message" data-participant-1="dashboard" data-participant-2="user"><polygon fill="#000000" points="75.65,1931.1999,65.65,1935.1999,75.65,1939.1999,71.65,1935.1999" style="stroke:#000000;stroke-width:1;"/><line style="stroke:#000000;stroke-width:1;stroke-dasharray:2,2;" x1="69.65" x2="461.4759" y1="1935.1999" y2="1935.1999"/><text fill="#000000" font-family="Verdana" font-size="19" lengthAdjust="spacing" textLength="364.212" x="81.4569" y="1927.6329">"Recomendaci&#243;n aplicada exitosamente"</text></g><!--SRC=[bLRTRYet4BxtK_ZGYoPI8m7vFL5pf0q_2aT9G41kgjwOtG7Siwotjic1L7sOFa2l-WXviOwzosBlBhJX0e4ztynulc_i-QINi0AQnemdXFn8EoAPyyLQif2__vFGuMWwU1hy4dG3UaR74EVB4L2cKWYreEtRSteIyHKaYei459s__wruoDGjRLqrcvlsHREPRax9fmZcF07Q7GqeBX4LiXZeYcsi6VtE8xrq5WsCBe4lbfeGzOqdAPDiHMSi_BQGOfr47H4BIN_esuzZWM7OEjPzaUW9VmFQRZgR-Arvo5EM731GyFiQaX2UG2csW23cYuI6a6YGDLQ1bE9xuQZrkSPa37EGviVUxCOnIuJsTYm3U32iep6W4RTmZVyrJuKobG_5AiLAcqN74qCo9Fs3KFpSbwlKE- -t-zriJyW8PBxU-dnzrMtRTPD5ljhiNbm7BV8dgQ_SeI3zyzvb_x8QvFg-rGygGIw2riLDnmyIuhOKyS40VGpHh0ReNrvtciroWDxLPGjNlG0puut9xU48lVjUhngXSzM-QT-K8znVjpejUmJDDUgsoza2ep13qWH2mpzds3V3cJO_yyOP0n88c4Pe- -NNPCALXWmr2EYsR407o3JgC2CS1NBt_pzeFGh6qq5dC0gUfxt91z6PfXelQiqa5mtiURfMs0ck61fTffOpmMGq2IL0OgsYtPflQazcZwRnQ9sCxHYanOJ5tsEW2SXN7e95gEotRnw4chzolHq3jWl7_BVMbZdBFk21pRWkMIztQxxf5B3p9kPUIBcR24ivmVJOZ2b0X_mLklc_p1ikV9ou_kFBrw5Hp_sqzzmRqt6lCtpgFNU3pc3u_64gx-uo6O8ygY_qIOZXc9vzsRD8RsamarpIWcjYwyaqE5IJlJs2ztGYEXOiydbK9wTx7mxrnC6X5vSszBC0PCLSnpdB73m_7iaU55qP5j05NijoMt5YZZo875UMCmivgwR12k0ZzYw9m8VvaSkrC92VTohzueAzz4k5A1IPLS7YmKhNgy1Uk7j0wUmUz3_ExKQrl-iFxCIgFQqDvXrrdsVfd7bF5rnxajdN_QSy7IVptMr0TYuyRonXyVODNd1bn3G-vrQ1jQOuWuJhc1axQHga2rDk6l-GFOzGItoECuySfaBgTS8Z5bbbkW2y9D0ubH3nK8-aYDOvtPO4Ss6uIiORnG0Sd0X1CMCdBEFkviBqDIPiVPkktXbuURenCrDJLK-06BMQibel5g3qCDLynU8fZdesOtDzmqOVIzeKdRyn-O0Y49Apk3Oln_4a2sN8FfQNAn9xyjALvZ9L5gIlgJ4e71RTM8MCV5rwFdPaLCEweD8DAdqnF-AL294RsRq5lQlKzR8IIjSUs44Wn5xXj_GfiyvYErT-2bA9Z1p44MB6K2hDi4t5l2W1hJmLF0dZzHQIMzmxeq_m6uu7Io7DT93Dgrc7MlbRauVtlx1DSMv54O7aaSYMTqhDHwAqK2OYhO7L16PNc6ZRWWHpiJCp8IpMD1zCC2gachcdH9ITrkgUiYbBSKn8OzEmxWaHqx2WchVDBDklmsySIzDuwwlhnEVyrFVky5suF_hwuNo5kDtJqPTYLGfN2k2z9yLEzKbKxBNmMlPXxtUpSkWjDE2iFkLNeHgnKh9yjsCFLl5IoRzIegCj5Y0XlEgrhkorpTFmjO446yb4ZCB6I9gjpCJKABlVQmQHv5y0]--></g></svg>